<svg width="16" height="16" viewBox="0 0 16 16" fill="none" xmlns="http://www.w3.org/2000/svg">
<path fill-rule="evenodd" clip-rule="evenodd" d="M9.14501 2.00836C8.63626 1.10822 7.36439 1.10822 6.85564 2.00836L0.846048 12.6413C0.337299 13.5414 0.973234 14.6666 1.99073 14.6666H14.0099C15.0274 14.6666 15.6634 13.5414 15.1546 12.6413L9.14501 2.00836ZM8.66699 6.33602C8.66699 5.96783 8.36852 5.66935 8.00033 5.66935C7.63214 5.66935 7.33366 5.96783 7.33366 6.33602V9.00269C7.33366 9.37088 7.63214 9.66935 8.00033 9.66935C8.36852 9.66935 8.66699 9.37088 8.66699 9.00269V6.33602ZM8.00033 11.0027C7.63214 11.0027 7.33366 11.3012 7.33366 11.6694C7.33366 12.0375 7.63214 12.336 8.00033 12.336H8.00699C8.37518 12.336 8.67366 12.0375 8.67366 11.6694C8.67366 11.3012 8.37518 11.0027 8.00699 11.0027H8.00033Z" fill="#383E40"/>
</svg>
