<svg width="16" height="16" viewBox="0 0 16 16" fill="none" xmlns="http://www.w3.org/2000/svg">
<path fill-rule="evenodd" clip-rule="evenodd" d="M0.666992 8.00008C0.666992 3.94999 3.95023 0.666748 8.00033 0.666748C12.0504 0.666748 15.3337 3.94999 15.3337 8.00008C15.3337 12.0502 12.0504 15.3334 8.00033 15.3334C3.95023 15.3334 0.666992 12.0502 0.666992 8.00008ZM8.86257 4.90532C8.86257 4.42668 8.47454 4.03866 7.9959 4.03866C7.51725 4.03866 7.12923 4.42668 7.12923 4.90532V8.37199C7.12923 8.85064 7.51725 9.23866 7.9959 9.23866C8.47454 9.23866 8.86257 8.85064 8.86257 8.37199V4.90532ZM7.9959 10.972C7.51725 10.972 7.12923 11.36 7.12923 11.8387C7.12923 12.3173 7.51725 12.7053 7.9959 12.7053H8.00457C8.48321 12.7053 8.87123 12.3173 8.87123 11.8387C8.87123 11.36 8.48321 10.972 8.00457 10.972H7.9959Z" fill="#383E40"/>
</svg>
