<svg width="16" height="16" viewBox="0 0 16 16" fill="none" xmlns="http://www.w3.org/2000/svg">
<path d="M8.00016 5.33325V7.99992M8.00016 10.6666H8.00683M1.3335 5.68175V10.3181C1.3335 10.4812 1.3335 10.5627 1.35192 10.6394C1.36825 10.7074 1.39518 10.7725 1.43174 10.8321C1.47296 10.8994 1.53061 10.957 1.64592 11.0723L4.92774 14.3542C5.04304 14.4695 5.1007 14.5271 5.16797 14.5683C5.22762 14.6049 5.29265 14.6318 5.36067 14.6482C5.4374 14.6666 5.51893 14.6666 5.68199 14.6666H10.3183C10.4814 14.6666 10.5629 14.6666 10.6397 14.6482C10.7077 14.6318 10.7727 14.6049 10.8324 14.5683C10.8996 14.5271 10.9573 14.4695 11.0726 14.3542L14.3544 11.0723C14.4697 10.957 14.5274 10.8994 14.5686 10.8321C14.6051 10.7725 14.6321 10.7074 14.6484 10.6394C14.6668 10.5627 14.6668 10.4812 14.6668 10.3181V5.68175C14.6668 5.51869 14.6668 5.43716 14.6484 5.36043C14.6321 5.29241 14.6051 5.22738 14.5686 5.16773C14.5274 5.10045 14.4697 5.0428 14.3544 4.9275L11.0726 1.64567C10.9573 1.53037 10.8996 1.47272 10.8324 1.43149C10.7727 1.39494 10.7077 1.368 10.6397 1.35167C10.5629 1.33325 10.4814 1.33325 10.3183 1.33325H5.68199C5.51893 1.33325 5.4374 1.33325 5.36067 1.35167C5.29265 1.368 5.22762 1.39494 5.16797 1.43149C5.1007 1.47272 5.04304 1.53037 4.92774 1.64567L1.64592 4.9275C1.53061 5.0428 1.47296 5.10045 1.43174 5.16773C1.39518 5.22738 1.36825 5.29241 1.35192 5.36043C1.3335 5.43716 1.3335 5.51869 1.3335 5.68175Z" stroke="#383E40" stroke-width="1.5" stroke-linecap="round" stroke-linejoin="round"/>
</svg>
