<svg width="16" height="16" viewBox="0 0 16 16" fill="none" xmlns="http://www.w3.org/2000/svg">
<path d="M7.99988 5.99991V8.66658M7.99988 11.3332H8.00654M7.07676 2.59439L1.5935 12.0655C1.28936 12.5908 1.13729 12.8535 1.15977 13.069C1.17937 13.2571 1.27789 13.4279 1.43079 13.5391C1.6061 13.6666 1.9096 13.6666 2.51662 13.6666H13.4831C14.0901 13.6666 14.3937 13.6666 14.569 13.5391C14.7219 13.4279 14.8204 13.2571 14.84 13.069C14.8625 12.8535 14.7104 12.5908 14.4063 12.0655L8.923 2.59439C8.61995 2.07095 8.46843 1.80923 8.27074 1.72132C8.09831 1.64465 7.90145 1.64465 7.72901 1.72132C7.53133 1.80923 7.3798 2.07095 7.07676 2.59439Z" stroke="#383E40" stroke-width="1.5" stroke-linecap="round" stroke-linejoin="round"/>
</svg>
