<svg width="16" height="16" viewBox="0 0 16 16" fill="none" xmlns="http://www.w3.org/2000/svg">
<path d="M9.33333 6.66675C9.95459 6.66675 10.2652 6.66675 10.5102 6.56525C10.8369 6.42993 11.0965 6.17036 11.2318 5.84366C11.3333 5.59863 11.3333 5.288 11.3333 4.66675C11.3333 4.04549 11.3333 3.73487 11.2318 3.48984C11.0965 3.16313 10.8369 2.90357 10.5102 2.76824C10.2652 2.66675 9.95459 2.66675 9.33333 2.66675L4 2.66675C3.37874 2.66675 3.06812 2.66675 2.82309 2.76824C2.49638 2.90357 2.23682 3.16313 2.10149 3.48984C2 3.73486 2 4.04549 2 4.66675C2 5.288 2 5.59863 2.10149 5.84366C2.23682 6.17036 2.49638 6.42993 2.82309 6.56525C3.06812 6.66675 3.37874 6.66675 4 6.66675L9.33333 6.66675Z" stroke="#383E40" stroke-width="1.5" stroke-linecap="round" stroke-linejoin="round"/>
<path d="M12 13.3334C12.6213 13.3334 12.9319 13.3334 13.1769 13.2319C13.5036 13.0966 13.7632 12.837 13.8985 12.5103C14 12.2653 14 11.9547 14 11.3334C14 10.7122 14 10.4015 13.8985 10.1565C13.7632 9.8298 13.5036 9.57023 13.1769 9.43491C12.9319 9.33341 12.6213 9.33341 12 9.33341H4C3.37874 9.33341 3.06812 9.33341 2.82309 9.43491C2.49638 9.57023 2.23682 9.8298 2.10149 10.1565C2 10.4015 2 10.7122 2 11.3334C2 11.9547 2 12.2653 2.10149 12.5103C2.23682 12.837 2.49638 13.0966 2.82309 13.2319C3.06812 13.3334 3.37874 13.3334 4 13.3334L12 13.3334Z" stroke="#383E40" stroke-width="1.5" stroke-linecap="round" stroke-linejoin="round"/>
</svg>
