<svg width="16" height="16" viewBox="0 0 16 16" fill="none" xmlns="http://www.w3.org/2000/svg">
<path d="M12 6.66675C12.6213 6.66675 12.9319 6.66675 13.1769 6.56525C13.5036 6.42993 13.7632 6.17036 13.8985 5.84366C14 5.59863 14 5.288 14 4.66675C14 4.04549 14 3.73487 13.8985 3.48984C13.7632 3.16313 13.5036 2.90357 13.1769 2.76824C12.9319 2.66675 12.6213 2.66675 12 2.66675L6.66667 2.66675C6.04541 2.66675 5.73478 2.66675 5.48976 2.76824C5.16305 2.90357 4.90349 3.16313 4.76816 3.48984C4.66667 3.73486 4.66667 4.04549 4.66667 4.66675C4.66667 5.288 4.66667 5.59863 4.76816 5.84366C4.90349 6.17036 5.16305 6.42993 5.48976 6.56525C5.73478 6.66675 6.04541 6.66675 6.66667 6.66675L12 6.66675Z" stroke="#383E40" stroke-width="1.5" stroke-linecap="round" stroke-linejoin="round"/>
<path d="M12 13.3334C12.6213 13.3334 12.9319 13.3334 13.1769 13.2319C13.5036 13.0966 13.7632 12.837 13.8985 12.5103C14 12.2653 14 11.9547 14 11.3334C14 10.7122 14 10.4015 13.8985 10.1565C13.7632 9.8298 13.5036 9.57023 13.1769 9.43491C12.9319 9.33341 12.6213 9.33341 12 9.33341H4C3.37874 9.33341 3.06812 9.33341 2.82309 9.43491C2.49638 9.57023 2.23682 9.8298 2.10149 10.1565C2 10.4015 2 10.7122 2 11.3334C2 11.9547 2 12.2653 2.10149 12.5103C2.23682 12.837 2.49638 13.0966 2.82309 13.2319C3.06812 13.3334 3.37874 13.3334 4 13.3334L12 13.3334Z" stroke="#383E40" stroke-width="1.5" stroke-linecap="round" stroke-linejoin="round"/>
</svg>
