<svg width="16" height="16" viewBox="0 0 16 16" fill="none" xmlns="http://www.w3.org/2000/svg">
<path d="M6.66666 12V4C6.66666 3.37874 6.66666 3.06812 6.56517 2.82309C6.42984 2.49638 6.17028 2.23682 5.84358 2.10149C5.59855 2 5.28792 2 4.66666 2C4.04541 2 3.73478 2 3.48975 2.10149C3.16305 2.23682 2.90348 2.49638 2.76816 2.82309C2.66666 3.06812 2.66666 3.37874 2.66666 4V12C2.66666 12.6213 2.66666 12.9319 2.76816 13.1769C2.90348 13.5036 3.16305 13.7632 3.48975 13.8985C3.73478 14 4.04541 14 4.66666 14C5.28792 14 5.59855 14 5.84358 13.8985C6.17028 13.7632 6.42984 13.5036 6.56517 13.1769C6.66666 12.9319 6.66666 12.6213 6.66666 12Z" stroke="#383E40" stroke-width="1.5" stroke-linecap="round" stroke-linejoin="round"/>
<path d="M13.3333 10.6667V5.33333C13.3333 4.71208 13.3333 4.40145 13.2318 4.15642C13.0965 3.82972 12.8369 3.57015 12.5102 3.43483C12.2652 3.33333 11.9546 3.33333 11.3333 3.33333C10.7121 3.33333 10.4014 3.33333 10.1564 3.43483C9.82972 3.57015 9.57015 3.82972 9.43482 4.15642C9.33333 4.40145 9.33333 4.71208 9.33333 5.33333V10.6667C9.33333 11.2879 9.33333 11.5986 9.43482 11.8436C9.57015 12.1703 9.82972 12.4298 10.1564 12.5652C10.4014 12.6667 10.7121 12.6667 11.3333 12.6667C11.9546 12.6667 12.2652 12.6667 12.5102 12.5652C12.8369 12.4298 13.0965 12.1703 13.2318 11.8436C13.3333 11.5986 13.3333 11.2879 13.3333 10.6667Z" stroke="#383E40" stroke-width="1.5" stroke-linecap="round" stroke-linejoin="round"/>
</svg>
