<svg width="16" height="16" viewBox="0 0 16 16" fill="none" xmlns="http://www.w3.org/2000/svg">
<path d="M6.6665 12V4C6.6665 3.37874 6.6665 3.06812 6.56501 2.82309C6.42968 2.49638 6.17012 2.23682 5.84342 2.10149C5.59839 2 5.28776 2 4.6665 2C4.04525 2 3.73462 2 3.48959 2.10149C3.16289 2.23682 2.90332 2.49638 2.768 2.82309C2.6665 3.06812 2.6665 3.37874 2.6665 4V12C2.6665 12.6213 2.6665 12.9319 2.768 13.1769C2.90332 13.5036 3.16289 13.7632 3.48959 13.8985C3.73462 14 4.04525 14 4.6665 14C5.28776 14 5.59839 14 5.84342 13.8985C6.17012 13.7632 6.42968 13.5036 6.56501 13.1769C6.6665 12.9319 6.6665 12.6213 6.6665 12Z" stroke="#383E40" stroke-width="1.5" stroke-linecap="round" stroke-linejoin="round"/>
<path d="M13.3332 12V6.66667C13.3332 6.04541 13.3332 5.73478 13.2317 5.48976C13.0964 5.16305 12.8368 4.90349 12.5101 4.76816C12.2651 4.66667 11.9544 4.66667 11.3332 4.66667C10.7119 4.66667 10.4013 4.66667 10.1563 4.76816C9.82956 4.90349 9.56999 5.16305 9.43466 5.48976C9.33317 5.73478 9.33317 6.04541 9.33317 6.66667V12C9.33317 12.6213 9.33317 12.9319 9.43466 13.1769C9.56999 13.5036 9.82956 13.7632 10.1563 13.8985C10.4013 14 10.7119 14 11.3332 14C11.9544 14 12.2651 14 12.5101 13.8985C12.8368 13.7632 13.0964 13.5036 13.2317 13.1769C13.3332 12.9319 13.3332 12.6213 13.3332 12Z" stroke="#383E40" stroke-width="1.5" stroke-linecap="round" stroke-linejoin="round"/>
</svg>
