<svg width="16" height="16" viewBox="0 0 16 16" fill="none" xmlns="http://www.w3.org/2000/svg">
<path d="M6.66666 12V4C6.66666 3.37874 6.66666 3.06812 6.56517 2.82309C6.42984 2.49638 6.17028 2.23682 5.84358 2.10149C5.59855 2 5.28792 2 4.66666 2C4.04541 2 3.73478 2 3.48975 2.10149C3.16305 2.23682 2.90348 2.49638 2.76816 2.82309C2.66666 3.06812 2.66666 3.37874 2.66666 4V12C2.66666 12.6213 2.66666 12.9319 2.76816 13.1769C2.90348 13.5036 3.16305 13.7632 3.48975 13.8985C3.73478 14 4.04541 14 4.66666 14C5.28792 14 5.59855 14 5.84358 13.8985C6.17028 13.7632 6.42984 13.5036 6.56517 13.1769C6.66666 12.9319 6.66666 12.6213 6.66666 12Z" stroke="#383E40" stroke-width="1.5" stroke-linecap="round" stroke-linejoin="round"/>
<path d="M13.3333 9.33333V4C13.3333 3.37874 13.3333 3.06812 13.2318 2.82309C13.0965 2.49638 12.8369 2.23682 12.5102 2.10149C12.2652 2 11.9546 2 11.3333 2C10.7121 2 10.4014 2 10.1564 2.10149C9.82972 2.23682 9.57015 2.49638 9.43482 2.82309C9.33333 3.06812 9.33333 3.37874 9.33333 4V9.33333C9.33333 9.95459 9.33333 10.2652 9.43482 10.5102C9.57015 10.8369 9.82972 11.0965 10.1564 11.2318C10.4014 11.3333 10.7121 11.3333 11.3333 11.3333C11.9546 11.3333 12.2652 11.3333 12.5102 11.2318C12.8369 11.0965 13.0965 10.8369 13.2318 10.5102C13.3333 10.2652 13.3333 9.95459 13.3333 9.33333Z" stroke="#383E40" stroke-width="1.5" stroke-linecap="round" stroke-linejoin="round"/>
</svg>
