<svg width="16" height="16" viewBox="0 0 16 16" fill="none" xmlns="http://www.w3.org/2000/svg">
<path d="M8 5.33334C9.10457 5.33334 10 4.43791 10 3.33334C10 2.22877 9.10457 1.33334 8 1.33334C6.89543 1.33334 6 2.22877 6 3.33334C6 4.43791 6.89543 5.33334 8 5.33334ZM8 5.33334V14.6667M8 14.6667C6.23189 14.6667 4.5362 13.9643 3.28596 12.7141C2.03571 11.4638 1.33334 9.76812 1.33334 8.00001H3.33334M8 14.6667C9.76811 14.6667 11.4638 13.9643 12.714 12.7141C13.9643 11.4638 14.6667 9.76812 14.6667 8.00001H12.6667" stroke="#383E40" stroke-width="1.5" stroke-linecap="round" stroke-linejoin="round"/>
</svg>
