<svg width="16" height="16" viewBox="0 0 16 16" fill="none" xmlns="http://www.w3.org/2000/svg">
<path d="M12.3334 10.6667C13.622 10.6667 14.6667 8.72657 14.6667 6.33333C14.6667 3.9401 13.622 2 12.3334 2M12.3334 10.6667C11.0447 10.6667 10 8.72657 10 6.33333C10 3.9401 11.0447 2 12.3334 2M12.3334 10.6667L3.62907 9.08407C3.01074 8.97164 2.70158 8.91543 2.45159 8.79263C1.94302 8.54282 1.56428 8.08901 1.40947 7.54395C1.33337 7.27603 1.33337 6.9618 1.33337 6.33333C1.33337 5.70487 1.33337 5.39063 1.40947 5.12271C1.56428 4.57766 1.94302 4.12385 2.45159 3.87403C2.70158 3.75124 3.01074 3.69502 3.62907 3.5826L12.3334 2M3.33337 9.33333L3.59595 13.0093C3.62088 13.3584 3.63335 13.533 3.70929 13.6653C3.77615 13.7817 3.87663 13.8753 3.99757 13.9337C4.13492 14 4.30992 14 4.6599 14H5.84817C6.24827 14 6.44832 14 6.59638 13.9202C6.72648 13.8501 6.8296 13.7387 6.88953 13.6037C6.95773 13.4499 6.94238 13.2504 6.9117 12.8515L6.66671 9.66667" stroke="#383E40" stroke-width="1.5" stroke-linecap="round" stroke-linejoin="round"/>
</svg>
