<svg width="16" height="16" viewBox="0 0 16 16" fill="none" xmlns="http://www.w3.org/2000/svg">
<path d="M2.66671 9.33327L3.71647 13.5323C3.746 13.6504 3.76076 13.7095 3.77822 13.761C3.94882 14.2647 4.40239 14.6188 4.93239 14.6622C4.98664 14.6666 5.04751 14.6666 5.16924 14.6666C5.32167 14.6666 5.39788 14.6666 5.46209 14.6604C6.0967 14.5988 6.59893 14.0966 6.66048 13.462C6.66671 13.3978 6.66671 13.3216 6.66671 13.1691V3.66661M12.3334 8.99994C13.622 8.99994 14.6667 7.95527 14.6667 6.66661C14.6667 5.37794 13.622 4.33327 12.3334 4.33327M6.83337 3.66661H4.33337C2.67652 3.66661 1.33337 5.00975 1.33337 6.66661C1.33338 8.32346 2.67652 9.66661 4.33337 9.66661H6.83338C8.01099 9.66661 9.45154 10.2979 10.5629 10.9037C11.2113 11.2571 11.5354 11.4339 11.7478 11.4079C11.9446 11.3837 12.0935 11.2953 12.2089 11.134C12.3334 10.96 12.3334 10.6119 12.3334 9.91575V3.41746C12.3334 2.72127 12.3334 2.37317 12.2089 2.1992C12.0935 2.03788 11.9446 1.94947 11.7478 1.92536C11.5354 1.89936 11.2113 2.07607 10.5629 2.42951C9.45154 3.03535 8.01099 3.66661 6.83337 3.66661Z" stroke="#383E40" stroke-width="1.5" stroke-linecap="round" stroke-linejoin="round"/>
</svg>
