<svg width="16" height="16" viewBox="0 0 16 16" fill="none" xmlns="http://www.w3.org/2000/svg">
<path opacity="0.5" d="M8.58104 6.37782C8.37062 6.24105 8.26541 6.17266 8.15206 6.14606C8.05186 6.12254 7.94757 6.12254 7.84737 6.14606C7.73402 6.17266 7.62881 6.24105 7.41839 6.37782L2.70896 9.43895C2.25039 9.73702 2.02111 9.88606 1.9417 10.0751C1.8723 10.2402 1.8723 10.4264 1.9417 10.5915C2.02111 10.7805 2.25039 10.9296 2.70895 11.2276L7.41839 14.2888C7.62881 14.4255 7.73402 14.4939 7.84737 14.5205C7.94757 14.544 8.05186 14.544 8.15206 14.5205C8.26541 14.4939 8.37062 14.4255 8.58104 14.2888L13.2905 11.2276C13.749 10.9296 13.9783 10.7805 14.0577 10.5915C14.1271 10.4264 14.1271 10.2402 14.0577 10.0751C13.9783 9.88606 13.749 9.73702 13.2905 9.43895L8.58104 6.37782Z" fill="#383E40"/>
<path opacity="0.25" d="M8.58104 1.58265C8.37062 1.44588 8.26541 1.3775 8.15206 1.35089C8.05186 1.32737 7.94757 1.32737 7.84737 1.35089C7.73402 1.3775 7.62881 1.44588 7.41839 1.58265L2.70896 4.64379C2.25039 4.94186 2.02111 5.09089 1.9417 5.27989C1.8723 5.44505 1.8723 5.6312 1.9417 5.79637C2.02111 5.98537 2.25039 6.1344 2.70895 6.43247L7.41839 9.4936C7.62881 9.63037 7.73402 9.69876 7.84737 9.72536C7.94757 9.74888 8.05186 9.74888 8.15206 9.72536C8.26541 9.69876 8.37062 9.63037 8.58104 9.4936L13.2905 6.43247C13.749 6.1344 13.9783 5.98537 14.0577 5.79637C14.1271 5.6312 14.1271 5.44505 14.0577 5.27989C13.9783 5.09089 13.749 4.94186 13.2905 4.64379L8.58104 1.58265Z" fill="#383E40"/>
<path d="M7.99967 5.99988L2.70892 9.43887C2.25035 9.73694 2.02107 9.88597 1.94166 10.075C1.87226 10.2401 1.87226 10.4263 1.94166 10.5915M7.99967 5.99988L13.2904 9.43887C13.749 9.73694 13.9783 9.88597 14.0577 10.075C14.1271 10.2401 14.1271 10.4263 14.0577 10.5915M7.99967 5.99988V1.66655M7.99967 9.99988L2.70892 6.56089C2.25035 6.26282 2.02107 6.11378 1.94166 5.92479C1.87226 5.75962 1.87226 5.57347 1.94166 5.4083M7.99967 9.99988L13.2904 6.56089C13.749 6.26282 13.9783 6.11378 14.0577 5.92479C14.1271 5.75962 14.1271 5.57347 14.0577 5.4083M7.99967 9.99988V14.3332M14.181 10.6487L8.581 14.2887C8.37058 14.4255 8.26537 14.4938 8.15202 14.5204C8.05182 14.544 7.94753 14.544 7.84733 14.5204C7.73398 14.4938 7.62877 14.4255 7.41835 14.2887L1.81835 10.6487C1.64102 10.5334 1.55235 10.4758 1.48811 10.3989C1.43124 10.3309 1.38852 10.2521 1.36245 10.1674C1.33301 10.0716 1.33301 9.96585 1.33301 9.75435V6.24541C1.33301 6.0339 1.33301 5.92815 1.36245 5.83239C1.38852 5.74762 1.43124 5.66891 1.48811 5.60085C1.55235 5.52397 1.64102 5.46634 1.81835 5.35107L7.41835 1.71107C7.62877 1.5743 7.73398 1.50592 7.84733 1.47931C7.94753 1.45579 8.05182 1.45579 8.15202 1.47931C8.26537 1.50592 8.37058 1.5743 8.581 1.71107L14.181 5.35107C14.3583 5.46634 14.447 5.52397 14.5112 5.60085C14.5681 5.66891 14.6108 5.74762 14.6369 5.83239C14.6663 5.92815 14.6663 6.0339 14.6663 6.24541V9.75435C14.6663 9.96585 14.6663 10.0716 14.6369 10.1674C14.6108 10.2521 14.5681 10.3309 14.5112 10.3989C14.447 10.4758 14.3583 10.5334 14.181 10.6487Z" stroke="#383E40" stroke-width="2" stroke-linecap="round" stroke-linejoin="round"/>
</svg>
