<svg width="16" height="16" viewBox="0 0 16 16" fill="none" xmlns="http://www.w3.org/2000/svg">
<path d="M2.66683 5.33106C2.55749 5.32824 2.47809 5.32191 2.40671 5.30771C1.87779 5.2025 1.46432 4.78904 1.35912 4.26012C1.3335 4.13132 1.3335 3.97644 1.3335 3.66667C1.3335 3.3569 1.3335 3.20201 1.35912 3.07321C1.46432 2.54429 1.87779 2.13083 2.40671 2.02562C2.53551 2 2.69039 2 3.00016 2H13.0002C13.3099 2 13.4648 2 13.5936 2.02562C14.1225 2.13083 14.536 2.54429 14.6412 3.07321C14.6668 3.20201 14.6668 3.3569 14.6668 3.66667C14.6668 3.97644 14.6668 4.13132 14.6412 4.26012C14.536 4.78904 14.1225 5.2025 13.5936 5.30771C13.5222 5.32191 13.4428 5.32824 13.3335 5.33106M6.66683 8.66667H9.3335M2.66683 5.33333H13.3335V10.8C13.3335 11.9201 13.3335 12.4802 13.1155 12.908C12.9238 13.2843 12.6178 13.5903 12.2415 13.782C11.8137 14 11.2536 14 10.1335 14H5.86683C4.74672 14 4.18667 14 3.75885 13.782C3.38252 13.5903 3.07656 13.2843 2.88482 12.908C2.66683 12.4802 2.66683 11.9201 2.66683 10.8V5.33333Z" stroke="#383E40" stroke-width="1.5" stroke-linecap="round" stroke-linejoin="round"/>
</svg>
