<svg width="16" height="16" viewBox="0 0 16 16" fill="none" xmlns="http://www.w3.org/2000/svg">
<path d="M8.66671 12.6667H11.5295C12.773 12.6667 13.3947 12.6667 13.7477 12.4061C14.0555 12.179 14.2509 11.8306 14.2842 11.4495C14.3225 11.0125 13.9983 10.4819 13.3499 9.42092L12.6852 8.33335M4.0868 7.07016L2.65023 9.42092C2.00182 10.4819 1.67762 11.0125 1.71586 11.4495C1.74919 11.8306 1.94458 12.179 2.25235 12.4061C2.60537 12.6667 3.2271 12.6667 4.47056 12.6667H5.66671M11.2593 6.00001L9.82038 3.64541C9.21851 2.66055 8.91758 2.16811 8.53017 2.00024C8.19195 1.85368 7.80814 1.85368 7.46991 2.00024C7.0825 2.16811 6.78157 2.66055 6.17971 3.64541L5.49982 4.75795M12 3.33339L11.268 6.06544L8.53594 5.33339M1.33337 7.73206L4.06543 7.00001L4.79748 9.73206M10.3334 14.6667L8.33337 12.6667L10.3334 10.6667" stroke="#383E40" stroke-width="1.5" stroke-linecap="round" stroke-linejoin="round"/>
</svg>
