<svg width="16" height="16" viewBox="0 0 16 16" fill="none" xmlns="http://www.w3.org/2000/svg">
<path d="M7.99951 8.0001H8.00618M10.3565 10.3571C7.23234 13.4813 3.64441 14.9587 2.34266 13.6569C1.04091 12.3552 2.5183 8.76727 5.64249 5.64307C8.76668 2.51888 12.3546 1.04149 13.6564 2.34324C14.9581 3.64499 13.4807 7.23292 10.3565 10.3571ZM10.3565 5.64295C13.4807 8.76715 14.9581 12.3551 13.6563 13.6568C12.3546 14.9586 8.76666 13.4812 5.64246 10.357C2.51827 7.2328 1.04088 3.64487 2.34263 2.34312C3.64438 1.04137 7.23231 2.51876 10.3565 5.64295ZM8.33285 8.0001C8.33285 8.18419 8.18361 8.33343 7.99951 8.33343C7.81542 8.33343 7.66618 8.18419 7.66618 8.0001C7.66618 7.816 7.81542 7.66676 7.99951 7.66676C8.18361 7.66676 8.33285 7.816 8.33285 8.0001Z" stroke="#383E40" stroke-width="1.5" stroke-linecap="round" stroke-linejoin="round"/>
</svg>
