<svg width="16" height="16" viewBox="0 0 16 16" fill="none" xmlns="http://www.w3.org/2000/svg">
<path d="M10.6282 13.3953C9.8345 13.7826 8.94264 14 8 14C4.68629 14 2 11.3137 2 8C2 4.68629 4.68629 2 8 2C8.94264 2 9.8345 2.21738 10.6282 2.60473C11.6 3.07901 12.4528 3.94024 12.8011 4.40013C14.4 6.52703 14.3996 9.47468 12.8 11.6012C12.4522 12.0607 11.5308 13.0627 10.6282 13.3953Z" stroke="#383E40" stroke-width="1.5" stroke-linecap="round" stroke-linejoin="round"/>
<path d="M8 14C11.3137 14 14 11.3137 14 8C14 4.68629 11.3137 2 8 2V14Z" fill="#383E40"/>
</svg>
