<svg width="16" height="16" viewBox="0 0 16 16" fill="none" xmlns="http://www.w3.org/2000/svg">
<path d="M5.91758 8.73037L3.13423 5.25118C2.96096 5.0346 2.87433 4.92631 2.81273 4.80572C2.75807 4.69874 2.71812 4.58486 2.69397 4.46718C2.66675 4.33453 2.66675 4.19585 2.66675 3.9185V3.46683C2.66675 2.72009 2.66675 2.34672 2.81207 2.06151C2.9399 1.81063 3.14388 1.60665 3.39476 1.47882C3.67998 1.3335 4.05334 1.3335 4.80008 1.3335H11.2001C11.9468 1.3335 12.3202 1.3335 12.6054 1.47882C12.8563 1.60665 13.0603 1.81063 13.1881 2.06151C13.3334 2.34672 13.3334 2.72009 13.3334 3.46683V3.9185C13.3334 4.19585 13.3334 4.33453 13.3062 4.46718C13.282 4.58486 13.2421 4.69874 13.1874 4.80572C13.1258 4.92631 13.0392 5.0346 12.8659 5.25118L10.0826 8.73037M3.33345 2.00016L8.00012 8.00016L12.6667 2.00016M10.3571 8.97647C11.6589 10.2782 11.6589 12.3888 10.3571 13.6905C9.05536 14.9923 6.94481 14.9923 5.64306 13.6905C4.34131 12.3888 4.34131 10.2782 5.64306 8.97647C6.9448 7.67473 9.05535 7.67473 10.3571 8.97647Z" stroke="#383E40" stroke-width="1.5" stroke-linecap="round" stroke-linejoin="round"/>
</svg>
