<svg width="16" height="16" viewBox="0 0 16 16" fill="none" xmlns="http://www.w3.org/2000/svg">
<path d="M5.91734 8.73037L3.13398 5.25118C2.96072 5.0346 2.87409 4.92631 2.81248 4.80572C2.75783 4.69874 2.71788 4.58486 2.69373 4.46718C2.6665 4.33453 2.6665 4.19585 2.6665 3.9185V3.46683C2.6665 2.72009 2.6665 2.34672 2.81183 2.06151C2.93966 1.81063 3.14363 1.60665 3.39452 1.47882C3.67973 1.3335 4.0531 1.3335 4.79984 1.3335H11.1998C11.9466 1.3335 12.3199 1.3335 12.6052 1.47882C12.856 1.60665 13.06 1.81063 13.1878 2.06151C13.3332 2.34672 13.3332 2.72009 13.3332 3.46683V3.9185C13.3332 4.19585 13.3332 4.33453 13.3059 4.46718C13.2818 4.58486 13.2418 4.69874 13.1872 4.80572C13.1256 4.92631 13.039 5.0346 12.8657 5.25118L10.0823 8.73037M3.33321 2.00016L7.99987 8.00016L12.6665 2.00016M10.3569 8.97647C11.6586 10.2782 11.6586 12.3888 10.3569 13.6905C9.05512 14.9923 6.94456 14.9923 5.64281 13.6905C4.34107 12.3888 4.34107 10.2782 5.64281 8.97647C6.94456 7.67473 9.05511 7.67473 10.3569 8.97647Z" stroke="#383E40" stroke-width="1.5" stroke-linecap="round" stroke-linejoin="round"/>
</svg>
