<svg width="16" height="16" viewBox="0 0 16 16" fill="none" xmlns="http://www.w3.org/2000/svg">
<path d="M4.00016 7.33317V9.99984M12.0002 5.99984V8.6665M11.3335 2.6665C12.966 2.6665 13.8489 2.91634 14.2882 3.11013C14.3467 3.13594 14.376 3.14884 14.4604 3.22942C14.511 3.27772 14.6034 3.41943 14.6272 3.48523C14.6668 3.595 14.6668 3.655 14.6668 3.775V10.9406C14.6668 11.5464 14.6668 11.8494 14.576 12.0051C14.4836 12.1635 14.3944 12.2371 14.2215 12.298C14.0514 12.3578 13.7081 12.2918 13.0216 12.1599C12.5411 12.0676 11.9712 11.9998 11.3335 11.9998C9.3335 11.9998 7.3335 13.3332 4.66683 13.3332C3.03436 13.3332 2.15141 13.0833 1.71208 12.8895C1.65358 12.8637 1.62433 12.8508 1.5399 12.7703C1.48929 12.722 1.39691 12.5802 1.37314 12.5144C1.3335 12.4047 1.3335 12.3447 1.3335 12.2247L1.3335 5.05907C1.3335 4.45323 1.3335 4.15031 1.42435 3.9946C1.51676 3.83621 1.60589 3.76258 1.77887 3.70171C1.94892 3.64187 2.29219 3.70783 2.97872 3.83974C3.45924 3.93206 4.02915 3.99984 4.66683 3.99984C6.66683 3.99984 8.66683 2.6665 11.3335 2.6665ZM9.66683 7.99984C9.66683 8.92031 8.92064 9.6665 8.00016 9.6665C7.07969 9.6665 6.3335 8.92031 6.3335 7.99984C6.3335 7.07936 7.07969 6.33317 8.00016 6.33317C8.92064 6.33317 9.66683 7.07936 9.66683 7.99984Z" stroke="#383E40" stroke-width="1.5" stroke-linecap="round" stroke-linejoin="round"/>
</svg>
