<svg width="16" height="16" viewBox="0 0 16 16" fill="none" xmlns="http://www.w3.org/2000/svg">
<path d="M9.3335 6.00016H7.66683C7.11454 6.00016 6.66683 6.44788 6.66683 7.00016C6.66683 7.55245 7.11454 8.00016 7.66683 8.00016H8.3335C8.88578 8.00016 9.3335 8.44788 9.3335 9.00016C9.3335 9.55245 8.88578 10.0002 8.3335 10.0002H6.66683M8.00016 5.3335V6.00016M8.00016 10.0002V10.6668M12.0002 8.00016H12.0068M4.00016 8.00016H4.00683M1.3335 5.46683L1.3335 10.5335C1.3335 11.2802 1.3335 11.6536 1.47882 11.9388C1.60665 12.1897 1.81063 12.3937 2.06151 12.5215C2.34672 12.6668 2.72009 12.6668 3.46683 12.6668L12.5335 12.6668C13.2802 12.6668 13.6536 12.6668 13.9388 12.5215C14.1897 12.3937 14.3937 12.1897 14.5215 11.9388C14.6668 11.6536 14.6668 11.2802 14.6668 10.5335V5.46683C14.6668 4.72009 14.6668 4.34673 14.5215 4.06151C14.3937 3.81063 14.1897 3.60665 13.9388 3.47882C13.6536 3.3335 13.2802 3.3335 12.5335 3.3335L3.46683 3.3335C2.72009 3.3335 2.34672 3.3335 2.06151 3.47882C1.81063 3.60665 1.60665 3.81063 1.47882 4.06151C1.3335 4.34672 1.3335 4.72009 1.3335 5.46683ZM12.3335 8.00016C12.3335 8.18426 12.1843 8.3335 12.0002 8.3335C11.8161 8.3335 11.6668 8.18426 11.6668 8.00016C11.6668 7.81607 11.8161 7.66683 12.0002 7.66683C12.1843 7.66683 12.3335 7.81607 12.3335 8.00016ZM4.3335 8.00016C4.3335 8.18426 4.18426 8.3335 4.00016 8.3335C3.81607 8.3335 3.66683 8.18426 3.66683 8.00016C3.66683 7.81607 3.81607 7.66683 4.00016 7.66683C4.18426 7.66683 4.3335 7.81607 4.3335 8.00016Z" stroke="#383E40" stroke-width="1.5" stroke-linecap="round" stroke-linejoin="round"/>
</svg>
