<svg width="16" height="16" viewBox="0 0 16 16" fill="none" xmlns="http://www.w3.org/2000/svg">
<path d="M4 7.33317V9.99984M12 5.99984V8.6665M11.3333 2.6665C12.9658 2.6665 13.8488 2.91634 14.2881 3.11013C14.3466 3.13594 14.3758 3.14884 14.4603 3.22942C14.5109 3.27772 14.6033 3.41943 14.627 3.48523C14.6667 3.595 14.6667 3.655 14.6667 3.775V10.9406C14.6667 11.5464 14.6667 11.8494 14.5758 12.0051C14.4834 12.1635 14.3943 12.2371 14.2213 12.298C14.0512 12.3578 13.708 12.2918 13.0215 12.1599C12.5409 12.0676 11.971 11.9998 11.3333 11.9998C9.33334 11.9998 7.33334 13.3332 4.66667 13.3332C3.0342 13.3332 2.15125 13.0833 1.71192 12.8895C1.65342 12.8637 1.62416 12.8508 1.53974 12.7703C1.48913 12.722 1.39675 12.5802 1.37298 12.5144C1.33334 12.4047 1.33334 12.3447 1.33334 12.2247L1.33334 5.05907C1.33334 4.45323 1.33334 4.15031 1.42419 3.9946C1.5166 3.83621 1.60573 3.76258 1.77871 3.70171C1.94876 3.64187 2.29203 3.70783 2.97856 3.83974C3.45908 3.93206 4.02899 3.99984 4.66667 3.99984C6.66667 3.99984 8.66667 2.6665 11.3333 2.6665ZM9.66667 7.99984C9.66667 8.92031 8.92048 9.6665 8 9.6665C7.07953 9.6665 6.33334 8.92031 6.33334 7.99984C6.33334 7.07936 7.07953 6.33317 8 6.33317C8.92048 6.33317 9.66667 7.07936 9.66667 7.99984Z" stroke="#383E40" stroke-width="1.5" stroke-linecap="round" stroke-linejoin="round"/>
</svg>
