<svg width="16" height="16" viewBox="0 0 16 16" fill="none" xmlns="http://www.w3.org/2000/svg">
<path d="M11.3333 6.33337V8.60004C11.3333 8.97341 11.3333 9.16009 11.2607 9.3027C11.1968 9.42814 11.0948 9.53013 10.9693 9.59405C10.8267 9.66671 10.64 9.66671 10.2667 9.66671L2 9.66671M8.66667 9.66671V11.9334C8.66667 12.3067 8.66667 12.4934 8.594 12.636C8.53009 12.7615 8.4281 12.8635 8.30266 12.9274C8.16005 13 7.97337 13 7.6 13H2M2 1.33337L2 14.6667M2 6.33337L12.9333 6.33337C13.3067 6.33337 13.4934 6.33337 13.636 6.26071C13.7614 6.1968 13.8634 6.09481 13.9273 5.96937C14 5.82676 14 5.64008 14 5.26671V4.06671C14 3.69334 14 3.50666 13.9273 3.36405C13.8634 3.23861 13.7614 3.13662 13.636 3.0727C13.4934 3.00004 13.3067 3.00004 12.9333 3.00004L2 3.00004L2 6.33337Z" stroke="#383E40" stroke-width="1.5" stroke-linecap="round" stroke-linejoin="round"/>
</svg>
