<svg width="16" height="16" viewBox="0 0 16 16" fill="none" xmlns="http://www.w3.org/2000/svg">
<path d="M11.3333 6.33331V8.59998C11.3333 8.97335 11.3333 9.16003 11.2607 9.30264C11.1968 9.42808 11.0948 9.53007 10.9693 9.59398C10.8267 9.66665 10.64 9.66665 10.2667 9.66665L2 9.66665M8.66667 9.66665V11.9333C8.66667 12.3067 8.66667 12.4934 8.594 12.636C8.53009 12.7614 8.4281 12.8634 8.30266 12.9273C8.16005 13 7.97337 13 7.6 13H2M2 1.33331L2 14.6666M2 6.33331L12.9333 6.33331C13.3067 6.33331 13.4934 6.33331 13.636 6.26065C13.7614 6.19674 13.8634 6.09475 13.9273 5.96931C14 5.8267 14 5.64001 14 5.26665V4.06665C14 3.69328 14 3.50659 13.9273 3.36399C13.8634 3.23855 13.7614 3.13656 13.636 3.07264C13.4934 2.99998 13.3067 2.99998 12.9333 2.99998L2 2.99998L2 6.33331Z" stroke="#383E40" stroke-width="1.5" stroke-linecap="round" stroke-linejoin="round"/>
</svg>
