<svg width="16" height="16" viewBox="0 0 16 16" fill="none" xmlns="http://www.w3.org/2000/svg">
<path d="M6.3335 12L9.00016 8H5.00016L7.66683 4M14.6668 8.66667V7.33333M9.3335 12H9.46683C10.5869 12 11.147 12 11.5748 11.782C11.9511 11.5903 12.2571 11.2843 12.4488 10.908C12.6668 10.4802 12.6668 9.92011 12.6668 8.8V6.66667C12.6668 6.04669 12.6668 5.7367 12.5987 5.48236C12.4137 4.79218 11.8747 4.25308 11.1845 4.06815C10.9301 4 10.6201 4 10.0002 4M4.66683 4H4.5335C3.41339 4 2.85334 4 2.42552 4.21799C2.04919 4.40973 1.74323 4.71569 1.55148 5.09202C1.3335 5.51984 1.3335 6.0799 1.3335 7.2V9.33333C1.3335 9.95331 1.3335 10.2633 1.40164 10.5176C1.58658 11.2078 2.12567 11.7469 2.81586 11.9319C3.07019 12 3.38018 12 4.00016 12" stroke="#383E40" stroke-width="1.5" stroke-linecap="round" stroke-linejoin="round"/>
</svg>
