<svg width="16" height="16" viewBox="0 0 16 16" fill="none" xmlns="http://www.w3.org/2000/svg">
<path d="M4.3335 6.66667V9.33333M7.00016 6.66667V9.33333M14.6668 8.66667V7.33333M4.5335 12H9.46683C10.5869 12 11.147 12 11.5748 11.782C11.9511 11.5903 12.2571 11.2843 12.4488 10.908C12.6668 10.4802 12.6668 9.92011 12.6668 8.8V7.2C12.6668 6.0799 12.6668 5.51984 12.4488 5.09202C12.2571 4.71569 11.9511 4.40973 11.5748 4.21799C11.147 4 10.5869 4 9.46683 4H4.5335C3.41339 4 2.85334 4 2.42552 4.21799C2.04919 4.40973 1.74323 4.71569 1.55148 5.09202C1.3335 5.51984 1.3335 6.0799 1.3335 7.2V8.8C1.3335 9.92011 1.3335 10.4802 1.55148 10.908C1.74323 11.2843 2.04919 11.5903 2.42552 11.782C2.85334 12 3.41339 12 4.5335 12Z" stroke="#383E40" stroke-width="1.5" stroke-linecap="round" stroke-linejoin="round"/>
</svg>
