<svg width="16" height="16" viewBox="0 0 16 16" fill="none" xmlns="http://www.w3.org/2000/svg">
<path d="M4.33325 6.66667V9.33333M6.99992 6.66667V9.33333M9.66659 6.66667V9.33333M14.6666 8.66667V7.33333M4.53325 12H9.46659C10.5867 12 11.1467 12 11.5746 11.782C11.9509 11.5903 12.2569 11.2843 12.4486 10.908C12.6666 10.4802 12.6666 9.92011 12.6666 8.8V7.2C12.6666 6.0799 12.6666 5.51984 12.4486 5.09202C12.2569 4.71569 11.9509 4.40973 11.5746 4.21799C11.1467 4 10.5867 4 9.46659 4H4.53325C3.41315 4 2.85309 4 2.42527 4.21799C2.04895 4.40973 1.74299 4.71569 1.55124 5.09202C1.33325 5.51984 1.33325 6.0799 1.33325 7.2V8.8C1.33325 9.92011 1.33325 10.4802 1.55124 10.908C1.74299 11.2843 2.04895 11.5903 2.42527 11.782C2.85309 12 3.41315 12 4.53325 12Z" stroke="#383E40" stroke-width="1.5" stroke-linecap="round" stroke-linejoin="round"/>
</svg>
