<svg width="16" height="16" viewBox="0 0 16 16" fill="none" xmlns="http://www.w3.org/2000/svg">
<path d="M6.33325 12L8.99992 8H4.99992L7.66659 4M14.6666 8.66667V7.33333M9.33325 12H9.46659C10.5867 12 11.1467 12 11.5746 11.782C11.9509 11.5903 12.2569 11.2843 12.4486 10.908C12.6666 10.4802 12.6666 9.92011 12.6666 8.8V6.66667C12.6666 6.04669 12.6666 5.7367 12.5984 5.48236C12.4135 4.79218 11.8744 4.25308 11.1842 4.06815C10.9299 4 10.6199 4 9.99992 4M4.66659 4H4.53325C3.41315 4 2.85309 4 2.42527 4.21799C2.04895 4.40973 1.74299 4.71569 1.55124 5.09202C1.33325 5.51984 1.33325 6.0799 1.33325 7.2V9.33333C1.33325 9.95331 1.33325 10.2633 1.4014 10.5176C1.58633 11.2078 2.12543 11.7469 2.81561 11.9319C3.06995 12 3.37994 12 3.99992 12" stroke="#383E40" stroke-width="1.5" stroke-linecap="round" stroke-linejoin="round"/>
</svg>
