<svg width="16" height="16" viewBox="0 0 16 16" fill="none" xmlns="http://www.w3.org/2000/svg">
<path d="M6 4.00016V7.00096C6 7.36825 6 7.55189 5.95422 7.72207C5.91365 7.87285 5.84691 8.01533 5.75705 8.14302C5.65563 8.28714 5.51455 8.4047 5.23239 8.63983L2.76761 10.6938C2.48545 10.929 2.34437 11.0465 2.24295 11.1906C2.15309 11.3183 2.08635 11.4608 2.04578 11.6116C2 11.7818 2 11.9654 2 12.3327V12.5335C2 13.2802 2 13.6536 2.14532 13.9388C2.27316 14.1897 2.47713 14.3937 2.72801 14.5215C3.01323 14.6668 3.3866 14.6668 4.13333 14.6668H11.8667C12.6134 14.6668 12.9868 14.6668 13.272 14.5215C13.5229 14.3937 13.7268 14.1897 13.8547 13.9388C14 13.6536 14 13.2802 14 12.5335V12.3327C14 11.9654 14 11.7818 13.9542 11.6116C13.9136 11.4608 13.8469 11.3183 13.757 11.1906C13.6556 11.0465 13.5145 10.929 13.2324 10.6938L10.7676 8.63984C10.4855 8.40471 10.3444 8.28714 10.243 8.14302C10.1531 8.01533 10.0864 7.87285 10.0458 7.72207C10 7.55189 10 7.36825 10 7.00096V4.00016M5.53333 4.00016H10.4667C10.6534 4.00016 10.7467 4.00016 10.818 3.96383C10.8807 3.93187 10.9317 3.88088 10.9637 3.81816C11 3.74686 11 3.65351 11 3.46683V1.86683C11 1.68015 11 1.5868 10.9637 1.5155C10.9317 1.45278 10.8807 1.40179 10.818 1.36983C10.7467 1.3335 10.6534 1.3335 10.4667 1.3335H5.53333C5.34665 1.3335 5.25331 1.3335 5.182 1.36983C5.11928 1.40179 5.06829 1.45278 5.03633 1.5155C5 1.5868 5 1.68015 5 1.86683V3.46683C5 3.65351 5 3.74686 5.03633 3.81816C5.06829 3.88088 5.11928 3.93187 5.182 3.96383C5.25331 4.00016 5.34665 4.00016 5.53333 4.00016ZM3.66667 11.3335H12.3333C12.6431 11.3335 12.798 11.3335 12.9268 11.3591C13.4557 11.4643 13.8692 11.8778 13.9744 12.4067C14 12.5355 14 12.6904 14 13.0002C14 13.3099 14 13.4648 13.9744 13.5936C13.8692 14.1225 13.4557 14.536 12.9268 14.6412C12.798 14.6668 12.6431 14.6668 12.3333 14.6668H3.66667C3.3569 14.6668 3.20201 14.6668 3.07321 14.6412C2.54429 14.536 2.13083 14.1225 2.02562 13.5936C2 13.4648 2 13.3099 2 13.0002C2 12.6904 2 12.5355 2.02562 12.4067C2.13083 11.8778 2.54429 11.4643 3.07321 11.3591C3.20201 11.3335 3.3569 11.3335 3.66667 11.3335Z" stroke="#383E40" stroke-width="1.5" stroke-linecap="round" stroke-linejoin="round"/>
</svg>
