<svg width="16" height="16" viewBox="0 0 16 16" fill="none" xmlns="http://www.w3.org/2000/svg">
<path d="M6.66667 1.33355V4.4405C6.66667 4.58528 6.66667 4.65767 6.6446 4.71526C6.62379 4.76958 6.59624 4.80902 6.55239 4.84725C6.5059 4.88778 6.43062 4.91536 6.28005 4.97051C4.36595 5.67173 3 7.50976 3 9.66683C3 12.4283 5.23858 14.6668 8 14.6668C10.7614 14.6668 13 12.4283 13 9.66683C13 7.50976 11.6341 5.67173 9.71995 4.97051C9.56938 4.91536 9.4941 4.88778 9.44761 4.84725C9.40376 4.80902 9.37621 4.76958 9.3554 4.71526C9.33333 4.65767 9.33333 4.58528 9.33333 4.4405V1.33355M5.66667 1.3335H10.3333" stroke="#383E40" stroke-width="1.5" stroke-linecap="round" stroke-linejoin="round"/>
</svg>
