<svg width="16" height="16" viewBox="0 0 16 16" fill="none" xmlns="http://www.w3.org/2000/svg">
<path d="M10.4304 12.0099C10.7163 13.0768 10.0832 14.1735 9.01623 14.4593C7.9493 14.7452 6.85263 14.1121 6.56674 13.0451M1.37106 7.7422C1.1114 6.81008 1.38142 5.80232 2.07236 5.12492M8.09738 3.82723C8.30018 3.46237 8.36699 3.02137 8.25041 2.5863C8.01218 1.69719 7.09828 1.16955 6.20917 1.40779C5.32006 1.64603 4.79242 2.55992 5.03066 3.44903C5.14724 3.8841 5.42559 4.23261 5.78366 4.44719M13.5459 4.48C13.3047 3.54293 12.5669 2.8052 11.6299 2.56401M11.6603 6.29685C11.4223 5.40877 10.787 4.66612 9.89416 4.2323C9.00131 3.79848 7.92403 3.70902 6.89932 3.98359C5.8746 4.25816 4.98638 4.87428 4.43006 5.6964C3.87374 6.51853 3.69489 7.47932 3.93285 8.36741C4.32657 9.83677 4.25012 11.009 4.00148 11.8998C3.7181 12.915 3.57642 13.4226 3.61469 13.5246C3.65849 13.6412 3.69017 13.6732 3.80632 13.7182C3.90785 13.7575 4.33436 13.6433 5.18739 13.4147L13.0974 11.2952C13.9505 11.0666 14.377 10.9523 14.4452 10.8675C14.5233 10.7705 14.5348 10.7269 14.5144 10.604C14.4966 10.4966 14.12 10.1278 13.367 9.3903C12.7063 8.74319 12.054 7.76622 11.6603 6.29685Z" stroke="#383E40" stroke-width="1.5" stroke-linecap="round" stroke-linejoin="round"/>
</svg>
