<svg width="16" height="16" viewBox="0 0 16 16" fill="none" xmlns="http://www.w3.org/2000/svg">
<path d="M6.23597 13.9999C6.70606 14.4148 7.32355 14.6666 7.99985 14.6666C8.67615 14.6666 9.29364 14.4148 9.76373 13.9999M11.9998 5.33325V1.33325M9.99985 3.33325H13.9998M8.66652 1.38918C8.44767 1.35219 8.22473 1.33325 7.99985 1.33325C6.93898 1.33325 5.92157 1.75468 5.17142 2.50482C4.42128 3.25497 3.99985 4.27239 3.99985 5.33325C3.99985 7.39338 3.48016 8.80389 2.89963 9.73686C2.40994 10.5238 2.16509 10.9173 2.17407 11.0271C2.18401 11.1486 2.20976 11.195 2.3077 11.2676C2.39616 11.3333 2.79491 11.3333 3.59242 11.3333H12.4073C13.2048 11.3333 13.6035 11.3333 13.6919 11.2676C13.7899 11.195 13.8156 11.1486 13.8256 11.0271C13.8346 10.9173 13.5897 10.5238 13.1 9.7367C12.7719 9.20949 12.4633 8.5298 12.257 7.66659" stroke="#383E40" stroke-width="1.5" stroke-linecap="round" stroke-linejoin="round"/>
</svg>
