<svg width="16" height="16" viewBox="0 0 16 16" fill="none" xmlns="http://www.w3.org/2000/svg">
<path d="M9.59399 12.0099C9.87987 13.0768 9.24671 14.1735 8.17978 14.4593C7.11285 14.7452 6.01617 14.1121 5.73029 13.0451M7.26101 3.82723C7.46382 3.46237 7.53062 3.02137 7.41405 2.5863C7.17581 1.69719 6.26192 1.16955 5.37281 1.40779C4.4837 1.64603 3.95606 2.55992 4.1943 3.44903C4.31087 3.8841 4.58923 4.23261 4.94729 4.44719M10.8239 6.29686C10.586 5.40877 9.95069 4.66613 9.05784 4.23231C8.16499 3.79849 7.08771 3.70902 6.06299 3.98359C5.03827 4.25816 4.15006 4.87428 3.59374 5.69641C3.03742 6.51853 2.85857 7.47932 3.09653 8.36741C3.49024 9.83678 3.41379 11.009 3.16516 11.8998C2.88178 12.915 2.74009 13.4226 2.77837 13.5246C2.82216 13.6412 2.85384 13.6732 2.97 13.7182C3.07153 13.7575 3.49804 13.6433 4.35107 13.4147L12.2611 11.2952C13.1141 11.0666 13.5407 10.9524 13.6089 10.8675C13.687 10.7705 13.6984 10.7269 13.6781 10.604C13.6602 10.4966 13.2837 10.1278 12.5307 9.39031C11.87 8.7432 11.2177 7.76623 10.8239 6.29686Z" stroke="#383E40" stroke-width="1.5" stroke-linecap="round" stroke-linejoin="round"/>
</svg>
