<svg width="16" height="16" viewBox="0 0 16 16" fill="none" xmlns="http://www.w3.org/2000/svg">
<path d="M6.23609 13.9999C6.70618 14.4148 7.32367 14.6666 7.99997 14.6666C8.67627 14.6666 9.29377 14.4148 9.76385 13.9999M12 5.33325V1.33325M9.99997 3.33325H14M8.66664 1.38918C8.44779 1.35219 8.22486 1.33325 7.99997 1.33325C6.93911 1.33325 5.92169 1.75468 5.17154 2.50482C4.4214 3.25497 3.99997 4.27239 3.99997 5.33325C3.99997 7.39338 3.48028 8.80389 2.89975 9.73686C2.41006 10.5238 2.16521 10.9173 2.17419 11.0271C2.18413 11.1486 2.20988 11.195 2.30782 11.2676C2.39628 11.3333 2.79503 11.3333 3.59254 11.3333H12.4074C13.2049 11.3333 13.6036 11.3333 13.6921 11.2676C13.79 11.195 13.8158 11.1486 13.8257 11.0271C13.8347 10.9173 13.5898 10.5238 13.1001 9.7367C12.7721 9.20949 12.4635 8.5298 12.2571 7.66659" stroke="#383E40" stroke-width="1.5" stroke-linecap="round" stroke-linejoin="round"/>
</svg>
