<svg width="16" height="16" viewBox="0 0 16 16" fill="none" xmlns="http://www.w3.org/2000/svg">
<path d="M9.59375 12.0099C9.87963 13.0768 9.24647 14.1735 8.17953 14.4593C7.1126 14.7452 6.01593 14.1121 5.73004 13.0451M7.26077 3.82723C7.46357 3.46237 7.53038 3.02137 7.41381 2.5863C7.17557 1.69719 6.26167 1.16955 5.37256 1.40779C4.48345 1.64603 3.95582 2.55992 4.19405 3.44903C4.31063 3.8841 4.58898 4.23261 4.94705 4.44719M10.8237 6.29686C10.5857 5.40877 9.95044 4.66613 9.05759 4.23231C8.16474 3.79849 7.08747 3.70902 6.06275 3.98359C5.03803 4.25816 4.14981 4.87428 3.59349 5.69641C3.03717 6.51853 2.85832 7.47932 3.09628 8.36741C3.49 9.83678 3.41355 11.009 3.16491 11.8998C2.88154 12.915 2.73985 13.4226 2.77813 13.5246C2.82192 13.6412 2.8536 13.6732 2.96975 13.7182C3.07128 13.7575 3.4978 13.6433 4.35082 13.4147L12.2609 11.2952C13.1139 11.0666 13.5404 10.9524 13.6087 10.8675C13.6868 10.7705 13.6982 10.7269 13.6778 10.604C13.66 10.4966 13.2835 10.1278 12.5304 9.39031C11.8697 8.7432 11.2174 7.76623 10.8237 6.29686Z" stroke="#383E40" stroke-width="1.5" stroke-linecap="round" stroke-linejoin="round"/>
</svg>
