<svg width="16" height="16" viewBox="0 0 16 16" fill="none" xmlns="http://www.w3.org/2000/svg">
<path d="M10 12.6666C10 13.7712 9.10457 14.6666 8 14.6666C6.89543 14.6666 6 13.7712 6 12.6666M9.19767 4.15896C9.488 3.85901 9.66667 3.45033 9.66667 2.99992C9.66667 2.07944 8.92048 1.33325 8 1.33325C7.07953 1.33325 6.33334 2.07944 6.33334 2.99992C6.33334 3.45033 6.512 3.85901 6.80233 4.15896M1.69788 5.54856C1.68832 4.58099 2.20997 3.67746 3.05269 3.20196M14.3021 5.54856C14.3117 4.58099 13.79 3.67746 12.9473 3.20196M12 7.46659C12 6.54717 11.5786 5.66541 10.8284 5.01528C10.0783 4.36516 9.06087 3.99992 8 3.99992C6.93914 3.99992 5.92172 4.36516 5.17158 5.01528C4.42143 5.66541 4 6.54717 4 7.46659C4 8.98779 3.62276 10.1003 3.15205 10.8964C2.61556 11.8037 2.34732 12.2573 2.35791 12.3657C2.37003 12.4897 2.39235 12.5288 2.4929 12.6023C2.58078 12.6666 3.02234 12.6666 3.90546 12.6666H12.0945C12.9777 12.6666 13.4192 12.6666 13.5071 12.6023C13.6077 12.5288 13.63 12.4897 13.6421 12.3657C13.6527 12.2573 13.3844 11.8037 12.848 10.8964C12.3772 10.1003 12 8.98779 12 7.46659Z" stroke="#383E40" stroke-width="1.5" stroke-linecap="round" stroke-linejoin="round"/>
</svg>
