<svg width="16" height="16" viewBox="0 0 16 16" fill="none" xmlns="http://www.w3.org/2000/svg">
<path d="M10.4307 12.0099C10.7166 13.0768 10.0834 14.1735 9.01648 14.4593C7.94955 14.7452 6.85287 14.1121 6.56699 13.0451M1.3713 7.7422C1.11164 6.81008 1.38167 5.80232 2.0726 5.12492M8.09762 3.82723C8.30043 3.46237 8.36723 3.02137 8.25066 2.5863C8.01242 1.69719 7.09853 1.16955 6.20942 1.40779C5.32031 1.64603 4.79267 2.55992 5.03091 3.44903C5.14748 3.8841 5.42584 4.23261 5.7839 4.44719M13.5461 4.48C13.3049 3.54293 12.5672 2.8052 11.6301 2.56401M11.6605 6.29685C11.4225 5.40877 10.7873 4.66612 9.89441 4.2323C9.00156 3.79848 7.92428 3.70902 6.89956 3.98359C5.87484 4.25816 4.98662 4.87428 4.4303 5.6964C3.87398 6.51853 3.69513 7.47932 3.9331 8.36741C4.32681 9.83677 4.25036 11.009 4.00173 11.8998C3.71835 12.915 3.57666 13.4226 3.61494 13.5246C3.65873 13.6412 3.69041 13.6732 3.80657 13.7182C3.90809 13.7575 4.33461 13.6433 5.18764 13.4147L13.0977 11.2952C13.9507 11.0666 14.3772 10.9523 14.4455 10.8675C14.5236 10.7705 14.535 10.7269 14.5146 10.604C14.4968 10.4966 14.1203 10.1278 13.3673 9.3903C12.7066 8.74319 12.0542 7.76622 11.6605 6.29685Z" stroke="#383E40" stroke-width="1.5" stroke-linecap="round" stroke-linejoin="round"/>
</svg>
