<svg width="16" height="16" viewBox="0 0 16 16" fill="none" xmlns="http://www.w3.org/2000/svg">
<path d="M7.23801 4.66667L3.42849 11.3333M3.99992 12.6667H11.9998M12.5713 11.3333L8.76182 4.66667M2.39992 14H2.93325C3.30662 14 3.4933 14 3.63591 13.9273C3.76135 13.8634 3.86334 13.7614 3.92726 13.636C3.99992 13.4934 3.99992 13.3067 3.99992 12.9333V12.4C3.99992 12.0266 3.99992 11.8399 3.92726 11.6973C3.86334 11.5719 3.76135 11.4699 3.63591 11.406C3.4933 11.3333 3.30662 11.3333 2.93325 11.3333H2.39992C2.02655 11.3333 1.83987 11.3333 1.69726 11.406C1.57182 11.4699 1.46983 11.5719 1.40591 11.6973C1.33325 11.8399 1.33325 12.0266 1.33325 12.4V12.9333C1.33325 13.3067 1.33325 13.4934 1.40591 13.636C1.46983 13.7614 1.57182 13.8634 1.69726 13.9273C1.83987 14 2.02655 14 2.39992 14ZM13.0666 14H13.5999C13.9733 14 14.16 14 14.3026 13.9273C14.428 13.8634 14.53 13.7614 14.5939 13.636C14.6666 13.4934 14.6666 13.3067 14.6666 12.9333V12.4C14.6666 12.0266 14.6666 11.8399 14.5939 11.6973C14.53 11.5719 14.428 11.4699 14.3026 11.406C14.16 11.3333 13.9733 11.3333 13.5999 11.3333H13.0666C12.6932 11.3333 12.5065 11.3333 12.3639 11.406C12.2385 11.4699 12.1365 11.5719 12.0726 11.6973C11.9999 11.8399 11.9999 12.0266 11.9999 12.4V12.9333C11.9999 13.3067 11.9999 13.4934 12.0726 13.636C12.1365 13.7614 12.2385 13.8634 12.3639 13.9273C12.5065 14 12.6932 14 13.0666 14ZM7.73325 4.66667H8.26659C8.63995 4.66667 8.82664 4.66667 8.96925 4.594C9.09469 4.53009 9.19667 4.4281 9.26059 4.30266C9.33325 4.16005 9.33325 3.97337 9.33325 3.6V3.06667C9.33325 2.6933 9.33325 2.50661 9.26059 2.36401C9.19667 2.23856 9.09469 2.13658 8.96925 2.07266C8.82664 2 8.63995 2 8.26659 2H7.73325C7.35988 2 7.1732 2 7.03059 2.07266C6.90515 2.13658 6.80316 2.23856 6.73925 2.36401C6.66659 2.50661 6.66659 2.6933 6.66659 3.06667V3.6C6.66659 3.97337 6.66659 4.16005 6.73925 4.30266C6.80316 4.4281 6.90515 4.53009 7.03059 4.594C7.1732 4.66667 7.35988 4.66667 7.73325 4.66667Z" stroke="#383E40" stroke-width="1.5" stroke-linecap="round" stroke-linejoin="round"/>
</svg>
