<svg width="16" height="16" viewBox="0 0 16 16" fill="none" xmlns="http://www.w3.org/2000/svg">
<path d="M6.66645 13.509C4.60785 13.0125 2.98746 11.3921 2.491 9.33346M13.509 9.3335C13.0125 11.3921 11.3921 13.0125 9.33352 13.509M9.33339 2.49121C11.392 2.98769 13.0125 4.60812 13.509 6.66676M2.49113 6.66683C2.9876 4.60816 4.60805 2.9877 6.66672 2.49121M2.39992 9.3335H2.93325C3.30662 9.3335 3.4933 9.3335 3.63591 9.26083C3.76135 9.19692 3.86334 9.09493 3.92726 8.96949C3.99992 8.82688 3.99992 8.6402 3.99992 8.26683V7.7335C3.99992 7.36013 3.99992 7.17344 3.92726 7.03084C3.86334 6.90539 3.76135 6.80341 3.63591 6.73949C3.4933 6.66683 3.30662 6.66683 2.93325 6.66683H2.39992C2.02655 6.66683 1.83987 6.66683 1.69726 6.73949C1.57182 6.80341 1.46983 6.90539 1.40591 7.03084C1.33325 7.17344 1.33325 7.36013 1.33325 7.7335V8.26683C1.33325 8.6402 1.33325 8.82688 1.40591 8.96949C1.46983 9.09493 1.57182 9.19692 1.69726 9.26083C1.83987 9.3335 2.02655 9.3335 2.39992 9.3335ZM13.0666 9.3335H13.5999C13.9733 9.3335 14.16 9.3335 14.3026 9.26083C14.428 9.19692 14.53 9.09493 14.5939 8.96949C14.6666 8.82688 14.6666 8.6402 14.6666 8.26683V7.7335C14.6666 7.36013 14.6666 7.17344 14.5939 7.03084C14.53 6.90539 14.428 6.80341 14.3026 6.73949C14.16 6.66683 13.9733 6.66683 13.5999 6.66683H13.0666C12.6932 6.66683 12.5065 6.66683 12.3639 6.73949C12.2385 6.80341 12.1365 6.90539 12.0726 7.03084C11.9999 7.17344 11.9999 7.36013 11.9999 7.7335V8.26683C11.9999 8.6402 11.9999 8.82688 12.0726 8.96949C12.1365 9.09493 12.2385 9.19692 12.3639 9.26083C12.5065 9.3335 12.6932 9.3335 13.0666 9.3335ZM7.73325 4.00016H8.26659C8.63995 4.00016 8.82664 4.00016 8.96925 3.9275C9.09469 3.86358 9.19667 3.7616 9.26059 3.63616C9.33325 3.49355 9.33325 3.30686 9.33325 2.9335V2.40016C9.33325 2.02679 9.33325 1.84011 9.26059 1.6975C9.19667 1.57206 9.09469 1.47007 8.96925 1.40616C8.82664 1.3335 8.63995 1.3335 8.26659 1.3335H7.73325C7.35988 1.3335 7.1732 1.3335 7.03059 1.40616C6.90515 1.47007 6.80316 1.57206 6.73925 1.6975C6.66659 1.84011 6.66659 2.02679 6.66659 2.40016V2.9335C6.66659 3.30686 6.66659 3.49355 6.73925 3.63616C6.80316 3.7616 6.90515 3.86358 7.03059 3.9275C7.1732 4.00016 7.35988 4.00016 7.73325 4.00016ZM7.73325 14.6668H8.26659C8.63995 14.6668 8.82664 14.6668 8.96925 14.5942C9.09469 14.5303 9.19667 14.4283 9.26059 14.3028C9.33325 14.1602 9.33325 13.9735 9.33325 13.6002V13.0668C9.33325 12.6935 9.33325 12.5068 9.26059 12.3642C9.19667 12.2387 9.09469 12.1367 8.96925 12.0728C8.82664 12.0002 8.63995 12.0002 8.26659 12.0002H7.73325C7.35988 12.0002 7.1732 12.0002 7.03059 12.0728C6.90515 12.1367 6.80316 12.2387 6.73925 12.3642C6.66659 12.5068 6.66659 12.6935 6.66659 13.0668V13.6002C6.66659 13.9735 6.66659 14.1602 6.73925 14.3028C6.80316 14.4283 6.90515 14.5303 7.03059 14.5942C7.1732 14.6668 7.35988 14.6668 7.73325 14.6668Z" stroke="#383E40" stroke-width="1.5" stroke-linecap="round" stroke-linejoin="round"/>
</svg>
