<svg width="16" height="16" viewBox="0 0 16 16" fill="none" xmlns="http://www.w3.org/2000/svg">
<path d="M6.66659 4.66683L1.99992 4.66683M13.9999 4.66683L9.33325 4.66683M9.33325 4.8348C11.6336 5.42686 13.3333 7.51499 13.3333 10.0001M2.66659 10.0001C2.66659 7.51499 4.36628 5.42686 6.66659 4.8348M2.39992 12.6668H2.93325C3.30662 12.6668 3.4933 12.6668 3.63591 12.5942C3.76135 12.5303 3.86334 12.4283 3.92726 12.3028C3.99992 12.1602 3.99992 11.9735 3.99992 11.6002V11.0668C3.99992 10.6935 3.99992 10.5068 3.92726 10.3642C3.86334 10.2387 3.76135 10.1367 3.63591 10.0728C3.4933 10.0002 3.30662 10.0002 2.93325 10.0002H2.39992C2.02655 10.0002 1.83987 10.0002 1.69726 10.0728C1.57182 10.1367 1.46983 10.2387 1.40591 10.3642C1.33325 10.5068 1.33325 10.6935 1.33325 11.0668V11.6002C1.33325 11.9735 1.33325 12.1602 1.40591 12.3028C1.46983 12.4283 1.57182 12.5303 1.69726 12.5942C1.83987 12.6668 2.02655 12.6668 2.39992 12.6668ZM7.73325 6.00016H8.26659C8.63995 6.00016 8.82664 6.00016 8.96925 5.9275C9.09469 5.86358 9.19667 5.7616 9.26059 5.63616C9.33325 5.49355 9.33325 5.30686 9.33325 4.9335V4.40016C9.33325 4.02679 9.33325 3.84011 9.26059 3.6975C9.19667 3.57206 9.09469 3.47007 8.96925 3.40616C8.82664 3.3335 8.63995 3.3335 8.26659 3.3335H7.73325C7.35988 3.3335 7.1732 3.3335 7.03059 3.40616C6.90515 3.47007 6.80316 3.57206 6.73925 3.6975C6.66659 3.84011 6.66659 4.02679 6.66659 4.40016V4.9335C6.66659 5.30686 6.66659 5.49355 6.73925 5.63616C6.80316 5.7616 6.90515 5.86358 7.03059 5.9275C7.1732 6.00016 7.35988 6.00016 7.73325 6.00016ZM13.0666 12.6668H13.5999C13.9733 12.6668 14.16 12.6668 14.3026 12.5942C14.428 12.5303 14.53 12.4283 14.5939 12.3028C14.6666 12.1602 14.6666 11.9735 14.6666 11.6002V11.0668C14.6666 10.6935 14.6666 10.5068 14.5939 10.3642C14.53 10.2387 14.428 10.1367 14.3026 10.0728C14.16 10.0002 13.9733 10.0002 13.5999 10.0002H13.0666C12.6932 10.0002 12.5065 10.0002 12.3639 10.0728C12.2385 10.1367 12.1365 10.2387 12.0726 10.3642C11.9999 10.5068 11.9999 10.6935 11.9999 11.0668V11.6002C11.9999 11.9735 11.9999 12.1602 12.0726 12.3028C12.1365 12.4283 12.2385 12.5303 12.3639 12.5942C12.5065 12.6668 12.6932 12.6668 13.0666 12.6668ZM14.6666 4.66683C14.6666 5.03502 14.3681 5.3335 13.9999 5.3335C13.6317 5.3335 13.3333 5.03502 13.3333 4.66683C13.3333 4.29864 13.6317 4.00016 13.9999 4.00016C14.3681 4.00016 14.6666 4.29864 14.6666 4.66683ZM2.66659 4.66683C2.66659 5.03502 2.36811 5.3335 1.99992 5.3335C1.63173 5.3335 1.33325 5.03502 1.33325 4.66683C1.33325 4.29864 1.63173 4.00016 1.99992 4.00016C2.36811 4.00016 2.66659 4.29864 2.66659 4.66683Z" stroke="#383E40" stroke-width="1.5" stroke-linecap="round" stroke-linejoin="round"/>
</svg>
