<svg width="16" height="16" viewBox="0 0 16 16" fill="none" xmlns="http://www.w3.org/2000/svg">
<path d="M6.66683 4.66683L2.00016 4.66683M14.0002 4.66683L9.3335 4.66683M9.3335 4.8348C11.6338 5.42686 13.3335 7.51499 13.3335 10.0001M2.66683 10.0001C2.66683 7.51499 4.36653 5.42686 6.66683 4.8348M2.40016 12.6668H2.9335C3.30686 12.6668 3.49355 12.6668 3.63616 12.5942C3.7616 12.5303 3.86358 12.4283 3.9275 12.3028C4.00016 12.1602 4.00016 11.9735 4.00016 11.6002V11.0668C4.00016 10.6935 4.00016 10.5068 3.9275 10.3642C3.86358 10.2387 3.7616 10.1367 3.63616 10.0728C3.49355 10.0002 3.30686 10.0002 2.9335 10.0002H2.40016C2.02679 10.0002 1.84011 10.0002 1.6975 10.0728C1.57206 10.1367 1.47007 10.2387 1.40616 10.3642C1.3335 10.5068 1.3335 10.6935 1.3335 11.0668V11.6002C1.3335 11.9735 1.3335 12.1602 1.40616 12.3028C1.47007 12.4283 1.57206 12.5303 1.6975 12.5942C1.84011 12.6668 2.02679 12.6668 2.40016 12.6668ZM7.7335 6.00016H8.26683C8.6402 6.00016 8.82688 6.00016 8.96949 5.9275C9.09493 5.86358 9.19692 5.7616 9.26083 5.63616C9.3335 5.49355 9.3335 5.30686 9.3335 4.9335V4.40016C9.3335 4.02679 9.3335 3.84011 9.26083 3.6975C9.19692 3.57206 9.09493 3.47007 8.96949 3.40616C8.82688 3.3335 8.6402 3.3335 8.26683 3.3335H7.7335C7.36013 3.3335 7.17344 3.3335 7.03084 3.40616C6.90539 3.47007 6.80341 3.57206 6.73949 3.6975C6.66683 3.84011 6.66683 4.02679 6.66683 4.40016V4.9335C6.66683 5.30686 6.66683 5.49355 6.73949 5.63616C6.80341 5.7616 6.90539 5.86358 7.03084 5.9275C7.17344 6.00016 7.36013 6.00016 7.7335 6.00016ZM13.0668 12.6668H13.6002C13.9735 12.6668 14.1602 12.6668 14.3028 12.5942C14.4283 12.5303 14.5303 12.4283 14.5942 12.3028C14.6668 12.1602 14.6668 11.9735 14.6668 11.6002V11.0668C14.6668 10.6935 14.6668 10.5068 14.5942 10.3642C14.5303 10.2387 14.4283 10.1367 14.3028 10.0728C14.1602 10.0002 13.9735 10.0002 13.6002 10.0002H13.0668C12.6935 10.0002 12.5068 10.0002 12.3642 10.0728C12.2387 10.1367 12.1367 10.2387 12.0728 10.3642C12.0002 10.5068 12.0002 10.6935 12.0002 11.0668V11.6002C12.0002 11.9735 12.0002 12.1602 12.0728 12.3028C12.1367 12.4283 12.2387 12.5303 12.3642 12.5942C12.5068 12.6668 12.6935 12.6668 13.0668 12.6668ZM14.6668 4.66683C14.6668 5.03502 14.3684 5.3335 14.0002 5.3335C13.632 5.3335 13.3335 5.03502 13.3335 4.66683C13.3335 4.29864 13.632 4.00016 14.0002 4.00016C14.3684 4.00016 14.6668 4.29864 14.6668 4.66683ZM2.66683 4.66683C2.66683 5.03502 2.36835 5.3335 2.00016 5.3335C1.63197 5.3335 1.3335 5.03502 1.3335 4.66683C1.3335 4.29864 1.63197 4.00016 2.00016 4.00016C2.36835 4.00016 2.66683 4.29864 2.66683 4.66683Z" stroke="#383E40" stroke-width="1.5" stroke-linecap="round" stroke-linejoin="round"/>
</svg>
