<svg width="16" height="16" viewBox="0 0 16 16" fill="none" xmlns="http://www.w3.org/2000/svg">
<path d="M8.99984 4.31337C8.99984 3.94 8.99984 3.75332 9.0725 3.61071C9.13641 3.48527 9.2384 3.38328 9.36384 3.31937C9.50645 3.2467 9.69314 3.2467 10.0665 3.2467H13.2665C13.6399 3.2467 13.8266 3.2467 13.9692 3.31937C14.0946 3.38328 14.1966 3.48527 14.2605 3.61071C14.3332 3.75332 14.3332 3.94 14.3332 4.31337V6.18004C14.3332 6.55341 14.3332 6.74009 14.2605 6.8827C14.1966 7.00814 14.0946 7.11013 13.9692 7.17404C13.8266 7.2467 13.6399 7.2467 13.2665 7.2467H10.0665C9.69314 7.2467 9.50645 7.2467 9.36384 7.17404C9.2384 7.11013 9.13641 7.00814 9.0725 6.8827C8.99984 6.74009 8.99984 6.55341 8.99984 6.18004V4.31337Z" stroke="#383E40" stroke-width="1.5" stroke-linecap="round" stroke-linejoin="round"/>
<path d="M1.6665 4.31337C1.6665 3.94 1.6665 3.75332 1.73917 3.61071C1.80308 3.48527 1.90507 3.38328 2.03051 3.31937C2.17312 3.2467 2.3598 3.2467 2.73317 3.2467H5.93317C6.30654 3.2467 6.49322 3.2467 6.63583 3.31937C6.76127 3.38328 6.86326 3.48527 6.92717 3.61071C6.99984 3.75332 6.99984 3.94 6.99984 4.31337V6.18004C6.99984 6.55341 6.99984 6.74009 6.92717 6.8827C6.86326 7.00814 6.76127 7.11013 6.63583 7.17404C6.49322 7.2467 6.30654 7.2467 5.93317 7.2467H2.73317C2.3598 7.2467 2.17312 7.2467 2.03051 7.17404C1.90507 7.11013 1.80308 7.00814 1.73917 6.8827C1.6665 6.74009 1.6665 6.55341 1.6665 6.18004V4.31337Z" stroke="#383E40" stroke-width="1.5" stroke-linecap="round" stroke-linejoin="round"/>
<path d="M1.6665 10.4C1.6665 10.0266 1.6665 9.83993 1.73917 9.69732C1.80308 9.57188 1.90507 9.4699 2.03051 9.40598C2.17312 9.33332 2.3598 9.33332 2.73317 9.33332H5.93317C6.30654 9.33332 6.49322 9.33332 6.63583 9.40598C6.76127 9.4699 6.86326 9.57188 6.92717 9.69732C6.99984 9.83993 6.99984 10.0266 6.99984 10.4V12.2667C6.99984 12.64 6.99984 12.8267 6.92717 12.9693C6.86326 13.0948 6.76127 13.1967 6.63583 13.2607C6.49322 13.3333 6.30654 13.3333 5.93317 13.3333H2.73317C2.3598 13.3333 2.17312 13.3333 2.03051 13.2607C1.90507 13.1967 1.80308 13.0948 1.73917 12.9693C1.6665 12.8267 1.6665 12.64 1.6665 12.2667V10.4Z" stroke="#383E40" stroke-width="1.5" stroke-linecap="round" stroke-linejoin="round"/>
<path d="M8.9866 10.4095C8.9866 10.0362 8.9866 9.84949 9.05926 9.70688C9.12318 9.58144 9.22516 9.47946 9.3506 9.41554C9.49321 9.34288 9.6799 9.34288 10.0533 9.34288H13.2533C13.6266 9.34288 13.8133 9.34288 13.9559 9.41554C14.0814 9.47946 14.1834 9.58144 14.2473 9.70688C14.3199 9.84949 14.3199 10.0362 14.3199 10.4095V12.2762C14.3199 12.6496 14.3199 12.8363 14.2473 12.9789C14.1834 13.1043 14.0814 13.2063 13.9559 13.2702C13.8133 13.3429 13.6266 13.3429 13.2533 13.3429H10.0533C9.6799 13.3429 9.49321 13.3429 9.3506 13.2702C9.22516 13.2063 9.12318 13.1043 9.05926 12.9789C8.9866 12.8363 8.9866 12.6496 8.9866 12.2762V10.4095Z" stroke="#383E40" stroke-width="1.5" stroke-linecap="round" stroke-linejoin="round"/>
</svg>
