<svg width="16" height="16" viewBox="0 0 16 16" fill="none" xmlns="http://www.w3.org/2000/svg">
<path d="M7.99992 13.3332H3.46659C2.71985 13.3332 2.34648 13.3332 2.06126 13.1878C1.81038 13.06 1.60641 12.856 1.47858 12.6052C1.33325 12.3199 1.33325 11.9466 1.33325 11.1998V4.79984C1.33325 4.0531 1.33325 3.67973 1.47858 3.39452C1.60641 3.14363 1.81038 2.93966 2.06126 2.81183C2.34648 2.6665 2.71985 2.6665 3.46659 2.6665H3.73325C5.22673 2.6665 5.97346 2.6665 6.54389 2.95715C7.04566 3.21282 7.45361 3.62076 7.70927 4.12253C7.99992 4.69296 7.99992 5.4397 7.99992 6.93317M7.99992 13.3332V6.93317M7.99992 13.3332H12.5333C13.28 13.3332 13.6534 13.3332 13.9386 13.1878C14.1895 13.06 14.3934 12.856 14.5213 12.6052C14.6666 12.3199 14.6666 11.9466 14.6666 11.1998V4.79984C14.6666 4.0531 14.6666 3.67973 14.5213 3.39452C14.3934 3.14363 14.1895 2.93966 13.9386 2.81183C13.6534 2.6665 13.28 2.6665 12.5333 2.6665H12.2666C10.7731 2.6665 10.0264 2.6665 9.45594 2.95715C8.95418 3.21282 8.54623 3.62076 8.29057 4.12253C7.99992 4.69296 7.99992 5.4397 7.99992 6.93317" stroke="#383E40" stroke-width="1.5" stroke-linecap="round" stroke-linejoin="round"/>
</svg>
