<svg width="16" height="16" viewBox="0 0 16 16" fill="none" xmlns="http://www.w3.org/2000/svg">
<path d="M8.00016 13.3332H3.46683C2.72009 13.3332 2.34672 13.3332 2.06151 13.1878C1.81063 13.06 1.60665 12.856 1.47882 12.6052C1.3335 12.3199 1.3335 11.9466 1.3335 11.1998V4.79984C1.3335 4.0531 1.3335 3.67973 1.47882 3.39452C1.60665 3.14363 1.81063 2.93966 2.06151 2.81183C2.34672 2.6665 2.72009 2.6665 3.46683 2.6665H3.7335C5.22697 2.6665 5.97371 2.6665 6.54414 2.95715C7.0459 3.21282 7.45385 3.62076 7.70951 4.12253C8.00016 4.69296 8.00016 5.4397 8.00016 6.93317M8.00016 13.3332V6.93317M8.00016 13.3332H12.5335C13.2802 13.3332 13.6536 13.3332 13.9388 13.1878C14.1897 13.06 14.3937 12.856 14.5215 12.6052C14.6668 12.3199 14.6668 11.9466 14.6668 11.1998V4.79984C14.6668 4.0531 14.6668 3.67973 14.5215 3.39452C14.3937 3.14363 14.1897 2.93966 13.9388 2.81183C13.6536 2.6665 13.2802 2.6665 12.5335 2.6665H12.2668C10.7734 2.6665 10.0266 2.6665 9.45619 2.95715C8.95442 3.21282 8.54647 3.62076 8.29081 4.12253C8.00016 4.69296 8.00016 5.4397 8.00016 6.93317" stroke="#383E40" stroke-width="1.5" stroke-linecap="round" stroke-linejoin="round"/>
</svg>
