<svg width="16" height="16" viewBox="0 0 16 16" fill="none" xmlns="http://www.w3.org/2000/svg">
<path d="M13.6666 5.33333V10.8C13.6666 11.9201 13.6666 12.4802 13.4486 12.908C13.2569 13.2843 12.9509 13.5903 12.5746 13.782C12.1467 14 11.5867 14 10.4666 14H5.53325C4.41315 14 3.85309 14 3.42527 13.782C3.04895 13.5903 2.74299 13.2843 2.55124 12.908C2.33325 12.4802 2.33325 11.9201 2.33325 10.8V5.33333M2.39992 2H13.5999C13.9733 2 14.16 2 14.3026 2.07266C14.428 2.13658 14.53 2.23856 14.5939 2.36401C14.6666 2.50661 14.6666 2.6933 14.6666 3.06667V4.26667C14.6666 4.64004 14.6666 4.82672 14.5939 4.96933C14.53 5.09477 14.428 5.19676 14.3026 5.26067C14.16 5.33333 13.9733 5.33333 13.5999 5.33333H2.39992C2.02655 5.33333 1.83987 5.33333 1.69726 5.26067C1.57182 5.19676 1.46983 5.09477 1.40591 4.96933C1.33325 4.82672 1.33325 4.64004 1.33325 4.26667V3.06667C1.33325 2.6933 1.33325 2.50661 1.40591 2.36401C1.46983 2.23856 1.57182 2.13658 1.69726 2.07266C1.83987 2 2.02655 2 2.39992 2ZM6.39992 7.66667H9.59992C9.97329 7.66667 10.16 7.66667 10.3026 7.73933C10.428 7.80324 10.53 7.90523 10.5939 8.03067C10.6666 8.17328 10.6666 8.35997 10.6666 8.73333V9.26667C10.6666 9.64003 10.6666 9.82672 10.5939 9.96933C10.53 10.0948 10.428 10.1968 10.3026 10.2607C10.16 10.3333 9.97329 10.3333 9.59992 10.3333H6.39992C6.02655 10.3333 5.83987 10.3333 5.69726 10.2607C5.57182 10.1968 5.46983 10.0948 5.40591 9.96933C5.33325 9.82672 5.33325 9.64003 5.33325 9.26667V8.73333C5.33325 8.35997 5.33325 8.17328 5.40591 8.03067C5.46983 7.90523 5.57182 7.80324 5.69726 7.73933C5.83987 7.66667 6.02655 7.66667 6.39992 7.66667Z" stroke="#383E40" stroke-width="1.5" stroke-linecap="round" stroke-linejoin="round"/>
</svg>
