<svg width="16" height="16" viewBox="0 0 16 16" fill="none" xmlns="http://www.w3.org/2000/svg">
<path d="M12.3805 13.3334C13.2219 13.3334 13.9045 12.6514 13.9045 11.8094V8.76208L14.6665 8.00008L13.9045 7.23808V4.19075C13.9045 3.34875 13.2225 2.66675 12.3805 2.66675M3.61934 2.66675C2.77734 2.66675 2.09534 3.34875 2.09534 4.19075V7.23808L1.33334 8.00008L2.09534 8.76208V11.8094C2.09534 12.6514 2.77734 13.3334 3.61934 13.3334M5 8.00008L6.62288 9.62296C6.75488 9.75496 6.82089 9.82097 6.897 9.8457C6.96394 9.86745 7.03606 9.86745 7.10301 9.8457C7.17912 9.82097 7.24512 9.75496 7.37713 9.62296L11 6.00008" stroke="#383E40" stroke-width="1.5" stroke-linecap="round" stroke-linejoin="round"/>
</svg>
