<svg width="16" height="16" viewBox="0 0 16 16" fill="none" xmlns="http://www.w3.org/2000/svg">
<path d="M12.3807 13.3332C13.222 13.3332 13.9047 12.6512 13.9047 11.8092V8.76184L14.6667 7.99984L13.9047 7.23784V4.1905C13.9047 3.3485 13.2227 2.6665 12.3807 2.6665M3.6195 2.6665C2.7775 2.6665 2.0955 3.3485 2.0955 4.1905V7.23784L1.3335 7.99984L2.0955 8.76184V11.8092C2.0955 12.6512 2.7775 13.3332 3.6195 13.3332M5.00016 7.99984H5.00683M8.00016 7.99984H8.00683M11.0002 7.99984H11.0068M5.3335 7.99984C5.3335 8.18393 5.18426 8.33317 5.00016 8.33317C4.81607 8.33317 4.66683 8.18393 4.66683 7.99984C4.66683 7.81574 4.81607 7.6665 5.00016 7.6665C5.18426 7.6665 5.3335 7.81574 5.3335 7.99984ZM8.3335 7.99984C8.3335 8.18393 8.18426 8.33317 8.00016 8.33317C7.81607 8.33317 7.66683 8.18393 7.66683 7.99984C7.66683 7.81574 7.81607 7.6665 8.00016 7.6665C8.18426 7.6665 8.3335 7.81574 8.3335 7.99984ZM11.3335 7.99984C11.3335 8.18393 11.1843 8.33317 11.0002 8.33317C10.8161 8.33317 10.6668 8.18393 10.6668 7.99984C10.6668 7.81574 10.8161 7.6665 11.0002 7.6665C11.1843 7.6665 11.3335 7.81574 11.3335 7.99984Z" stroke="#383E40" stroke-width="1.5" stroke-linecap="round" stroke-linejoin="round"/>
</svg>
