<svg width="16" height="16" viewBox="0 0 16 16" fill="none" xmlns="http://www.w3.org/2000/svg">
<path d="M13.3332 6.66683V2.40016C13.3332 2.02679 13.3332 1.84011 13.2605 1.6975C13.1966 1.57206 13.0946 1.47007 12.9692 1.40616C12.8266 1.3335 12.6399 1.3335 12.2665 1.3335H3.73317C3.3598 1.3335 3.17312 1.3335 3.03051 1.40616C2.90507 1.47007 2.80308 1.57206 2.73917 1.6975C2.6665 1.84011 2.6665 2.02679 2.6665 2.40016V6.66683M13.3332 6.66683H2.6665M13.3332 6.66683V6.80016C13.3332 7.92027 13.3332 8.48032 13.1152 8.90814C12.9234 9.28447 12.6175 9.59043 12.2412 9.78218C11.8133 10.0002 11.2533 10.0002 10.1332 10.0002H5.8665C4.7464 10.0002 4.18635 10.0002 3.75852 9.78218C3.3822 9.59043 3.07624 9.28447 2.88449 8.90814C2.6665 8.48032 2.6665 7.92027 2.6665 6.80016V6.66683M9.6665 10.0002V13.0002C9.6665 13.9206 8.92031 14.6668 7.99984 14.6668C7.07936 14.6668 6.33317 13.9206 6.33317 13.0002V10.0002" stroke="#383E40" stroke-width="1.5" stroke-linecap="round" stroke-linejoin="round"/>
</svg>
