<svg width="16" height="16" viewBox="0 0 16 16" fill="none" xmlns="http://www.w3.org/2000/svg">
<path d="M6.00015 7.48127L8.51866 9.99979M5.31673 13.983C4.4055 14.8943 2.66683 14.6665 1.3335 14.6665C2.0169 13.3331 1.10567 11.5944 2.0169 10.6832C2.92812 9.77198 4.4055 9.77198 5.31673 10.6832C6.22795 11.5944 6.22795 13.0718 5.31673 13.983ZM7.9479 10.6162L14.0393 4.03748C14.5758 3.45804 14.5585 2.55818 14.0001 1.99979C13.4417 1.44139 12.5419 1.42409 11.9624 1.96062L5.38372 8.05202C5.04376 8.36679 4.87378 8.52418 4.77465 8.69204C4.53693 9.09455 4.52736 9.59215 4.74944 10.0035C4.84205 10.175 5.00585 10.3388 5.33346 10.6665C5.66107 10.9941 5.82487 11.1579 5.99641 11.2505C6.40776 11.4726 6.90537 11.463 7.30788 11.2253C7.47574 11.1261 7.63312 10.9562 7.9479 10.6162Z" stroke="#383E40" stroke-width="1.5" stroke-linecap="round" stroke-linejoin="round"/>
</svg>
