<svg width="16" height="16" viewBox="0 0 16 16" fill="none" xmlns="http://www.w3.org/2000/svg">
<path d="M10 14V10.4C10 10.0266 10 9.83995 9.92734 9.69734C9.86342 9.5719 9.76144 9.46991 9.63599 9.406C9.49339 9.33333 9.3067 9.33333 8.93333 9.33333H7.06667C6.6933 9.33333 6.50661 9.33333 6.36401 9.406C6.23857 9.46991 6.13658 9.5719 6.07266 9.69734C6 9.83995 6 10.0266 6 10.4V14M2 4.66667C2 5.77124 2.89543 6.66667 4 6.66667C5.10457 6.66667 6 5.77124 6 4.66667C6 5.77124 6.89543 6.66667 8 6.66667C9.10457 6.66667 10 5.77124 10 4.66667C10 5.77124 10.8954 6.66667 12 6.66667C13.1046 6.66667 14 5.77124 14 4.66667M4.13333 14H11.8667C12.6134 14 12.9868 14 13.272 13.8547C13.5229 13.7268 13.7268 13.5229 13.8547 13.272C14 12.9868 14 12.6134 14 11.8667V4.13333C14 3.3866 14 3.01323 13.8547 2.72801C13.7268 2.47713 13.5229 2.27316 13.272 2.14532C12.9868 2 12.6134 2 11.8667 2H4.13333C3.3866 2 3.01323 2 2.72801 2.14532C2.47713 2.27316 2.27316 2.47713 2.14532 2.72801C2 3.01323 2 3.3866 2 4.13333V11.8667C2 12.6134 2 12.9868 2.14532 13.272C2.27316 13.5229 2.47713 13.7268 2.72801 13.8547C3.01323 14 3.3866 14 4.13333 14Z" stroke="#383E40" stroke-width="1.5" stroke-linecap="round" stroke-linejoin="round"/>
</svg>
