<svg width="16" height="16" viewBox="0 0 16 16" fill="none" xmlns="http://www.w3.org/2000/svg">
<path d="M14.6668 7.66683V9.7335C14.6668 11.227 14.6668 11.9737 14.3762 12.5441C14.1205 13.0459 13.7126 13.4539 13.2108 13.7095C12.6404 14.0002 11.8936 14.0002 10.4002 14.0002H5.60016C4.10669 14.0002 3.35995 14.0002 2.78952 13.7095C2.28776 13.4539 1.87981 13.0459 1.62415 12.5441C1.3335 11.9737 1.3335 11.227 1.3335 9.7335V6.26683C1.3335 4.77336 1.3335 4.02662 1.62415 3.45619C1.87981 2.95442 2.28776 2.54647 2.78952 2.29081C3.35995 2.00016 4.10669 2.00016 5.60016 2.00016H8.3335M12.6668 5.3335V1.3335M10.6668 3.3335H14.6668M10.6668 8.00016C10.6668 9.47292 9.47292 10.6668 8.00016 10.6668C6.5274 10.6668 5.3335 9.47292 5.3335 8.00016C5.3335 6.5274 6.5274 5.3335 8.00016 5.3335C9.47292 5.3335 10.6668 6.5274 10.6668 8.00016Z" stroke="#383E40" stroke-width="1.5" stroke-linecap="round" stroke-linejoin="round"/>
</svg>
