<svg width="16" height="16" viewBox="0 0 16 16" fill="none" xmlns="http://www.w3.org/2000/svg">
<path d="M3.33337 3.3335H3.61262C3.70156 3.3335 3.74603 3.3335 3.7863 3.33106C4.30045 3.29992 4.75067 2.97541 4.9428 2.4975C4.95785 2.46007 4.97191 2.41788 5.00004 2.3335C5.02817 2.24911 5.04223 2.20692 5.05728 2.1695C5.24941 1.69158 5.69963 1.36707 6.21378 1.33593C6.25405 1.3335 6.29852 1.3335 6.38747 1.3335H9.61262C9.70156 1.3335 9.74603 1.3335 9.7863 1.33593C10.3004 1.36707 10.7507 1.69158 10.9428 2.1695C10.9579 2.20692 10.9719 2.24911 11 2.3335C11.0282 2.41788 11.0422 2.46007 11.0573 2.4975C11.2494 2.97541 11.6996 3.29992 12.2138 3.33106C12.254 3.3335 12.3015 3.3335 12.3963 3.3335C12.6425 3.3335 12.7655 3.3335 12.8639 3.34324C13.8125 3.43723 14.563 4.18767 14.657 5.1363C14.6667 5.23466 14.6667 5.35143 14.6667 5.58498V12.0002C14.6667 12.7234 14.2828 13.357 13.7076 13.7083M10.0428 10.0478C10.4322 9.58424 10.6667 8.98626 10.6667 8.3335C10.6667 6.86074 9.4728 5.66683 8.00004 5.66683C7.34776 5.66683 6.75017 5.90103 6.28679 6.28992M14.6667 14.6668L1.33337 1.3335M1.33337 5.00016V10.8002C1.33337 11.9203 1.33337 12.4803 1.55136 12.9081C1.74311 13.2845 2.04907 13.5904 2.42539 13.7822C2.85322 14.0002 3.41327 14.0002 4.53337 14.0002H10.3334M8.00004 11.0002C6.52728 11.0002 5.33337 9.80626 5.33337 8.3335" stroke="#383E40" stroke-width="1.5" stroke-linecap="round" stroke-linejoin="round"/>
</svg>
