<svg width="16" height="16" viewBox="0 0 16 16" fill="none" xmlns="http://www.w3.org/2000/svg">
<path d="M14.6667 7.66683V9.7335C14.6667 11.227 14.6667 11.9737 14.3761 12.5441C14.1204 13.0459 13.7124 13.4539 13.2107 13.7095C12.6403 14.0002 11.8935 14.0002 10.4 14.0002H5.60004C4.10657 14.0002 3.35983 14.0002 2.7894 13.7095C2.28763 13.4539 1.87969 13.0459 1.62402 12.5441C1.33337 11.9737 1.33337 11.227 1.33337 9.7335V6.26683C1.33337 4.77336 1.33337 4.02662 1.62402 3.45619C1.87969 2.95442 2.28763 2.54647 2.7894 2.29081C3.35983 2.00016 4.10657 2.00016 5.60004 2.00016H8.33337M12.6667 5.3335V1.3335M10.6667 3.3335H14.6667M10.6667 8.00016C10.6667 9.47292 9.4728 10.6668 8.00004 10.6668C6.52728 10.6668 5.33337 9.47292 5.33337 8.00016C5.33337 6.5274 6.52728 5.3335 8.00004 5.3335C9.4728 5.3335 10.6667 6.5274 10.6667 8.00016Z" stroke="#383E40" stroke-width="1.5" stroke-linecap="round" stroke-linejoin="round"/>
</svg>
