<svg width="16" height="16" viewBox="0 0 16 16" fill="none" xmlns="http://www.w3.org/2000/svg">
<path d="M6 12.3335H10M4.66667 10.0002H11.3333M3.33333 1.3335H12.6667C13.403 1.3335 14 1.99678 14 2.81498V13.1853C14 14.0035 13.403 14.6668 12.6667 14.6668H3.33333C2.59695 14.6668 2 14.0035 2 13.1853V2.81498C2 1.99678 2.59695 1.3335 3.33333 1.3335ZM7.9984 4.14146C7.53189 3.62203 6.75394 3.48231 6.16943 3.95794C5.58492 4.43358 5.50263 5.22882 5.96165 5.79136C6.42067 6.3539 7.9984 7.66683 7.9984 7.66683C7.9984 7.66683 9.57614 6.3539 10.0352 5.79136C10.4942 5.22882 10.4219 4.42858 9.82738 3.95794C9.23282 3.48731 8.46492 3.62203 7.9984 4.14146Z" stroke="#383E40" stroke-width="1.5" stroke-linecap="round" stroke-linejoin="round"/>
</svg>
