<svg width="16" height="16" viewBox="0 0 16 16" fill="none" xmlns="http://www.w3.org/2000/svg">
<path d="M7.33333 1.99998H5.2C4.0799 1.99998 3.51984 1.99998 3.09202 2.21797C2.71569 2.40971 2.40973 2.71567 2.21799 3.092C2 3.51982 2 4.07987 2 5.19998V10.8C2 11.9201 2 12.4801 2.21799 12.908C2.40973 13.2843 2.71569 13.5902 3.09202 13.782C3.51984 14 4.07989 14 5.2 14H10.8C11.9201 14 12.4802 14 12.908 13.782C13.2843 13.5902 13.5903 13.2843 13.782 12.908C14 12.4801 14 11.9201 14 10.8V8.66665M8 5.33331H10.6667V7.99998M10.3333 2.33331V1.33331M12.9596 3.04042L13.6667 2.33331M13.6735 5.66665H14.6735M2 8.89805C2.43463 8.96516 2.87991 8.99998 3.33333 8.99998C6.25757 8.99998 8.84355 7.55171 10.4131 5.33331" stroke="#383E40" stroke-width="1.5" stroke-linecap="round" stroke-linejoin="round"/>
</svg>
