<svg width="16" height="16" viewBox="0 0 16 16" fill="none" xmlns="http://www.w3.org/2000/svg">
<path fill-rule="evenodd" clip-rule="evenodd" d="M10.8272 14.973H5.17214C4.63549 14.9731 4.19259 14.9731 3.83179 14.9436C3.45706 14.913 3.11259 14.8473 2.78903 14.6824C2.28727 14.4267 1.87932 14.0188 1.62366 13.517C1.4588 13.1935 1.39309 12.849 1.36247 12.4743C1.33299 12.1135 1.333 11.6706 1.33301 11.1339V7.47883C1.333 6.94219 1.33299 6.49929 1.36247 6.13849C1.39309 5.76376 1.4588 5.41929 1.62366 5.09574C1.87932 4.59397 2.28727 4.18602 2.78903 3.93036C3.11259 3.7655 3.45706 3.69979 3.83179 3.66917C4.19258 3.6397 4.63549 3.6397 5.17213 3.63971H9.54384C9.98658 3.63971 10.1155 3.63657 10.2328 3.61249C10.3505 3.58834 10.4644 3.54839 10.5714 3.49373C10.678 3.43924 10.7807 3.36116 11.1264 3.08458L12.7352 1.79757C12.8576 1.69957 12.9824 1.59968 13.0922 1.52713C13.1971 1.45774 13.4006 1.33354 13.6653 1.33325C13.9698 1.33292 14.2579 1.47139 14.4479 1.7094C14.613 1.91624 14.6431 2.15273 14.6545 2.27803C14.6664 2.40904 14.6664 2.5689 14.6663 2.72574L14.6663 11.1339C14.6664 11.6706 14.6664 12.1135 14.6369 12.4743C14.6063 12.849 14.5406 13.1935 14.3757 13.517C14.12 14.0188 13.7121 14.4267 13.2103 14.6824C12.8868 14.8473 12.5423 14.913 12.1676 14.9436C11.8068 14.9731 11.3639 14.9731 10.8272 14.973ZM5.33301 7.9999C5.7012 7.9999 5.99968 8.29838 5.99968 8.66657V9.9999C5.99968 10.3681 5.7012 10.6666 5.33301 10.6666C4.96483 10.6666 4.66635 10.3681 4.66635 9.9999V8.66657C4.66635 8.29838 4.96483 7.9999 5.33301 7.9999ZM9.99968 7.9999C10.3679 7.9999 10.6663 8.29838 10.6663 8.66657V9.9999C10.6663 10.3681 10.3679 10.6666 9.99968 10.6666C9.63149 10.6666 9.33301 10.3681 9.33301 9.9999V8.66657C9.33301 8.29838 9.63149 7.9999 9.99968 7.9999Z" fill="#383E40"/>
</svg>
