<svg width="16" height="16" viewBox="0 0 16 16" fill="none" xmlns="http://www.w3.org/2000/svg">
<path d="M6 8.00004L7.33334 9.33337L10.3333 6.33337M6.1346 13.734C6.3531 13.7051 6.57383 13.7643 6.74788 13.8984L7.55004 14.5139C7.8152 14.7176 8.18406 14.7176 8.44848 14.5139L9.28101 13.8747C9.43655 13.7554 9.63283 13.7028 9.82689 13.7288L10.8683 13.8658C11.1994 13.9095 11.5186 13.7251 11.6467 13.4162L12.0474 12.4473C12.1223 12.2658 12.2659 12.1221 12.4474 12.0473L13.4162 11.6466C13.7251 11.5192 13.9095 11.1992 13.8658 10.8681L13.734 9.86443C13.7051 9.64592 13.7643 9.42519 13.8984 9.25112L14.5139 8.44892C14.7176 8.18374 14.7176 7.81486 14.5139 7.55042L13.8747 6.71785C13.7554 6.5623 13.7029 6.36601 13.7288 6.17194L13.8658 5.13049C13.9095 4.79939 13.7251 4.48014 13.4162 4.35199L12.4474 3.95126C12.2659 3.87645 12.1223 3.73275 12.0474 3.55128L11.6467 2.58241C11.5193 2.27353 11.1994 2.08909 10.8683 2.1328L9.82689 2.26983C9.63283 2.2965 9.43655 2.2439 9.28175 2.12539L8.44922 1.48615C8.18406 1.28245 7.8152 1.28245 7.55078 1.48615L6.71826 2.12539C6.56272 2.2439 6.36644 2.2965 6.17238 2.27131L5.13098 2.13428C4.7999 2.09058 4.48067 2.27501 4.35253 2.5839L3.95256 3.55276C3.87701 3.73349 3.73332 3.87719 3.5526 3.95275L2.58379 4.35273C2.27492 4.48088 2.09049 4.80013 2.13419 5.13123L2.27122 6.17268C2.2964 6.36675 2.24382 6.56304 2.12531 6.71785L1.4861 7.55042C1.28241 7.8156 1.28241 8.18448 1.4861 8.44892L2.12531 9.28149C2.24456 9.43704 2.29714 9.63333 2.27122 9.8274L2.13419 10.8689C2.09049 11.2 2.27492 11.5192 2.58379 11.6473L3.5526 12.0481C3.73406 12.1229 3.87775 12.2666 3.95256 12.4481L4.35327 13.4169C4.48067 13.7258 4.80064 13.9102 5.13172 13.8665L6.1346 13.734Z" stroke="#383E40" stroke-width="1.5" stroke-linecap="round" stroke-linejoin="round"/>
</svg>
