<svg width="16" height="16" viewBox="0 0 16 16" fill="none" xmlns="http://www.w3.org/2000/svg">
<path d="M4.00016 10L5.3335 11.3334L8.3335 8.33337M5.3335 5.33337V3.46671C5.3335 2.71997 5.3335 2.3466 5.47882 2.06139C5.60665 1.8105 5.81063 1.60653 6.06151 1.4787C6.34672 1.33337 6.72009 1.33337 7.46683 1.33337H12.5335C13.2802 1.33337 13.6536 1.33337 13.9388 1.4787C14.1897 1.60653 14.3937 1.8105 14.5215 2.06139C14.6668 2.3466 14.6668 2.71997 14.6668 3.46671V8.53337C14.6668 9.28011 14.6668 9.65348 14.5215 9.93869C14.3937 10.1896 14.1897 10.3936 13.9388 10.5214C13.6536 10.6667 13.2802 10.6667 12.5335 10.6667H10.6668M3.46683 14.6667H8.5335C9.28023 14.6667 9.6536 14.6667 9.93882 14.5214C10.1897 14.3936 10.3937 14.1896 10.5215 13.9387C10.6668 13.6535 10.6668 13.2801 10.6668 12.5334V7.46671C10.6668 6.71997 10.6668 6.3466 10.5215 6.06139C10.3937 5.8105 10.1897 5.60653 9.93882 5.4787C9.6536 5.33337 9.28023 5.33337 8.5335 5.33337H3.46683C2.72009 5.33337 2.34672 5.33337 2.06151 5.4787C1.81063 5.60653 1.60665 5.8105 1.47882 6.06139C1.3335 6.3466 1.3335 6.71997 1.3335 7.46671V12.5334C1.3335 13.2801 1.3335 13.6535 1.47882 13.9387C1.60665 14.1896 1.81063 14.3936 2.06151 14.5214C2.34672 14.6667 2.72009 14.6667 3.46683 14.6667Z" stroke="#383E40" stroke-width="1.5" stroke-linecap="round" stroke-linejoin="round"/>
</svg>
