<svg width="16" height="16" viewBox="0 0 16 16" fill="none" xmlns="http://www.w3.org/2000/svg">
<path d="M6.00016 8.00004L7.3335 9.33337L10.3335 6.33337M6.13476 13.734C6.35326 13.7051 6.57399 13.7643 6.74805 13.8984L7.5502 14.5139C7.81536 14.7176 8.18422 14.7176 8.44864 14.5139L9.28117 13.8747C9.43671 13.7554 9.63299 13.7028 9.82705 13.7288L10.8684 13.8658C11.1995 13.9095 11.5188 13.7251 11.6469 13.4162L12.0476 12.4473C12.1224 12.2658 12.2661 12.1221 12.4476 12.0473L13.4164 11.6466C13.7252 11.5192 13.9097 11.1992 13.866 10.8681L13.7341 9.86443C13.7052 9.64592 13.7645 9.42519 13.8986 9.25112L14.5141 8.44892C14.7178 8.18374 14.7178 7.81486 14.5141 7.55042L13.8749 6.71785C13.7556 6.5623 13.703 6.36601 13.7289 6.17194L13.866 5.13049C13.9097 4.79939 13.7252 4.48014 13.4164 4.35199L12.4476 3.95126C12.2661 3.87645 12.1224 3.73275 12.0476 3.55128L11.6469 2.58241C11.5195 2.27353 11.1995 2.08909 10.8684 2.1328L9.82705 2.26983C9.63299 2.2965 9.43671 2.2439 9.28191 2.12539L8.44938 1.48615C8.18422 1.28245 7.81536 1.28245 7.55094 1.48615L6.71842 2.12539C6.56288 2.2439 6.3666 2.2965 6.17254 2.27131L5.13114 2.13428C4.80006 2.09058 4.48083 2.27501 4.35269 2.5839L3.95272 3.55276C3.87717 3.73349 3.73348 3.87719 3.55276 3.95275L2.58395 4.35273C2.27508 4.48088 2.09066 4.80013 2.13436 5.13123L2.27138 6.17268C2.29656 6.36675 2.24398 6.56304 2.12547 6.71785L1.48626 7.55042C1.28257 7.8156 1.28257 8.18448 1.48626 8.44892L2.12547 9.28149C2.24472 9.43704 2.2973 9.63333 2.27138 9.8274L2.13436 10.8689C2.09066 11.2 2.27508 11.5192 2.58395 11.6473L3.55276 12.0481C3.73422 12.1229 3.87791 12.2666 3.95272 12.4481L4.35343 13.4169C4.48083 13.7258 4.8008 13.9102 5.13188 13.8665L6.13476 13.734Z" stroke="#383E40" stroke-width="1.5" stroke-linecap="round" stroke-linejoin="round"/>
</svg>
