<svg width="16" height="16" viewBox="0 0 16 16" fill="none" xmlns="http://www.w3.org/2000/svg">
<path d="M6 8.00004L7.33334 9.33337L10.3333 6.33337M11.9341 3.33238C12.0714 3.6644 12.3349 3.92831 12.6667 4.06609L13.8302 4.54803C14.1622 4.68556 14.426 4.94937 14.5635 5.28141C14.7011 5.61346 14.7011 5.98654 14.5635 6.31858L14.0819 7.48124C13.9444 7.81343 13.9442 8.18689 14.0824 8.51892L14.5631 9.68124C14.6313 9.8457 14.6664 10.022 14.6664 10.2C14.6665 10.378 14.6314 10.5543 14.5633 10.7188C14.4952 10.8833 14.3953 11.0327 14.2694 11.1586C14.1435 11.2845 13.994 11.3843 13.8295 11.4524L12.6669 11.934C12.3349 12.0712 12.071 12.3347 11.9332 12.6666L11.4513 13.8301C11.3138 14.1621 11.05 14.4259 10.7179 14.5634C10.3859 14.701 10.0128 14.701 9.68081 14.5634L8.51819 14.0819C8.18615 13.9447 7.81322 13.9449 7.48139 14.0826L6.31793 14.5639C5.98608 14.7011 5.61334 14.701 5.28158 14.5636C4.94982 14.4261 4.68617 14.1626 4.54854 13.8309L4.06648 12.6671C3.9292 12.3351 3.6657 12.0712 3.3339 11.9334L2.17045 11.4515C1.83856 11.314 1.57484 11.0503 1.43726 10.7185C1.29967 10.3866 1.29949 10.0137 1.43674 9.68174L1.91831 8.51907C2.0555 8.18702 2.05523 7.81408 1.91753 7.48223L1.43665 6.3179C1.36847 6.15344 1.33336 5.97716 1.33334 5.79913C1.33331 5.6211 1.36836 5.44481 1.43648 5.28033C1.50461 5.11585 1.60448 4.96641 1.73038 4.84054C1.85628 4.71468 2.00575 4.61485 2.17025 4.54678L3.33287 4.06519C3.66458 3.92802 3.92833 3.66484 4.0662 3.33341L4.54812 2.16991C4.68566 1.83787 4.94945 1.57406 5.28148 1.43653C5.61352 1.29899 5.98658 1.29899 6.31861 1.43653L7.48123 1.91812C7.81327 2.05532 8.18621 2.05504 8.51804 1.91734L9.68198 1.43727C10.014 1.29981 10.387 1.29984 10.7189 1.43735C11.0509 1.57486 11.3146 1.83859 11.4522 2.17055L11.9343 3.33439L11.9341 3.33238Z" stroke="#383E40" stroke-width="1.5" stroke-linecap="round" stroke-linejoin="round"/>
</svg>
