<svg width="16" height="16" viewBox="0 0 16 16" fill="none" xmlns="http://www.w3.org/2000/svg">
<path d="M6.00016 8.00004L7.3335 9.33337L10.3335 6.33337M4.88934 2.54584C5.42523 2.50307 5.93397 2.29235 6.34314 1.94365C7.29798 1.12995 8.70235 1.12995 9.65718 1.94365C10.0664 2.29235 10.5751 2.50307 11.111 2.54584C12.3615 2.64563 13.3546 3.63867 13.4544 4.88922C13.4971 5.42511 13.7079 5.93385 14.0566 6.34302C14.8703 7.29786 14.8703 8.70222 14.0566 9.65706C13.7079 10.0662 13.4971 10.575 13.4544 11.1109C13.3546 12.3614 12.3615 13.3544 11.111 13.4542C10.5751 13.497 10.0664 13.7077 9.65718 14.0564C8.70235 14.8701 7.29798 14.8701 6.34314 14.0564C5.93397 13.7077 5.42523 13.497 4.88934 13.4542C3.63879 13.3544 2.64575 12.3614 2.54596 11.1109C2.5032 10.575 2.29247 10.0662 1.94378 9.65706C1.13007 8.70222 1.13007 7.29786 1.94378 6.34302C2.29247 5.93385 2.5032 5.42511 2.54596 4.88922C2.64575 3.63867 3.63879 2.64563 4.88934 2.54584Z" stroke="#383E40" stroke-width="1.5" stroke-linecap="round" stroke-linejoin="round"/>
</svg>
