<svg width="16" height="16" viewBox="0 0 16 16" fill="none" xmlns="http://www.w3.org/2000/svg">
<path d="M12.55 10.4001C12.3514 10.6593 11.902 10.6666 11.6512 10.6666L8.06213 10.6666L4.5413 10.6667C4.2417 10.6667 3.81169 10.6666 3.56187 10.5197C3.34269 10.3908 3.3201 10.1843 3.33779 10.0381C3.35186 9.92177 3.42174 9.82314 3.5021 9.73792L7.39251 5.6127C7.40045 5.60428 7.4085 5.59601 7.41712 5.58829C7.47469 5.53673 7.72321 5.33342 8.06216 5.33342C8.38628 5.33342 8.62771 5.51933 8.69856 5.58068C8.71318 5.59334 8.72436 5.60502 8.7373 5.61939C9.00992 5.92231 12.3979 9.68711 12.55 9.86674C12.7084 10.0539 12.7018 10.2019 12.55 10.4001Z" fill="#383E40"/>
</svg>
