<svg width="16" height="16" viewBox="0 0 16 16" fill="none" xmlns="http://www.w3.org/2000/svg">
<path d="M1.3335 8.03333C2.68736 8.18391 3.94968 8.7907 4.91291 9.75392C5.87613 10.7171 6.48292 11.9795 6.6335 13.3333M1.3335 10.7333C1.97409 10.864 2.56212 11.1801 3.02442 11.6424C3.48671 12.1047 3.80285 12.6927 3.9335 13.3333M1.3335 13.3333H1.34016M9.3335 14H11.4668C12.5869 14 13.147 14 13.5748 13.782C13.9511 13.5903 14.2571 13.2843 14.4488 12.908C14.6668 12.4802 14.6668 11.9201 14.6668 10.8V5.2C14.6668 4.0799 14.6668 3.51984 14.4488 3.09202C14.2571 2.71569 13.9511 2.40973 13.5748 2.21799C13.147 2 12.5869 2 11.4668 2H4.5335C3.41339 2 2.85334 2 2.42552 2.21799C2.04919 2.40973 1.74323 2.71569 1.55148 3.09202C1.3335 3.51984 1.3335 4.0799 1.3335 5.2V5.33333" stroke="#383E40" stroke-width="1.5" stroke-linecap="round" stroke-linejoin="round"/>
</svg>
