<svg width="16" height="16" viewBox="0 0 16 16" fill="none" xmlns="http://www.w3.org/2000/svg">
<path d="M1.33325 8.03333C2.68711 8.18391 3.94944 8.7907 4.91266 9.75392C5.87589 10.7171 6.48268 11.9795 6.63325 13.3333M1.33325 10.7333C1.97385 10.864 2.56188 11.1801 3.02417 11.6424C3.48647 12.1047 3.80261 12.6927 3.93325 13.3333M1.33325 13.3333H1.33992M9.33325 14H11.4666C12.5867 14 13.1467 14 13.5746 13.782C13.9509 13.5903 14.2569 13.2843 14.4486 12.908C14.6666 12.4802 14.6666 11.9201 14.6666 10.8V5.2C14.6666 4.0799 14.6666 3.51984 14.4486 3.09202C14.2569 2.71569 13.9509 2.40973 13.5746 2.21799C13.1467 2 12.5867 2 11.4666 2H4.53325C3.41315 2 2.85309 2 2.42527 2.21799C2.04895 2.40973 1.74299 2.71569 1.55124 3.09202C1.33325 3.51984 1.33325 4.0799 1.33325 5.2V5.33333" stroke="#383E40" stroke-width="1.5" stroke-linecap="round" stroke-linejoin="round"/>
</svg>
