<svg width="16" height="16" viewBox="0 0 16 16" fill="none" xmlns="http://www.w3.org/2000/svg">
<path d="M4.00016 4.00016H4.00683M4.00016 12.0002H4.00683M3.46683 6.66683H12.5335C13.2802 6.66683 13.6536 6.66683 13.9388 6.5215C14.1897 6.39367 14.3937 6.1897 14.5215 5.93882C14.6668 5.6536 14.6668 5.28023 14.6668 4.5335V3.46683C14.6668 2.72009 14.6668 2.34672 14.5215 2.06151C14.3937 1.81063 14.1897 1.60665 13.9388 1.47882C13.6536 1.3335 13.2802 1.3335 12.5335 1.3335H3.46683C2.72009 1.3335 2.34672 1.3335 2.06151 1.47882C1.81063 1.60665 1.60665 1.81063 1.47882 2.06151C1.3335 2.34672 1.3335 2.72009 1.3335 3.46683V4.5335C1.3335 5.28023 1.3335 5.6536 1.47882 5.93882C1.60665 6.1897 1.81063 6.39367 2.06151 6.5215C2.34672 6.66683 2.72009 6.66683 3.46683 6.66683ZM3.46683 14.6668H12.5335C13.2802 14.6668 13.6536 14.6668 13.9388 14.5215C14.1897 14.3937 14.3937 14.1897 14.5215 13.9388C14.6668 13.6536 14.6668 13.2802 14.6668 12.5335V11.4668C14.6668 10.7201 14.6668 10.3467 14.5215 10.0615C14.3937 9.81063 14.1897 9.60665 13.9388 9.47882C13.6536 9.3335 13.2802 9.3335 12.5335 9.3335H3.46683C2.72009 9.3335 2.34672 9.3335 2.06151 9.47882C1.81063 9.60665 1.60665 9.81063 1.47882 10.0615C1.3335 10.3467 1.3335 10.7201 1.3335 11.4668V12.5335C1.3335 13.2802 1.3335 13.6536 1.47882 13.9388C1.60665 14.1897 1.81063 14.3937 2.06151 14.5215C2.34672 14.6668 2.72009 14.6668 3.46683 14.6668Z" stroke="#383E40" stroke-width="1.5" stroke-linecap="round" stroke-linejoin="round"/>
</svg>
