<svg width="16" height="16" viewBox="0 0 16 16" fill="none" xmlns="http://www.w3.org/2000/svg">
<path d="M3.99967 5.33329H4.00634M3.99967 10.6666H4.00634M3.99967 7.99996H11.9997C13.4724 7.99996 14.6663 6.80605 14.6663 5.33329C14.6663 3.86053 13.4724 2.66663 11.9997 2.66663H3.99967C2.52692 2.66663 1.33301 3.86053 1.33301 5.33329C1.33301 6.80605 2.52692 7.99996 3.99967 7.99996ZM3.99967 7.99996C2.52692 7.99996 1.33301 9.19387 1.33301 10.6666C1.33301 12.1394 2.52692 13.3333 3.99967 13.3333H6.89443M14.6663 13.1824H9.33301L10.6663 14.6666M9.33301 10.8175H14.6663L13.333 9.33329" stroke="#383E40" stroke-width="1.5" stroke-linecap="round" stroke-linejoin="round"/>
</svg>
