<svg width="16" height="16" viewBox="0 0 16 16" fill="none" xmlns="http://www.w3.org/2000/svg">
<path d="M8.00001 5.99988L2.70925 9.43887C2.25069 9.73694 2.0214 9.88597 1.94199 10.075C1.8726 10.2401 1.8726 10.4263 1.94199 10.5915M8.00001 5.99988L13.2908 9.43887C13.7493 9.73694 13.9786 9.88597 14.058 10.075C14.1274 10.2401 14.1274 10.4263 14.058 10.5915M8.00001 5.99988V1.66655M8.00001 9.99988L2.70925 6.56089C2.25069 6.26282 2.0214 6.11378 1.94199 5.92479C1.8726 5.75962 1.8726 5.57347 1.94199 5.4083M8.00001 9.99988L13.2908 6.56089C13.7493 6.26282 13.9786 6.11378 14.058 5.92479C14.1274 5.75962 14.1274 5.57347 14.058 5.4083M8.00001 9.99988V14.3332M14.1813 10.6487L8.58133 14.2887C8.37092 14.4255 8.26571 14.4938 8.15235 14.5204C8.05215 14.544 7.94787 14.544 7.84767 14.5204C7.73431 14.4938 7.6291 14.4255 7.41869 14.2887L1.81869 10.6487C1.64135 10.5334 1.55268 10.4758 1.48844 10.3989C1.43157 10.3309 1.38886 10.2521 1.36279 10.1674C1.33334 10.0716 1.33334 9.96585 1.33334 9.75435V6.24541C1.33334 6.0339 1.33334 5.92815 1.36279 5.83239C1.38886 5.74762 1.43157 5.66891 1.48844 5.60085C1.55268 5.52397 1.64135 5.46634 1.81869 5.35107L7.41869 1.71107C7.6291 1.5743 7.73431 1.50592 7.84767 1.47931C7.94787 1.45579 8.05215 1.45579 8.15235 1.47931C8.26571 1.50592 8.37092 1.5743 8.58133 1.71107L14.1813 5.35107C14.3587 5.46634 14.4473 5.52397 14.5116 5.60085C14.5684 5.66891 14.6112 5.74762 14.6372 5.83239C14.6667 5.92815 14.6667 6.0339 14.6667 6.24541V9.75435C14.6667 9.96585 14.6667 10.0716 14.6372 10.1674C14.6112 10.2521 14.5684 10.3309 14.5116 10.3989C14.4473 10.4758 14.3587 10.5334 14.1813 10.6487Z" stroke="#383E40" stroke-width="1.5" stroke-linecap="round" stroke-linejoin="round"/>
</svg>
