<svg width="16" height="16" viewBox="0 0 16 16" fill="none" xmlns="http://www.w3.org/2000/svg">
<path d="M8.66667 3.33333C8.66667 4.06971 7.02505 4.66667 5 4.66667C2.97496 4.66667 1.33334 4.06971 1.33334 3.33333M8.66667 3.33333C8.66667 2.59695 7.02505 2 5 2C2.97496 2 1.33334 2.59695 1.33334 3.33333M8.66667 3.33333V4.33333M1.33334 3.33333V11.3333C1.33334 12.0697 2.97496 12.6667 5 12.6667M5 7.33333C4.88764 7.33333 4.77646 7.3315 4.66667 7.3279C2.79784 7.26666 1.33334 6.69552 1.33334 6M5 10C2.97496 10 1.33334 9.40305 1.33334 8.66667M14.6667 7.66667C14.6667 8.40305 13.025 9 11 9C8.97496 9 7.33334 8.40305 7.33334 7.66667M14.6667 7.66667C14.6667 6.93029 13.025 6.33333 11 6.33333C8.97496 6.33333 7.33334 6.93029 7.33334 7.66667M14.6667 7.66667V12.6667C14.6667 13.403 13.025 14 11 14C8.97496 14 7.33334 13.403 7.33334 12.6667V7.66667M14.6667 10.1667C14.6667 10.903 13.025 11.5 11 11.5C8.97496 11.5 7.33334 10.903 7.33334 10.1667" stroke="#383E40" stroke-width="1.5" stroke-linecap="round" stroke-linejoin="round"/>
</svg>
