<svg width="16" height="16" viewBox="0 0 16 16" fill="none" xmlns="http://www.w3.org/2000/svg">
<path d="M4.00016 4.00016L5.3335 2.66683M5.3335 2.66683L4.00016 1.3335M5.3335 2.66683H4.00016C2.5274 2.66683 1.3335 3.86074 1.3335 5.3335M12.0002 12.0002L10.6668 13.3335M10.6668 13.3335L12.0002 14.6668M10.6668 13.3335H12.0002C13.4729 13.3335 14.6668 12.1396 14.6668 10.6668M6.79285 4.3335C7.23689 2.60827 8.80299 1.3335 10.6668 1.3335C12.876 1.3335 14.6668 3.12436 14.6668 5.3335C14.6668 7.19732 13.3921 8.76341 11.6669 9.20747M9.3335 10.6668C9.3335 12.876 7.54264 14.6668 5.3335 14.6668C3.12436 14.6668 1.3335 12.876 1.3335 10.6668C1.3335 8.45769 3.12436 6.66683 5.3335 6.66683C7.54264 6.66683 9.3335 8.45769 9.3335 10.6668Z" stroke="#383E40" stroke-width="1.5" stroke-linecap="round" stroke-linejoin="round"/>
</svg>
