<svg width="16" height="16" viewBox="0 0 16 16" fill="none" xmlns="http://www.w3.org/2000/svg">
<path d="M9.01966 5.56807C8.63805 5.84013 8.17105 6.00016 7.66667 6.00016C6.378 6.00016 5.33334 4.95549 5.33334 3.66683C5.33334 2.37816 6.378 1.3335 7.66667 1.3335C8.50199 1.3335 9.2348 1.77244 9.64701 2.43226M4 13.3916H5.7402C5.96709 13.3916 6.19259 13.4186 6.41254 13.4726L8.25126 13.9194C8.65023 14.0166 9.06585 14.0261 9.46898 13.9478L11.502 13.5522C12.039 13.4476 12.5331 13.1905 12.9202 12.8138L14.3586 11.4146C14.7694 11.0157 14.7694 10.3685 14.3586 9.96887C13.9888 9.60912 13.4032 9.56862 12.9848 9.8737L11.3084 11.0967C11.0683 11.2722 10.7762 11.3667 10.4758 11.3667H8.857L9.88738 11.3667C10.4681 11.3667 10.9386 10.909 10.9386 10.3441V10.1396C10.9386 9.6705 10.6104 9.26147 10.1427 9.14808L8.5524 8.76132C8.29359 8.69855 8.02854 8.66683 7.7621 8.66683C7.11889 8.66683 5.9546 9.19937 5.9546 9.19937L4 10.0168M13.3333 4.3335C13.3333 5.62216 12.2887 6.66683 11 6.66683C9.71134 6.66683 8.66667 5.62216 8.66667 4.3335C8.66667 3.04483 9.71134 2.00016 11 2.00016C12.2887 2.00016 13.3333 3.04483 13.3333 4.3335ZM1.33334 9.7335L1.33334 13.6002C1.33334 13.9735 1.33334 14.1602 1.406 14.3028C1.46991 14.4283 1.5719 14.5303 1.69734 14.5942C1.83995 14.6668 2.02663 14.6668 2.4 14.6668H2.93334C3.3067 14.6668 3.49339 14.6668 3.636 14.5942C3.76144 14.5303 3.86342 14.4283 3.92734 14.3028C4 14.1602 4 13.9735 4 13.6002V9.7335C4 9.36013 4 9.17344 3.92734 9.03084C3.86342 8.90539 3.76144 8.80341 3.636 8.73949C3.49339 8.66683 3.3067 8.66683 2.93334 8.66683L2.4 8.66683C2.02663 8.66683 1.83995 8.66683 1.69734 8.73949C1.5719 8.80341 1.46991 8.90539 1.406 9.03084C1.33334 9.17344 1.33334 9.36013 1.33334 9.7335Z" stroke="#383E40" stroke-width="1.5" stroke-linecap="round" stroke-linejoin="round"/>
</svg>
