<svg width="16" height="16" viewBox="0 0 16 16" fill="none" xmlns="http://www.w3.org/2000/svg">
<path d="M13.3333 3.3335C13.3333 4.43807 10.9455 5.3335 8 5.3335C5.05448 5.3335 2.66666 4.43807 2.66666 3.3335M13.3333 3.3335C13.3333 2.22893 10.9455 1.3335 8 1.3335C5.05448 1.3335 2.66666 2.22893 2.66666 3.3335M13.3333 3.3335V12.6668C13.3333 13.7714 10.9455 14.6668 8 14.6668C5.05448 14.6668 2.66666 13.7714 2.66666 12.6668V3.3335M13.3333 6.44456C13.3333 7.54913 10.9455 8.44456 8 8.44456C5.05448 8.44456 2.66666 7.54913 2.66666 6.44456M13.3333 9.5535C13.3333 10.6581 10.9455 11.5535 8 11.5535C5.05448 11.5535 2.66666 10.6581 2.66666 9.5535" stroke="#383E40" stroke-width="1.5" stroke-linecap="round" stroke-linejoin="round"/>
</svg>
