<svg width="16" height="16" viewBox="0 0 16 16" fill="none" xmlns="http://www.w3.org/2000/svg">
<path d="M14.6667 8.00016H13.3333M14.6667 8.00016C14.6667 11.6821 11.6819 14.6668 8 14.6668M14.6667 8.00016C14.6667 4.31826 11.6819 1.3335 8 1.3335M12.714 12.7142L11.7712 11.7714M2.66667 8.00016H1.33334M1.33334 8.00016C1.33334 11.6821 4.3181 14.6668 8 14.6668M1.33334 8.00016C1.33334 4.31826 4.3181 1.3335 8 1.3335M4.22877 4.22893L3.28596 3.28612M8 2.66683V1.3335M11.7712 4.22893L12.714 3.28612M8 14.6668V13.3335M3.28596 12.7142L4.22877 11.7714M8 5.3335L10.6667 8.00016L8 10.6668L5.33334 8.00016L8 5.3335Z" stroke="#383E40" stroke-width="1.5" stroke-linecap="round" stroke-linejoin="round"/>
</svg>
