<svg width="16" height="16" viewBox="0 0 16 16" fill="none" xmlns="http://www.w3.org/2000/svg">
<path d="M8.00016 14.6668C11.6821 14.6668 14.6668 11.6821 14.6668 8.00016C14.6668 4.31826 11.6821 1.3335 8.00016 1.3335C4.31826 1.3335 1.3335 4.31826 1.3335 8.00016C1.3335 11.6821 4.31826 14.6668 8.00016 14.6668Z" stroke="#383E40" stroke-width="1.5" stroke-linecap="round" stroke-linejoin="round"/>
<path d="M9.8149 5.51081C10.1406 5.40224 10.3034 5.34796 10.4117 5.38657C10.506 5.42018 10.5801 5.49434 10.6138 5.58858C10.6524 5.69688 10.5981 5.85973 10.4895 6.18543L9.49782 9.16051C9.4669 9.25327 9.45144 9.29965 9.4251 9.33817C9.40176 9.37228 9.37228 9.40176 9.33817 9.4251C9.29965 9.45144 9.25327 9.4669 9.16051 9.49782L6.18543 10.4895C5.85973 10.5981 5.69688 10.6524 5.58858 10.6138C5.49434 10.5801 5.42018 10.506 5.38657 10.4117C5.34796 10.3034 5.40224 10.1406 5.51081 9.8149L6.5025 6.83981C6.53342 6.74705 6.54888 6.70067 6.57523 6.66216C6.59857 6.62804 6.62804 6.59857 6.66216 6.57523C6.70067 6.54888 6.74705 6.53342 6.83981 6.5025L9.8149 5.51081Z" stroke="#383E40" stroke-width="1.5" stroke-linecap="round" stroke-linejoin="round"/>
</svg>
