<svg width="16" height="16" viewBox="0 0 16 16" fill="none" xmlns="http://www.w3.org/2000/svg">
<path d="M5.33334 5.33337V3.46671C5.33334 2.71997 5.33334 2.3466 5.47866 2.06139C5.60649 1.8105 5.81047 1.60653 6.06135 1.4787C6.34656 1.33337 6.71993 1.33337 7.46667 1.33337H12.5333C13.2801 1.33337 13.6534 1.33337 13.9387 1.4787C14.1895 1.60653 14.3935 1.8105 14.5213 2.06139C14.6667 2.3466 14.6667 2.71997 14.6667 3.46671V8.53337C14.6667 9.28011 14.6667 9.65348 14.5213 9.93869C14.3935 10.1896 14.1895 10.3936 13.9387 10.5214C13.6534 10.6667 13.2801 10.6667 12.5333 10.6667H10.6667M3.46667 14.6667H8.53334C9.28007 14.6667 9.65344 14.6667 9.93866 14.5214C10.1895 14.3936 10.3935 14.1896 10.5213 13.9387C10.6667 13.6535 10.6667 13.2801 10.6667 12.5334V7.46671C10.6667 6.71997 10.6667 6.3466 10.5213 6.06139C10.3935 5.8105 10.1895 5.60653 9.93866 5.4787C9.65344 5.33337 9.28007 5.33337 8.53334 5.33337H3.46667C2.71993 5.33337 2.34656 5.33337 2.06135 5.4787C1.81047 5.60653 1.60649 5.8105 1.47866 6.06139C1.33334 6.3466 1.33334 6.71997 1.33334 7.46671V12.5334C1.33334 13.2801 1.33334 13.6535 1.47866 13.9387C1.60649 14.1896 1.81047 14.3936 2.06135 14.5214C2.34656 14.6667 2.71993 14.6667 3.46667 14.6667Z" stroke="#383E40" stroke-width="1.5" stroke-linecap="round" stroke-linejoin="round"/>
</svg>
