<svg width="16" height="16" viewBox="0 0 16 16" fill="none" xmlns="http://www.w3.org/2000/svg">
<path d="M3.3335 9.99992C2.71224 9.99992 2.40161 9.99992 2.15658 9.89843C1.82988 9.7631 1.57032 9.50353 1.43499 9.17683C1.3335 8.9318 1.3335 8.62117 1.3335 7.99992V3.46659C1.3335 2.71985 1.3335 2.34648 1.47882 2.06126C1.60665 1.81038 1.81063 1.60641 2.06151 1.47858C2.34672 1.33325 2.72009 1.33325 3.46683 1.33325H8.00016C8.62142 1.33325 8.93205 1.33325 9.17707 1.43475C9.50378 1.57007 9.76334 1.82964 9.89867 2.15634C10.0002 2.40137 10.0002 2.712 10.0002 3.33325M8.1335 14.6666H12.5335C13.2802 14.6666 13.6536 14.6666 13.9388 14.5213C14.1897 14.3934 14.3937 14.1895 14.5215 13.9386C14.6668 13.6534 14.6668 13.28 14.6668 12.5333V8.13325C14.6668 7.38652 14.6668 7.01315 14.5215 6.72793C14.3937 6.47705 14.1897 6.27307 13.9388 6.14524C13.6536 5.99992 13.2802 5.99992 12.5335 5.99992H8.1335C7.38676 5.99992 7.01339 5.99992 6.72818 6.14524C6.47729 6.27307 6.27332 6.47705 6.14549 6.72793C6.00016 7.01315 6.00016 7.38652 6.00016 8.13325V12.5333C6.00016 13.28 6.00016 13.6534 6.14549 13.9386C6.27332 14.1895 6.47729 14.3934 6.72818 14.5213C7.01339 14.6666 7.38676 14.6666 8.1335 14.6666Z" stroke="#383E40" stroke-width="1.5" stroke-linecap="round" stroke-linejoin="round"/>
</svg>
