<svg width="16" height="16" viewBox="0 0 16 16" fill="none" xmlns="http://www.w3.org/2000/svg">
<path d="M10.6667 10.6667V12.5334C10.6667 13.2801 10.6667 13.6535 10.5213 13.9387C10.3935 14.1896 10.1895 14.3936 9.93866 14.5214C9.65344 14.6667 9.28007 14.6667 8.53334 14.6667H3.46667C2.71993 14.6667 2.34656 14.6667 2.06135 14.5214C1.81047 14.3936 1.60649 14.1896 1.47866 13.9387C1.33334 13.6535 1.33334 13.2801 1.33334 12.5334V7.46671C1.33334 6.71997 1.33334 6.3466 1.47866 6.06139C1.60649 5.8105 1.81047 5.60653 2.06135 5.4787C2.34656 5.33337 2.71993 5.33337 3.46667 5.33337H5.33334M7.46667 10.6667H12.5333C13.2801 10.6667 13.6534 10.6667 13.9387 10.5214C14.1895 10.3936 14.3935 10.1896 14.5213 9.93869C14.6667 9.65348 14.6667 9.28011 14.6667 8.53337V3.46671C14.6667 2.71997 14.6667 2.3466 14.5213 2.06139C14.3935 1.8105 14.1895 1.60653 13.9387 1.4787C13.6534 1.33337 13.2801 1.33337 12.5333 1.33337H7.46667C6.71993 1.33337 6.34656 1.33337 6.06135 1.4787C5.81047 1.60653 5.60649 1.8105 5.47866 2.06139C5.33334 2.3466 5.33334 2.71997 5.33334 3.46671V8.53337C5.33334 9.28011 5.33334 9.65348 5.47866 9.93869C5.60649 10.1896 5.81047 10.3936 6.06135 10.5214C6.34656 10.6667 6.71993 10.6667 7.46667 10.6667Z" stroke="#383E40" stroke-width="1.5" stroke-linecap="round" stroke-linejoin="round"/>
</svg>
