<svg width="16" height="16" viewBox="0 0 16 16" fill="none" xmlns="http://www.w3.org/2000/svg">
<path d="M6.00016 1.3335V2.66683M10.0002 1.3335V2.66683M6.00016 13.3335V14.6668M10.0002 13.3335V14.6668M13.3335 6.00016H14.6668M13.3335 9.3335H14.6668M1.3335 6.00016H2.66683M1.3335 9.3335H2.66683M5.86683 13.3335H10.1335C11.2536 13.3335 11.8137 13.3335 12.2415 13.1155C12.6178 12.9238 12.9238 12.6178 13.1155 12.2415C13.3335 11.8137 13.3335 11.2536 13.3335 10.1335V5.86683C13.3335 4.74672 13.3335 4.18667 13.1155 3.75885C12.9238 3.38252 12.6178 3.07656 12.2415 2.88482C11.8137 2.66683 11.2536 2.66683 10.1335 2.66683H5.86683C4.74672 2.66683 4.18667 2.66683 3.75885 2.88482C3.38252 3.07656 3.07656 3.38252 2.88482 3.75885C2.66683 4.18667 2.66683 4.74672 2.66683 5.86683V10.1335C2.66683 11.2536 2.66683 11.8137 2.88482 12.2415C3.07656 12.6178 3.38252 12.9238 3.75885 13.1155C4.18667 13.3335 4.74672 13.3335 5.86683 13.3335ZM7.06683 10.0002H8.9335C9.30686 10.0002 9.49355 10.0002 9.63616 9.9275C9.7616 9.86359 9.86359 9.7616 9.9275 9.63616C10.0002 9.49355 10.0002 9.30686 10.0002 8.9335V7.06683C10.0002 6.69346 10.0002 6.50678 9.9275 6.36417C9.86359 6.23873 9.7616 6.13674 9.63616 6.07283C9.49355 6.00016 9.30686 6.00016 8.9335 6.00016H7.06683C6.69346 6.00016 6.50678 6.00016 6.36417 6.07283C6.23873 6.13674 6.13674 6.23873 6.07283 6.36417C6.00016 6.50678 6.00016 6.69346 6.00016 7.06683V8.9335C6.00016 9.30686 6.00016 9.49355 6.07283 9.63616C6.13674 9.7616 6.23873 9.86359 6.36417 9.9275C6.50678 10.0002 6.69346 10.0002 7.06683 10.0002Z" stroke="#383E40" stroke-width="1.5" stroke-linecap="round" stroke-linejoin="round"/>
</svg>
