<svg width="16" height="16" viewBox="0 0 16 16" fill="none" xmlns="http://www.w3.org/2000/svg">
<path d="M6.00016 1.3335V3.3335M10.0002 1.3335V3.3335M6.00016 12.6668V14.6668M10.0002 12.6668V14.6668M12.6668 6.00016H14.6668M12.6668 9.3335H14.6668M1.3335 6.00016H3.3335M1.3335 9.3335H3.3335M6.5335 12.6668H9.46683C10.5869 12.6668 11.147 12.6668 11.5748 12.4488C11.9511 12.2571 12.2571 11.9511 12.4488 11.5748C12.6668 11.147 12.6668 10.5869 12.6668 9.46683V6.5335C12.6668 5.41339 12.6668 4.85334 12.4488 4.42552C12.2571 4.04919 11.9511 3.74323 11.5748 3.55148C11.147 3.3335 10.5869 3.3335 9.46683 3.3335H6.5335C5.41339 3.3335 4.85334 3.3335 4.42552 3.55148C4.04919 3.74323 3.74323 4.04919 3.55148 4.42552C3.3335 4.85334 3.3335 5.41339 3.3335 6.5335V9.46683C3.3335 10.5869 3.3335 11.147 3.55148 11.5748C3.74323 11.9511 4.04919 12.2571 4.42552 12.4488C4.85334 12.6668 5.41339 12.6668 6.5335 12.6668Z" stroke="#383E40" stroke-width="1.5" stroke-linecap="round" stroke-linejoin="round"/>
</svg>
