<svg width="16" height="16" viewBox="0 0 16 16" fill="none" xmlns="http://www.w3.org/2000/svg">
<path d="M6.00001 1.33325V2.66659M10 1.33325V2.66659M6.00001 13.3333V14.6666M10 13.3333V14.6666M13.3333 5.99992H14.6667M13.3333 9.33325H14.6667M1.33334 5.99992H2.66668M1.33334 9.33325H2.66668M5.86668 13.3333H10.1333C11.2534 13.3333 11.8135 13.3333 12.2413 13.1153C12.6176 12.9235 12.9236 12.6176 13.1154 12.2412C13.3333 11.8134 13.3333 11.2534 13.3333 10.1333V5.86659C13.3333 4.74648 13.3333 4.18643 13.1154 3.7586C12.9236 3.38228 12.6176 3.07632 12.2413 2.88457C11.8135 2.66659 11.2534 2.66659 10.1333 2.66659H5.86668C4.74657 2.66659 4.18652 2.66659 3.7587 2.88457C3.38237 3.07632 3.07641 3.38228 2.88466 3.7586C2.66668 4.18643 2.66668 4.74648 2.66668 5.86659V10.1333C2.66668 11.2534 2.66668 11.8134 2.88466 12.2412C3.07641 12.6176 3.38237 12.9235 3.7587 13.1153C4.18652 13.3333 4.74657 13.3333 5.86668 13.3333ZM7.06668 9.99992H8.93334C9.30671 9.99992 9.4934 9.99992 9.636 9.92726C9.76145 9.86334 9.86343 9.76135 9.92735 9.63591C10 9.4933 10 9.30662 10 8.93325V7.06659C10 6.69322 10 6.50653 9.92735 6.36393C9.86343 6.23848 9.76145 6.1365 9.636 6.07258C9.4934 5.99992 9.30671 5.99992 8.93334 5.99992H7.06668C6.69331 5.99992 6.50662 5.99992 6.36402 6.07258C6.23858 6.1365 6.13659 6.23848 6.07267 6.36393C6.00001 6.50653 6.00001 6.69322 6.00001 7.06659V8.93325C6.00001 9.30662 6.00001 9.4933 6.07267 9.63591C6.13659 9.76135 6.23858 9.86334 6.36402 9.92726C6.50662 9.99992 6.69331 9.99992 7.06668 9.99992Z" stroke="#383E40" stroke-width="1.5" stroke-linecap="round" stroke-linejoin="round"/>
</svg>
