<svg width="16" height="16" viewBox="0 0 16 16" fill="none" xmlns="http://www.w3.org/2000/svg">
<path d="M13.5 11.6668V10.5002C13.5 9.85583 12.9777 9.3335 12.3333 9.3335C11.689 9.3335 11.1667 9.85583 11.1667 10.5002V11.6668M14.6667 6.66683H1.33334M14.6667 7.3335V5.46683C14.6667 4.72009 14.6667 4.34673 14.5214 4.06151C14.3935 3.81063 14.1895 3.60665 13.9387 3.47882C13.6534 3.3335 13.2801 3.3335 12.5333 3.3335H3.46668C2.71994 3.3335 2.34657 3.3335 2.06136 3.47882C1.81047 3.60665 1.6065 3.81063 1.47867 4.06151C1.33334 4.34672 1.33334 4.72009 1.33334 5.46683V10.5335C1.33334 11.2802 1.33334 11.6536 1.47867 11.9388C1.6065 12.1897 1.81047 12.3937 2.06136 12.5215C2.34657 12.6668 2.71994 12.6668 3.46668 12.6668H7.33334M11.0667 14.3335H13.6C13.9734 14.3335 14.1601 14.3335 14.3027 14.2608C14.4281 14.1969 14.5301 14.0949 14.594 13.9695C14.6667 13.8269 14.6667 13.6402 14.6667 13.2668V12.7335C14.6667 12.3601 14.6667 12.1734 14.594 12.0308C14.5301 11.9054 14.4281 11.8034 14.3027 11.7395C14.1601 11.6668 13.9734 11.6668 13.6 11.6668H11.0667C10.6933 11.6668 10.5066 11.6668 10.364 11.7395C10.2386 11.8034 10.1366 11.9054 10.0727 12.0308C10 12.1734 10 12.3601 10 12.7335V13.2668C10 13.6402 10 13.8269 10.0727 13.9695C10.1366 14.0949 10.2386 14.1969 10.364 14.2608C10.5066 14.3335 10.6933 14.3335 11.0667 14.3335Z" stroke="#383E40" stroke-width="1.5" stroke-linecap="round" stroke-linejoin="round"/>
</svg>
