<svg width="16" height="16" viewBox="0 0 16 16" fill="none" xmlns="http://www.w3.org/2000/svg">
<path d="M6 11.3332L8 13.3332M8 13.3332L10 11.3332M8 13.3332V8.6665M14.6667 5.99984H1.33334M3.66667 11.9998H3.46667C2.71993 11.9998 2.34656 11.9998 2.06135 11.8545C1.81047 11.7267 1.60649 11.5227 1.47866 11.2718C1.33334 10.9866 1.33334 10.6132 1.33334 9.8665V4.79984C1.33334 4.0531 1.33334 3.67973 1.47866 3.39452C1.60649 3.14363 1.81047 2.93966 2.06135 2.81183C2.34656 2.6665 2.71993 2.6665 3.46667 2.6665H12.5333C13.2801 2.6665 13.6534 2.6665 13.9387 2.81183C14.1895 2.93966 14.3935 3.14363 14.5213 3.39452C14.6667 3.67973 14.6667 4.0531 14.6667 4.79984V9.8665C14.6667 10.6132 14.6667 10.9866 14.5213 11.2718C14.3935 11.5227 14.1895 11.7267 13.9387 11.8545C13.6534 11.9998 13.2801 11.9998 12.5333 11.9998H12.3333" stroke="#383E40" stroke-width="1.5" stroke-linecap="round" stroke-linejoin="round"/>
</svg>
