<svg width="16" height="16" viewBox="0 0 16 16" fill="none" xmlns="http://www.w3.org/2000/svg">
<path d="M14.6668 6.66667H1.3335M7.3335 12.6667L12.5335 12.6667C13.2802 12.6667 13.6536 12.6667 13.9388 12.5213C14.1897 12.3935 14.3937 12.1895 14.5215 11.9387C14.6668 11.6534 14.6668 11.2801 14.6668 10.5333V5.46667C14.6668 4.71993 14.6668 4.34656 14.5215 4.06135C14.3937 3.81046 14.1897 3.60649 13.9388 3.47866C13.6536 3.33333 13.2802 3.33333 12.5335 3.33333H11.3335M7.3335 12.6667L8.66683 14M7.3335 12.6667L8.66683 11.3333M4.66683 12.6667H3.46683C2.72009 12.6667 2.34672 12.6667 2.06151 12.5213C1.81063 12.3935 1.60665 12.1895 1.47882 11.9387C1.3335 11.6534 1.3335 11.2801 1.3335 10.5333V5.46667C1.3335 4.71993 1.3335 4.34656 1.47882 4.06135C1.60665 3.81046 1.81063 3.60649 2.06151 3.47866C2.34672 3.33333 2.72009 3.33333 3.46683 3.33333H8.66683M8.66683 3.33333L7.3335 4.66667M8.66683 3.33333L7.3335 2" stroke="#383E40" stroke-width="1.5" stroke-linecap="round" stroke-linejoin="round"/>
</svg>
