<svg width="16" height="16" viewBox="0 0 16 16" fill="none" xmlns="http://www.w3.org/2000/svg">
<path d="M10.6667 12.0002L12 13.3335L14.6667 10.6668M14.6667 6.66683H1.33334M14.6667 8.00016V5.46683C14.6667 4.72009 14.6667 4.34673 14.5213 4.06151C14.3935 3.81063 14.1895 3.60665 13.9387 3.47882C13.6534 3.3335 13.2801 3.3335 12.5333 3.3335H3.46667C2.71993 3.3335 2.34656 3.3335 2.06135 3.47882C1.81047 3.60665 1.60649 3.81063 1.47866 4.06151C1.33334 4.34672 1.33334 4.72009 1.33334 5.46683V10.5335C1.33334 11.2802 1.33334 11.6536 1.47866 11.9388C1.60649 12.1897 1.81047 12.3937 2.06135 12.5215C2.34656 12.6668 2.71993 12.6668 3.46667 12.6668H8" stroke="#383E40" stroke-width="1.5" stroke-linecap="round" stroke-linejoin="round"/>
</svg>
