<svg width="16" height="16" viewBox="0 0 16 16" fill="none" xmlns="http://www.w3.org/2000/svg">
<path d="M1.33334 1.3335L2.66668 2.66683M14.6667 1.3335L13.3333 2.66683M14.6667 14.6668L13.3333 13.3335M1.33334 14.6668L2.66668 13.3335M1.33334 10.6668H2.33334M5.33334 1.3335V2.3335M14.6667 5.3335H13.6667M10.6667 14.6668V13.6668M12 10.6668H14.3333M10.6667 1.3335V4.00016M1.33334 5.3335H4.00001M5.33334 14.6668V12.0002M7.62289 5.04395L5.0438 7.62304C4.9118 7.75504 4.84579 7.82105 4.82106 7.89716C4.79931 7.96411 4.79931 8.03622 4.82106 8.10317C4.84579 8.17928 4.91179 8.24528 5.0438 8.37729L7.62289 10.9564C7.75489 11.0884 7.8209 11.1544 7.897 11.1791C7.96395 11.2009 8.03607 11.2009 8.10302 11.1791C8.17913 11.1544 8.24513 11.0884 8.37713 10.9564L10.9562 8.37729C11.0882 8.24528 11.1542 8.17928 11.179 8.10317C11.2007 8.03622 11.2007 7.96411 11.179 7.89716C11.1542 7.82105 11.0882 7.75505 10.9562 7.62304L8.37713 5.04395C8.24513 4.91195 8.17913 4.84594 8.10302 4.82122C8.03607 4.79946 7.96395 4.79946 7.897 4.82122C7.8209 4.84594 7.75489 4.91195 7.62289 5.04395Z" stroke="#383E40" stroke-width="1.5" stroke-linecap="round" stroke-linejoin="round"/>
</svg>
