<svg width="16" height="16" viewBox="0 0 16 16" fill="none" xmlns="http://www.w3.org/2000/svg">
<path d="M2.33333 5.33333H10.6667M10.6667 5.33333V13.6667M10.6667 5.33333L13.6667 2.33333M14 10.2248V2.53333C14 2.34665 14 2.25331 13.9637 2.182C13.9317 2.11928 13.8807 2.06829 13.818 2.03633C13.7467 2 13.6534 2 13.4667 2H5.77516C5.6121 2 5.53057 2 5.45385 2.01842C5.38582 2.03475 5.32079 2.06169 5.26114 2.09824C5.19387 2.13947 5.13622 2.19712 5.02091 2.31242L2.31242 5.02091C2.19712 5.13621 2.13947 5.19387 2.09824 5.26114C2.06169 5.32079 2.03475 5.38582 2.01842 5.45385C2 5.53057 2 5.6121 2 5.77516V13.4667C2 13.6534 2 13.7467 2.03633 13.818C2.06829 13.8807 2.11928 13.9317 2.182 13.9637C2.25331 14 2.34665 14 2.53333 14H10.2248C10.3879 14 10.4694 14 10.5462 13.9816C10.6142 13.9652 10.6792 13.9383 10.7389 13.9018C10.8061 13.8605 10.8638 13.8029 10.9791 13.6876L13.6876 10.9791C13.8029 10.8638 13.8605 10.8061 13.9018 10.7389C13.9383 10.6792 13.9652 10.6142 13.9816 10.5462C14 10.4694 14 10.3879 14 10.2248Z" stroke="#383E40" stroke-width="1.5" stroke-linecap="round" stroke-linejoin="round"/>
</svg>
