<svg width="16" height="16" viewBox="0 0 16 16" fill="none" xmlns="http://www.w3.org/2000/svg">
<path d="M10.2224 5.5156C9.63266 4.98778 8.85389 4.66683 8.00016 4.66683C6.15921 4.66683 4.66683 6.15921 4.66683 8.00016C4.66683 9.84111 6.15921 11.3335 8.00016 11.3335C8.85389 11.3335 9.63266 11.0125 10.2224 10.4847M4.00016 9.00016H7.3335M4.00016 7.00016H7.3335M14.6668 8.00016C14.6668 11.6821 11.6821 14.6668 8.00016 14.6668C4.31826 14.6668 1.3335 11.6821 1.3335 8.00016C1.3335 4.31826 4.31826 1.3335 8.00016 1.3335C11.6821 1.3335 14.6668 4.31826 14.6668 8.00016Z" stroke="#383E40" stroke-width="1.5" stroke-linecap="round" stroke-linejoin="round"/>
</svg>
