<svg width="16" height="16" viewBox="0 0 16 16" fill="none" xmlns="http://www.w3.org/2000/svg">
<path d="M6.3335 5.00016H9.16683C9.99526 5.00016 10.6668 5.67174 10.6668 6.50016C10.6668 7.32859 9.99526 8.00016 9.16683 8.00016H6.3335H9.50016C10.3286 8.00016 11.0002 8.67174 11.0002 9.50016C11.0002 10.3286 10.3286 11.0002 9.50016 11.0002H6.3335M6.3335 5.00016H5.3335M6.3335 5.00016V11.0002M6.3335 11.0002H5.3335M6.66683 4.00016V5.00016M6.66683 11.0002V12.0002M8.66683 4.00016V5.00016M8.66683 11.0002V12.0002M14.6668 8.00016C14.6668 11.6821 11.6821 14.6668 8.00016 14.6668C4.31826 14.6668 1.3335 11.6821 1.3335 8.00016C1.3335 4.31826 4.31826 1.3335 8.00016 1.3335C11.6821 1.3335 14.6668 4.31826 14.6668 8.00016Z" stroke="#383E40" stroke-width="1.5" stroke-linecap="round" stroke-linejoin="round"/>
</svg>
