<svg width="16" height="16" viewBox="0 0 16 16" fill="none" xmlns="http://www.w3.org/2000/svg">
<path d="M10.2222 5.5156C9.63247 4.98778 8.85371 4.66683 7.99998 4.66683C6.15903 4.66683 4.66665 6.15921 4.66665 8.00016C4.66665 9.84111 6.15903 11.3335 7.99998 11.3335C8.85371 11.3335 9.63247 11.0125 10.2222 10.4847M3.99998 9.00016H7.33331M3.99998 7.00016H7.33331M14.6666 8.00016C14.6666 11.6821 11.6819 14.6668 7.99998 14.6668C4.31808 14.6668 1.33331 11.6821 1.33331 8.00016C1.33331 4.31826 4.31808 1.3335 7.99998 1.3335C11.6819 1.3335 14.6666 4.31826 14.6666 8.00016Z" stroke="#383E40" stroke-width="1.5" stroke-linecap="round" stroke-linejoin="round"/>
</svg>
