<svg width="16" height="16" viewBox="0 0 16 16" fill="none" xmlns="http://www.w3.org/2000/svg">
<path d="M9.33333 13.3335C9.33333 14.0699 8.73638 14.6668 8 14.6668C7.26362 14.6668 6.66667 14.0699 6.66667 13.3335M9.33333 13.3335C9.33333 12.5971 8.73638 12.0002 8 12.0002M9.33333 13.3335H14M6.66667 13.3335C6.66667 12.5971 7.26362 12.0002 8 12.0002M6.66667 13.3335H2M8 12.0002V9.3335M14 3.3335C14 4.43807 11.3137 5.3335 8 5.3335C4.68629 5.3335 2 4.43807 2 3.3335M14 3.3335C14 2.22893 11.3137 1.3335 8 1.3335C4.68629 1.3335 2 2.22893 2 3.3335M14 3.3335V7.3335C14 8.44016 11.3333 9.3335 8 9.3335M2 3.3335V7.3335C2 8.44016 4.66667 9.3335 8 9.3335" stroke="#383E40" stroke-width="1.5" stroke-linecap="round" stroke-linejoin="round"/>
</svg>
