<svg width="16" height="16" viewBox="0 0 16 16" fill="none" xmlns="http://www.w3.org/2000/svg">
<path d="M13.7601 4.85185L8.32007 8M8.32007 8L8.32009 14.3333M8.32007 8L6.56008 6.98148L5.68009 6.47223M3.84009 11.6666L7.8228 14.3789C8.0043 14.4839 8.09506 14.5365 8.19117 14.557C8.27623 14.5753 8.36396 14.5753 8.44902 14.557C8.54513 14.5365 8.63589 14.4839 8.81739 14.3789L10.0014 13.6937L13.5314 11.6381C13.7311 11.5272 13.831 11.4717 13.9037 11.3928C13.968 11.323 14.0167 11.2403 14.0464 11.1502C14.0801 11.0483 14.0801 10.9341 14.0801 10.7057V5.29431C14.0801 5.06588 14.0801 4.95167 14.0478 4.8498C14.0192 4.75969 13.9725 4.67696 13.9107 4.60717C13.8409 4.52828 13.7451 4.47281 13.5534 4.36188L8.81739 1.62114C8.63589 1.5161 8.54513 1.46358 8.44902 1.44299C8.36396 1.42477 8.27623 1.42477 8.19117 1.44299C8.09506 1.46358 8.0043 1.5161 7.82279 1.62114L6.61441 2.22601" stroke="#383E40" stroke-width="1.5" stroke-linecap="round" stroke-linejoin="round"/>
<path d="M2.04796 2.53333C2.04796 2.34665 2.04796 2.25331 2.08284 2.182C2.11352 2.11928 2.16247 2.06829 2.22268 2.03633C2.29113 2 2.38074 2 2.55996 2H4.09596C4.27518 2 4.36478 2 4.43324 2.03633C4.49345 2.06829 4.5424 2.11928 4.57308 2.182C4.60796 2.25331 4.60796 2.34665 4.60796 2.53333V4.13333C4.60796 4.32002 4.60796 4.41336 4.57308 4.48466C4.5424 4.54738 4.49345 4.59838 4.43324 4.63034C4.36478 4.66667 4.27518 4.66667 4.09596 4.66667H2.55996C2.38074 4.66667 2.29113 4.66667 2.22268 4.63034C2.16247 4.59838 2.11352 4.54738 2.08284 4.48466C2.04796 4.41336 2.04796 4.32002 2.04796 4.13333V2.53333Z" stroke="#383E40" stroke-width="1.5" stroke-linecap="round" stroke-linejoin="round"/>
<path d="M1.33325 7.7423C1.33325 7.55561 1.33325 7.46227 1.36813 7.39097C1.39881 7.32825 1.44776 7.27725 1.50797 7.2453C1.57643 7.20896 1.66604 7.20896 1.84525 7.20896H3.38125C3.56047 7.20896 3.65008 7.20896 3.71853 7.2453C3.77874 7.27725 3.82769 7.32825 3.85837 7.39097C3.89325 7.46227 3.89325 7.55561 3.89325 7.7423V9.3423C3.89325 9.52898 3.89325 9.62232 3.85837 9.69363C3.82769 9.75635 3.77874 9.80734 3.71853 9.8393C3.65008 9.87563 3.56047 9.87563 3.38125 9.87563H1.84525C1.66604 9.87563 1.57643 9.87563 1.50797 9.8393C1.44776 9.80734 1.39881 9.75635 1.36813 9.69363C1.33325 9.62232 1.33325 9.52898 1.33325 9.3423V7.7423Z" stroke="#383E40" stroke-width="1.5" stroke-linecap="round" stroke-linejoin="round"/>
</svg>
