<svg width="16" height="16" viewBox="0 0 16 16" fill="none" xmlns="http://www.w3.org/2000/svg">
<path d="M14.1333 14.6666C14.32 14.6666 14.4134 14.6666 14.4847 14.6303C14.5474 14.5983 14.5984 14.5473 14.6303 14.4846C14.6667 14.4133 14.6667 14.3199 14.6667 14.1333V7.19992C14.6667 7.01324 14.6667 6.91989 14.6303 6.84859C14.5984 6.78587 14.5474 6.73488 14.4847 6.70292C14.4134 6.66659 14.32 6.66659 14.1333 6.66659L12.5333 6.66659C12.3467 6.66659 12.2533 6.66659 12.182 6.70292C12.1193 6.73488 12.0683 6.78587 12.0363 6.84859C12 6.91989 12 7.01324 12 7.19992V8.79992C12 8.9866 12 9.07995 11.9637 9.15125C11.9317 9.21397 11.8807 9.26496 11.818 9.29692C11.7467 9.33325 11.6534 9.33325 11.4667 9.33325H9.86668C9.67999 9.33325 9.58665 9.33325 9.51535 9.36958C9.45263 9.40154 9.40163 9.45253 9.36967 9.51526C9.33334 9.58656 9.33334 9.6799 9.33334 9.86659V11.4666C9.33334 11.6533 9.33334 11.7466 9.29701 11.8179C9.26505 11.8806 9.21406 11.9316 9.15134 11.9636C9.08004 11.9999 8.98669 11.9999 8.80001 11.9999H7.20001C7.01333 11.9999 6.91998 11.9999 6.84868 12.0363C6.78596 12.0682 6.73497 12.1192 6.70301 12.1819C6.66668 12.2532 6.66668 12.3466 6.66668 12.5333V14.1333C6.66668 14.3199 6.66668 14.4133 6.70301 14.4846C6.73497 14.5473 6.78596 14.5983 6.84868 14.6303C6.91998 14.6666 7.01333 14.6666 7.20001 14.6666L14.1333 14.6666Z" stroke="#383E40" stroke-width="1.5" stroke-linecap="round" stroke-linejoin="round"/>
<path d="M6.66668 4.53325C6.66668 4.34657 6.66668 4.25323 6.70301 4.18192C6.73497 4.1192 6.78596 4.06821 6.84868 4.03625C6.91998 3.99992 7.01333 3.99992 7.20001 3.99992H8.80001C8.98669 3.99992 9.08004 3.99992 9.15134 4.03625C9.21406 4.06821 9.26505 4.1192 9.29701 4.18192C9.33334 4.25323 9.33334 4.34657 9.33334 4.53325V6.13325C9.33334 6.31994 9.33334 6.41328 9.29701 6.48458C9.26505 6.5473 9.21406 6.5983 9.15134 6.63025C9.08004 6.66659 8.98669 6.66659 8.80001 6.66659H7.20001C7.01333 6.66659 6.91998 6.66659 6.84868 6.63025C6.78596 6.5983 6.73497 6.5473 6.70301 6.48458C6.66668 6.41328 6.66668 6.31994 6.66668 6.13325V4.53325Z" stroke="#383E40" stroke-width="1.5" stroke-linecap="round" stroke-linejoin="round"/>
<path d="M2.00001 8.53325C2.00001 8.34657 2.00001 8.25323 2.03634 8.18192C2.0683 8.1192 2.11929 8.06821 2.18201 8.03625C2.25332 7.99992 2.34666 7.99992 2.53334 7.99992H4.13334C4.32003 7.99992 4.41337 7.99992 4.48467 8.03625C4.54739 8.06821 4.59839 8.1192 4.63035 8.18192C4.66668 8.25323 4.66668 8.34657 4.66668 8.53325V10.1333C4.66668 10.3199 4.66668 10.4133 4.63035 10.4846C4.59839 10.5473 4.54739 10.5983 4.48467 10.6303C4.41337 10.6666 4.32003 10.6666 4.13334 10.6666H2.53334C2.34666 10.6666 2.25332 10.6666 2.18201 10.6303C2.11929 10.5983 2.0683 10.5473 2.03634 10.4846C2.00001 10.4133 2.00001 10.3199 2.00001 10.1333V8.53325Z" stroke="#383E40" stroke-width="1.5" stroke-linecap="round" stroke-linejoin="round"/>
<path d="M1.33334 1.86659C1.33334 1.6799 1.33334 1.58656 1.36967 1.51526C1.40163 1.45253 1.45263 1.40154 1.51535 1.36958C1.58665 1.33325 1.67999 1.33325 1.86668 1.33325H3.46668C3.65336 1.33325 3.7467 1.33325 3.81801 1.36958C3.88073 1.40154 3.93172 1.45253 3.96368 1.51526C4.00001 1.58656 4.00001 1.6799 4.00001 1.86659V3.46659C4.00001 3.65327 4.00001 3.74661 3.96368 3.81792C3.93172 3.88064 3.88073 3.93163 3.81801 3.96359C3.7467 3.99992 3.65336 3.99992 3.46668 3.99992H1.86668C1.67999 3.99992 1.58665 3.99992 1.51535 3.96359C1.45263 3.93163 1.40163 3.88064 1.36967 3.81792C1.33334 3.74661 1.33334 3.65327 1.33334 3.46659V1.86659Z" stroke="#383E40" stroke-width="1.5" stroke-linecap="round" stroke-linejoin="round"/>
</svg>
