<svg width="16" height="16" viewBox="0 0 16 16" fill="none" xmlns="http://www.w3.org/2000/svg">
<path d="M11.3333 13.3335H11.2C10.0799 13.3335 9.51984 13.3335 9.09202 13.1155C8.71569 12.9238 8.40973 12.6178 8.21799 12.2415C8 11.8137 8 11.2536 8 10.1335V5.86683C8 4.74672 8 4.18667 8.21799 3.75885C8.40973 3.38252 8.71569 3.07656 9.09202 2.88482C9.51984 2.66683 10.0799 2.66683 11.2 2.66683H11.3333M11.3333 13.3335C11.3333 14.0699 11.9303 14.6668 12.6667 14.6668C13.403 14.6668 14 14.0699 14 13.3335C14 12.5971 13.403 12.0002 12.6667 12.0002C11.9303 12.0002 11.3333 12.5971 11.3333 13.3335ZM11.3333 2.66683C11.3333 3.40321 11.9303 4.00016 12.6667 4.00016C13.403 4.00016 14 3.40321 14 2.66683C14 1.93045 13.403 1.3335 12.6667 1.3335C11.9303 1.3335 11.3333 1.93045 11.3333 2.66683ZM4.66667 8.00016L11.3333 8.00016M4.66667 8.00016C4.66667 8.73654 4.06971 9.3335 3.33333 9.3335C2.59695 9.3335 2 8.73654 2 8.00016C2 7.26378 2.59695 6.66683 3.33333 6.66683C4.06971 6.66683 4.66667 7.26378 4.66667 8.00016ZM11.3333 8.00016C11.3333 8.73654 11.9303 9.3335 12.6667 9.3335C13.403 9.3335 14 8.73654 14 8.00016C14 7.26378 13.403 6.66683 12.6667 6.66683C11.9303 6.66683 11.3333 7.26378 11.3333 8.00016Z" stroke="#383E40" stroke-width="1.5" stroke-linecap="round" stroke-linejoin="round"/>
</svg>
