<svg width="16" height="16" viewBox="0 0 16 16" fill="none" xmlns="http://www.w3.org/2000/svg">
<path d="M3.33339 14.6668H12.6667M1.66673 5.3335H14.3334M6.66673 1.3335L5.33339 5.3335L8.00006 12.3335L10.6667 5.3335L9.33339 1.3335M8.39469 12.2327L14.3544 5.67703C14.4651 5.55526 14.5205 5.49437 14.5425 5.42504C14.562 5.36395 14.5634 5.29855 14.5466 5.23668C14.5275 5.16647 14.4749 5.10326 14.3695 4.97684L11.4933 1.5254C11.4345 1.45486 11.4051 1.41959 11.3691 1.39423C11.3372 1.37177 11.3016 1.35508 11.2639 1.34494C11.2213 1.3335 11.1754 1.3335 11.0836 1.3335H4.91653C4.82471 1.3335 4.77879 1.3335 4.73625 1.34494C4.69856 1.35508 4.66293 1.37177 4.63101 1.39423C4.59498 1.41959 4.56559 1.45486 4.50681 1.5254L1.63061 4.97683C1.52526 5.10326 1.47258 5.16647 1.45353 5.23668C1.43674 5.29855 1.43815 5.36395 1.45759 5.42504C1.47964 5.49437 1.53499 5.55525 1.64569 5.67703L7.60543 12.2327C7.74224 12.3832 7.81064 12.4585 7.89104 12.4863C7.96166 12.5107 8.03845 12.5107 8.10908 12.4863C8.18948 12.4585 8.25788 12.3832 8.39469 12.2327Z" stroke="#383E40" stroke-width="1.5" stroke-linecap="round" stroke-linejoin="round"/>
</svg>
