<svg width="16" height="16" viewBox="0 0 16 16" fill="none" xmlns="http://www.w3.org/2000/svg">
<path d="M8 7.83333H8.00333M5.2 14H10.8C11.9201 14 12.4802 14 12.908 13.782C13.2843 13.5903 13.5903 13.2843 13.782 12.908C14 12.4802 14 11.9201 14 10.8V5.2C14 4.0799 14 3.51984 13.782 3.09202C13.5903 2.71569 13.2843 2.40973 12.908 2.21799C12.4802 2 11.9201 2 10.8 2H5.2C4.0799 2 3.51984 2 3.09202 2.21799C2.71569 2.40973 2.40973 2.71569 2.21799 3.09202C2 3.51984 2 4.0799 2 5.2V10.8C2 11.9201 2 12.4802 2.21799 12.908C2.40973 13.2843 2.71569 13.5903 3.09202 13.782C3.51984 14 4.0799 14 5.2 14ZM8.16667 7.83333C8.16667 7.92538 8.09205 8 8 8C7.90795 8 7.83333 7.92538 7.83333 7.83333C7.83333 7.74129 7.90795 7.66667 8 7.66667C8.09205 7.66667 8.16667 7.74129 8.16667 7.83333Z" stroke="#383E40" stroke-width="1.5" stroke-linecap="round" stroke-linejoin="round"/>
</svg>
