<svg width="16" height="16" viewBox="0 0 16 16" fill="none" xmlns="http://www.w3.org/2000/svg">
<path d="M8 8.66675C8.36819 8.66675 8.66667 8.36827 8.66667 8.00008C8.66667 7.63189 8.36819 7.33341 8 7.33341C7.63181 7.33341 7.33334 7.63189 7.33334 8.00008C7.33334 8.36827 7.63181 8.66675 8 8.66675Z" stroke="#383E40" stroke-width="1.5" stroke-linecap="round" stroke-linejoin="round"/>
<path d="M8 4.00008C8.36819 4.00008 8.66667 3.7016 8.66667 3.33341C8.66667 2.96522 8.36819 2.66675 8 2.66675C7.63181 2.66675 7.33334 2.96522 7.33334 3.33341C7.33334 3.7016 7.63181 4.00008 8 4.00008Z" stroke="#383E40" stroke-width="1.5" stroke-linecap="round" stroke-linejoin="round"/>
<path d="M8 13.3334C8.36819 13.3334 8.66667 13.0349 8.66667 12.6667C8.66667 12.2986 8.36819 12.0001 8 12.0001C7.63181 12.0001 7.33334 12.2986 7.33334 12.6667C7.33334 13.0349 7.63181 13.3334 8 13.3334Z" stroke="#383E40" stroke-width="1.5" stroke-linecap="round" stroke-linejoin="round"/>
</svg>
