<svg width="16" height="16" viewBox="0 0 16 16" fill="none" xmlns="http://www.w3.org/2000/svg">
<path d="M14 10V10.8C14 11.9201 14 12.4802 13.782 12.908C13.5903 13.2843 13.2843 13.5903 12.908 13.782C12.4802 14 11.9201 14 10.8 14H5.2C4.07989 14 3.51984 14 3.09202 13.782C2.71569 13.5903 2.40973 13.2843 2.21799 12.908C2 12.4802 2 11.9201 2 10.8V10M8.95909 6.17706H10.8311C11.0724 6.17706 11.193 6.17706 11.2531 6.22639C11.3053 6.26926 11.3349 6.33406 11.3333 6.40189C11.3313 6.47995 11.2528 6.57215 11.0959 6.75654L7.9314 10.4735C7.8402 10.5806 7.7946 10.6341 7.74034 10.6538C7.69271 10.671 7.64062 10.671 7.59299 10.6538C7.53873 10.6341 7.49313 10.5806 7.40194 10.4735L4.23747 6.75654C4.08049 6.57215 4.00199 6.47995 4.00007 6.40189C3.9984 6.33406 4.028 6.26926 4.08025 6.22639C4.14036 6.17706 4.26098 6.17706 4.5022 6.17706H6.32841C6.28579 5.54449 6.12405 4.92504 5.851 4.352C5.54129 3.70203 5.09571 3.12713 4.54477 2.66669L4.8115 2.66669C5.84663 2.66723 6.84532 3.05143 7.61704 3.746C8.32489 4.38308 8.79632 5.24037 8.95909 6.17706Z" stroke="#383E40" stroke-width="1.5" stroke-linecap="round" stroke-linejoin="round"/>
</svg>
