<svg width="16" height="16" viewBox="0 0 16 16" fill="none" xmlns="http://www.w3.org/2000/svg">
<path d="M14 12L13.3332 12.7294C12.9796 13.1161 12.5001 13.3333 12.0001 13.3333C11.5001 13.3333 11.0205 13.1161 10.6669 12.7294C10.3128 12.3434 9.83332 12.1267 9.33345 12.1267C8.83359 12.1267 8.35409 12.3434 7.99998 12.7294M2 13.3333H3.11636C3.44248 13.3333 3.60554 13.3333 3.75899 13.2965C3.89504 13.2638 4.0251 13.21 4.1444 13.1369C4.27895 13.0544 4.39425 12.9391 4.62486 12.7085L13 4.33334C13.5523 3.78106 13.5523 2.88563 13 2.33334C12.4477 1.78106 11.5523 1.78106 11 2.33334L2.62484 10.7085C2.39424 10.9391 2.27894 11.0544 2.19648 11.189C2.12338 11.3083 2.0695 11.4383 2.03684 11.5744C2 11.7278 2 11.8909 2 12.217V13.3333Z" stroke="#383E40" stroke-width="1.5" stroke-linecap="round" stroke-linejoin="round"/>
</svg>
