<svg width="16" height="16" viewBox="0 0 16 16" fill="none" xmlns="http://www.w3.org/2000/svg">
<path d="M8.00001 13.3333H14M2.00003 13.3333H3.11639C3.44251 13.3333 3.60557 13.3333 3.75902 13.2965C3.89507 13.2638 4.02513 13.21 4.14443 13.1369C4.27898 13.0544 4.39428 12.9391 4.62489 12.7085L13 4.33334C13.5523 3.78106 13.5523 2.88563 13 2.33334C12.4478 1.78106 11.5523 1.78106 11 2.33334L2.62487 10.7085C2.39427 10.9391 2.27897 11.0544 2.19651 11.189C2.12341 11.3083 2.06953 11.4383 2.03687 11.5744C2.00003 11.7278 2.00003 11.8909 2.00003 12.217V13.3333Z" stroke="#383E40" stroke-width="1.5" stroke-linecap="round" stroke-linejoin="round"/>
</svg>
