<svg width="16" height="16" viewBox="0 0 16 16" fill="none" xmlns="http://www.w3.org/2000/svg">
<path d="M11.9995 8.66669L7.33287 4.00002M13.9995 14H5.33287M7.29104 13.3752L13.0701 7.5961C13.8622 6.80406 14.2582 6.40805 14.4066 5.95139C14.5371 5.5497 14.5371 5.11701 14.4066 4.71532C14.2582 4.25867 13.8622 3.86265 13.0701 3.07062L12.9289 2.92943C12.1369 2.1374 11.7409 1.74138 11.2842 1.593C10.8825 1.46249 10.4499 1.46249 10.0482 1.593C9.59151 1.74138 9.19549 2.1374 8.40346 2.92943L2.92894 8.40395C2.13691 9.19598 1.74089 9.592 1.59252 10.0487C1.462 10.4503 1.462 10.883 1.59252 11.2847C1.74089 11.7414 2.13691 12.1374 2.92894 12.9294L3.3747 13.3752C3.6053 13.6058 3.7206 13.7211 3.85516 13.8035C3.97445 13.8766 4.10451 13.9305 4.24056 13.9632C4.39401 14 4.55707 14 4.88319 14H5.78255C6.10867 14 6.27173 14 6.42518 13.9632C6.56123 13.9305 6.69129 13.8766 6.81058 13.8035C6.94514 13.7211 7.06044 13.6058 7.29104 13.3752Z" stroke="#383E40" stroke-width="1.5" stroke-linecap="round" stroke-linejoin="round"/>
</svg>
