<svg width="16" height="16" viewBox="0 0 16 16" fill="none" xmlns="http://www.w3.org/2000/svg">
<path d="M10 6.00004H10.0067M6.00004 6.00004H6.00671M14.6667 8.00004C14.6667 11.6819 11.6819 14.6667 8.00004 14.6667C4.31814 14.6667 1.33337 11.6819 1.33337 8.00004C1.33337 4.31814 4.31814 1.33337 8.00004 1.33337C11.6819 1.33337 14.6667 4.31814 14.6667 8.00004ZM10.3334 6.00004C10.3334 6.18414 10.1841 6.33337 10 6.33337C9.81595 6.33337 9.66671 6.18414 9.66671 6.00004C9.66671 5.81595 9.81595 5.66671 10 5.66671C10.1841 5.66671 10.3334 5.81595 10.3334 6.00004ZM6.33337 6.00004C6.33337 6.18414 6.18414 6.33337 6.00004 6.33337C5.81595 6.33337 5.66671 6.18414 5.66671 6.00004C5.66671 5.81595 5.81595 5.66671 6.00004 5.66671C6.18414 5.66671 6.33337 5.81595 6.33337 6.00004ZM8.00004 11.6667C9.66704 11.6667 11 10.4447 11 9.33337H5.00004C5.00004 10.4447 6.33304 11.6667 8.00004 11.6667Z" stroke="#383E40" stroke-width="1.5" stroke-linecap="round" stroke-linejoin="round"/>
</svg>
