<svg width="16" height="16" viewBox="0 0 16 16" fill="none" xmlns="http://www.w3.org/2000/svg">
<path d="M13.3332 6.66683V4.5335C13.3332 3.41339 13.3332 2.85334 13.1152 2.42552C12.9234 2.04919 12.6175 1.74323 12.2412 1.55148C11.8133 1.3335 11.2533 1.3335 10.1332 1.3335H5.8665C4.7464 1.3335 4.18635 1.3335 3.75852 1.55148C3.3822 1.74323 3.07624 2.04919 2.88449 2.42552C2.6665 2.85334 2.6665 3.41339 2.6665 4.5335V11.4668C2.6665 12.5869 2.6665 13.147 2.88449 13.5748C3.07624 13.9511 3.3822 14.2571 3.75852 14.4488C4.18635 14.6668 4.7464 14.6668 5.8665 14.6668H6.99984M8.6665 7.3335H5.33317M7.33317 10.0002H5.33317M10.6665 4.66683H5.33317M12.8332 11.3335V10.1668C12.8332 9.5225 12.3108 9.00016 11.6665 9.00016C11.0222 9.00016 10.4998 9.5225 10.4998 10.1668V11.3335M10.3998 14.0002H12.9332C13.3065 14.0002 13.4932 14.0002 13.6358 13.9275C13.7613 13.8636 13.8633 13.7616 13.9272 13.6362C13.9998 13.4935 13.9998 13.3069 13.9998 12.9335V12.4002C13.9998 12.0268 13.9998 11.8401 13.9272 11.6975C13.8633 11.5721 13.7613 11.4701 13.6358 11.4062C13.4932 11.3335 13.3065 11.3335 12.9332 11.3335H10.3998C10.0265 11.3335 9.83978 11.3335 9.69718 11.4062C9.57173 11.4701 9.46975 11.5721 9.40583 11.6975C9.33317 11.8401 9.33317 12.0268 9.33317 12.4002V12.9335C9.33317 13.3069 9.33317 13.4935 9.40583 13.6362C9.46975 13.7616 9.57173 13.8636 9.69718 13.9275C9.83978 14.0002 10.0265 14.0002 10.3998 14.0002Z" stroke="#383E40" stroke-width="1.5" stroke-linecap="round" stroke-linejoin="round"/>
</svg>
