<svg width="16" height="16" viewBox="0 0 16 16" fill="none" xmlns="http://www.w3.org/2000/svg">
<path d="M9.33341 1.33325H5.86675C4.74664 1.33325 4.18659 1.33325 3.75877 1.55124C3.38244 1.74299 3.07648 2.04895 2.88473 2.42527C2.66675 2.85309 2.66675 3.41315 2.66675 4.53325V11.4666C2.66675 12.5867 2.66675 13.1467 2.88473 13.5746C3.07648 13.9509 3.38244 14.2569 3.75877 14.4486C4.18659 14.6666 4.74664 14.6666 5.86675 14.6666H10.1334C11.2535 14.6666 11.8136 14.6666 12.2414 14.4486C12.6177 14.2569 12.9237 13.9509 13.1154 13.5746C13.3334 13.1467 13.3334 12.5867 13.3334 11.4666V5.33325M9.33341 1.33325L13.3334 5.33325M9.33341 1.33325V5.33325H13.3334M9.16675 9.33325V8.16659C9.16675 7.52225 8.64441 6.99992 8.00008 6.99992C7.35575 6.99992 6.83341 7.52225 6.83341 8.16659V9.33325M6.73341 11.9999H9.26675C9.64012 11.9999 9.8268 11.9999 9.96941 11.9273C10.0948 11.8633 10.1968 11.7614 10.2608 11.6359C10.3334 11.4933 10.3334 11.3066 10.3334 10.9333V10.3999C10.3334 10.0266 10.3334 9.83987 10.2608 9.69726C10.1968 9.57182 10.0948 9.46983 9.96941 9.40591C9.8268 9.33325 9.64012 9.33325 9.26675 9.33325H6.73341C6.36005 9.33325 6.17336 9.33325 6.03075 9.40591C5.90531 9.46983 5.80333 9.57182 5.73941 9.69726C5.66675 9.83987 5.66675 10.0266 5.66675 10.3999V10.9333C5.66675 11.3066 5.66675 11.4933 5.73941 11.6359C5.80333 11.7614 5.90531 11.8633 6.03075 11.9273C6.17336 11.9999 6.36005 11.9999 6.73341 11.9999Z" stroke="#383E40" stroke-width="1.5" stroke-linecap="round" stroke-linejoin="round"/>
</svg>
