<svg width="16" height="16" viewBox="0 0 16 16" fill="none" xmlns="http://www.w3.org/2000/svg">
<path d="M5.33317 9.3335V12.0002M10.6665 8.00016V12.0002M7.99984 5.3335V12.0002M13.3332 4.5335V11.4668C13.3332 12.5869 13.3332 13.147 13.1152 13.5748C12.9234 13.9511 12.6175 14.2571 12.2412 14.4488C11.8133 14.6668 11.2533 14.6668 10.1332 14.6668H5.8665C4.7464 14.6668 4.18635 14.6668 3.75852 14.4488C3.3822 14.2571 3.07624 13.9511 2.88449 13.5748C2.6665 13.147 2.6665 12.5869 2.6665 11.4668V4.5335C2.6665 3.41339 2.6665 2.85334 2.88449 2.42552C3.07624 2.04919 3.3822 1.74323 3.75852 1.55148C4.18635 1.3335 4.7464 1.3335 5.8665 1.3335H10.1332C11.2533 1.3335 11.8133 1.3335 12.2412 1.55148C12.6175 1.74323 12.9234 2.04919 13.1152 2.42552C13.3332 2.85334 13.3332 3.41339 13.3332 4.5335Z" stroke="#383E40" stroke-width="1.5" stroke-linecap="round" stroke-linejoin="round"/>
</svg>
