<svg width="16" height="16" viewBox="0 0 16 16" fill="none" xmlns="http://www.w3.org/2000/svg">
<path d="M13.3334 6.66659V4.53325C13.3334 3.41315 13.3334 2.85309 13.1154 2.42527C12.9237 2.04895 12.6177 1.74299 12.2414 1.55124C11.8136 1.33325 11.2535 1.33325 10.1334 1.33325H5.86675C4.74664 1.33325 4.18659 1.33325 3.75877 1.55124C3.38244 1.74299 3.07648 2.04895 2.88473 2.42527C2.66675 2.85309 2.66675 3.41315 2.66675 4.53325V11.4666C2.66675 12.5867 2.66675 13.1467 2.88473 13.5746C3.07648 13.9509 3.38244 14.2569 3.75877 14.4486C4.18659 14.6666 4.74664 14.6666 5.86675 14.6666H7.00008M12.8334 11.3333V10.1666C12.8334 9.52225 12.3111 8.99992 11.6667 8.99992C11.0224 8.99992 10.5001 9.52225 10.5001 10.1666V11.3333M10.4001 13.9999H12.9334C13.3068 13.9999 13.4935 13.9999 13.6361 13.9273C13.7615 13.8633 13.8635 13.7614 13.9274 13.6359C14.0001 13.4933 14.0001 13.3066 14.0001 12.9333V12.3999C14.0001 12.0266 14.0001 11.8399 13.9274 11.6973C13.8635 11.5718 13.7615 11.4698 13.6361 11.4059C13.4935 11.3333 13.3068 11.3333 12.9334 11.3333H10.4001C10.0267 11.3333 9.84003 11.3333 9.69742 11.4059C9.57198 11.4698 9.46999 11.5718 9.40608 11.6973C9.33341 11.8399 9.33341 12.0266 9.33341 12.3999V12.9333C9.33341 13.3066 9.33341 13.4933 9.40608 13.6359C9.46999 13.7614 9.57198 13.8633 9.69742 13.9273C9.84003 13.9999 10.0267 13.9999 10.4001 13.9999Z" stroke="#383E40" stroke-width="1.5" stroke-linecap="round" stroke-linejoin="round"/>
</svg>
