<svg width="16" height="16" viewBox="0 0 16 16" fill="none" xmlns="http://www.w3.org/2000/svg">
<path d="M2.66663 4.53325C2.66663 3.41315 2.66663 2.85309 2.88461 2.42527C3.07636 2.04895 3.38232 1.74299 3.75864 1.55124C4.18647 1.33325 4.74652 1.33325 5.86663 1.33325H10.1333C11.2534 1.33325 11.8134 1.33325 12.2413 1.55124C12.6176 1.74299 12.9236 2.04895 13.1153 2.42527C13.3333 2.85309 13.3333 3.41315 13.3333 4.53325V11.4666C13.3333 12.5867 13.3333 13.1467 13.1153 13.5746C12.9236 13.9509 12.6176 14.2569 12.2413 14.4486C11.8134 14.6666 11.2534 14.6666 10.1333 14.6666H5.86663C4.74652 14.6666 4.18647 14.6666 3.75864 14.4486C3.38232 14.2569 3.07636 13.9509 2.88461 13.5746C2.66663 13.1467 2.66663 12.5867 2.66663 11.4666V4.53325Z" stroke="#383E40" stroke-width="1.5" stroke-linecap="round" stroke-linejoin="round"/>
</svg>
