<svg width="16" height="16" viewBox="0 0 16 16" fill="none" xmlns="http://www.w3.org/2000/svg">
<path d="M13.3332 4.66683V4.5335C13.3332 3.41339 13.3332 2.85334 13.1152 2.42552C12.9234 2.04919 12.6175 1.74323 12.2412 1.55148C11.8133 1.3335 11.2533 1.3335 10.1332 1.3335H5.8665C4.7464 1.3335 4.18635 1.3335 3.75852 1.55148C3.3822 1.74323 3.07624 2.04919 2.88449 2.42552C2.6665 2.85334 2.6665 3.41339 2.6665 4.5335V11.4668C2.6665 12.5869 2.6665 13.147 2.88449 13.5748C3.07624 13.9511 3.3822 14.2571 3.75852 14.4488C4.18635 14.6668 4.7464 14.6668 5.8665 14.6668H8.33317M11.9998 12.0002V8.3335C11.9998 7.78121 12.4476 7.3335 12.9998 7.3335C13.5521 7.3335 13.9998 7.78121 13.9998 8.3335V12.0002C13.9998 13.1047 13.1044 14.0002 11.9998 14.0002C10.8953 14.0002 9.99984 13.1047 9.99984 12.0002V9.3335" stroke="#383E40" stroke-width="1.5" stroke-linecap="round" stroke-linejoin="round"/>
</svg>
