<svg width="16" height="16" viewBox="0 0 16 16" fill="none" xmlns="http://www.w3.org/2000/svg">
<path d="M7.66699 1.33338H5.86699C4.74689 1.33338 4.18683 1.33338 3.75901 1.55136C3.38269 1.74311 3.07673 2.04907 2.88498 2.4254C2.66699 2.85322 2.66699 3.41327 2.66699 4.53338V11.4667C2.66699 12.5868 2.66699 13.1469 2.88498 13.5747C3.07673 13.951 3.38269 14.257 3.75901 14.4487C4.18683 14.6667 4.74689 14.6667 5.86699 14.6667H10.1337C11.2538 14.6667 12.1471 14.6667 12.575 14.4487C12.9513 14.257 13.2573 13.951 13.449 13.5747C13.667 13.1469 13.667 12.5868 13.667 11.4667V11M5.66699 8.66671H8.33366M5.66699 6.00004H8.33366M5.66699 11.3334H10.667M10.0003 3.33337L12.0003 1.33337M12.0003 1.33337L14.0003 3.33337M12.0003 1.33337V8.33338" stroke="#383E40" stroke-width="1.5" stroke-linecap="round" stroke-linejoin="round"/>
</svg>
