<svg width="16" height="16" viewBox="0 0 16 16" fill="none" xmlns="http://www.w3.org/2000/svg">
<path d="M6.33167 1.51306V4.26676C6.33167 4.64012 6.33167 4.82681 6.259 4.96942C6.19509 5.09486 6.0931 5.19684 5.96766 5.26076C5.82505 5.33342 5.63837 5.33342 5.265 5.33342H2.51131M8.33171 14.6667H5.53167C4.41156 14.6667 3.85151 14.6667 3.42369 14.4487C3.04736 14.257 2.7414 13.951 2.54965 13.5747C2.33167 13.1469 2.33167 12.5868 2.33167 11.4667V5.33337L6.33167 1.33337H9.79833C10.9184 1.33337 11.4785 1.33337 11.9063 1.55136C12.2826 1.74311 12.5886 2.04907 12.7803 2.42539C12.9983 2.85322 12.9983 3.41327 12.9983 4.53337V6.66671M13.9064 11.4667L11.9064 9.46671M11.9064 9.46671L9.90638 11.4667M11.9064 9.46671L11.9064 11.4667V14.6667" stroke="#383E40" stroke-width="1.5" stroke-linecap="round" stroke-linejoin="round"/>
</svg>
