<svg width="16" height="16" viewBox="0 0 16 16" fill="none" xmlns="http://www.w3.org/2000/svg">
<path d="M9.33317 1.51314V4.26683C9.33317 4.6402 9.33317 4.82688 9.40583 4.96949C9.46975 5.09493 9.57173 5.19692 9.69718 5.26083C9.83978 5.3335 10.0265 5.3335 10.3998 5.3335H13.1535M13.3332 6.65898V11.4668C13.3332 12.5869 13.3332 13.147 13.1152 13.5748C12.9234 13.9511 12.6175 14.2571 12.2412 14.4488C11.8133 14.6668 11.2533 14.6668 10.1332 14.6668H5.8665C4.7464 14.6668 4.18635 14.6668 3.75852 14.4488C3.3822 14.2571 3.07624 13.9511 2.88449 13.5748C2.6665 13.147 2.6665 12.5869 2.6665 11.4668V4.5335C2.6665 3.41339 2.6665 2.85334 2.88449 2.42552C3.07624 2.04919 3.3822 1.74323 3.75852 1.55148C4.18635 1.3335 4.7464 1.3335 5.8665 1.3335H8.00769C8.49687 1.3335 8.74146 1.3335 8.97163 1.38876C9.17571 1.43775 9.3708 1.51856 9.54974 1.62822C9.75157 1.7519 9.92453 1.92485 10.2704 2.27075L12.3959 4.39624C12.7418 4.74214 12.9148 4.91509 13.0385 5.11693C13.1481 5.29587 13.2289 5.49096 13.2779 5.69503C13.3332 5.92521 13.3332 6.1698 13.3332 6.65898Z" stroke="#383E40" stroke-width="1.5" stroke-linecap="round" stroke-linejoin="round"/>
</svg>
