<svg width="16" height="16" viewBox="0 0 16 16" fill="none" xmlns="http://www.w3.org/2000/svg">
<path d="M9.33317 1.3335H5.8665C4.7464 1.3335 4.18635 1.3335 3.75852 1.55148C3.3822 1.74323 3.07624 2.04919 2.88449 2.42552C2.6665 2.85334 2.6665 3.41339 2.6665 4.5335V11.4668C2.6665 12.5869 2.6665 13.147 2.88449 13.5748C3.07624 13.9511 3.3822 14.2571 3.75852 14.4488C4.18635 14.6668 4.7464 14.6668 5.8665 14.6668H10.1332C11.2533 14.6668 11.8133 14.6668 12.2412 14.4488C12.6175 14.2571 12.9234 13.9511 13.1152 13.5748C13.3332 13.147 13.3332 12.5869 13.3332 11.4668V5.3335M9.33317 1.3335L13.3332 5.3335M9.33317 1.3335V5.3335H13.3332M9.1665 9.3335V8.16683C9.1665 7.5225 8.64417 7.00016 7.99984 7.00016C7.3555 7.00016 6.83317 7.5225 6.83317 8.16683V9.3335M6.73317 12.0002H9.2665C9.63987 12.0002 9.82656 12.0002 9.96916 11.9275C10.0946 11.8636 10.1966 11.7616 10.2605 11.6362C10.3332 11.4935 10.3332 11.3069 10.3332 10.9335V10.4002C10.3332 10.0268 10.3332 9.84011 10.2605 9.6975C10.1966 9.57206 10.0946 9.47007 9.96916 9.40616C9.82656 9.3335 9.63987 9.3335 9.2665 9.3335H6.73317C6.3598 9.3335 6.17312 9.3335 6.03051 9.40616C5.90507 9.47007 5.80308 9.57206 5.73917 9.6975C5.6665 9.84011 5.6665 10.0268 5.6665 10.4002V10.9335C5.6665 11.3069 5.6665 11.4935 5.73917 11.6362C5.80308 11.7616 5.90507 11.8636 6.03051 11.9275C6.17312 12.0002 6.3598 12.0002 6.73317 12.0002Z" stroke="#383E40" stroke-width="1.5" stroke-linecap="round" stroke-linejoin="round"/>
</svg>
