<svg width="16" height="16" viewBox="0 0 16 16" fill="none" xmlns="http://www.w3.org/2000/svg">
<path d="M3.33317 12.3335C3.33317 12.6431 3.33317 12.7979 3.35028 12.9279C3.46843 13.8253 4.17465 14.5316 5.07212 14.6497C5.20208 14.6668 5.35689 14.6668 5.6665 14.6668H10.7998C11.9199 14.6668 12.48 14.6668 12.9078 14.4488C13.2841 14.2571 13.5901 13.9511 13.7818 13.5748C13.9998 13.147 13.9998 12.5869 13.9998 11.4668V6.65898C13.9998 6.1698 13.9998 5.92521 13.9446 5.69503C13.8956 5.49096 13.8148 5.29587 13.7051 5.11693C13.5814 4.91509 13.4085 4.74214 13.0626 4.39624L10.9371 2.27075C10.5912 1.92485 10.4182 1.7519 10.2164 1.62822C10.0375 1.51856 9.84237 1.43775 9.6383 1.38876C9.40813 1.3335 9.16353 1.3335 8.67435 1.3335H5.6665C5.35689 1.3335 5.20208 1.3335 5.07212 1.35061C4.17465 1.46876 3.46843 2.17498 3.35028 3.07244C3.33317 3.20241 3.33317 3.35722 3.33317 3.66683M5.99984 9.66683L7.6665 8.00016L5.99984 6.3335M3.33317 6.3335L1.6665 8.00016L3.33317 9.66683" stroke="#383E40" stroke-width="1.5" stroke-linecap="round" stroke-linejoin="round"/>
</svg>
