<svg width="16" height="16" viewBox="0 0 16 16" fill="none" xmlns="http://www.w3.org/2000/svg">
<path d="M6.66634 1.51306V4.26676C6.66634 4.64012 6.66634 4.82681 6.59368 4.96942C6.52976 5.09486 6.42778 5.19684 6.30234 5.26076C6.15973 5.33342 5.97304 5.33342 5.59967 5.33342H2.84598M9.99967 10L7.99968 8.00004M7.99968 8.00004L5.99967 10M7.99968 8.00004L7.99967 10V12M6.66634 1.33337H10.133C11.2531 1.33337 11.8132 1.33337 12.241 1.55136C12.6173 1.74311 12.9233 2.04907 13.115 2.42539C13.333 2.85322 13.333 3.41327 13.333 4.53337V11.4667C13.333 12.5868 13.333 13.1469 13.115 13.5747C12.9233 13.951 12.6173 14.257 12.241 14.4487C11.8132 14.6667 11.2531 14.6667 10.133 14.6667H5.86634C4.74624 14.6667 4.18618 14.6667 3.75836 14.4487C3.38204 14.257 3.07608 13.951 2.88433 13.5747C2.66634 13.1469 2.66634 12.5868 2.66634 11.4667V5.33337L6.66634 1.33337Z" stroke="#383E40" stroke-width="1.5" stroke-linecap="round" stroke-linejoin="round"/>
</svg>
