<svg width="16" height="16" viewBox="0 0 16 16" fill="none" xmlns="http://www.w3.org/2000/svg">
<path d="M13.333 5.33337V5.00004C13.333 3.87994 13.333 2.85322 13.115 2.42539C12.9233 2.04907 12.6173 1.74311 12.241 1.55136C11.8132 1.33337 10.9198 1.33337 9.79967 1.33337H5.53301C4.4129 1.33337 3.85285 1.33337 3.42503 1.55136C3.0487 1.74311 2.74274 2.04907 2.55099 2.42539C2.33301 2.85322 2.33301 3.41327 2.33301 4.53337V11.4667C2.33301 12.5868 2.33301 13.1469 2.55099 13.5747C2.74274 13.951 3.0487 14.257 3.42503 14.4487C3.85285 14.6667 4.4129 14.6667 5.53301 14.6667H7.99967M8.33301 8.00004H5.33301M7.33301 10.6667H5.33301M10.333 5.33337H5.33301M14.333 10.6667L12.333 8.66671M12.333 8.66671L10.333 10.6667M12.333 8.66671V14.6667" stroke="#383E40" stroke-width="1.5" stroke-linecap="round" stroke-linejoin="round"/>
</svg>
