<svg width="16" height="16" viewBox="0 0 16 16" fill="none" xmlns="http://www.w3.org/2000/svg">
<path d="M7.99996 9.3335V5.66683C7.99996 5.11454 8.44767 4.66683 8.99996 4.66683C9.55224 4.66683 9.99996 5.11454 9.99996 5.66683V9.3335C9.99996 10.4381 9.10453 11.3335 7.99996 11.3335C6.89539 11.3335 5.99996 10.4381 5.99996 9.3335V6.66683M5.86663 14.6668H10.1333C11.2534 14.6668 11.8134 14.6668 12.2413 14.4488C12.6176 14.2571 12.9236 13.9511 13.1153 13.5748C13.3333 13.147 13.3333 12.5869 13.3333 11.4668V4.5335C13.3333 3.41339 13.3333 2.85334 13.1153 2.42552C12.9236 2.04919 12.6176 1.74323 12.2413 1.55148C11.8134 1.3335 11.2534 1.3335 10.1333 1.3335H5.86663C4.74652 1.3335 4.18647 1.3335 3.75864 1.55148C3.38232 1.74323 3.07636 2.04919 2.88461 2.42552C2.66663 2.85334 2.66663 3.41339 2.66663 4.5335V11.4668C2.66663 12.5869 2.66663 13.147 2.88461 13.5748C3.07636 13.9511 3.38232 14.2571 3.75864 14.4488C4.18647 14.6668 4.74652 14.6668 5.86663 14.6668Z" stroke="#383E40" stroke-width="1.5" stroke-linecap="round" stroke-linejoin="round"/>
</svg>
