<svg width="16" height="16" viewBox="0 0 16 16" fill="none" xmlns="http://www.w3.org/2000/svg">
<path d="M7.99984 9.3335V5.66683C7.99984 5.11454 8.44755 4.66683 8.99984 4.66683C9.55212 4.66683 9.99984 5.11454 9.99984 5.66683V9.3335C9.99984 10.4381 9.10441 11.3335 7.99984 11.3335C6.89527 11.3335 5.99984 10.4381 5.99984 9.3335V6.66683M5.8665 14.6668H10.1332C11.2533 14.6668 11.8133 14.6668 12.2412 14.4488C12.6175 14.2571 12.9234 13.9511 13.1152 13.5748C13.3332 13.147 13.3332 12.5869 13.3332 11.4668V4.5335C13.3332 3.41339 13.3332 2.85334 13.1152 2.42552C12.9234 2.04919 12.6175 1.74323 12.2412 1.55148C11.8133 1.3335 11.2533 1.3335 10.1332 1.3335H5.8665C4.7464 1.3335 4.18635 1.3335 3.75852 1.55148C3.3822 1.74323 3.07624 2.04919 2.88449 2.42552C2.6665 2.85334 2.6665 3.41339 2.6665 4.5335V11.4668C2.6665 12.5869 2.6665 13.147 2.88449 13.5748C3.07624 13.9511 3.3822 14.2571 3.75852 14.4488C4.18635 14.6668 4.7464 14.6668 5.8665 14.6668Z" stroke="#383E40" stroke-width="1.5" stroke-linecap="round" stroke-linejoin="round"/>
</svg>
