<svg width="16" height="16" viewBox="0 0 16 16" fill="none" xmlns="http://www.w3.org/2000/svg">
<path d="M7.99992 14.6666V1.33325M4.66659 14.6666V11.3333M4.66659 4.66659V1.33325M11.3333 14.6666V11.3333M11.3333 4.66659V1.33325M1.33325 4.66659H14.6666M1.33325 11.3333H14.6666M14.6666 11.4666V4.53325C14.6666 3.41315 14.6666 2.85309 14.4486 2.42527C14.2569 2.04895 13.9509 1.74299 13.5746 1.55124C13.1467 1.33325 12.5867 1.33325 11.4666 1.33325L4.53325 1.33325C3.41315 1.33325 2.85309 1.33325 2.42527 1.55124C2.04895 1.74299 1.74299 2.04895 1.55124 2.42527C1.33325 2.85309 1.33325 3.41315 1.33325 4.53325L1.33325 11.4666C1.33325 12.5867 1.33325 13.1467 1.55124 13.5746C1.74299 13.9509 2.04895 14.2569 2.42527 14.4486C2.85309 14.6666 3.41315 14.6666 4.53325 14.6666H11.4666C12.5867 14.6666 13.1467 14.6666 13.5746 14.4486C13.9509 14.2569 14.2569 13.9509 14.4486 13.5746C14.6666 13.1467 14.6666 12.5867 14.6666 11.4666Z" stroke="#383E40" stroke-width="1.5" stroke-linecap="round" stroke-linejoin="round"/>
</svg>
