<svg width="16" height="16" viewBox="0 0 16 16" fill="none" xmlns="http://www.w3.org/2000/svg">
<path d="M4.66683 1.33325V3.99992M4.66683 10.6666V13.3333M11.3335 2.66659V5.33325M11.3335 11.9999V14.6666M1.3335 3.99992H8.00016M1.3335 10.6666H8.00016M8.00016 5.33325H14.6668M8.00016 11.9999H14.6668M8.00016 13.3333V2.39992C8.00016 2.02655 8.00016 1.83987 7.9275 1.69726C7.86359 1.57182 7.7616 1.46983 7.63616 1.40591C7.49355 1.33325 7.30686 1.33325 6.9335 1.33325H4.5335C3.41339 1.33325 2.85334 1.33325 2.42552 1.55124C2.04919 1.74299 1.74323 2.04895 1.55148 2.42527C1.3335 2.85309 1.3335 3.41315 1.3335 4.53325V10.1333C1.3335 11.2534 1.3335 11.8134 1.55148 12.2412C1.74323 12.6176 2.04919 12.9235 2.42552 13.1153C2.85334 13.3333 3.41339 13.3333 4.5335 13.3333H8.00016ZM8.00016 2.66659H11.4668C12.5869 2.66659 13.147 2.66659 13.5748 2.88457C13.9511 3.07632 14.2571 3.38228 14.4488 3.7586C14.6668 4.18643 14.6668 4.74648 14.6668 5.86659V11.4666C14.6668 12.5867 14.6668 13.1467 14.4488 13.5746C14.2571 13.9509 13.9511 14.2569 13.5748 14.4486C13.147 14.6666 12.5869 14.6666 11.4668 14.6666H9.06683C8.69346 14.6666 8.50678 14.6666 8.36417 14.5939C8.23873 14.53 8.13674 14.428 8.07283 14.3026C8.00016 14.16 8.00016 13.9733 8.00016 13.5999V2.66659Z" stroke="#383E40" stroke-width="1.5" stroke-linecap="round" stroke-linejoin="round"/>
</svg>
