<svg width="16" height="16" viewBox="0 0 16 16" fill="none" xmlns="http://www.w3.org/2000/svg">
<path d="M1.33334 3.06667C1.33334 2.6933 1.33334 2.50661 1.40601 2.36401C1.46992 2.23856 1.57191 2.13658 1.69735 2.07266C1.83996 2 2.02664 2 2.40001 2H13.6C13.9734 2 14.1601 2 14.3027 2.07266C14.4281 2.13658 14.5301 2.23856 14.594 2.36401C14.6667 2.50661 14.6667 2.6933 14.6667 3.06667V3.51293C14.6667 3.69213 14.6667 3.78173 14.6448 3.86504C14.6254 3.93887 14.5934 4.00882 14.5503 4.07184C14.5017 4.14295 14.434 4.20164 14.2986 4.319L10.0348 8.01434C9.89933 8.1317 9.83162 8.19038 9.78301 8.26149C9.73992 8.32451 9.70798 8.39446 9.68857 8.46829C9.66668 8.55161 9.66668 8.64121 9.66668 8.8204V12.3056C9.66668 12.436 9.66668 12.5011 9.64565 12.5575C9.62707 12.6073 9.59685 12.6519 9.55751 12.6877C9.51299 12.7281 9.45247 12.7524 9.33142 12.8008L7.06475 13.7074C6.81972 13.8054 6.69721 13.8545 6.59886 13.834C6.51285 13.8161 6.43738 13.765 6.38884 13.6918C6.33334 13.6081 6.33334 13.4762 6.33334 13.2122V8.8204C6.33334 8.64121 6.33334 8.55161 6.31145 8.46829C6.29204 8.39446 6.2601 8.32451 6.21702 8.26149C6.1684 8.19038 6.10069 8.1317 5.96527 8.01434L1.70142 4.319C1.566 4.20164 1.49829 4.14295 1.44967 4.07184C1.40659 4.00882 1.37465 3.93887 1.35524 3.86504C1.33334 3.78173 1.33334 3.69213 1.33334 3.51293V3.06667Z" stroke="#383E40" stroke-width="1.5" stroke-linecap="round" stroke-linejoin="round"/>
</svg>
