<svg width="16" height="16" viewBox="0 0 16 16" fill="none" xmlns="http://www.w3.org/2000/svg">
<path d="M4.61206 2.25702C5.60486 1.67008 6.76306 1.33325 7.99992 1.33325C11.6818 1.33325 14.6666 4.31802 14.6666 7.99992C14.6666 8.02201 14.6665 8.04407 14.6663 8.06611M2.25401 4.61715C1.66893 5.60882 1.33325 6.76517 1.33325 7.99992C1.33325 11.1063 3.45787 13.7165 6.33325 14.4566M13.805 11.2803C12.9247 12.8347 11.4382 14.0006 9.66659 14.4566M9.39278 4.2491C8.95903 4.08797 8.48976 3.99992 7.99992 3.99992C5.79078 3.99992 3.99992 5.79078 3.99992 7.99992C3.99992 8.49242 4.08893 8.96413 4.25173 9.39984M11.75 6.60503C11.9116 7.03934 11.9999 7.50932 11.9999 7.99992C11.9999 10.2091 10.2091 11.9999 7.99992 11.9999C7.51335 11.9999 7.04707 11.913 6.61574 11.754M7.99992 6.66659V9.33325" stroke="#383E40" stroke-width="1.5" stroke-linecap="round" stroke-linejoin="round"/>
</svg>
