<svg width="16" height="16" viewBox="0 0 16 16" fill="none" xmlns="http://www.w3.org/2000/svg">
<path d="M4.61231 2.25726C5.60511 1.67033 6.7633 1.3335 8.00016 1.3335C11.6821 1.3335 14.6668 4.31826 14.6668 8.00016C14.6668 8.02225 14.6667 8.04432 14.6665 8.06636M2.25426 4.6174C1.66918 5.60906 1.3335 6.76541 1.3335 8.00016C1.3335 11.1066 3.45812 13.7167 6.3335 14.4568M13.8053 11.2805C12.925 12.835 11.4384 14.0008 9.66683 14.4568M9.39303 4.24935C8.95928 4.08821 8.49 4.00016 8.00016 4.00016C5.79102 4.00016 4.00016 5.79102 4.00016 8.00016C4.00016 8.49266 4.08917 8.96437 4.25198 9.40009M11.7502 6.60527C11.9118 7.03959 12.0002 7.50956 12.0002 8.00016C12.0002 10.2093 10.2093 12.0002 8.00016 12.0002C7.51359 12.0002 7.04731 11.9133 6.61599 11.7542M8.00016 6.66683V9.3335" stroke="#383E40" stroke-width="1.5" stroke-linecap="round" stroke-linejoin="round"/>
</svg>
