<svg width="16" height="16" viewBox="0 0 16 16" fill="none" xmlns="http://www.w3.org/2000/svg">
<path d="M5.39989 14.1473C4.47331 12.825 3.92822 11.2162 3.92822 9.47914C3.92822 7.22955 5.75084 5.40625 7.99907 5.40625C10.2473 5.40625 12.0699 7.22955 12.0699 9.47914" stroke="#383E40" stroke-width="1.5" stroke-linecap="round" stroke-linejoin="round"/>
<path d="M5.39989 14.1473C4.47331 12.825 3.92822 11.2162 3.92822 9.47914C3.92822 7.22955 5.75084 5.40625 7.99907 5.40625C10.2473 5.40625 12.0699 7.22955 12.0699 9.47914" stroke="#383E40" stroke-width="1.5" stroke-linecap="round" stroke-linejoin="round"/>
<path d="M12.2906 13.541C12.2173 13.5451 12.1453 13.5519 12.0713 13.5519C9.8231 13.5519 8.00049 11.7286 8.00049 9.479" stroke="#383E40" stroke-width="1.5" stroke-linecap="round" stroke-linejoin="round"/>
<path d="M12.2906 13.5413C12.2173 13.5453 12.1453 13.5521 12.0713 13.5521C9.8231 13.5521 8.00049 11.7288 8.00049 9.47925" stroke="#383E40" stroke-width="1.5" stroke-linecap="round" stroke-linejoin="round"/>
<path d="M8.84627 14.6667C7.11665 13.5881 5.9647 11.6684 5.9647 9.4792C5.9647 8.35441 6.87635 7.44276 8.00047 7.44276C9.12458 7.44276 10.0362 8.35441 10.0362 9.4792C10.0362 10.604 10.9479 11.5156 12.072 11.5156C13.1961 11.5156 14.1078 10.604 14.1078 9.4792C14.1078 6.10482 11.3735 3.36987 8.00115 3.36987C4.6288 3.36987 1.89453 6.10482 1.89453 9.4792C1.89453 10.2313 1.9787 10.9638 2.13347 11.6697" stroke="#383E40" stroke-width="1.5" stroke-linecap="round" stroke-linejoin="round"/>
<path d="M8.84627 14.6667C7.11665 13.5881 5.9647 11.6684 5.9647 9.4792C5.9647 8.35441 6.87635 7.44276 8.00047 7.44276C9.12458 7.44276 10.0362 8.35441 10.0362 9.4792C10.0362 10.604 10.9479 11.5156 12.072 11.5156C13.1961 11.5156 14.1078 10.604 14.1078 9.4792C14.1078 6.10482 11.3735 3.36987 8.00115 3.36987C4.6288 3.36987 1.89453 6.10482 1.89453 9.4792C1.89453 10.2313 1.9787 10.9638 2.13347 11.6697" stroke="#383E40" stroke-width="1.5" stroke-linecap="round" stroke-linejoin="round"/>
<path d="M13.6838 3.90867C12.2957 2.33179 10.266 1.33325 8.00012 1.33325C5.73424 1.33325 3.70458 2.33179 2.31641 3.90867" stroke="#383E40" stroke-width="1.5" stroke-linecap="round" stroke-linejoin="round"/>
<path d="M13.6838 3.90867C12.2957 2.33179 10.266 1.33325 8.00012 1.33325C5.73424 1.33325 3.70458 2.33179 2.31641 3.90867" stroke="#383E40" stroke-width="1.5" stroke-linecap="round" stroke-linejoin="round"/>
</svg>
