<svg width="16" height="16" viewBox="0 0 16 16" fill="none" xmlns="http://www.w3.org/2000/svg">
<path d="M9 4.33317H13.137C13.4228 4.33317 13.5657 4.33317 13.6517 4.39335C13.7268 4.4459 13.777 4.52708 13.7904 4.61778C13.8058 4.72166 13.7419 4.84945 13.6141 5.10502L12.7792 6.77472C12.7379 6.85744 12.7172 6.89881 12.7084 6.94228C12.7006 6.9808 12.6997 7.02039 12.7058 7.05923C12.7125 7.10306 12.7313 7.14532 12.7689 7.22984L13.6667 9.2499C13.7778 9.49983 13.8333 9.6248 13.8151 9.72568C13.7992 9.81384 13.7485 9.89189 13.6744 9.94223C13.5896 9.99984 13.4528 9.99984 13.1793 9.99984H8.06667C7.6933 9.99984 7.50661 9.99984 7.36401 9.92717C7.23856 9.86326 7.13658 9.76127 7.07266 9.63583C7 9.49322 7 9.30654 7 8.93317V7.33317M2 13.9998L2 2.33317M2 7.33317H7.93333C8.3067 7.33317 8.49339 7.33317 8.63599 7.26051C8.76143 7.19659 8.86342 7.09461 8.92734 6.96916C9 6.82656 9 6.63987 9 6.2665V2.73317C9 2.3598 9 2.17312 8.92734 2.03051C8.86342 1.90507 8.76143 1.80308 8.63599 1.73917C8.49339 1.6665 8.3067 1.6665 7.93333 1.6665L3.06667 1.6665C2.6933 1.6665 2.50661 1.6665 2.36401 1.73917C2.23856 1.80308 2.13658 1.90507 2.07266 2.03051C2 2.17312 2 2.3598 2 2.73317V7.33317Z" stroke="#383E40" stroke-width="1.5" stroke-linecap="round" stroke-linejoin="round"/>
</svg>
