<svg width="16" height="16" viewBox="0 0 16 16" fill="none" xmlns="http://www.w3.org/2000/svg">
<path d="M2.66666 8.66667H13.058C13.3663 8.66667 13.5205 8.66667 13.6086 8.60201C13.6853 8.54564 13.7343 8.45911 13.7432 8.36427C13.7533 8.25551 13.674 8.1233 13.5154 7.85894L12.1646 5.60773C12.1048 5.50796 12.0748 5.45808 12.0632 5.40483C12.0528 5.35773 12.0528 5.30894 12.0632 5.26184C12.0748 5.20859 12.1048 5.1587 12.1646 5.05894L13.5154 2.80773C13.674 2.54335 13.7533 2.41116 13.7432 2.3024C13.7343 2.20756 13.6853 2.12103 13.6086 2.06465C13.5205 2 13.3663 2 13.058 2H2.66666L2.66666 14" stroke="#383E40" stroke-width="1.5" stroke-linecap="round" stroke-linejoin="round"/>
</svg>
