<svg width="16" height="16" viewBox="0 0 16 16" fill="none" xmlns="http://www.w3.org/2000/svg">
<path d="M8.66634 4.66667L7.92265 3.17928C7.70861 2.7512 7.60158 2.53715 7.44192 2.38078C7.30073 2.24249 7.13056 2.13732 6.94372 2.07287C6.73245 2 6.49315 2 6.01454 2H3.46634C2.7196 2 2.34624 2 2.06102 2.14532C1.81014 2.27316 1.60616 2.47713 1.47833 2.72801C1.33301 3.01323 1.33301 3.3866 1.33301 4.13333V4.66667M8.66634 4.66667H1.33301M8.66634 4.66667H11.4663C12.5864 4.66667 13.1465 4.66667 13.5743 4.88465C13.9506 5.0764 14.2566 5.38236 14.4484 5.75869C14.6663 6.18651 14.6663 6.74656 14.6663 7.86667V10.8C14.6663 11.9201 14.6663 12.4802 14.4484 12.908C14.2566 13.2843 13.9506 13.5903 13.5743 13.782C13.1465 14 12.5864 14 11.4663 14H4.53301C3.4129 14 2.85285 14 2.42503 13.782C2.0487 13.5903 1.74274 13.2843 1.55099 12.908C1.33301 12.4802 1.33301 11.9201 1.33301 10.8V4.66667M7.27597 11.3809L7.43831 11.746C7.48657 11.8547 7.56533 11.9471 7.66504 12.0119C7.76475 12.0767 7.88112 12.1112 8.00004 12.1111C8.11896 12.1112 8.23533 12.0767 8.33504 12.0119C8.43475 11.9471 8.51351 11.8547 8.56177 11.746L8.72411 11.3809C8.78191 11.2513 8.87912 11.1433 9.00189 11.0723C9.12544 11.001 9.26837 10.9706 9.41023 10.9855L9.80745 11.0278C9.92569 11.0403 10.045 11.0182 10.151 10.9643C10.2569 10.9103 10.3449 10.8268 10.4044 10.7238C10.4639 10.6209 10.4922 10.5029 10.486 10.3842C10.4797 10.2654 10.4391 10.1511 10.3692 10.055L10.134 9.73182C10.0502 9.6159 10.0055 9.47637 10.0062 9.33336C10.0062 9.19075 10.0514 9.05179 10.1352 8.93645L10.3704 8.6133C10.4404 8.51718 10.4809 8.40282 10.4872 8.2841C10.4934 8.16538 10.4651 8.0474 10.4056 7.94447C10.3462 7.84148 10.2582 7.75794 10.1522 7.70398C10.0463 7.65002 9.92692 7.62795 9.80868 7.64046L9.41146 7.68274C9.26961 7.69764 9.12668 7.66728 9.00313 7.59601C8.88011 7.52454 8.78287 7.41596 8.72535 7.28583L8.56177 6.92071C8.51351 6.81202 8.43475 6.71967 8.33504 6.65486C8.23533 6.59005 8.11896 6.55556 8.00004 6.55558C7.88112 6.55556 7.76475 6.59005 7.66504 6.65486C7.56533 6.71967 7.48657 6.81202 7.43831 6.92071L7.27597 7.28583C7.21845 7.41596 7.12121 7.52454 6.99819 7.59601C6.87464 7.66728 6.73171 7.69764 6.58986 7.68274L6.1914 7.64046C6.07316 7.62795 5.95383 7.65002 5.84788 7.70398C5.74192 7.75794 5.6539 7.84148 5.59449 7.94447C5.53499 8.0474 5.50665 8.16538 5.51289 8.2841C5.51914 8.40282 5.5597 8.51718 5.62967 8.6133L5.86486 8.93645C5.94873 9.05179 5.99389 9.19075 5.99387 9.33336C5.99389 9.47598 5.94873 9.61493 5.86486 9.73027L5.62967 10.0534C5.5597 10.1495 5.51914 10.2639 5.51289 10.3826C5.50665 10.5013 5.53499 10.6193 5.59449 10.7222C5.65396 10.8252 5.74199 10.9087 5.84793 10.9626C5.95387 11.0166 6.07317 11.0387 6.1914 11.0263L6.58862 10.984C6.73047 10.9691 6.8734 10.9994 6.99695 11.0707C7.12043 11.142 7.21812 11.2506 7.27597 11.3809ZM8.83288 9.33336C8.83288 9.7936 8.45978 10.1667 7.99954 10.1667C7.53931 10.1667 7.16621 9.7936 7.16621 9.33336C7.16621 8.87312 7.53931 8.50003 7.99954 8.50003C8.45978 8.50003 8.83288 8.87312 8.83288 9.33336Z" stroke="#383E40" stroke-width="1.5" stroke-linecap="round" stroke-linejoin="round"/>
</svg>
