<svg width="16" height="16" viewBox="0 0 16 16" fill="none" xmlns="http://www.w3.org/2000/svg">
<path d="M8.66659 4.66667L7.92289 3.17928C7.70885 2.7512 7.60183 2.53715 7.44217 2.38078C7.30097 2.24249 7.1308 2.13732 6.94397 2.07287C6.73269 2 6.49339 2 6.01478 2H3.46659C2.71985 2 2.34648 2 2.06126 2.14532C1.81038 2.27316 1.60641 2.47713 1.47858 2.72801C1.33325 3.01323 1.33325 3.3866 1.33325 4.13333V4.66667M8.66659 4.66667H1.33325M8.66659 4.66667H11.4666C12.5867 4.66667 13.1467 4.66667 13.5746 4.88465C13.9509 5.0764 14.2569 5.38236 14.4486 5.75869C14.6666 6.18651 14.6666 6.74656 14.6666 7.86667V10.8C14.6666 11.9201 14.6666 12.4802 14.4486 12.908C14.2569 13.2843 13.9509 13.5903 13.5746 13.782C13.1467 14 12.5867 14 11.4666 14H4.53325C3.41315 14 2.85309 14 2.42527 13.782C2.04895 13.5903 1.74299 13.2843 1.55124 12.908C1.33325 12.4802 1.33325 11.9201 1.33325 10.8V4.66667M7.27621 11.3809L7.43856 11.746C7.48682 11.8547 7.56558 11.9471 7.66529 12.0119C7.76499 12.0767 7.88136 12.1112 8.00029 12.1111C8.11921 12.1112 8.23558 12.0767 8.33528 12.0119C8.43499 11.9471 8.51375 11.8547 8.56201 11.746L8.72436 11.3809C8.78215 11.2513 8.87936 11.1433 9.00214 11.0723C9.12569 11.001 9.26862 10.9706 9.41047 10.9855L9.80769 11.0278C9.92593 11.0403 10.0453 11.0182 10.1512 10.9643C10.2572 10.9103 10.3452 10.8268 10.4046 10.7238C10.4641 10.6209 10.4924 10.5029 10.4862 10.3842C10.48 10.2654 10.4394 10.1511 10.3694 10.055L10.1342 9.73182C10.0505 9.6159 10.0057 9.47637 10.0065 9.33336C10.0064 9.19075 10.0516 9.05179 10.1355 8.93645L10.3707 8.6133C10.4406 8.51718 10.4812 8.40282 10.4874 8.2841C10.4937 8.16538 10.4653 8.0474 10.4058 7.94447C10.3464 7.84148 10.2584 7.75794 10.1525 7.70398C10.0465 7.65002 9.92717 7.62795 9.80893 7.64046L9.4117 7.68274C9.26985 7.69764 9.12692 7.66728 9.00337 7.59601C8.88035 7.52454 8.78311 7.41596 8.72559 7.28583L8.56201 6.92071C8.51375 6.81202 8.43499 6.71967 8.33528 6.65486C8.23558 6.59005 8.11921 6.55556 8.00029 6.55558C7.88136 6.55556 7.76499 6.59005 7.66529 6.65486C7.56558 6.71967 7.48682 6.81202 7.43856 6.92071L7.27621 7.28583C7.21869 7.41596 7.12145 7.52454 6.99843 7.59601C6.87488 7.66728 6.73195 7.69764 6.5901 7.68274L6.19164 7.64046C6.0734 7.62795 5.95407 7.65002 5.84812 7.70398C5.74217 7.75794 5.65415 7.84148 5.59473 7.94447C5.53524 8.0474 5.50689 8.16538 5.51314 8.2841C5.51938 8.40282 5.55995 8.51718 5.62991 8.6133L5.8651 8.93645C5.94897 9.05179 5.99414 9.19075 5.99411 9.33336C5.99414 9.47598 5.94897 9.61493 5.8651 9.73027L5.62991 10.0534C5.55995 10.1495 5.51938 10.2639 5.51314 10.3826C5.50689 10.5013 5.53524 10.6193 5.59473 10.7222C5.65421 10.8252 5.74224 10.9087 5.84817 10.9626C5.95411 11.0166 6.07341 11.0387 6.19164 11.0263L6.58887 10.984C6.73072 10.9691 6.87365 10.9994 6.9972 11.0707C7.12068 11.142 7.21837 11.2506 7.27621 11.3809ZM8.83312 9.33336C8.83312 9.7936 8.46003 10.1667 7.99979 10.1667C7.53955 10.1667 7.16646 9.7936 7.16646 9.33336C7.16646 8.87312 7.53955 8.50003 7.99979 8.50003C8.46003 8.50003 8.83312 8.87312 8.83312 9.33336Z" stroke="#383E40" stroke-width="1.5" stroke-linecap="round" stroke-linejoin="round"/>
</svg>
