<svg width="16" height="16" viewBox="0 0 16 16" fill="none" xmlns="http://www.w3.org/2000/svg">
<path d="M4.68145 2H3.46659C2.71985 2 2.34648 2 2.06126 2.14532C1.81038 2.27316 1.60641 2.47713 1.47858 2.72801C1.33325 3.01323 1.33325 3.3866 1.33325 4.13333V10.8C1.33325 11.9201 1.33325 12.4802 1.55124 12.908C1.74299 13.2843 2.04895 13.5903 2.42527 13.782C2.85309 14 3.41315 14 4.53325 14H11.4666C12.5867 14 13.1467 14 13.5746 13.782C13.9509 13.5903 14.2569 13.2843 14.4486 12.908C14.6666 12.4802 14.6666 11.9201 14.6666 10.8V7.86667C14.6666 6.74656 14.6666 5.09449 14.4486 4.66667C14.2569 4.29034 13.9509 3.98438 13.5746 3.79263C13.1467 3.57465 12.5867 3.57465 11.4666 3.57465H6.77035L6.58956 3.17928C6.37552 2.7512 6.2685 2.53715 6.10883 2.38078C5.96764 2.24249 5.79747 2.13732 5.61064 2.07287C5.39936 2 5.16006 2 4.68145 2Z" stroke="#383E40" stroke-width="1.5" stroke-linecap="round" stroke-linejoin="round"/>
<path d="M7.1316 11.1237L7.32641 11.5619C7.38433 11.6923 7.47884 11.8031 7.59849 11.8809C7.71814 11.9586 7.85778 12 8.00049 12C8.14319 12 8.28284 11.9586 8.40249 11.8809C8.52214 11.8031 8.61665 11.6923 8.67456 11.5619L8.86938 11.1237C8.93873 10.9682 9.05538 10.8386 9.20271 10.7533C9.35097 10.6678 9.52249 10.6314 9.69271 10.6493L10.1694 10.7C10.3113 10.715 10.4545 10.6885 10.5816 10.6238C10.7087 10.559 10.8144 10.4588 10.8857 10.3352C10.9571 10.2117 10.9911 10.0701 10.9836 9.92763C10.9761 9.78516 10.9274 9.64793 10.8435 9.53259L10.5612 9.14482C10.4607 9.00571 10.407 8.83827 10.4079 8.66667C10.4079 8.49553 10.4621 8.32878 10.5627 8.19037L10.8449 7.80259C10.9289 7.68725 10.9776 7.55002 10.9851 7.40756C10.9926 7.26509 10.9585 7.12351 10.8872 7C10.8159 6.87641 10.7102 6.77616 10.5831 6.71141C10.4559 6.64666 10.3127 6.62018 10.1709 6.63519L9.69419 6.68593C9.52397 6.7038 9.35245 6.66737 9.20419 6.58185C9.05657 6.49608 8.93988 6.36579 8.87086 6.20963L8.67456 5.77148C8.61665 5.64106 8.52214 5.53024 8.40249 5.45247C8.28284 5.37469 8.14319 5.33331 8.00049 5.33333C7.85778 5.33331 7.71814 5.37469 7.59849 5.45247C7.47884 5.53024 7.38433 5.64106 7.32641 5.77148L7.1316 6.20963C7.06258 6.36579 6.94589 6.49608 6.79827 6.58185C6.65 6.66737 6.47849 6.7038 6.30827 6.68593L5.83012 6.63519C5.68823 6.62018 5.54503 6.64666 5.41789 6.71141C5.29075 6.77616 5.18512 6.87641 5.11382 7C5.04243 7.12351 5.00842 7.26509 5.01591 7.40756C5.02341 7.55002 5.07209 7.68725 5.15604 7.80259L5.43827 8.19037C5.53891 8.32878 5.59311 8.49553 5.59308 8.66667C5.59311 8.8378 5.53891 9.00455 5.43827 9.14296L5.15604 9.53074C5.07209 9.64608 5.02341 9.78331 5.01591 9.92578C5.00842 10.0682 5.04243 10.2098 5.11382 10.3333C5.18519 10.4569 5.29083 10.5571 5.41795 10.6218C5.54508 10.6865 5.68824 10.7131 5.83012 10.6981L6.30678 10.6474C6.47701 10.6295 6.64852 10.666 6.79678 10.7515C6.94496 10.837 7.06219 10.9673 7.1316 11.1237Z" stroke="#383E40" stroke-width="1.5" stroke-linecap="round" stroke-linejoin="round"/>
<path d="M7.99989 9.66667C8.55218 9.66667 8.99989 9.21895 8.99989 8.66667C8.99989 8.11438 8.55218 7.66667 7.99989 7.66667C7.44761 7.66667 6.99989 8.11438 6.99989 8.66667C6.99989 9.21895 7.44761 9.66667 7.99989 9.66667Z" stroke="#383E40" stroke-width="1.5" stroke-linecap="round" stroke-linejoin="round"/>
</svg>
