<svg width="16" height="16" viewBox="0 0 16 16" fill="none" xmlns="http://www.w3.org/2000/svg">
<path d="M8.81374 3.9884L8.05511 2.5075C7.83677 2.0813 7.72759 1.86818 7.56472 1.71249C7.42069 1.5748 7.2471 1.47009 7.05652 1.40593C6.841 1.33337 6.59689 1.33337 6.10866 1.33337H3.50927C2.74753 1.33337 2.36666 1.33337 2.07572 1.47806C1.8198 1.60534 1.61172 1.80842 1.48132 2.05821C1.33308 2.34218 1.33308 2.71392 1.33308 3.45739V3.9884M8.81374 3.9884H1.33308M8.81374 3.9884H11.67C12.8126 3.9884 13.0439 3.9884 13.4803 4.20543C13.8642 4.39634 14.1763 4.70097 14.3719 5.07565C14.5943 5.5016 14.5943 6.05921 14.5943 7.17442M1.33308 3.9884L1.33301 10.4268C1.33301 11.542 1.33301 12.0996 1.55537 12.5256C1.75097 12.9003 2.06308 13.2049 2.44697 13.3958C2.88338 13.6129 3.45469 13.6129 4.5973 13.6129H7.56472M11.0621 13.2003L11.2442 13.6002C11.2984 13.7192 11.3868 13.8203 11.4987 13.8913C11.6105 13.9623 11.7411 14.0001 11.8746 14C12.008 14.0001 12.1386 13.9623 12.2505 13.8913C12.3623 13.8203 12.4507 13.7192 12.5049 13.6002L12.687 13.2003C12.7519 13.0584 12.861 12.9401 12.9987 12.8623C13.1374 12.7842 13.2978 12.751 13.4569 12.7673L13.9027 12.8136C14.0353 12.8273 14.1692 12.8031 14.2881 12.744C14.407 12.6849 14.5058 12.5934 14.5725 12.4806C14.6392 12.3679 14.671 12.2387 14.664 12.1087C14.657 11.9786 14.6115 11.8534 14.533 11.7481L14.2691 11.3942C14.1751 11.2673 14.1249 11.1144 14.1257 10.9578C14.1257 10.8016 14.1763 10.6495 14.2705 10.5231L14.5344 10.1692C14.6129 10.064 14.6584 9.93871 14.6654 9.80869C14.6724 9.67866 14.6406 9.54945 14.5738 9.43672C14.5072 9.32393 14.4084 9.23243 14.2895 9.17334C14.1706 9.11424 14.0367 9.09007 13.904 9.10377L13.4583 9.15008C13.2991 9.16639 13.1388 9.13315 13.0001 9.05509C12.8621 8.97682 12.753 8.8579 12.6884 8.71538L12.5049 8.3155C12.4507 8.19646 12.3623 8.09532 12.2505 8.02434C12.1386 7.95337 12.008 7.9156 11.8746 7.91562C11.7411 7.9156 11.6105 7.95337 11.4987 8.02434C11.3868 8.09532 11.2984 8.19646 11.2442 8.3155L11.0621 8.71538C10.9975 8.8579 10.8884 8.97682 10.7504 9.05509C10.6117 9.13315 10.4514 9.16639 10.2922 9.15008L9.84509 9.10377C9.71241 9.09007 9.57851 9.11424 9.45962 9.17334C9.34073 9.23243 9.24196 9.32393 9.17529 9.43672C9.10853 9.54945 9.07673 9.67866 9.08374 9.80869C9.09075 9.93871 9.13626 10.064 9.21477 10.1692L9.47867 10.5231C9.57279 10.6495 9.62347 10.8016 9.62344 10.9578C9.62347 11.114 9.57279 11.2662 9.47867 11.3925L9.21477 11.7464C9.13626 11.8517 9.09075 11.977 9.08374 12.107C9.07673 12.237 9.10853 12.3662 9.17529 12.4789C9.24203 12.5917 9.34081 12.6831 9.45968 12.7422C9.57855 12.8013 9.71242 12.8255 9.84509 12.8119L10.2908 12.7656C10.45 12.7493 10.6104 12.7825 10.749 12.8606C10.8876 12.9386 10.9972 13.0576 11.0621 13.2003ZM12.8091 10.9578C12.8091 11.4619 12.3904 11.8705 11.874 11.8705C11.3576 11.8705 10.9389 11.4619 10.9389 10.9578C10.9389 10.4538 11.3576 10.0452 11.874 10.0452C12.3904 10.0452 12.8091 10.4538 12.8091 10.9578Z" stroke="#383E40" stroke-width="1.5" stroke-linecap="round" stroke-linejoin="round"/>
</svg>
