<svg width="16" height="16" viewBox="0 0 16 16" fill="none" xmlns="http://www.w3.org/2000/svg">
<path d="M4.6812 2H3.46634C2.7196 2 2.34624 2 2.06102 2.14532C1.81014 2.27316 1.60616 2.47713 1.47833 2.72801C1.33301 3.01323 1.33301 3.3866 1.33301 4.13333V10.8C1.33301 11.9201 1.33301 12.4802 1.55099 12.908C1.74274 13.2843 2.0487 13.5903 2.42503 13.782C2.85285 14 3.4129 14 4.53301 14H11.4663C12.5864 14 13.1465 14 13.5743 13.782C13.9506 13.5903 14.2566 13.2843 14.4484 12.908C14.6663 12.4802 14.6663 11.9201 14.6663 10.8V7.86667C14.6663 6.74656 14.6663 5.09449 14.4484 4.66667C14.2566 4.29034 13.9506 3.98438 13.5743 3.79263C13.1465 3.57465 12.5864 3.57465 11.4663 3.57465H6.7701L6.58931 3.17928C6.37528 2.7512 6.26825 2.53715 6.10859 2.38078C5.96739 2.24249 5.79722 2.13732 5.61039 2.07287C5.39912 2 5.15981 2 4.6812 2Z" stroke="#383E40" stroke-width="1.5" stroke-linecap="round" stroke-linejoin="round"/>
<path d="M7.13136 11.1237L7.32617 11.5619C7.38408 11.6923 7.4786 11.8031 7.59825 11.8809C7.71789 11.9586 7.85754 12 8.00024 12C8.14295 12 8.28259 11.9586 8.40224 11.8809C8.52189 11.8031 8.6164 11.6923 8.67432 11.5619L8.86913 11.1237C8.93848 10.9682 9.05513 10.8386 9.20247 10.7533C9.35073 10.6678 9.52224 10.6314 9.69247 10.6493L10.1691 10.7C10.311 10.715 10.4542 10.6885 10.5814 10.6238C10.7085 10.559 10.8141 10.4588 10.8854 10.3352C10.9568 10.2117 10.9908 10.0701 10.9833 9.92763C10.9758 9.78516 10.9272 9.64793 10.8432 9.53259L10.561 9.14482C10.4605 9.00571 10.4068 8.83827 10.4077 8.66667C10.4076 8.49553 10.4618 8.32878 10.5625 8.19037L10.8447 7.80259C10.9286 7.68725 10.9773 7.55002 10.9848 7.40756C10.9923 7.26509 10.9583 7.12351 10.8869 7C10.8156 6.87641 10.71 6.77616 10.5828 6.71141C10.4557 6.64666 10.3125 6.62018 10.1706 6.63519L9.69395 6.68593C9.52373 6.7038 9.35221 6.66737 9.20395 6.58185C9.05632 6.49608 8.93964 6.36579 8.87061 6.20963L8.67432 5.77148C8.6164 5.64106 8.52189 5.53024 8.40224 5.45247C8.28259 5.37469 8.14295 5.33331 8.00024 5.33333C7.85754 5.33331 7.71789 5.37469 7.59825 5.45247C7.4786 5.53024 7.38408 5.64106 7.32617 5.77148L7.13136 6.20963C7.06233 6.36579 6.94565 6.49608 6.79802 6.58185C6.64976 6.66737 6.47825 6.7038 6.30802 6.68593L5.82987 6.63519C5.68798 6.62018 5.54479 6.64666 5.41765 6.71141C5.2905 6.77616 5.18488 6.87641 5.11358 7C5.04218 7.12351 5.00817 7.26509 5.01567 7.40756C5.02316 7.55002 5.07184 7.68725 5.1558 7.80259L5.43802 8.19037C5.53867 8.32878 5.59287 8.49553 5.59284 8.66667C5.59287 8.8378 5.53867 9.00455 5.43802 9.14296L5.1558 9.53074C5.07184 9.64608 5.02316 9.78331 5.01567 9.92578C5.00817 10.0682 5.04218 10.2098 5.11358 10.3333C5.18495 10.4569 5.29059 10.5571 5.41771 10.6218C5.54483 10.6865 5.68799 10.7131 5.82987 10.6981L6.30654 10.6474C6.47676 10.6295 6.64828 10.666 6.79654 10.7515C6.94472 10.837 7.06194 10.9673 7.13136 11.1237Z" stroke="#383E40" stroke-width="1.5" stroke-linecap="round" stroke-linejoin="round"/>
<path d="M7.99965 9.66667C8.55193 9.66667 8.99965 9.21895 8.99965 8.66667C8.99965 8.11438 8.55193 7.66667 7.99965 7.66667C7.44736 7.66667 6.99965 8.11438 6.99965 8.66667C6.99965 9.21895 7.44736 9.66667 7.99965 9.66667Z" stroke="#383E40" stroke-width="1.5" stroke-linecap="round" stroke-linejoin="round"/>
</svg>
