<svg width="16" height="16" viewBox="0 0 16 16" fill="none" xmlns="http://www.w3.org/2000/svg">
<path d="M3.99993 7.33325H6.66659M5.33326 5.99992V8.66659M9.99993 7.99992H10.0066M11.9999 6.66659H12.0066M6.9659 3.33325H9.03396C10.7839 3.33325 11.6588 3.33325 12.3456 3.66487C12.9503 3.95685 13.4527 4.42464 13.787 5.00698C14.1667 5.66838 14.2291 6.54112 14.3537 8.2866L14.5178 10.5829C14.5982 11.7089 13.7064 12.6666 12.5776 12.6666C12.0004 12.6666 11.4529 12.4102 11.0834 11.9667L10.8333 11.6666C10.6045 11.3921 10.4901 11.2548 10.3599 11.1439C10.0868 10.9114 9.75626 10.7565 9.40284 10.6956C9.23425 10.6666 9.05557 10.6666 8.69822 10.6666H7.30164C6.94428 10.6666 6.76561 10.6666 6.59702 10.6956C6.24359 10.7565 5.91305 10.9114 5.64 11.1439C5.50975 11.2548 5.39537 11.3921 5.16659 11.6666L4.91649 11.9667C4.54693 12.4102 3.99949 12.6666 3.42223 12.6666C2.29342 12.6666 1.40167 11.7089 1.48209 10.5829L1.64612 8.2866C1.77079 6.54112 1.83313 5.66838 2.21284 5.00698C2.54716 4.42464 3.04956 3.95685 3.65423 3.66487C4.34101 3.33325 5.21597 3.33325 6.9659 3.33325Z" stroke="#383E40" stroke-width="1.5" stroke-linecap="round" stroke-linejoin="round"/>
</svg>
