<svg width="16" height="16" viewBox="0 0 16 16" fill="none" xmlns="http://www.w3.org/2000/svg">
<path d="M10.6668 14.6845V12.7712C10.6918 12.4533 10.6489 12.1337 10.5408 11.8337C10.4328 11.5337 10.2621 11.2602 10.0402 11.0312C12.1335 10.7979 14.3335 10.0045 14.3335 6.36454C14.3333 5.43376 13.9753 4.53867 13.3335 3.86454C13.6374 3.05021 13.6159 2.15011 13.2735 1.35121C13.2735 1.35121 12.4868 1.11787 10.6668 2.33787C9.13884 1.92375 7.52816 1.92375 6.00016 2.33787C4.18016 1.11787 3.3935 1.35121 3.3935 1.35121C3.05108 2.15011 3.02959 3.05021 3.3335 3.86454C2.68691 4.54367 2.32851 5.44685 2.3335 6.38454C2.3335 9.99787 4.5335 10.7912 6.62683 11.0512C6.40749 11.2779 6.23834 11.5481 6.13037 11.8445C6.0224 12.1408 5.97803 12.4566 6.00016 12.7712V14.6845M1.3335 11.3512C2.3335 13.3512 4.00016 14 6.00016 13.3512" stroke="#383E40" stroke-width="1.5" stroke-linecap="round" stroke-linejoin="round"/>
</svg>
