<svg width="16" height="16" viewBox="0 0 16 16" fill="none" xmlns="http://www.w3.org/2000/svg">
<path d="M6.66683 7.68997C7.48919 7.21467 8.51106 7.21467 9.33342 7.68997M5.88578 6.11454C6.92718 7.15594 6.92718 8.84438 5.88578 9.88578C4.84439 10.9272 3.15595 10.9272 2.11454 9.88578C1.07315 8.84439 1.07315 7.15595 2.11454 6.11454C3.15594 5.07315 4.84438 5.07315 5.88578 6.11454ZM13.8858 6.11454C14.9272 7.15594 14.9272 8.84438 13.8858 9.88578C12.8444 10.9272 11.1559 10.9272 10.1145 9.88578C9.07315 8.84439 9.07315 7.15595 10.1145 6.11454C11.1559 5.07315 12.8444 5.07315 13.8858 6.11454Z" stroke="#383E40" stroke-width="1.5" stroke-linecap="round" stroke-linejoin="round"/>
</svg>
