<svg width="16" height="16" viewBox="0 0 16 16" fill="none" xmlns="http://www.w3.org/2000/svg">
<path d="M6.66659 9.68997C7.48894 9.21467 8.51081 9.21467 9.33317 9.68997M1.33325 10.0002L1.80091 5.32357C1.81864 5.14626 1.82751 5.05761 1.8411 4.98155C2.0014 4.08484 2.74739 3.40973 3.6556 3.33946C3.73263 3.3335 3.82173 3.3335 3.99992 3.3335M14.6666 10.0002L14.1989 5.32357C14.1812 5.14627 14.1723 5.05761 14.1587 4.98155C13.9984 4.08484 13.2525 3.40973 12.3442 3.33946C12.2672 3.3335 12.1781 3.3335 11.9999 3.3335M5.88554 8.11454C6.92693 9.15594 6.92693 10.8444 5.88554 11.8858C4.84414 12.9272 3.1557 12.9272 2.1143 11.8858C1.0729 10.8444 1.0729 9.15595 2.1143 8.11454C3.15569 7.07315 4.84414 7.07315 5.88554 8.11454ZM13.8855 8.11454C14.9269 9.15594 14.9269 10.8444 13.8855 11.8858C12.8441 12.9272 11.1557 12.9272 10.1143 11.8858C9.0729 10.8444 9.0729 9.15595 10.1143 8.11454C11.1557 7.07315 12.8441 7.07315 13.8855 8.11454Z" stroke="#383E40" stroke-width="1.5" stroke-linecap="round" stroke-linejoin="round"/>
</svg>
