<svg width="16" height="16" viewBox="0 0 16 16" fill="none" xmlns="http://www.w3.org/2000/svg">
<path d="M2.05067 4.98871L4.90936 7.0306C5.05811 7.13685 5.13249 7.18997 5.21033 7.20221C5.27882 7.21298 5.34897 7.20213 5.411 7.17116C5.4815 7.13596 5.53634 7.06284 5.64602 6.9166L6.25009 6.11117C6.2811 6.06982 6.29661 6.04914 6.31484 6.0313C6.33102 6.01547 6.34878 6.00132 6.36783 5.98908C6.38929 5.9753 6.41291 5.9648 6.46015 5.94381L9.03921 4.79756C9.14612 4.75004 9.19957 4.72628 9.23988 4.68918C9.27553 4.65636 9.3036 4.61616 9.32213 4.57139C9.34308 4.52077 9.34697 4.4624 9.35475 4.34567L9.54359 1.5131M9.00001 9.00016L10.744 9.7476C10.9464 9.83431 11.0475 9.87767 11.1011 9.9497C11.1481 10.0129 11.1713 10.0907 11.1664 10.1693C11.1609 10.2589 11.0998 10.3505 10.9777 10.5336L10.1583 11.7627C10.1005 11.8495 10.0715 11.8929 10.0333 11.9244C9.99942 11.9522 9.96041 11.9731 9.91848 11.9858C9.87111 12.0002 9.81894 12.0002 9.71458 12.0002H8.38442C8.24619 12.0002 8.17707 12.0002 8.11826 11.977C8.06633 11.9566 8.02036 11.9235 7.98456 11.8807C7.94402 11.8322 7.92216 11.7666 7.87845 11.6355L7.4032 10.2097C7.37742 10.1324 7.36453 10.0937 7.36114 10.0544C7.35813 10.0196 7.36062 9.98446 7.36853 9.95039C7.37745 9.91196 7.39568 9.87549 7.43214 9.80257L7.79315 9.08055C7.8665 8.93386 7.90317 8.86051 7.95966 8.81497C8.00944 8.77484 8.06971 8.74987 8.13329 8.74305C8.20544 8.73531 8.28324 8.76124 8.43883 8.8131L9.00001 9.00016ZM14.6667 8.00016C14.6667 11.6821 11.6819 14.6668 8.00001 14.6668C4.31811 14.6668 1.33334 11.6821 1.33334 8.00016C1.33334 4.31826 4.31811 1.3335 8.00001 1.3335C11.6819 1.3335 14.6667 4.31826 14.6667 8.00016Z" stroke="#383E40" stroke-width="1.5" stroke-linecap="round" stroke-linejoin="round"/>
</svg>
