<svg width="16" height="16" viewBox="0 0 16 16" fill="none" xmlns="http://www.w3.org/2000/svg">
<path d="M2.05082 4.98871L4.90951 7.0306C5.05826 7.13685 5.13264 7.18997 5.21048 7.20221C5.27897 7.21298 5.34912 7.20213 5.41115 7.17116C5.48165 7.13596 5.53649 7.06284 5.64617 6.9166L6.25024 6.11117C6.28125 6.06982 6.29676 6.04914 6.31499 6.0313C6.33117 6.01547 6.34893 6.00132 6.36798 5.98908C6.38944 5.9753 6.41306 5.9648 6.4603 5.94381L9.03936 4.79756C9.14627 4.75004 9.19973 4.72628 9.24003 4.68918C9.27569 4.65636 9.30376 4.61616 9.32228 4.57139C9.34323 4.52077 9.34712 4.4624 9.35491 4.34567L9.54375 1.5131M9.00016 9.00016L10.7442 9.7476C10.9465 9.83431 11.0477 9.87767 11.1013 9.9497C11.1483 10.0129 11.1714 10.0907 11.1666 10.1693C11.161 10.2589 11.1 10.3505 10.9778 10.5336L10.1585 11.7627C10.1006 11.8495 10.0717 11.8929 10.0334 11.9244C9.99957 11.9522 9.96056 11.9731 9.91863 11.9858C9.87127 12.0002 9.81909 12.0002 9.71473 12.0002H8.38457C8.24634 12.0002 8.17722 12.0002 8.11841 11.977C8.06648 11.9566 8.02051 11.9235 7.98471 11.8807C7.94417 11.8322 7.92232 11.7666 7.8786 11.6355L7.40335 10.2097C7.37757 10.1324 7.36468 10.0937 7.36129 10.0544C7.35828 10.0196 7.36077 9.98446 7.36868 9.95039C7.3776 9.91196 7.39583 9.87549 7.43229 9.80257L7.7933 9.08055C7.86665 8.93386 7.90332 8.86051 7.95981 8.81497C8.00959 8.77484 8.06987 8.74987 8.13344 8.74305C8.20559 8.73531 8.28339 8.76124 8.43898 8.8131L9.00016 9.00016ZM14.6668 8.00016C14.6668 11.6821 11.6821 14.6668 8.00016 14.6668C4.31826 14.6668 1.3335 11.6821 1.3335 8.00016C1.3335 4.31826 4.31826 1.3335 8.00016 1.3335C11.6821 1.3335 14.6668 4.31826 14.6668 8.00016Z" stroke="#383E40" stroke-width="1.5" stroke-linecap="round" stroke-linejoin="round"/>
</svg>
