<svg width="16" height="16" viewBox="0 0 16 16" fill="none" xmlns="http://www.w3.org/2000/svg">
<path d="M12.4212 1.57861C15.4152 4.57263 15.4152 9.4269 12.4212 12.4209C9.55396 15.2881 4.98071 15.4096 1.96898 12.7852C1.83764 12.6707 1.77197 12.6135 1.74232 12.5353C1.71738 12.4694 1.71459 12.3881 1.73496 12.3207C1.75917 12.2406 1.82478 12.175 1.956 12.0438L3.43283 10.567M12 6.99977C12 9.76119 9.76145 11.9998 7.00003 11.9998C4.2386 11.9998 2.00003 9.76119 2.00003 6.99977C2.00003 4.23834 4.2386 1.99977 7.00003 1.99977C9.76145 1.99977 12 4.23834 12 6.99977Z" stroke="#383E40" stroke-width="1.5" stroke-linecap="round" stroke-linejoin="round"/>
</svg>
