<svg width="16" height="16" viewBox="0 0 16 16" fill="none" xmlns="http://www.w3.org/2000/svg">
<path d="M8.00016 1.3335C10.0002 2.66683 10.6153 5.52818 10.6668 8.00016C10.6153 10.4721 10.0002 13.3335 8.00016 14.6668M8.00016 1.3335C6.00016 2.66683 5.38499 5.52819 5.3335 8.00016C5.385 10.4721 6.00017 13.3335 8.00016 14.6668M8.00016 1.3335C4.31826 1.3335 1.3335 4.31826 1.3335 8.00016M8.00016 1.3335C11.6821 1.3335 14.6668 4.31826 14.6668 8.00016M8.00016 14.6668C11.6821 14.6668 14.6668 11.6821 14.6668 8.00016M8.00016 14.6668C4.31827 14.6668 1.3335 11.6821 1.3335 8.00016M14.6668 8.00016C13.3335 10.0002 10.4721 10.6153 8.00016 10.6668C5.52819 10.6153 2.66683 10.0002 1.3335 8.00016M14.6668 8.00016C13.3335 6.00016 10.4721 5.38499 8.00016 5.3335C5.52819 5.38499 2.66683 6.00016 1.3335 8.00016" stroke="#383E40" stroke-width="1.5" stroke-linecap="round" stroke-linejoin="round"/>
</svg>
