<svg width="16" height="16" viewBox="0 0 16 16" fill="none" xmlns="http://www.w3.org/2000/svg">
<path d="M8.00001 1.3335C9.66753 3.15906 10.6152 5.52819 10.6667 8.00016C10.6152 10.4721 9.66753 12.8413 8.00001 14.6668M8.00001 1.3335C6.33249 3.15906 5.38484 5.52819 5.33334 8.00016C5.38484 10.4721 6.33249 12.8413 8.00001 14.6668M8.00001 1.3335C4.31811 1.3335 1.33334 4.31826 1.33334 8.00016C1.33334 11.6821 4.31811 14.6668 8.00001 14.6668M8.00001 1.3335C11.6819 1.3335 14.6667 4.31826 14.6667 8.00016C14.6667 11.6821 11.6819 14.6668 8.00001 14.6668M1.66669 6.00016H14.3334M1.66668 10.0002H14.3333" stroke="#383E40" stroke-width="1.5" stroke-linecap="round" stroke-linejoin="round"/>
</svg>
