<svg width="16" height="16" viewBox="0 0 16 16" fill="none" xmlns="http://www.w3.org/2000/svg">
<path d="M1.33334 8.00016H14.6667M1.33334 8.00016C1.33334 11.6821 4.3181 14.6668 8 14.6668M1.33334 8.00016C1.33334 4.31826 4.3181 1.3335 8 1.3335M14.6667 8.00016C14.6667 11.6821 11.6819 14.6668 8 14.6668M14.6667 8.00016C14.6667 4.31826 11.6819 1.3335 8 1.3335M8 1.3335C9.66752 3.15906 10.6152 5.52819 10.6667 8.00016C10.6152 10.4721 9.66752 12.8413 8 14.6668M8 1.3335C6.33248 3.15906 5.38483 5.52819 5.33334 8.00016C5.38483 10.4721 6.33248 12.8413 8 14.6668" stroke="#383E40" stroke-width="1.5" stroke-linecap="round" stroke-linejoin="round"/>
</svg>
