<svg width="16" height="16" viewBox="0 0 16 16" fill="none" xmlns="http://www.w3.org/2000/svg">
<path d="M10.0002 1.6387C9.3688 1.4404 8.69697 1.3335 8.00016 1.3335C4.31826 1.3335 1.3335 4.31826 1.3335 8.00016C1.3335 11.6821 4.31826 14.6668 8.00016 14.6668C11.6821 14.6668 14.6668 11.6821 14.6668 8.00016C14.6668 6.85661 14.3789 5.78031 13.8716 4.83979M11.3335 3.8335H11.3368M7.0002 14.5923L7.00027 13.1234C7.00027 13.0439 7.02874 12.9669 7.08052 12.9065L8.7377 10.9731C8.87389 10.8142 8.8317 10.5706 8.65 10.4668L6.74585 9.37865C6.69412 9.34909 6.65125 9.3062 6.62172 9.25445L5.38047 7.07925C5.31587 6.96604 5.19121 6.90087 5.06138 6.91244L1.37629 7.24066M14.0002 4.00016C14.0002 5.47292 12.6668 6.66683 11.3335 8.00016C10.0002 6.66683 8.66683 5.47292 8.66683 4.00016C8.66683 2.5274 9.86074 1.3335 11.3335 1.3335C12.8063 1.3335 14.0002 2.5274 14.0002 4.00016ZM11.5002 3.8335C11.5002 3.92554 11.4255 4.00016 11.3335 4.00016C11.2414 4.00016 11.1668 3.92554 11.1668 3.8335C11.1668 3.74145 11.2414 3.66683 11.3335 3.66683C11.4255 3.66683 11.5002 3.74145 11.5002 3.8335Z" stroke="#383E40" stroke-width="1.5" stroke-linecap="round" stroke-linejoin="round"/>
</svg>
