<svg width="16" height="16" viewBox="0 0 16 16" fill="none" xmlns="http://www.w3.org/2000/svg">
<path d="M1.3335 8.00016H14.6668M1.3335 8.00016C1.3335 11.6821 4.31826 14.6668 8.00016 14.6668M1.3335 8.00016C1.3335 4.31826 4.31826 1.3335 8.00016 1.3335M14.6668 8.00016C14.6668 11.6821 11.6821 14.6668 8.00016 14.6668M14.6668 8.00016C14.6668 4.31826 11.6821 1.3335 8.00016 1.3335M8.00016 1.3335C9.66768 3.15906 10.6153 5.52819 10.6668 8.00016C10.6153 10.4721 9.66768 12.8413 8.00016 14.6668M8.00016 1.3335C6.33264 3.15906 5.38499 5.52819 5.3335 8.00016C5.38499 10.4721 6.33264 12.8413 8.00016 14.6668" stroke="#383E40" stroke-width="1.5" stroke-linecap="round" stroke-linejoin="round"/>
</svg>
