<svg width="16" height="16" viewBox="0 0 16 16" fill="none" xmlns="http://www.w3.org/2000/svg">
<path d="M8.00016 5.33337C6.5274 5.33337 5.3335 6.52728 5.3335 8.00004C5.3335 9.4728 6.5274 10.6667 8.00016 10.6667C9.47292 10.6667 10.6668 9.4728 10.6668 8.00004C10.6668 6.52728 9.47292 5.33337 8.00016 5.33337ZM8.00016 5.33337H14.1135M2.6335 4.04004L5.6935 9.33337M7.2535 14.6267L10.3068 9.33337M14.6668 8.00004C14.6668 11.6819 11.6821 14.6667 8.00016 14.6667C4.31826 14.6667 1.3335 11.6819 1.3335 8.00004C1.3335 4.31814 4.31826 1.33337 8.00016 1.33337C11.6821 1.33337 14.6668 4.31814 14.6668 8.00004Z" stroke="#383E40" stroke-width="1.5" stroke-linecap="round" stroke-linejoin="round"/>
</svg>
