<svg width="16" height="16" viewBox="0 0 16 16" fill="none" xmlns="http://www.w3.org/2000/svg">
<path d="M3.33325 6.66655V10.674C3.33325 10.9133 3.33325 11.0329 3.36969 11.1386C3.40191 11.232 3.4545 11.3171 3.52364 11.3877C3.60183 11.4675 3.70885 11.521 3.92289 11.628L7.52289 13.428C7.6978 13.5155 7.78526 13.5592 7.87699 13.5764C7.95823 13.5917 8.0416 13.5917 8.12285 13.5764C8.21458 13.5592 8.30204 13.5155 8.47695 13.428L12.0769 11.628C12.291 11.521 12.398 11.4675 12.4762 11.3877C12.5453 11.3171 12.5979 11.232 12.6301 11.1386C12.6666 11.0329 12.6666 10.9133 12.6666 10.674V6.66655M1.33325 5.66655L7.7614 2.45247C7.84886 2.40874 7.89259 2.38688 7.93845 2.37827C7.97908 2.37065 8.02076 2.37065 8.06139 2.37827C8.10725 2.38688 8.15098 2.40874 8.23843 2.45247L14.6666 5.66655L8.23843 8.88062C8.15098 8.92435 8.10725 8.94621 8.06139 8.95482C8.02076 8.96244 7.97908 8.96244 7.93845 8.95482C7.89259 8.94621 7.84886 8.92435 7.7614 8.88062L1.33325 5.66655Z" stroke="#383E40" stroke-width="1.5" stroke-linecap="round" stroke-linejoin="round"/>
</svg>
