<svg width="16" height="16" viewBox="0 0 16 16" fill="none" xmlns="http://www.w3.org/2000/svg">
<path d="M11.3333 9.66655V7.66283C11.3333 7.54318 11.3333 7.48335 11.315 7.43053C11.2989 7.38383 11.2726 7.34128 11.2381 7.30599C11.199 7.26607 11.1455 7.23931 11.0384 7.1858L7.99992 5.66655M2.66659 6.33321V10.871C2.66659 11.1189 2.66659 11.2429 2.70526 11.3514C2.73946 11.4474 2.79519 11.5342 2.86817 11.6053C2.95073 11.6857 3.06343 11.7373 3.28882 11.8406L7.55549 13.7962C7.71898 13.8711 7.80072 13.9086 7.88588 13.9234C7.96134 13.9365 8.0385 13.9365 8.11396 13.9234C8.19912 13.9086 8.28086 13.8711 8.44435 13.7962L12.711 11.8406C12.9364 11.7373 13.0491 11.6857 13.1317 11.6053C13.2047 11.5342 13.2604 11.4474 13.2946 11.3514C13.3333 11.2429 13.3333 11.1189 13.3333 10.871V6.33321M1.33325 5.66655L7.7614 2.45247C7.84886 2.40874 7.89259 2.38688 7.93845 2.37827C7.97908 2.37065 8.02076 2.37065 8.06139 2.37827C8.10725 2.38688 8.15098 2.40874 8.23843 2.45247L14.6666 5.66655L8.23843 8.88062C8.15098 8.92435 8.10725 8.94622 8.06139 8.95482C8.02076 8.96244 7.97908 8.96244 7.93845 8.95482C7.89259 8.94622 7.84886 8.92435 7.7614 8.88062L1.33325 5.66655Z" stroke="#383E40" stroke-width="1.5" stroke-linecap="round" stroke-linejoin="round"/>
</svg>
