<svg width="16" height="16" viewBox="0 0 16 16" fill="none" xmlns="http://www.w3.org/2000/svg">
<path d="M11.333 9.66655V7.66283C11.333 7.54318 11.333 7.48335 11.3148 7.43053C11.2987 7.38383 11.2724 7.34128 11.2378 7.30599C11.1987 7.26607 11.1452 7.23931 11.0382 7.1858L7.99967 5.66655M2.66634 6.33321V10.871C2.66634 11.1189 2.66634 11.2429 2.70502 11.3514C2.73921 11.4474 2.79494 11.5342 2.86793 11.6053C2.95048 11.6857 3.06319 11.7373 3.28858 11.8406L7.55524 13.7962C7.71873 13.8711 7.80048 13.9086 7.88563 13.9234C7.9611 13.9365 8.03825 13.9365 8.11371 13.9234C8.19887 13.9086 8.28062 13.8711 8.44411 13.7962L12.7108 11.8406C12.9362 11.7373 13.0489 11.6857 13.1314 11.6053C13.2044 11.5342 13.2601 11.4474 13.2943 11.3514C13.333 11.2429 13.333 11.1189 13.333 10.871V6.33321M1.33301 5.66655L7.76116 2.45247C7.84862 2.40874 7.89234 2.38688 7.93821 2.37827C7.97883 2.37065 8.02052 2.37065 8.06114 2.37827C8.10701 2.38688 8.15073 2.40874 8.23819 2.45247L14.6663 5.66655L8.23819 8.88062C8.15073 8.92435 8.10701 8.94622 8.06114 8.95482C8.02052 8.96244 7.97883 8.96244 7.93821 8.95482C7.89234 8.94622 7.84862 8.92435 7.76116 8.88062L1.33301 5.66655Z" stroke="#383E40" stroke-width="1.5" stroke-linecap="round" stroke-linejoin="round"/>
</svg>
