<svg width="22" height="22" viewBox="0 0 22 22" fill="none" xmlns="http://www.w3.org/2000/svg">
<path d="M19.9935 13.5H13.9998C16.9999 21.5 12.3994 21.5 12.3994 21.5C11.0782 21.5 11.0244 20.7258 10.9952 20.305C10.9876 20.1961 10.9817 20.1109 10.9559 20.0689C10.9559 17.1001 8.39189 14.6186 7.15377 13.5934C7.15377 13.5934 6.49993 13.015 6.49993 12.2359V1.98956C6.49993 0.517395 6.82346 0.51487 8.66206 0.500517L8.72787 0.5H17.4999C18.4999 0.5 19.2718 2.57381 19.2718 2.57381C21.4999 9.64184 21.4999 11.7447 21.4999 11.7447C21.4999 13.2051 19.9935 13.5 19.9935 13.5Z" fill="currentColor"/>
<path d="M1.5 13.5H4.55111C4.55111 13.5 5.40197 13.5109 5.40197 12.6511V1.98952C5.40197 0.514978 4.84 0.514978 4.15478 0.514978C3.78524 0.514978 3.47842 0.510614 3.19572 0.506594C2.95423 0.503159 2.73035 0.499973 2.5 0.499973C2 0.499973 1.19171 0.999973 1.19171 1.99997C1.19171 2.58576 0.954353 5.74514 0.757719 8.36245C0.618679 10.2132 0.5 11.7929 0.5 12C0.5 12.5 0.5 13.5 1.5 13.5Z" fill="currentColor"/>
</svg>
