<svg width="16" height="16" viewBox="0 0 16 16" fill="none" xmlns="http://www.w3.org/2000/svg">
<path d="M1.66659 8.00008H14.3333M3.99992 10.6667H6.66659M5.97763 2.66675H10.0222C10.7401 2.66675 11.0991 2.66675 11.416 2.77606C11.6962 2.87272 11.9515 3.03048 12.1633 3.23791C12.4028 3.47248 12.5633 3.79355 12.8844 4.43566L14.3288 7.32442C14.4547 7.57641 14.5177 7.7024 14.5622 7.83445C14.6016 7.95171 14.6301 8.07239 14.6473 8.19492C14.6666 8.3329 14.6666 8.47376 14.6666 8.7555V10.1334C14.6666 11.2535 14.6666 11.8136 14.4486 12.2414C14.2569 12.6177 13.9509 12.9237 13.5746 13.1154C13.1467 13.3334 12.5867 13.3334 11.4666 13.3334H4.53325C3.41315 13.3334 2.85309 13.3334 2.42527 13.1154C2.04895 12.9237 1.74299 12.6177 1.55124 12.2414C1.33325 11.8136 1.33325 11.2535 1.33325 10.1334V8.7555C1.33325 8.47376 1.33325 8.3329 1.35257 8.19492C1.36972 8.07239 1.39821 7.95171 1.43767 7.83445C1.48209 7.7024 1.54509 7.5764 1.67108 7.32442L3.11546 4.43566C3.43652 3.79354 3.59705 3.47248 3.83655 3.23791C4.04834 3.03048 4.30359 2.87272 4.58384 2.77606C4.90075 2.66675 5.25971 2.66675 5.97763 2.66675Z" stroke="#383E40" stroke-width="1.5" stroke-linecap="round" stroke-linejoin="round"/>
</svg>
