<svg width="16" height="16" viewBox="0 0 16 16" fill="none" xmlns="http://www.w3.org/2000/svg">
<path d="M4.92759 1.64579C5.04289 1.53049 5.10054 1.47284 5.16782 1.43161C5.22747 1.39506 5.2925 1.36813 5.36052 1.35179C5.43725 1.33337 5.51878 1.33337 5.68184 1.33337H10.3182C10.4812 1.33337 10.5628 1.33337 10.6395 1.35179C10.7075 1.36813 10.7726 1.39506 10.8322 1.43161C10.8995 1.47284 10.9571 1.53049 11.0724 1.64579L14.3543 4.92762C14.4696 5.04292 14.5272 5.10057 14.5684 5.16785C14.605 5.2275 14.6319 5.29253 14.6483 5.36055C14.6667 5.43728 14.6667 5.51881 14.6667 5.68187V10.3182C14.6667 10.4813 14.6667 10.5628 14.6483 10.6395C14.6319 10.7076 14.605 10.7726 14.5684 10.8322C14.5272 10.8995 14.4696 10.9572 14.3543 11.0725L11.0724 14.3543C10.9571 14.4696 10.8995 14.5272 10.8322 14.5685C10.7726 14.605 10.7075 14.632 10.6395 14.6483C10.5628 14.6667 10.4812 14.6667 10.3182 14.6667H5.68184C5.51878 14.6667 5.43725 14.6667 5.36052 14.6483C5.2925 14.632 5.22747 14.605 5.16782 14.5685C5.10054 14.5272 5.04289 14.4696 4.92759 14.3543L1.64576 11.0725C1.53046 10.9572 1.47281 10.8995 1.43158 10.8322C1.39503 10.7726 1.36809 10.7076 1.35176 10.6395C1.33334 10.5628 1.33334 10.4813 1.33334 10.3182V5.68187C1.33334 5.51881 1.33334 5.43728 1.35176 5.36055C1.36809 5.29253 1.39503 5.2275 1.43158 5.16785C1.47281 5.10057 1.53046 5.04292 1.64576 4.92762L4.92759 1.64579Z" stroke="#383E40" stroke-width="1.5" stroke-linecap="round" stroke-linejoin="round"/>
<path fill-rule="evenodd" clip-rule="evenodd" d="M7.99773 6.04531C7.33128 5.26617 6.21993 5.05659 5.38491 5.77005C4.54989 6.4835 4.43233 7.67637 5.08808 8.52017C5.50808 9.06064 6.58373 10.0629 7.30283 10.7136C7.5418 10.9299 7.66128 11.038 7.8044 11.0814C7.92743 11.1186 8.06803 11.1186 8.19105 11.0814C8.33417 11.038 8.45365 10.9299 8.69262 10.7136C9.41172 10.0629 10.4874 9.06064 10.9074 8.52017C11.5631 7.67637 11.4599 6.476 10.6105 5.77005C9.76118 5.06409 8.66418 5.26617 7.99773 6.04531Z" stroke="#383E40" stroke-width="1.5" stroke-linecap="round" stroke-linejoin="round"/>
</svg>
