<svg width="16" height="16" viewBox="0 0 16 16" fill="none" xmlns="http://www.w3.org/2000/svg">
<path d="M10.3637 6.61699C10.613 6.17406 10.8209 5.77438 10.9491 5.47018C11.5716 3.99302 10.956 2.29389 9.4513 1.60079C7.94659 0.907693 6.43561 1.62637 5.77248 3.01399C4.50439 2.14384 2.8128 2.27163 1.87993 3.62953C0.947072 4.98743 1.23985 6.7614 2.51754 7.7294C3.09741 8.16873 4.24425 8.81617 5.32398 9.39234M10.8648 7.83334C10.5834 6.32137 9.29691 5.2156 7.6771 5.51614C6.05729 5.81669 5.00993 7.27809 5.22891 8.86604C5.40484 10.1418 6.37596 13.1352 6.75095 14.2627C6.80212 14.4166 6.8277 14.4935 6.87836 14.5471C6.92249 14.5939 6.98117 14.6277 7.0437 14.6426C7.11549 14.6596 7.19491 14.6433 7.35374 14.6107C8.51769 14.3717 11.5956 13.7161 12.7884 13.2305C14.2731 12.6262 15.0393 10.9895 14.4654 9.43537C13.8915 7.88128 12.3149 7.32105 10.8648 7.83334Z" stroke="#383E40" stroke-width="1.5" stroke-linecap="round" stroke-linejoin="round"/>
</svg>
