<svg width="16" height="16" viewBox="0 0 16 16" fill="none" xmlns="http://www.w3.org/2000/svg">
<path d="M4.92774 1.64579C5.04304 1.53049 5.1007 1.47284 5.16797 1.43161C5.22762 1.39506 5.29265 1.36813 5.36067 1.35179C5.4374 1.33337 5.51893 1.33337 5.68199 1.33337H10.3183C10.4814 1.33337 10.5629 1.33337 10.6397 1.35179C10.7077 1.36813 10.7727 1.39506 10.8324 1.43161C10.8996 1.47284 10.9573 1.53049 11.0726 1.64579L14.3544 4.92762C14.4697 5.04292 14.5274 5.10057 14.5686 5.16785C14.6051 5.2275 14.6321 5.29253 14.6484 5.36055C14.6668 5.43728 14.6668 5.51881 14.6668 5.68187V10.3182C14.6668 10.4813 14.6668 10.5628 14.6484 10.6395C14.6321 10.7076 14.6051 10.7726 14.5686 10.8322C14.5274 10.8995 14.4697 10.9572 14.3544 11.0725L11.0726 14.3543C10.9573 14.4696 10.8996 14.5272 10.8324 14.5685C10.7727 14.605 10.7077 14.632 10.6397 14.6483C10.5629 14.6667 10.4814 14.6667 10.3183 14.6667H5.68199C5.51893 14.6667 5.4374 14.6667 5.36067 14.6483C5.29265 14.632 5.22762 14.605 5.16797 14.5685C5.1007 14.5272 5.04304 14.4696 4.92774 14.3543L1.64592 11.0725C1.53061 10.9572 1.47296 10.8995 1.43174 10.8322C1.39518 10.7726 1.36825 10.7076 1.35192 10.6395C1.3335 10.5628 1.3335 10.4813 1.3335 10.3182V5.68187C1.3335 5.51881 1.3335 5.43728 1.35192 5.36055C1.36825 5.29253 1.39518 5.2275 1.43174 5.16785C1.47296 5.10057 1.53061 5.04292 1.64592 4.92762L4.92774 1.64579Z" stroke="#383E40" stroke-width="1.5" stroke-linecap="round" stroke-linejoin="round"/>
<path fill-rule="evenodd" clip-rule="evenodd" d="M7.99788 6.04531C7.33143 5.26617 6.22008 5.05659 5.38506 5.77005C4.55004 6.4835 4.43249 7.67637 5.08823 8.52017C5.50824 9.06064 6.58389 10.0629 7.30299 10.7136C7.54195 10.9299 7.66144 11.038 7.80455 11.0814C7.92758 11.1186 8.06818 11.1186 8.19121 11.0814C8.33432 11.038 8.45381 10.9299 8.69277 10.7136C9.41187 10.0629 10.4875 9.06064 10.9075 8.52017C11.5633 7.67637 11.4601 6.476 10.6107 5.77005C9.76133 5.06409 8.66433 5.26617 7.99788 6.04531Z" stroke="#383E40" stroke-width="1.5" stroke-linecap="round" stroke-linejoin="round"/>
</svg>
