<svg width="16" height="16" viewBox="0 0 16 16" fill="none" xmlns="http://www.w3.org/2000/svg">
<path d="M4.00001 13.3914H5.7402C5.9671 13.3914 6.1926 13.4184 6.41255 13.4724L8.25127 13.9192C8.65024 14.0164 9.06586 14.0259 9.46899 13.9476L11.502 13.552C12.039 13.4474 12.5331 13.1903 12.9202 12.8136L14.3586 11.4144C14.7694 11.0155 14.7694 10.3683 14.3586 9.96868C13.9888 9.60893 13.4032 9.56843 12.9848 9.87351L11.3084 11.0965C11.0683 11.272 10.7762 11.3665 10.4758 11.3665H8.85701L9.88739 11.3665C10.4681 11.3665 10.9386 10.9089 10.9386 10.3439V10.1394C10.9386 9.6703 10.6104 9.26128 10.1427 9.14788L8.55241 8.76113C8.2936 8.69836 8.02854 8.66664 7.7621 8.66664C7.1189 8.66664 5.95461 9.19918 5.95461 9.19918L4.00001 10.0166M1.33334 9.7333L1.33334 13.6C1.33334 13.9733 1.33334 14.16 1.40601 14.3026C1.46992 14.4281 1.57191 14.5301 1.69735 14.594C1.83996 14.6666 2.02664 14.6666 2.40001 14.6666H2.93334C3.30671 14.6666 3.4934 14.6666 3.636 14.594C3.76145 14.5301 3.86343 14.4281 3.92735 14.3026C4.00001 14.16 4.00001 13.9733 4.00001 13.6V9.7333C4.00001 9.35994 4.00001 9.17325 3.92735 9.03064C3.86343 8.9052 3.76145 8.80322 3.636 8.7393C3.4934 8.66664 3.30671 8.66664 2.93334 8.66664H2.40001C2.02664 8.66664 1.83996 8.66664 1.69735 8.7393C1.57191 8.80322 1.46992 8.9052 1.40601 9.03064C1.33334 9.17325 1.33334 9.35994 1.33334 9.7333ZM11.4609 2.39481C11.063 1.56224 10.1457 1.12116 9.25363 1.54689C8.36153 1.97261 7.98147 2.98222 8.35498 3.86852C8.58582 4.41628 9.24717 5.47997 9.71874 6.21266C9.89297 6.48338 9.98009 6.61874 10.1073 6.69792C10.2165 6.76584 10.3531 6.80245 10.4816 6.79821C10.6314 6.79325 10.7745 6.71959 11.0608 6.57226C11.8355 6.17351 12.9401 5.58301 13.4139 5.22405C14.1805 4.64325 14.3704 3.57569 13.7965 2.76413C13.2225 1.95257 12.2218 1.87272 11.4609 2.39481Z" stroke="#383E40" stroke-width="1.5" stroke-linecap="round" stroke-linejoin="round"/>
</svg>
