<svg width="16" height="16" viewBox="0 0 16 16" fill="none" xmlns="http://www.w3.org/2000/svg">
<path d="M6.06001 6.00004C6.21675 5.55449 6.52611 5.17878 6.93331 4.93946C7.34052 4.70015 7.81927 4.61267 8.28479 4.69252C8.75032 4.77236 9.17255 5.01439 9.47673 5.37573C9.7809 5.73706 9.94738 6.19439 9.94668 6.66671C9.94668 8.00004 7.94668 8.66671 7.94668 8.66671M8.00001 11.3334H8.00668M14.6667 8.00004C14.6667 11.6819 11.6819 14.6667 8.00001 14.6667C4.31811 14.6667 1.33334 11.6819 1.33334 8.00004C1.33334 4.31814 4.31811 1.33337 8.00001 1.33337C11.6819 1.33337 14.6667 4.31814 14.6667 8.00004Z" stroke="#383E40" stroke-width="1.5" stroke-linecap="round" stroke-linejoin="round"/>
</svg>
