<svg width="16" height="16" viewBox="0 0 16 16" fill="none" xmlns="http://www.w3.org/2000/svg">
<path d="M6.00001 14V9.06667C6.00001 8.6933 6.00001 8.50661 6.07268 8.36401C6.13659 8.23857 6.23858 8.13658 6.36402 8.07266C6.50663 8 6.69331 8 7.06668 8H8.93335C9.30671 8 9.4934 8 9.63601 8.07266C9.76145 8.13658 9.86344 8.23857 9.92735 8.36401C10 8.50661 10 8.6933 10 9.06667V14M1.33334 6.33333L7.36001 1.81333C7.58952 1.6412 7.70427 1.55514 7.8303 1.52196C7.94155 1.49268 8.05848 1.49268 8.16972 1.52196C8.29575 1.55514 8.41051 1.6412 8.64001 1.81333L14.6667 6.33333M2.66668 5.33333V11.8667C2.66668 12.6134 2.66668 12.9868 2.812 13.272C2.93984 13.5229 3.14381 13.7268 3.39469 13.8547C3.67991 14 4.05328 14 4.80001 14H11.2C11.9467 14 12.3201 14 12.6053 13.8547C12.8562 13.7268 13.0602 13.5229 13.188 13.272C13.3333 12.9868 13.3333 12.6134 13.3333 11.8667V5.33333L9.28001 2.29333C8.821 1.94907 8.5915 1.77695 8.33944 1.71059C8.11694 1.65202 7.88308 1.65202 7.66059 1.71059C7.40853 1.77695 7.17902 1.94907 6.72001 2.29333L2.66668 5.33333Z" stroke="#383E40" stroke-width="1.5" stroke-linecap="round" stroke-linejoin="round"/>
</svg>
