<svg width="16" height="16" viewBox="0 0 16 16" fill="none" xmlns="http://www.w3.org/2000/svg">
<path d="M8.66667 6.33334V4.06668C8.66667 3.69331 8.66667 3.50662 8.594 3.36402C8.53009 3.23858 8.4281 3.13659 8.30266 3.07267C8.16005 3.00001 7.97337 3.00001 7.6 3.00001H2M11.3333 9.66668V7.40001C11.3333 7.02664 11.3333 6.83996 11.2607 6.69735C11.1968 6.57191 11.0948 6.46992 10.9693 6.40601C10.8267 6.33334 10.64 6.33334 10.2667 6.33334H2M2 1.33334L2 14.6667M2 13H12.9333C13.3067 13 13.4934 13 13.636 12.9273C13.7614 12.8634 13.8634 12.7614 13.9273 12.636C14 12.4934 14 12.3067 14 11.9333V10.7333C14 10.36 14 10.1733 13.9273 10.0307C13.8634 9.90524 13.7614 9.80326 13.636 9.73934C13.4934 9.66668 13.3067 9.66668 12.9333 9.66668L2 9.66668L2 13Z" stroke="#383E40" stroke-width="1.5" stroke-linecap="round" stroke-linejoin="round"/>
</svg>
