<svg width="16" height="16" viewBox="0 0 16 16" fill="none" xmlns="http://www.w3.org/2000/svg">
<path d="M11.3333 6.33334V8.60001C11.3333 8.97338 11.3333 9.16006 11.2607 9.30267C11.1968 9.42811 11.0948 9.5301 10.9693 9.59401C10.8267 9.66668 10.64 9.66668 10.2667 9.66668L2 9.66668M8.66667 9.66668V11.9333C8.66667 12.3067 8.66667 12.4934 8.594 12.636C8.53009 12.7614 8.4281 12.8634 8.30266 12.9273C8.16005 13 7.97337 13 7.6 13H2M2 1.33334L2 14.6667M2 6.33334L12.9333 6.33334C13.3067 6.33334 13.4934 6.33334 13.636 6.26068C13.7614 6.19677 13.8634 6.09478 13.9273 5.96934C14 5.82673 14 5.64005 14 5.26668V4.06668C14 3.69331 14 3.50662 13.9273 3.36402C13.8634 3.23858 13.7614 3.13659 13.636 3.07267C13.4934 3.00001 13.3067 3.00001 12.9333 3.00001L2 3.00001L2 6.33334Z" stroke="#383E40" stroke-width="1.5" stroke-linecap="round" stroke-linejoin="round"/>
</svg>
