<svg width="16" height="16" viewBox="0 0 16 16" fill="none" xmlns="http://www.w3.org/2000/svg">
<path d="M8.66667 6.33331V4.06665C8.66667 3.69328 8.66667 3.50659 8.594 3.36399C8.53009 3.23854 8.4281 3.13656 8.30266 3.07264C8.16005 2.99998 7.97337 2.99998 7.6 2.99998H2M11.3333 9.66665V7.39998C11.3333 7.02661 11.3333 6.83993 11.2607 6.69732C11.1968 6.57188 11.0948 6.46989 10.9693 6.40598C10.8267 6.33331 10.64 6.33331 10.2667 6.33331H2M2 1.33331L2 14.6666M2 13H12.9333C13.3067 13 13.4934 13 13.636 12.9273C13.7614 12.8634 13.8634 12.7614 13.9273 12.636C14 12.4934 14 12.3067 14 11.9333V10.7333C14 10.3599 14 10.1733 13.9273 10.0307C13.8634 9.90521 13.7614 9.80323 13.636 9.73931C13.4934 9.66665 13.3067 9.66665 12.9333 9.66665L2 9.66665L2 13Z" stroke="#383E40" stroke-width="1.5" stroke-linecap="round" stroke-linejoin="round"/>
</svg>
