<svg width="16" height="16" viewBox="0 0 16 16" fill="none" xmlns="http://www.w3.org/2000/svg">
<path d="M12.1083 1.3335H3.89155C3.58321 1.3335 3.33325 1.58345 3.33325 1.89179C3.33325 3.66862 4.03909 5.37267 5.2955 6.62908L6.10829 7.44187C6.189 7.52258 6.22936 7.56294 6.25826 7.60169C6.43451 7.83811 6.43451 8.16222 6.25826 8.39863C6.22936 8.43739 6.18901 8.47774 6.10829 8.55846L5.2955 9.37125C4.03909 10.6277 3.33325 12.3317 3.33325 14.1085C3.33325 14.4169 3.58321 14.6668 3.89155 14.6668H12.1083C12.4166 14.6668 12.6666 14.4169 12.6666 14.1085C12.6666 12.3317 11.9607 10.6277 10.7043 9.37125L9.89155 8.55846C9.81083 8.47774 9.77047 8.43739 9.74158 8.39863C9.56533 8.16222 9.56533 7.83811 9.74158 7.60169C9.77047 7.56294 9.81083 7.52258 9.89155 7.44187L10.7043 6.62908C11.9607 5.37267 12.6666 3.66862 12.6666 1.89179C12.6666 1.58345 12.4166 1.3335 12.1083 1.3335Z" stroke="#383E40" stroke-width="1.5" stroke-linecap="round" stroke-linejoin="round"/>
</svg>
