<svg width="16" height="16" viewBox="0 0 16 16" fill="none" xmlns="http://www.w3.org/2000/svg">
<path d="M8.00008 8.00016L5.15149 5.62634C4.72826 5.27364 4.51664 5.0973 4.36451 4.88112C4.22971 4.68958 4.12961 4.47586 4.06876 4.24968C4.00008 3.99442 4.00008 3.71896 4.00008 3.16803V1.3335M8.00008 8.00016L10.8487 5.62634C11.2719 5.27364 11.4835 5.0973 11.6357 4.88112C11.7705 4.68958 11.8706 4.47586 11.9314 4.24968C12.0001 3.99442 12.0001 3.71896 12.0001 3.16803V1.3335M8.00008 8.00016L5.15149 10.374C4.72826 10.7267 4.51664 10.903 4.36451 11.1192C4.22971 11.3107 4.12961 11.5245 4.06876 11.7506C4.00008 12.0059 4.00008 12.2814 4.00008 12.8323V14.6668M8.00008 8.00016L10.8487 10.374C11.2719 10.7267 11.4835 10.903 11.6357 11.1192C11.7705 11.3107 11.8706 11.5245 11.9314 11.7506C12.0001 12.0059 12.0001 12.2814 12.0001 12.8323V14.6668M2.66675 1.3335H13.3334M2.66675 14.6668H13.3334" stroke="#383E40" stroke-width="1.5" stroke-linecap="round" stroke-linejoin="round"/>
</svg>
