<svg width="16" height="16" viewBox="0 0 16 16" fill="none" xmlns="http://www.w3.org/2000/svg">
<path d="M12 7.99984C12 10.209 10.2092 11.9998 8.00004 11.9998C5.7909 11.9998 4.00004 10.209 4.00004 7.99984M12 7.99984C12 5.7907 10.2092 3.99984 8.00004 3.99984C5.7909 3.99984 4.00004 5.7907 4.00004 7.99984M12 7.99984C12 10.9454 9.61223 13.3332 6.66671 13.3332C3.72119 13.3332 1.33337 10.9454 1.33337 7.99984M4.00004 7.99984C4.00004 5.05432 6.38786 2.6665 9.33337 2.6665C12.2789 2.6665 14.6667 5.05432 14.6667 7.99984M8.66671 7.99984C8.66671 8.36803 8.36823 8.6665 8.00004 8.6665C7.63185 8.6665 7.33337 8.36803 7.33337 7.99984C7.33337 7.63165 7.63185 7.33317 8.00004 7.33317C8.36823 7.33317 8.66671 7.63165 8.66671 7.99984Z" stroke="#383E40" stroke-width="1.5" stroke-linecap="round" stroke-linejoin="round"/>
</svg>
