<svg width="16" height="16" viewBox="0 0 16 16" fill="none" xmlns="http://www.w3.org/2000/svg">
<path d="M12.0002 7.99984C12.0002 10.209 10.2093 11.9998 8.00016 11.9998C5.79102 11.9998 4.00016 10.209 4.00016 7.99984M12.0002 7.99984C12.0002 5.7907 10.2093 3.99984 8.00016 3.99984C5.79102 3.99984 4.00016 5.7907 4.00016 7.99984M12.0002 7.99984C12.0002 10.9454 9.61235 13.3332 6.66683 13.3332C3.72131 13.3332 1.3335 10.9454 1.3335 7.99984M4.00016 7.99984C4.00016 5.05432 6.38798 2.6665 9.3335 2.6665C12.279 2.6665 14.6668 5.05432 14.6668 7.99984M8.66683 7.99984C8.66683 8.36803 8.36835 8.6665 8.00016 8.6665C7.63197 8.6665 7.3335 8.36803 7.3335 7.99984C7.3335 7.63165 7.63197 7.33317 8.00016 7.33317C8.36835 7.33317 8.66683 7.63165 8.66683 7.99984Z" stroke="#383E40" stroke-width="1.5" stroke-linecap="round" stroke-linejoin="round"/>
</svg>
