<svg width="16" height="16" viewBox="0 0 16 16" fill="none" xmlns="http://www.w3.org/2000/svg">
<path d="M2.66672 14.5451C3.06844 14.6668 3.61103 14.6668 4.53337 14.6668H11.4667C12.389 14.6668 12.9316 14.6668 13.3334 14.5451M2.66672 14.5451C2.58059 14.519 2.50093 14.4873 2.42539 14.4488C2.04907 14.2571 1.74311 13.9511 1.55136 13.5748C1.33337 13.147 1.33337 12.5869 1.33337 11.4668V4.5335C1.33337 3.41339 1.33337 2.85334 1.55136 2.42552C1.74311 2.04919 2.04907 1.74323 2.42539 1.55148C2.85322 1.3335 3.41327 1.3335 4.53337 1.3335H11.4667C12.5868 1.3335 13.1469 1.3335 13.5747 1.55148C13.951 1.74323 14.257 2.04919 14.4487 2.42552C14.6667 2.85334 14.6667 3.41339 14.6667 4.5335V11.4668C14.6667 12.5869 14.6667 13.147 14.4487 13.5748C14.257 13.9511 13.951 14.2571 13.5747 14.4488C13.4992 14.4873 13.4195 14.519 13.3334 14.5451M2.66672 14.5451C2.66694 14.0056 2.67018 13.7201 2.71795 13.4799C2.92836 12.4221 3.75529 11.5952 4.81313 11.3847C5.07073 11.3335 5.3805 11.3335 6.00004 11.3335H10C10.6196 11.3335 10.9294 11.3335 11.1869 11.3847C12.2448 11.5952 13.0717 12.4221 13.2821 13.4799C13.3299 13.7201 13.3331 14.0056 13.3334 14.5451M10.6667 6.3335C10.6667 7.80626 9.4728 9.00016 8.00004 9.00016C6.52728 9.00016 5.33337 7.80626 5.33337 6.3335C5.33337 4.86074 6.52728 3.66683 8.00004 3.66683C9.4728 3.66683 10.6667 4.86074 10.6667 6.3335Z" stroke="#383E40" stroke-width="1.5" stroke-linecap="round" stroke-linejoin="round"/>
</svg>
