<svg width="16" height="16" viewBox="0 0 16 16" fill="none" xmlns="http://www.w3.org/2000/svg">
<path d="M10.6668 3.3335L12.6668 5.3335M12.6668 5.3335L14.6668 3.3335M12.6668 5.3335V1.3335M14.6668 8.00016V11.4668C14.6668 12.5869 14.6668 13.147 14.4488 13.5748C14.2571 13.9511 13.9511 14.2571 13.5748 14.4488C13.147 14.6668 12.5869 14.6668 11.4668 14.6668H4.5335C3.41339 14.6668 2.85334 14.6668 2.42552 14.4488C2.04919 14.2571 1.74323 13.9511 1.55148 13.5748C1.3335 13.147 1.3335 12.5869 1.3335 11.4668V4.5335C1.3335 3.41339 1.3335 2.85334 1.55148 2.42552C1.74323 2.04919 2.04919 1.74323 2.42552 1.55148C2.85334 1.3335 3.41339 1.3335 4.5335 1.3335H8.00016M1.43066 13.2844C1.74342 12.1592 2.77536 11.3335 4.00016 11.3335H8.66683C9.28637 11.3335 9.59614 11.3335 9.85374 11.3847C10.9116 11.5952 11.7385 12.4221 11.9489 13.4799C12.0002 13.7375 12.0002 14.0473 12.0002 14.6668M9.3335 6.3335C9.3335 7.80626 8.13959 9.00016 6.66683 9.00016C5.19407 9.00016 4.00016 7.80626 4.00016 6.3335C4.00016 4.86074 5.19407 3.66683 6.66683 3.66683C8.13959 3.66683 9.3335 4.86074 9.3335 6.3335Z" stroke="#383E40" stroke-width="1.5" stroke-linecap="round" stroke-linejoin="round"/>
</svg>
