<svg width="16" height="16" viewBox="0 0 16 16" fill="none" xmlns="http://www.w3.org/2000/svg">
<path d="M2.84822 13.8186L7.24592 9.42091C7.50993 9.1569 7.64193 9.0249 7.79415 8.97544C7.92805 8.93193 8.07228 8.93193 8.20617 8.97544C8.35839 9.0249 8.4904 9.15691 8.75441 9.42091L13.1228 13.7893M9.3335 10L11.2459 8.08758C11.5099 7.82357 11.6419 7.69156 11.7942 7.6421C11.928 7.5986 12.0723 7.5986 12.2062 7.6421C12.3584 7.69156 12.4904 7.82357 12.7544 8.08758L14.6668 10M6.66683 6C6.66683 6.73638 6.06988 7.33333 5.3335 7.33333C4.59712 7.33333 4.00016 6.73638 4.00016 6C4.00016 5.26362 4.59712 4.66667 5.3335 4.66667C6.06988 4.66667 6.66683 5.26362 6.66683 6ZM4.5335 14H11.4668C12.5869 14 13.147 14 13.5748 13.782C13.9511 13.5903 14.2571 13.2843 14.4488 12.908C14.6668 12.4802 14.6668 11.9201 14.6668 10.8V5.2C14.6668 4.0799 14.6668 3.51984 14.4488 3.09202C14.2571 2.71569 13.9511 2.40973 13.5748 2.21799C13.147 2 12.5869 2 11.4668 2H4.5335C3.41339 2 2.85334 2 2.42552 2.21799C2.04919 2.40973 1.74323 2.71569 1.55148 3.09202C1.3335 3.51984 1.3335 4.0799 1.3335 5.2V10.8C1.3335 11.9201 1.3335 12.4802 1.55148 12.908C1.74323 13.2843 2.04919 13.5903 2.42552 13.782C2.85334 14 3.41339 14 4.5335 14Z" stroke="#383E40" stroke-width="1.5" stroke-linecap="round" stroke-linejoin="round"/>
</svg>
