<svg width="16" height="16" viewBox="0 0 16 16" fill="none" xmlns="http://www.w3.org/2000/svg">
<path d="M10.6667 3.3335L12 4.66683L14.6667 2.00016M14.6667 8.00016V11.4668C14.6667 12.5869 14.6667 13.147 14.4487 13.5748C14.257 13.9511 13.951 14.2571 13.5747 14.4488C13.1469 14.6668 12.5868 14.6668 11.4667 14.6668H4.53337C3.41327 14.6668 2.85322 14.6668 2.42539 14.4488C2.04907 14.2571 1.74311 13.9511 1.55136 13.5748C1.33337 13.147 1.33337 12.5869 1.33337 11.4668V4.5335C1.33337 3.41339 1.33337 2.85334 1.55136 2.42552C1.74311 2.04919 2.04907 1.74323 2.42539 1.55148C2.85322 1.3335 3.41327 1.3335 4.53337 1.3335H8.00004M1.43038 13.2844C1.74314 12.1592 2.77508 11.3335 3.99989 11.3335H8.66655C9.28609 11.3335 9.59586 11.3335 9.85346 11.3847C10.9113 11.5952 11.7382 12.4221 11.9486 13.4799C11.9999 13.7375 11.9999 14.0473 11.9999 14.6668M9.33337 6.3335C9.33337 7.80626 8.13947 9.00016 6.66671 9.00016C5.19395 9.00016 4.00004 7.80626 4.00004 6.3335C4.00004 4.86074 5.19395 3.66683 6.66671 3.66683C8.13947 3.66683 9.33337 4.86074 9.33337 6.3335Z" stroke="#383E40" stroke-width="1.5" stroke-linecap="round" stroke-linejoin="round"/>
</svg>
