<svg width="16" height="16" viewBox="0 0 16 16" fill="none" xmlns="http://www.w3.org/2000/svg">
<path d="M1.33325 7.99996H3.92123C4.37803 7.99996 4.79563 8.25805 4.99992 8.66663C5.20421 9.0752 5.6218 9.33329 6.07861 9.33329H9.92123C10.378 9.33329 10.7956 9.0752 10.9999 8.66663C11.2042 8.25805 11.6218 7.99996 12.0786 7.99996H14.6666M1.33325 7.99996V5.86663C1.33325 4.74652 1.33325 4.18647 1.55124 3.75864C1.74299 3.38232 2.04895 3.07636 2.42527 2.88461C2.85309 2.66663 3.41315 2.66663 4.53325 2.66663H11.4666C12.5867 2.66663 13.1467 2.66663 13.5746 2.88461C13.9509 3.07636 14.2569 3.38232 14.4486 3.75864C14.6666 4.18647 14.6666 4.74652 14.6666 5.86663V7.99996M1.33325 7.99996V10.1333C1.33325 11.2534 1.33325 11.8134 1.55124 12.2413C1.74299 12.6176 2.04895 12.9236 2.42527 13.1153C2.85309 13.3333 3.41315 13.3333 4.53325 13.3333H11.4666C12.5867 13.3333 13.1467 13.3333 13.5746 13.1153C13.9509 12.9236 14.2569 12.6176 14.4486 12.2413C14.6666 11.8134 14.6666 11.2534 14.6666 10.1333V7.99996" stroke="#383E40" stroke-width="1.5" stroke-linecap="round" stroke-linejoin="round"/>
</svg>
