<svg width="16" height="16" viewBox="0 0 16 16" fill="none" xmlns="http://www.w3.org/2000/svg">
<path d="M1.66683 7.99996H3.92147C4.37828 7.99996 4.79587 8.25805 5.00016 8.66663C5.20445 9.0752 5.62205 9.33329 6.07885 9.33329H9.92147C10.3783 9.33329 10.7959 9.0752 11.0002 8.66663C11.2045 8.25805 11.622 7.99996 12.0789 7.99996H14.3335M5.97787 2.66663H10.0225C10.7404 2.66663 11.0993 2.66663 11.4162 2.77594C11.6965 2.8726 11.9517 3.03036 12.1635 3.23779C12.403 3.47236 12.5636 3.79343 12.8846 4.43554L14.329 7.32429C14.455 7.57628 14.518 7.70228 14.5624 7.83432C14.6019 7.95159 14.6304 8.07227 14.6475 8.1948C14.6668 8.33278 14.6668 8.47364 14.6668 8.75538V10.1333C14.6668 11.2534 14.6668 11.8134 14.4488 12.2413C14.2571 12.6176 13.9511 12.9236 13.5748 13.1153C13.147 13.3333 12.5869 13.3333 11.4668 13.3333H4.5335C3.41339 13.3333 2.85334 13.3333 2.42552 13.1153C2.04919 12.9236 1.74323 12.6176 1.55148 12.2413C1.3335 11.8134 1.3335 11.2534 1.3335 10.1333V8.75538C1.3335 8.47364 1.3335 8.33278 1.35281 8.1948C1.36997 8.07227 1.39845 7.95159 1.43791 7.83432C1.48234 7.70228 1.54533 7.57628 1.67133 7.32429L3.1157 4.43554C3.43677 3.79342 3.5973 3.47236 3.83679 3.23779C4.04858 3.03036 4.30384 2.8726 4.58409 2.77594C4.901 2.66663 5.25996 2.66663 5.97787 2.66663Z" stroke="#383E40" stroke-width="1.5" stroke-linecap="round" stroke-linejoin="round"/>
</svg>
