<svg width="16" height="16" viewBox="0 0 16 16" fill="none" xmlns="http://www.w3.org/2000/svg">
<path d="M1.3335 7.99996H3.92147C4.37828 7.99996 4.79587 8.25805 5.00016 8.66663C5.20445 9.0752 5.62205 9.33329 6.07885 9.33329H9.92147C10.3783 9.33329 10.7959 9.0752 11.0002 8.66663C11.2045 8.25805 11.622 7.99996 12.0789 7.99996H14.6668M1.3335 7.99996V5.86663C1.3335 4.74652 1.3335 4.18647 1.55148 3.75864C1.74323 3.38232 2.04919 3.07636 2.42552 2.88461C2.85334 2.66663 3.41339 2.66663 4.5335 2.66663H11.4668C12.5869 2.66663 13.147 2.66663 13.5748 2.88461C13.9511 3.07636 14.2571 3.38232 14.4488 3.75864C14.6668 4.18647 14.6668 4.74652 14.6668 5.86663V7.99996M1.3335 7.99996V10.1333C1.3335 11.2534 1.3335 11.8134 1.55148 12.2413C1.74323 12.6176 2.04919 12.9236 2.42552 13.1153C2.85334 13.3333 3.41339 13.3333 4.5335 13.3333H11.4668C12.5869 13.3333 13.147 13.3333 13.5748 13.1153C13.9511 12.9236 14.2571 12.6176 14.4488 12.2413C14.6668 11.8134 14.6668 11.2534 14.6668 10.1333V7.99996" stroke="#383E40" stroke-width="1.5" stroke-linecap="round" stroke-linejoin="round"/>
</svg>
