<svg width="16" height="16" viewBox="0 0 16 16" fill="none" xmlns="http://www.w3.org/2000/svg">
<path d="M7.58325 7.66671V12.3334H9.08325V7.66671H7.58325ZM8.41659 12.3334V7.66671H6.91659V12.3334H8.41659ZM7.99992 11.9167C8.23004 11.9167 8.41659 12.1033 8.41659 12.3334H6.91659C6.91659 12.9317 7.40161 13.4167 7.99992 13.4167V11.9167ZM7.58325 12.3334C7.58325 12.1033 7.7698 11.9167 7.99992 11.9167V13.4167C8.59823 13.4167 9.08325 12.9317 9.08325 12.3334H7.58325ZM7.99992 8.08337C7.7698 8.08337 7.58325 7.89683 7.58325 7.66671H9.08325C9.08325 7.0684 8.59823 6.58337 7.99992 6.58337V8.08337ZM7.99992 6.58337C7.40161 6.58337 6.91659 7.0684 6.91659 7.66671H8.41659C8.41659 7.89683 8.23004 8.08337 7.99992 8.08337V6.58337ZM7.91659 4.00004C7.91659 3.95402 7.9539 3.91671 7.99992 3.91671V5.41671C8.78232 5.41671 9.41659 4.78244 9.41659 4.00004H7.91659ZM7.99992 3.91671C8.04594 3.91671 8.08325 3.95402 8.08325 4.00004H6.58325C6.58325 4.78244 7.21752 5.41671 7.99992 5.41671V3.91671ZM8.08325 4.00004C8.08325 4.04606 8.04594 4.08337 7.99992 4.08337V2.58337C7.21752 2.58337 6.58325 3.21764 6.58325 4.00004H8.08325ZM7.99992 4.08337C7.9539 4.08337 7.91659 4.04606 7.91659 4.00004H9.41659C9.41659 3.21764 8.78232 2.58337 7.99992 2.58337V4.08337Z" fill="#383E40"/>
</svg>
