<svg width="16" height="16" viewBox="0 0 16 16" fill="none" xmlns="http://www.w3.org/2000/svg">
<path d="M1.33331 3.46659C1.33331 2.71985 1.33331 2.34648 1.47864 2.06126C1.60647 1.81038 1.81044 1.60641 2.06133 1.47858C2.34654 1.33325 2.71991 1.33325 3.46665 1.33325H8.53331C9.28005 1.33325 9.65342 1.33325 9.93863 1.47858C10.1895 1.60641 10.3935 1.81038 10.5213 2.06126C10.6666 2.34648 10.6666 2.71985 10.6666 3.46659V8.53325C10.6666 9.27999 10.6666 9.65336 10.5213 9.93857C10.3935 10.1895 10.1895 10.3934 9.93863 10.5213C9.65342 10.6666 9.28005 10.6666 8.53331 10.6666H3.46665C2.71991 10.6666 2.34654 10.6666 2.06133 10.5213C1.81044 10.3934 1.60647 10.1895 1.47864 9.93857C1.33331 9.65336 1.33331 9.27999 1.33331 8.53325V3.46659Z" stroke="#383E40" stroke-width="1.5" stroke-linecap="round" stroke-linejoin="round"/>
<path d="M5.33331 7.46659C5.33331 6.71985 5.33331 6.34648 5.47864 6.06126C5.60647 5.81038 5.81044 5.60641 6.06133 5.47858C6.34654 5.33325 6.71991 5.33325 7.46665 5.33325H12.5333C13.28 5.33325 13.6534 5.33325 13.9386 5.47858C14.1895 5.60641 14.3935 5.81038 14.5213 6.06126C14.6666 6.34648 14.6666 6.71985 14.6666 7.46659V12.5333C14.6666 13.28 14.6666 13.6534 14.5213 13.9386C14.3935 14.1895 14.1895 14.3934 13.9386 14.5213C13.6534 14.6666 13.28 14.6666 12.5333 14.6666H7.46665C6.71991 14.6666 6.34654 14.6666 6.06133 14.5213C5.81044 14.3934 5.60647 14.1895 5.47864 13.9386C5.33331 13.6534 5.33331 13.28 5.33331 12.5333V7.46659Z" stroke="#383E40" stroke-width="1.5" stroke-linecap="round" stroke-linejoin="round"/>
</svg>
