<svg width="16" height="16" viewBox="0 0 16 16" fill="none" xmlns="http://www.w3.org/2000/svg">
<path d="M4.66683 9.66667H11.3335M4.00016 6.66667H4.00683M6.66683 6.66667H6.6735M9.3335 6.66667H9.34016M12.0002 6.66667H12.0068M3.46683 12H12.5335C13.2802 12 13.6536 12 13.9388 11.8547C14.1897 11.7268 14.3937 11.5229 14.5215 11.272C14.6668 10.9868 14.6668 10.6134 14.6668 9.86667V6.13333C14.6668 5.3866 14.6668 5.01323 14.5215 4.72801C14.3937 4.47713 14.1897 4.27316 13.9388 4.14532C13.6536 4 13.2802 4 12.5335 4H3.46683C2.72009 4 2.34672 4 2.06151 4.14532C1.81063 4.27316 1.60665 4.47713 1.47882 4.72801C1.3335 5.01323 1.3335 5.3866 1.3335 6.13333V9.86667C1.3335 10.6134 1.3335 10.9868 1.47882 11.272C1.60665 11.5229 1.81063 11.7268 2.06151 11.8547C2.34672 12 2.72009 12 3.46683 12Z" stroke="#383E40" stroke-width="1.5" stroke-linecap="round" stroke-linejoin="round"/>
</svg>
