<svg width="16" height="16" viewBox="0 0 16 16" fill="none" xmlns="http://www.w3.org/2000/svg">
<path d="M1.99992 10.6667V4.80008C1.99992 4.05334 1.99992 3.67998 2.14524 3.39476C2.27307 3.14388 2.47705 2.9399 2.72793 2.81207C3.01315 2.66675 3.38652 2.66675 4.13325 2.66675H11.8666C12.6133 2.66675 12.9867 2.66675 13.2719 2.81207C13.5228 2.9399 13.7268 3.14388 13.8546 3.39476C13.9999 3.67998 13.9999 4.05334 13.9999 4.80008V10.6667H10.4417C10.2787 10.6667 10.1972 10.6667 10.1204 10.6852C10.0524 10.7015 9.98738 10.7284 9.92773 10.765C9.86045 10.8062 9.8028 10.8639 9.6875 10.9792L9.64567 11.021C9.53037 11.1363 9.47272 11.1939 9.40544 11.2352C9.34579 11.2717 9.28076 11.2987 9.21274 11.315C9.13602 11.3334 9.05448 11.3334 8.89142 11.3334H7.10841C6.94535 11.3334 6.86382 11.3334 6.7871 11.315C6.71907 11.2987 6.65404 11.2717 6.5944 11.2352C6.52712 11.1939 6.46947 11.1363 6.35417 11.021L6.31234 10.9792C6.19704 10.8639 6.13939 10.8062 6.07211 10.765C6.01246 10.7284 5.94743 10.7015 5.87941 10.6852C5.80268 10.6667 5.72115 10.6667 5.55809 10.6667H1.99992ZM1.99992 10.6667C1.63173 10.6667 1.33325 10.9652 1.33325 11.3334V11.5556C1.33325 11.969 1.33325 12.1756 1.37868 12.3452C1.50197 12.8053 1.86137 13.1647 2.32149 13.288C2.49105 13.3334 2.69771 13.3334 3.11103 13.3334H12.8888C13.3021 13.3334 13.5088 13.3334 13.6783 13.288C14.1385 13.1647 14.4979 12.8053 14.6212 12.3452C14.6666 12.1756 14.6666 11.969 14.6666 11.5556C14.6666 11.349 14.6666 11.2456 14.6439 11.1609C14.5822 10.9308 14.4025 10.7511 14.1725 10.6895C14.0877 10.6667 13.9844 10.6667 13.7777 10.6667H13.3333" stroke="#383E40" stroke-width="1.5" stroke-linecap="round" stroke-linejoin="round"/>
</svg>
