<svg width="16" height="16" viewBox="0 0 16 16" fill="none" xmlns="http://www.w3.org/2000/svg">
<path d="M2.00016 10.6667V4.80008C2.00016 4.05334 2.00016 3.67998 2.14549 3.39476C2.27332 3.14388 2.47729 2.9399 2.72818 2.81207C3.01339 2.66675 3.38676 2.66675 4.1335 2.66675H11.8668C12.6136 2.66675 12.9869 2.66675 13.2722 2.81207C13.523 2.9399 13.727 3.14388 13.8548 3.39476C14.0002 3.67998 14.0002 4.05334 14.0002 4.80008V10.6667H10.442C10.2789 10.6667 10.1974 10.6667 10.1207 10.6852C10.0527 10.7015 9.98762 10.7284 9.92797 10.765C9.8607 10.8062 9.80304 10.8639 9.68774 10.9792L9.64592 11.021C9.53061 11.1363 9.47296 11.1939 9.40569 11.2352C9.34604 11.2717 9.28101 11.2987 9.21298 11.315C9.13626 11.3334 9.05473 11.3334 8.89167 11.3334H7.10866C6.9456 11.3334 6.86407 11.3334 6.78734 11.315C6.71932 11.2987 6.65429 11.2717 6.59464 11.2352C6.52736 11.1939 6.46971 11.1363 6.35441 11.021L6.31258 10.9792C6.19728 10.8639 6.13963 10.8062 6.07235 10.765C6.0127 10.7284 5.94768 10.7015 5.87965 10.6852C5.80293 10.6667 5.7214 10.6667 5.55834 10.6667H2.00016ZM2.00016 10.6667C1.63197 10.6667 1.3335 10.9652 1.3335 11.3334V11.5556C1.3335 11.969 1.3335 12.1756 1.37893 12.3452C1.50222 12.8053 1.86161 13.1647 2.32174 13.288C2.49129 13.3334 2.69795 13.3334 3.11127 13.3334H12.8891C13.3024 13.3334 13.509 13.3334 13.6786 13.288C14.1387 13.1647 14.4981 12.8053 14.6214 12.3452C14.6668 12.1756 14.6668 11.969 14.6668 11.5556C14.6668 11.349 14.6668 11.2456 14.6441 11.1609C14.5825 10.9308 14.4028 10.7511 14.1727 10.6895C14.0879 10.6667 13.9846 10.6667 13.7779 10.6667H13.3335" stroke="#383E40" stroke-width="1.5" stroke-linecap="round" stroke-linejoin="round"/>
</svg>
