<svg width="16" height="16" viewBox="0 0 16 16" fill="none" xmlns="http://www.w3.org/2000/svg">
<path d="M13.9999 10.6667V4.80008C13.9999 4.05334 13.9999 3.67998 13.8546 3.39476C13.7268 3.14388 13.5228 2.9399 13.2719 2.81207C12.9867 2.66675 12.6133 2.66675 11.8666 2.66675H4.13325C3.38652 2.66675 3.01315 2.66675 2.72793 2.81207C2.47705 2.9399 2.27307 3.14388 2.14524 3.39476C1.99992 3.67998 1.99992 4.05334 1.99992 4.80008V10.6667M3.11103 13.3334H12.8888C13.3021 13.3334 13.5088 13.3334 13.6783 13.288C14.1385 13.1647 14.4979 12.8053 14.6212 12.3452C14.6666 12.1756 14.6666 11.969 14.6666 11.5556C14.6666 11.349 14.6666 11.2456 14.6439 11.1609C14.5822 10.9308 14.4025 10.7511 14.1725 10.6895C14.0877 10.6667 13.9844 10.6667 13.7777 10.6667H2.22214C2.01548 10.6667 1.91215 10.6667 1.82737 10.6895C1.59731 10.7511 1.41761 10.9308 1.35597 11.1609C1.33325 11.2456 1.33325 11.349 1.33325 11.5556C1.33325 11.969 1.33325 12.1756 1.37868 12.3452C1.50197 12.8053 1.86137 13.1647 2.32149 13.288C2.49105 13.3334 2.69771 13.3334 3.11103 13.3334Z" stroke="#383E40" stroke-width="1.5" stroke-linecap="round" stroke-linejoin="round"/>
</svg>
