<svg width="16" height="16" viewBox="0 0 16 16" fill="none" xmlns="http://www.w3.org/2000/svg">
<path d="M6.3335 14.6666H9.66683M10.0002 10.2175C11.5768 9.46852 12.6668 7.86152 12.6668 5.99992C12.6668 3.42259 10.5775 1.33325 8.00016 1.33325C5.42283 1.33325 3.3335 3.42259 3.3335 5.99992C3.3335 7.86152 4.42353 9.46852 6.00016 10.2175V10.6666C6.00016 11.2878 6.00016 11.5985 6.10166 11.8435C6.23698 12.1702 6.49655 12.4298 6.82325 12.5651C7.06828 12.6666 7.37891 12.6666 8.00016 12.6666C8.62142 12.6666 8.93205 12.6666 9.17707 12.5651C9.50378 12.4298 9.76334 12.1702 9.89867 11.8435C10.0002 11.5985 10.0002 11.2878 10.0002 10.6666V10.2175Z" stroke="#383E40" stroke-width="1.5" stroke-linecap="round" stroke-linejoin="round"/>
</svg>
