<svg width="16" height="16" viewBox="0 0 16 16" fill="none" xmlns="http://www.w3.org/2000/svg">
<path d="M8.00016 1.33325V1.99992M2.00016 7.99992H1.3335M3.66683 3.66659L3.26676 3.26652M12.3335 3.66659L12.7337 3.26652M14.6668 7.99992H14.0002M6.66683 8.99992H9.3335M8.00016 8.99992V12.3333M10.3335 11.2492C11.3429 10.5231 12.0002 9.33827 12.0002 7.99992C12.0002 5.79078 10.2093 3.99992 8.00016 3.99992C5.79102 3.99992 4.00016 5.79078 4.00016 7.99992C4.00016 9.33827 4.65745 10.5231 5.66683 11.2492V12.5333C5.66683 13.28 5.66683 13.6534 5.81215 13.9386C5.93999 14.1895 6.14396 14.3934 6.39484 14.5213C6.68006 14.6666 7.05343 14.6666 7.80016 14.6666H8.20016C8.9469 14.6666 9.32027 14.6666 9.60548 14.5213C9.85637 14.3934 10.0603 14.1895 10.1882 13.9386C10.3335 13.6534 10.3335 13.28 10.3335 12.5333V11.2492Z" stroke="#383E40" stroke-width="1.5" stroke-linecap="round" stroke-linejoin="round"/>
</svg>
