<svg width="16" height="16" viewBox="0 0 16 16" fill="none" xmlns="http://www.w3.org/2000/svg">
<path d="M11.3333 6L7.71046 9.62288C7.57845 9.75488 7.51245 9.82088 7.43634 9.84561C7.36939 9.86737 7.29728 9.86737 7.23033 9.84561C7.15422 9.82088 7.08822 9.75488 6.95621 9.62288L5.71046 8.37712C5.57845 8.24512 5.51245 8.17912 5.43634 8.15439C5.36939 8.13263 5.29728 8.13263 5.23033 8.15439C5.15422 8.17912 5.08822 8.24512 4.95621 8.37712L2 11.3333M11.3333 6H8.66667M11.3333 6V8.66667M5.2 14H10.8C11.9201 14 12.4802 14 12.908 13.782C13.2843 13.5903 13.5903 13.2843 13.782 12.908C14 12.4802 14 11.9201 14 10.8V5.2C14 4.0799 14 3.51984 13.782 3.09202C13.5903 2.71569 13.2843 2.40973 12.908 2.21799C12.4802 2 11.9201 2 10.8 2H5.2C4.0799 2 3.51984 2 3.09202 2.21799C2.71569 2.40973 2.40973 2.71569 2.21799 3.09202C2 3.51984 2 4.0799 2 5.2V10.8C2 11.9201 2 12.4802 2.21799 12.908C2.40973 13.2843 2.71569 13.5903 3.09202 13.782C3.51984 14 4.0799 14 5.2 14Z" stroke="#383E40" stroke-width="1.5" stroke-linecap="round" stroke-linejoin="round"/>
</svg>
