<svg width="16" height="16" viewBox="0 0 16 16" fill="none" xmlns="http://www.w3.org/2000/svg">
<path d="M2.227 11.3331C1.39223 9.88654 1.81665 8.04294 3.1988 7.10669L3.20028 7.10521C4.31059 6.35488 5.772 6.38006 6.85638 7.16817L9.14441 8.83178C10.2281 9.61989 11.6895 9.64507 12.8005 8.89474L12.802 8.89326C14.1849 7.95702 14.61 6.11193 13.7738 4.66682M11.3348 13.7728C9.88821 14.6076 8.0446 14.1832 7.10835 12.801L7.10687 12.7996C6.35654 11.6892 6.38173 10.2278 7.16983 9.14345L8.83345 6.85543C9.62155 5.77178 9.64674 4.31037 8.89641 3.19932L8.89345 3.19784C7.9572 1.81643 6.11211 1.39053 4.667 2.22678M12.7138 3.28599C15.3174 5.88955 15.3174 10.1101 12.7138 12.7136C10.1103 15.3172 5.88974 15.3172 3.28617 12.7136C0.682604 10.1101 0.682604 5.88955 3.28617 3.28599C5.88974 0.682421 10.1103 0.682421 12.7138 3.28599Z" stroke="#383E40" stroke-width="1.5" stroke-linecap="round" stroke-linejoin="round"/>
</svg>
