<svg width="16" height="16" viewBox="0 0 16 16" fill="none" xmlns="http://www.w3.org/2000/svg">
<path d="M4.66675 7.33333V5.33333C4.66675 3.49238 6.15913 2 8.00008 2C9.61272 2 10.9579 3.14517 11.2667 4.66667M5.86675 14H10.1334C11.2535 14 11.8136 14 12.2414 13.782C12.6177 13.5903 12.9237 13.2843 13.1154 12.908C13.3334 12.4802 13.3334 11.9201 13.3334 10.8V10.5333C13.3334 9.41323 13.3334 8.85318 13.1154 8.42535C12.9237 8.04903 12.6177 7.74307 12.2414 7.55132C11.8136 7.33333 11.2535 7.33333 10.1334 7.33333H5.86675C4.74664 7.33333 4.18659 7.33333 3.75877 7.55132C3.38244 7.74307 3.07648 8.04903 2.88473 8.42535C2.66675 8.85318 2.66675 9.41323 2.66675 10.5333V10.8C2.66675 11.9201 2.66675 12.4802 2.88473 12.908C3.07648 13.2843 3.38244 13.5903 3.75877 13.782C4.18659 14 4.74664 14 5.86675 14Z" stroke="#383E40" stroke-width="1.5" stroke-linecap="round" stroke-linejoin="round"/>
</svg>
