<svg width="16" height="16" viewBox="0 0 16 16" fill="none" xmlns="http://www.w3.org/2000/svg">
<path d="M10.6668 4.66667C10.6668 4.04669 10.6668 3.7367 10.5987 3.48236C10.4137 2.79218 9.87465 2.25308 9.18447 2.06815C8.93013 2 8.62014 2 8.00016 2C7.38018 2 7.07019 2 6.81586 2.06815C6.12567 2.25308 5.58658 2.79218 5.40164 3.48236C5.3335 3.7367 5.3335 4.04669 5.3335 4.66667M8.5335 11.6667H11.8002C11.9868 11.6667 12.0802 11.6667 12.1515 11.6303C12.2142 11.5984 12.2652 11.5474 12.2972 11.4847C12.3335 11.4134 12.3335 11.32 12.3335 11.1333V9.53333C12.3335 9.34665 12.3335 9.25331 12.2972 9.182C12.2652 9.11928 12.2142 9.06829 12.1515 9.03633C12.0802 9 11.9868 9 11.8002 9H8.5335C8.34681 9 8.25347 9 8.18217 9.03633C8.11945 9.06829 8.06845 9.11928 8.03649 9.182C8.00016 9.25331 8.00016 9.34665 8.00016 9.53333V11.1333C8.00016 11.32 8.00016 11.4134 8.03649 11.4847C8.06845 11.5474 8.11945 11.5984 8.18217 11.6303C8.25347 11.6667 8.34681 11.6667 8.5335 11.6667ZM4.5335 14H11.4668C12.5869 14 13.147 14 13.5748 13.782C13.9511 13.5903 14.2571 13.2843 14.4488 12.908C14.6668 12.4802 14.6668 11.9201 14.6668 10.8V7.86667C14.6668 6.74656 14.6668 6.18651 14.4488 5.75869C14.2571 5.38236 13.9511 5.0764 13.5748 4.88465C13.147 4.66667 12.5869 4.66667 11.4668 4.66667H4.5335C3.41339 4.66667 2.85334 4.66667 2.42552 4.88465C2.04919 5.0764 1.74323 5.38236 1.55148 5.75869C1.3335 6.18651 1.3335 6.74656 1.3335 7.86667V10.8C1.3335 11.9201 1.3335 12.4802 1.55148 12.908C1.74323 13.2843 2.04919 13.5903 2.42552 13.782C2.85334 14 3.41339 14 4.5335 14Z" stroke="#383E40" stroke-width="1.5" stroke-linecap="round" stroke-linejoin="round"/>
</svg>
