<svg width="16" height="16" viewBox="0 0 16 16" fill="none" xmlns="http://www.w3.org/2000/svg">
<path d="M10.6667 4.66667C10.6667 4.04669 10.6667 3.7367 10.5985 3.48236C10.4136 2.79218 9.8745 2.25308 9.18431 2.06815C8.92998 2 8.61999 2 8.00001 2C7.38003 2 7.07004 2 6.81571 2.06815C6.12552 2.25308 5.58643 2.79218 5.40149 3.48236C5.33334 3.7367 5.33334 4.04669 5.33334 4.66667M8.53334 11.6667H11.8C11.9867 11.6667 12.08 11.6667 12.1513 11.6303C12.2141 11.5984 12.2651 11.5474 12.297 11.4847C12.3333 11.4134 12.3333 11.32 12.3333 11.1333V9.53333C12.3333 9.34665 12.3333 9.25331 12.297 9.182C12.2651 9.11928 12.2141 9.06829 12.1513 9.03633C12.08 9 11.9867 9 11.8 9H8.53334C8.34666 9 8.25332 9 8.18201 9.03633C8.11929 9.06829 8.0683 9.11928 8.03634 9.182C8.00001 9.25331 8.00001 9.34665 8.00001 9.53333V11.1333C8.00001 11.32 8.00001 11.4134 8.03634 11.4847C8.0683 11.5474 8.11929 11.5984 8.18201 11.6303C8.25332 11.6667 8.34666 11.6667 8.53334 11.6667ZM4.53334 14H11.4667C12.5868 14 13.1468 14 13.5747 13.782C13.951 13.5903 14.2569 13.2843 14.4487 12.908C14.6667 12.4802 14.6667 11.9201 14.6667 10.8V7.86667C14.6667 6.74656 14.6667 6.18651 14.4487 5.75869C14.2569 5.38236 13.951 5.0764 13.5747 4.88465C13.1468 4.66667 12.5868 4.66667 11.4667 4.66667H4.53334C3.41324 4.66667 2.85319 4.66667 2.42536 4.88465C2.04904 5.0764 1.74308 5.38236 1.55133 5.75869C1.33334 6.18651 1.33334 6.74656 1.33334 7.86667V10.8C1.33334 11.9201 1.33334 12.4802 1.55133 12.908C1.74308 13.2843 2.04904 13.5903 2.42536 13.782C2.85319 14 3.41324 14 4.53334 14Z" stroke="#383E40" stroke-width="1.5" stroke-linecap="round" stroke-linejoin="round"/>
</svg>
