<svg width="16" height="16" viewBox="0 0 16 16" fill="none" xmlns="http://www.w3.org/2000/svg">
<path d="M9.16256 1.75576L14.1812 5.0179C14.3586 5.13317 14.4472 5.1908 14.5115 5.26768C14.5684 5.33574 14.6111 5.41445 14.6371 5.49922C14.6666 5.59498 14.6666 5.70073 14.6666 5.91224V10.8C14.6666 11.9201 14.6666 12.4802 14.4486 12.908C14.2569 13.2843 13.9509 13.5903 13.5746 13.7821C13.1467 14 12.5867 14 11.4666 14H4.53325C3.41315 14 2.85309 14 2.42527 13.7821C2.04895 13.5903 1.74299 13.2843 1.55124 12.908C1.33325 12.4802 1.33325 11.9201 1.33325 10.8V5.91224C1.33325 5.70073 1.33325 5.59498 1.3627 5.49922C1.38877 5.41445 1.43148 5.33574 1.48835 5.26768C1.55259 5.1908 1.64126 5.13317 1.8186 5.0179L6.83728 1.75576M9.16256 1.75576C8.74173 1.48222 8.53132 1.34545 8.3046 1.29224C8.1042 1.2452 7.89563 1.2452 7.69523 1.29224C7.46852 1.34545 7.25811 1.48222 6.83728 1.75576M9.16256 1.75576L13.9786 4.88621C14.2079 5.03524 14.3226 5.10976 14.3623 5.20426C14.397 5.28684 14.397 5.37991 14.3623 5.4625C14.3226 5.557 14.2079 5.63151 13.9786 5.78055L9.16256 8.91099C8.74174 9.18453 8.53132 9.3213 8.3046 9.37452C8.1042 9.42155 7.89563 9.42155 7.69523 9.37452C7.46852 9.3213 7.25811 9.18453 6.83728 8.91099L2.02121 5.78055C1.79192 5.63151 1.67728 5.557 1.63758 5.4625C1.60288 5.37991 1.60288 5.28684 1.63758 5.20426C1.67728 5.10976 1.79192 5.03524 2.02121 4.88621L6.83728 1.75576" stroke="#383E40" stroke-width="1.5" stroke-linecap="round" stroke-linejoin="round"/>
</svg>
