<svg width="16" height="16" viewBox="0 0 16 16" fill="none" xmlns="http://www.w3.org/2000/svg">
<path d="M3.33331 9.5244C2.09907 10.0689 1.33331 10.8276 1.33331 11.6668C1.33331 13.3237 4.31808 14.6668 7.99998 14.6668C11.6819 14.6668 14.6666 13.3237 14.6666 11.6668C14.6666 10.8276 13.9009 10.0689 12.6666 9.5244M12 5.3335C12 8.04264 8.99998 9.3335 7.99998 11.3335C6.99998 9.3335 3.99998 8.04264 3.99998 5.3335C3.99998 3.12436 5.79084 1.3335 7.99998 1.3335C10.2091 1.3335 12 3.12436 12 5.3335ZM8.66665 5.3335C8.66665 5.70169 8.36817 6.00016 7.99998 6.00016C7.63179 6.00016 7.33331 5.70169 7.33331 5.3335C7.33331 4.96531 7.63179 4.66683 7.99998 4.66683C8.36817 4.66683 8.66665 4.96531 8.66665 5.3335Z" stroke="#383E40" stroke-width="1.5" stroke-linecap="round" stroke-linejoin="round"/>
</svg>
