<svg width="16" height="16" viewBox="0 0 16 16" fill="none" xmlns="http://www.w3.org/2000/svg">
<path d="M1.33333 12.1313C2.83039 12.2636 4.15033 11.91 5.36046 11.0178C4.75654 10.9857 4.23922 10.8136 3.78464 10.4777C3.32778 10.1401 3.00621 9.70498 2.81046 9.14971C3.21503 9.19435 3.60098 9.20624 4.01667 9.09351C3.36144 8.93518 2.84347 8.62078 2.44543 8.12749C2.04837 7.63549 1.85196 7.0738 1.85098 6.42444C2.23235 6.61263 2.61601 6.73595 3.04052 6.74559C1.84085 5.75163 1.56307 4.56883 2.22941 3.14775C3.72353 4.87649 5.59281 5.8226 7.86405 5.9729C7.85425 5.70538 7.83039 5.45071 7.83791 5.19732C7.87092 4.09064 8.73235 3.0392 9.82484 2.76654C10.8363 2.51412 11.7245 2.74085 12.4846 3.44352C12.5412 3.49587 12.5886 3.51675 12.6676 3.49202C12.9405 3.40723 13.2219 3.34557 13.4889 3.24666C13.7559 3.14775 14.0101 3.01511 14.2846 2.89018C14.1971 3.19174 14.0542 3.46215 13.8507 3.69113C13.6471 3.92011 13.4124 4.12244 13.1958 4.33215C13.6827 4.27755 14.1657 4.13207 14.6663 3.93071C14.3114 4.44551 13.9127 4.87136 13.4337 5.2198C13.3294 5.2956 13.3023 5.37396 13.3052 5.4976C13.3359 6.74205 13.0575 7.9226 12.5088 9.04052C11.8549 10.3733 10.9049 11.4517 9.61994 12.2337C8.70523 12.7903 7.70915 13.1217 6.64347 13.2601C5.70784 13.3818 4.77843 13.3526 3.85588 13.1583C2.97713 12.9733 2.15752 12.6425 1.39477 12.1749C1.38399 12.1685 1.37418 12.1605 1.33301 12.1306L1.33333 12.1313Z" fill="#383E40"/>
</svg>
