<svg width="16" height="16" viewBox="0 0 16 16" fill="none" xmlns="http://www.w3.org/2000/svg">
<path d="M8.00016 14.6667C11.6821 14.6667 14.6668 11.6819 14.6668 8.00004C14.6668 4.31814 11.6821 1.33337 8.00016 1.33337C4.31826 1.33337 1.3335 4.31814 1.3335 8.00004C1.3335 11.6819 4.31826 14.6667 8.00016 14.6667Z" stroke="#383E40" stroke-width="1.5" stroke-linecap="round" stroke-linejoin="round"/>
<path d="M9.22239 4.86671C9.22239 4.68002 9.22239 4.58668 9.18605 4.51538C9.1541 4.45266 9.1031 4.40166 9.04038 4.36971C8.96908 4.33337 8.87574 4.33337 8.68905 4.33337H7.31127C7.12459 4.33337 7.03125 4.33337 6.95994 4.36971C6.89722 4.40166 6.84623 4.45266 6.81427 4.51538C6.77794 4.58668 6.77794 4.68002 6.77794 4.86671V6.24449C6.77794 6.43117 6.77794 6.52451 6.74161 6.59582C6.70965 6.65854 6.65866 6.70953 6.59594 6.74149C6.52463 6.77782 6.43129 6.77782 6.24461 6.77782H4.86683C4.68015 6.77782 4.5868 6.77782 4.5155 6.81415C4.45278 6.84611 4.40179 6.8971 4.36983 6.95982C4.3335 7.03113 4.3335 7.12447 4.3335 7.31115V8.68893C4.3335 8.87561 4.3335 8.96896 4.36983 9.04026C4.40179 9.10298 4.45278 9.15397 4.5155 9.18593C4.5868 9.22226 4.68015 9.22226 4.86683 9.22226H6.24461C6.43129 9.22226 6.52463 9.22226 6.59594 9.25859C6.65866 9.29055 6.70965 9.34155 6.74161 9.40427C6.77794 9.47557 6.77794 9.56891 6.77794 9.7556V11.1334C6.77794 11.3201 6.77794 11.4134 6.81427 11.4847C6.84623 11.5474 6.89722 11.5984 6.95994 11.6304C7.03125 11.6667 7.12459 11.6667 7.31127 11.6667H8.68905C8.87574 11.6667 8.96908 11.6667 9.04038 11.6304C9.1031 11.5984 9.1541 11.5474 9.18605 11.4847C9.22239 11.4134 9.22239 11.3201 9.22239 11.1334V9.7556C9.22239 9.56891 9.22239 9.47557 9.25872 9.40427C9.29067 9.34155 9.34167 9.29055 9.40439 9.25859C9.47569 9.22226 9.56903 9.22226 9.75572 9.22226H11.1335C11.3202 9.22226 11.4135 9.22226 11.4848 9.18593C11.5475 9.15397 11.5985 9.10298 11.6305 9.04026C11.6668 8.96896 11.6668 8.87561 11.6668 8.68893V7.31115C11.6668 7.12447 11.6668 7.03113 11.6305 6.95982C11.5985 6.8971 11.5475 6.84611 11.4848 6.81415C11.4135 6.77782 11.3202 6.77782 11.1335 6.77782H9.75572C9.56903 6.77782 9.47569 6.77782 9.40439 6.74149C9.34167 6.70953 9.29067 6.65854 9.25872 6.59582C9.22239 6.52451 9.22239 6.43117 9.22239 6.24448V4.86671Z" stroke="#383E40" stroke-width="1.5" stroke-linecap="round" stroke-linejoin="round"/>
</svg>
