<svg width="16" height="16" viewBox="0 0 16 16" fill="none" xmlns="http://www.w3.org/2000/svg">
<path d="M8.00033 0.666748C3.95052 0.666748 0.666992 3.88026 0.666992 7.84371C0.666992 11.0152 2.76799 13.7048 5.68225 14.6536C6.04883 14.7193 6.18266 14.4976 6.18266 14.3084C6.18266 14.1376 6.17594 13.5716 6.17236 12.9724C4.13314 13.406 3.7021 12.1261 3.7021 12.1261C3.36821 11.2973 2.88793 11.0765 2.88793 11.0765C2.22147 10.6314 2.93849 10.6402 2.93849 10.6402C3.67478 10.6901 4.06241 11.3796 4.06241 11.3796C4.7168 12.4765 5.77937 12.1593 6.19653 11.9754C6.26319 11.5128 6.45296 11.1956 6.66202 11.0169C5.03414 10.8356 3.32166 10.2197 3.32166 7.46961C3.32166 6.6855 3.60767 6.04596 4.07585 5.54352C4.00109 5.36129 3.74865 4.63106 4.14835 3.64328C4.14835 3.64328 4.76335 3.45054 6.16519 4.3792C6.74973 4.21931 7.37682 4.14047 8.00031 4.13783C8.62336 4.14047 9.25087 4.22018 9.83634 4.38007C11.2355 3.45054 11.8514 3.64415 11.8514 3.64415C12.2524 4.63282 12 5.36216 11.9248 5.54352C12.3948 6.04596 12.6785 6.68551 12.6785 7.46961C12.6785 10.2267 10.9634 10.8338 9.32968 11.0117C9.59376 11.2342 9.8274 11.6705 9.8274 12.3398C9.8274 13.2991 9.81754 14.0727 9.81754 14.3093C9.81754 14.5003 9.95092 14.7237 10.3224 14.6536C13.2345 13.703 15.3337 11.0134 15.3337 7.84371C15.3337 3.88026 12.0501 0.666748 8.00033 0.666748Z" fill="#383E40"/>
</svg>
