<svg width="16" height="16" viewBox="0 0 16 16" fill="none" xmlns="http://www.w3.org/2000/svg">
<path d="M15.0217 8.16505C15.0217 7.68228 14.9789 7.22394 14.9056 6.77783H8V9.53394H11.9539C11.7767 10.4384 11.2572 11.2023 10.4872 11.7217V13.5551H12.8461C14.2272 12.2778 15.0217 10.3956 15.0217 8.16505Z" fill="#4285F4"/>
<path d="M8.00008 15.3335C9.98008 15.3335 11.6362 14.6735 12.8462 13.5552L10.4873 11.7219C9.8273 12.1619 8.99008 12.4308 8.00008 12.4308C6.0873 12.4308 4.46786 11.1413 3.8873 9.39966H1.45508V11.288C2.65897 13.6835 5.13397 15.3335 8.00008 15.3335Z" fill="#34A853"/>
<path d="M3.88755 9.39962C3.73477 8.95962 3.65533 8.48907 3.65533 8.00018C3.65533 7.51129 3.74088 7.04074 3.88755 6.60074V4.7124H1.45532C0.954214 5.7024 0.666992 6.81462 0.666992 8.00018C0.666992 9.18573 0.954214 10.298 1.45532 11.288L3.88755 9.39962Z" fill="#FBBC05"/>
<path d="M8.00008 3.56953C9.08175 3.56953 10.0473 3.94231 10.8112 4.66953L12.9012 2.57953C11.6362 1.39397 9.98008 0.666748 8.00008 0.666748C5.13397 0.666748 2.65897 2.31675 1.45508 4.71231L3.8873 6.60064C4.46786 4.85897 6.0873 3.56953 8.00008 3.56953Z" fill="#EA4335"/>
</svg>
