<svg width="16" height="16" viewBox="0 0 16 16" fill="none" xmlns="http://www.w3.org/2000/svg">
<path d="M2 5.2C2 4.0799 2 3.51984 2.21799 3.09202C2.40973 2.71569 2.71569 2.40973 3.09202 2.21799C3.51984 2 4.0799 2 5.2 2H10.8C11.9201 2 12.4802 2 12.908 2.21799C13.2843 2.40973 13.5903 2.71569 13.782 3.09202C14 3.51984 14 4.0799 14 5.2V10.8C14 11.9201 14 12.4802 13.782 12.908C13.5903 13.2843 13.2843 13.5903 12.908 13.782C12.4802 14 11.9201 14 10.8 14H5.2C4.0799 14 3.51984 14 3.09202 13.782C2.71569 13.5903 2.40973 13.2843 2.21799 12.908C2 12.4802 2 11.9201 2 10.8V5.2Z" stroke="#383E40" stroke-width="1.5" stroke-linecap="round" stroke-linejoin="round"/>
<path d="M9.22222 4.86667C9.22222 4.67998 9.22222 4.58664 9.18589 4.51534C9.15393 4.45262 9.10294 4.40162 9.04022 4.36966C8.96892 4.33333 8.87557 4.33333 8.68889 4.33333H7.31111C7.12443 4.33333 7.03109 4.33333 6.95978 4.36966C6.89706 4.40162 6.84607 4.45262 6.81411 4.51534C6.77778 4.58664 6.77778 4.67998 6.77778 4.86667V6.24444C6.77778 6.43113 6.77778 6.52447 6.74145 6.59577C6.70949 6.6585 6.6585 6.70949 6.59577 6.74145C6.52447 6.77778 6.43113 6.77778 6.24444 6.77778H4.86667C4.67998 6.77778 4.58664 6.77778 4.51534 6.81411C4.45262 6.84607 4.40162 6.89706 4.36966 6.95978C4.33333 7.03108 4.33333 7.12443 4.33333 7.31111V8.68889C4.33333 8.87557 4.33333 8.96892 4.36966 9.04022C4.40162 9.10294 4.45262 9.15393 4.51534 9.18589C4.58664 9.22222 4.67998 9.22222 4.86667 9.22222H6.24444C6.43113 9.22222 6.52447 9.22222 6.59577 9.25855C6.6585 9.29051 6.70949 9.34151 6.74145 9.40423C6.77778 9.47553 6.77778 9.56887 6.77778 9.75556V11.1333C6.77778 11.32 6.77778 11.4134 6.81411 11.4847C6.84607 11.5474 6.89706 11.5984 6.95978 11.6303C7.03109 11.6667 7.12443 11.6667 7.31111 11.6667H8.68889C8.87557 11.6667 8.96892 11.6667 9.04022 11.6303C9.10294 11.5984 9.15393 11.5474 9.18589 11.4847C9.22222 11.4134 9.22222 11.32 9.22222 11.1333V9.75556C9.22222 9.56887 9.22222 9.47553 9.25855 9.40423C9.29051 9.34151 9.34151 9.29051 9.40423 9.25855C9.47553 9.22222 9.56887 9.22222 9.75556 9.22222H11.1333C11.32 9.22222 11.4134 9.22222 11.4847 9.18589C11.5474 9.15393 11.5984 9.10294 11.6303 9.04022C11.6667 8.96892 11.6667 8.87557 11.6667 8.68889V7.31111C11.6667 7.12443 11.6667 7.03109 11.6303 6.95978C11.5984 6.89706 11.5474 6.84607 11.4847 6.81411C11.4134 6.77778 11.32 6.77778 11.1333 6.77778H9.75556C9.56887 6.77778 9.47553 6.77778 9.40423 6.74145C9.34151 6.70949 9.29051 6.6585 9.25855 6.59577C9.22222 6.52447 9.22222 6.43113 9.22222 6.24444V4.86667Z" stroke="#383E40" stroke-width="1.5" stroke-linecap="round" stroke-linejoin="round"/>
</svg>
