<svg width="16" height="16" viewBox="0 0 16 16" fill="none" xmlns="http://www.w3.org/2000/svg">
<path d="M13.9996 7.66667C13.9996 10.7963 11.4625 13.3333 8.33292 13.3333C7.61507 13.3333 6.92839 13.1999 6.29636 12.9564C6.1808 12.9118 6.12302 12.8896 6.07708 12.879C6.03188 12.8686 5.99917 12.8642 5.95283 12.8624C5.90571 12.8606 5.85402 12.866 5.75063 12.8767L2.33661 13.2296C2.01112 13.2632 1.84837 13.2801 1.75237 13.2215C1.66875 13.1705 1.6118 13.0853 1.59664 12.9885C1.57923 12.8774 1.657 12.7335 1.81254 12.4456L2.90298 10.4272C2.99278 10.261 3.03769 10.1779 3.05802 10.098C3.07811 10.019 3.08296 9.96213 3.07654 9.88095C3.07003 9.79875 3.03397 9.69175 2.96183 9.47774C2.77015 8.90906 2.66625 8.3 2.66625 7.66667C2.66625 4.53705 5.20331 2 8.33292 2C11.4625 2 13.9996 4.53705 13.9996 7.66667Z" stroke="#383E40" stroke-width="1.5" stroke-linecap="round" stroke-linejoin="round"/>
<path fill-rule="evenodd" clip-rule="evenodd" d="M8.33087 5.96617C7.73106 5.2736 6.73084 5.0873 5.97933 5.72149C5.22781 6.35567 5.12201 7.41599 5.71218 8.16604C6.07781 8.63073 6.99551 9.47943 7.64089 10.058C7.87795 10.2705 7.99648 10.3767 8.13874 10.4196C8.26077 10.4563 8.40096 10.4563 8.52299 10.4196C8.66525 10.3767 8.78378 10.2705 9.02084 10.058C9.66622 9.47943 10.5839 8.63073 10.9496 8.16604C11.5397 7.41599 11.4468 6.349 10.6824 5.72149C9.91797 5.09397 8.93067 5.2736 8.33087 5.96617Z" stroke="#383E40" stroke-width="1.5" stroke-linecap="round" stroke-linejoin="round"/>
</svg>
