<svg width="16" height="16" viewBox="0 0 16 16" fill="none" xmlns="http://www.w3.org/2000/svg">
<path d="M10.8283 3.17147C12.3904 4.73357 12.3904 7.26623 10.8283 8.82832M5.1714 8.82832C3.6093 7.26623 3.6093 4.73357 5.1714 3.17147M3.2387 10.6666C0.682229 8.05951 0.697873 3.87364 3.28563 1.28589M12.714 1.28589C15.3018 3.87364 15.3174 8.05951 12.7609 10.6666M7.99982 10.6666V5.99992M3.33315 14.6666H12.6665C13.2877 14.6666 13.5984 14.6666 13.8434 14.5651C14.1701 14.4298 14.4297 14.1702 14.565 13.8435C14.6665 13.5985 14.6665 13.2878 14.6665 12.6666C14.6665 12.0453 14.6665 11.7347 14.565 11.4897C14.4297 11.163 14.1701 10.9034 13.8434 10.7681C13.5984 10.6666 13.2877 10.6666 12.6665 10.6666H3.33316C2.7119 10.6666 2.40127 10.6666 2.15624 10.7681C1.82954 10.9034 1.56997 11.163 1.43465 11.4897C1.33316 11.7347 1.33316 12.0453 1.33316 12.6666C1.33316 13.2878 1.33316 13.5985 1.43465 13.8435C1.56997 14.1702 1.82954 14.4298 2.15624 14.5651C2.40127 14.6666 2.7119 14.6666 3.33315 14.6666Z" stroke="#383E40" stroke-width="1.5" stroke-linecap="round" stroke-linejoin="round"/>
</svg>
