<svg width="16" height="16" viewBox="0 0 16 16" fill="none" xmlns="http://www.w3.org/2000/svg">
<path d="M4.13632 7.03861C3.81703 5.84643 4.0579 4.53546 4.85894 3.52252M11.8633 7.03857C12.1826 5.8464 11.9417 4.53542 11.1407 3.52249M1.56106 7.73312C1.00242 5.64995 1.47013 3.34887 2.96418 1.63062M14.4363 7.73314C14.9949 5.64998 14.5272 3.34889 13.0332 1.63064M7.99982 10V6.00003M3.66649 12.3334H6.33316M3.46649 14.6667H12.5332C13.2799 14.6667 13.6533 14.6667 13.9385 14.5214C14.1894 14.3935 14.3933 14.1896 14.5212 13.9387C14.6665 13.6535 14.6665 13.2801 14.6665 12.5334V12.1334C14.6665 11.3866 14.6665 11.0133 14.5212 10.728C14.3933 10.4772 14.1894 10.2732 13.9385 10.1454C13.6533 10 13.2799 10 12.5332 10H3.46649C2.71975 10 2.34638 10 2.06117 10.1454C1.81029 10.2732 1.60631 10.4772 1.47848 10.728C1.33316 11.0133 1.33316 11.3866 1.33316 12.1334V12.5334C1.33316 13.2801 1.33316 13.6535 1.47848 13.9387C1.60631 14.1896 1.81029 14.3935 2.06117 14.5214C2.34638 14.6667 2.71975 14.6667 3.46649 14.6667Z" stroke="#383E40" stroke-width="1.5" stroke-linecap="round" stroke-linejoin="round"/>
</svg>
