<svg width="16" height="16" viewBox="0 0 16 16" fill="none" xmlns="http://www.w3.org/2000/svg">
<path d="M3.66683 13.3334H5.3335M11.3335 6.00008H11.3402M5.3335 4.00008H3.46683C2.72009 4.00008 2.34672 4.00008 2.06151 4.14541C1.81063 4.27324 1.60665 4.47721 1.47882 4.72809C1.3335 5.01331 1.3335 5.38668 1.3335 6.13341V8.53341C1.3335 9.28015 1.3335 9.65352 1.47882 9.93873C1.60665 10.1896 1.81063 10.3936 2.06151 10.5214C2.34672 10.6667 2.72009 10.6667 3.46683 10.6667H5.3335M10.1335 13.3334H12.5335C13.2802 13.3334 13.6536 13.3334 13.9388 13.1881C14.1897 13.0603 14.3937 12.8563 14.5215 12.6054C14.6668 12.3202 14.6668 11.9468 14.6668 11.2001V4.80008C14.6668 4.05334 14.6668 3.67998 14.5215 3.39476C14.3937 3.14388 14.1897 2.9399 13.9388 2.81207C13.6536 2.66675 13.2802 2.66675 12.5335 2.66675H10.1335C9.38676 2.66675 9.01339 2.66675 8.72818 2.81207C8.47729 2.9399 8.27332 3.14388 8.14549 3.39476C8.00016 3.67998 8.00016 4.05334 8.00016 4.80008V11.2001C8.00016 11.9468 8.00016 12.3202 8.14549 12.6054C8.27332 12.8563 8.47729 13.0603 8.72818 13.1881C9.01339 13.3334 9.38676 13.3334 10.1335 13.3334ZM12.0002 10.0001C12.0002 10.3683 11.7017 10.6667 11.3335 10.6667C10.9653 10.6667 10.6668 10.3683 10.6668 10.0001C10.6668 9.63189 10.9653 9.33341 11.3335 9.33341C11.7017 9.33341 12.0002 9.63189 12.0002 10.0001Z" stroke="#383E40" stroke-width="1.5" stroke-linecap="round" stroke-linejoin="round"/>
</svg>
