<svg width="16" height="16" viewBox="0 0 16 16" fill="none" xmlns="http://www.w3.org/2000/svg">
<path d="M5.3335 14H10.6668M8.00016 11.3333V14M4.5335 11.3333H11.4668C12.5869 11.3333 13.147 11.3333 13.5748 11.1153C13.9511 10.9236 14.2571 10.6176 14.4488 10.2413C14.6668 9.81349 14.6668 9.25344 14.6668 8.13333V5.2C14.6668 4.0799 14.6668 3.51984 14.4488 3.09202C14.2571 2.71569 13.9511 2.40973 13.5748 2.21799C13.147 2 12.5869 2 11.4668 2H4.5335C3.41339 2 2.85334 2 2.42552 2.21799C2.04919 2.40973 1.74323 2.71569 1.55148 3.09202C1.3335 3.51984 1.3335 4.0799 1.3335 5.2V8.13333C1.3335 9.25344 1.3335 9.81349 1.55148 10.2413C1.74323 10.6176 2.04919 10.9236 2.42552 11.1153C2.85334 11.3333 3.41339 11.3333 4.5335 11.3333Z" stroke="#383E40" stroke-width="1.5" stroke-linecap="round" stroke-linejoin="round"/>
</svg>
