<svg width="16" height="16" viewBox="0 0 16 16" fill="none" xmlns="http://www.w3.org/2000/svg">
<path d="M3.66659 13.3334H5.33325M11.3333 6.00008H11.3399M5.33325 4.00008H3.46659C2.71985 4.00008 2.34648 4.00008 2.06126 4.14541C1.81038 4.27324 1.60641 4.47721 1.47858 4.72809C1.33325 5.01331 1.33325 5.38668 1.33325 6.13341V8.53341C1.33325 9.28015 1.33325 9.65352 1.47858 9.93873C1.60641 10.1896 1.81038 10.3936 2.06126 10.5214C2.34648 10.6667 2.71985 10.6667 3.46659 10.6667H5.33325M10.1333 13.3334H12.5333C13.28 13.3334 13.6534 13.3334 13.9386 13.1881C14.1895 13.0603 14.3934 12.8563 14.5213 12.6054C14.6666 12.3202 14.6666 11.9468 14.6666 11.2001V4.80008C14.6666 4.05334 14.6666 3.67998 14.5213 3.39476C14.3934 3.14388 14.1895 2.9399 13.9386 2.81207C13.6534 2.66675 13.28 2.66675 12.5333 2.66675H10.1333C9.38652 2.66675 9.01315 2.66675 8.72793 2.81207C8.47705 2.9399 8.27307 3.14388 8.14524 3.39476C7.99992 3.67998 7.99992 4.05334 7.99992 4.80008V11.2001C7.99992 11.9468 7.99992 12.3202 8.14524 12.6054C8.27307 12.8563 8.47705 13.0603 8.72793 13.1881C9.01315 13.3334 9.38652 13.3334 10.1333 13.3334ZM11.9999 10.0001C11.9999 10.3683 11.7014 10.6667 11.3333 10.6667C10.9651 10.6667 10.6666 10.3683 10.6666 10.0001C10.6666 9.63189 10.9651 9.33341 11.3333 9.33341C11.7014 9.33341 11.9999 9.63189 11.9999 10.0001Z" stroke="#383E40" stroke-width="1.5" stroke-linecap="round" stroke-linejoin="round"/>
</svg>
