<svg width="16" height="16" viewBox="0 0 16 16" fill="none" xmlns="http://www.w3.org/2000/svg">
<path d="M12 1.3335L12.4119 2.15722C12.5889 2.5112 12.6774 2.6882 12.7956 2.84157C12.9005 2.97767 13.0225 3.09968 13.1586 3.20459C13.312 3.32281 13.489 3.41131 13.843 3.5883L14.6667 4.00016L13.843 4.41202C13.489 4.58902 13.312 4.67751 13.1586 4.79574C13.0225 4.90065 12.9005 5.02266 12.7956 5.15875C12.6774 5.31213 12.5889 5.48912 12.4119 5.84311L12 6.66683L11.5882 5.84311C11.4112 5.48912 11.3227 5.31213 11.2045 5.15875C11.0996 5.02266 10.9775 4.90065 10.8415 4.79574C10.6881 4.67751 10.5111 4.58902 10.1571 4.41202L9.33337 4.00016L10.1571 3.5883C10.5111 3.41131 10.6881 3.32281 10.8415 3.20459C10.9775 3.09968 11.0996 2.97767 11.2045 2.84157C11.3227 2.6882 11.4112 2.5112 11.5882 2.15722L12 1.3335Z" stroke="#383E40" stroke-width="1.5" stroke-linecap="round" stroke-linejoin="round"/>
<path d="M14 8.92636C13.126 10.4595 11.4764 11.4932 9.58534 11.4932C6.78076 11.4932 4.50721 9.21961 4.50721 6.41505C4.50721 4.52385 5.54103 2.87412 7.07437 2.00016C3.85324 2.30558 1.33337 5.01811 1.33337 8.31919C1.33337 11.8249 4.17532 14.6668 7.68104 14.6668C10.982 14.6668 13.6944 12.1472 14 8.92636Z" stroke="#383E40" stroke-width="1.5" stroke-linecap="round" stroke-linejoin="round"/>
</svg>
