<svg width="16" height="16" viewBox="0 0 16 16" fill="none" xmlns="http://www.w3.org/2000/svg">
<path d="M3.35806 14.2167C2.96827 14.3882 2.77338 14.474 2.65378 14.4363C2.5501 14.4036 2.46885 14.3225 2.43608 14.2189C2.39827 14.0993 2.4838 13.9043 2.65485 13.5143L7.50909 2.44663C7.6635 2.09459 7.7407 1.91856 7.84864 1.86468C7.94237 1.81789 8.05265 1.81789 8.14639 1.86468C8.25432 1.91856 8.33152 2.09459 8.48593 2.44664L13.3402 13.5143C13.5112 13.9043 13.5968 14.0993 13.5589 14.2189C13.5262 14.3225 13.4449 14.4036 13.3412 14.4363C13.2216 14.474 13.0268 14.3882 12.637 14.2167L8.21231 12.2698C8.13318 12.235 8.09362 12.2176 8.05253 12.2108C8.0161 12.2047 7.97892 12.2047 7.9425 12.2108C7.9014 12.2176 7.86184 12.235 7.78272 12.2698L3.35806 14.2167Z" stroke="#383E40" stroke-width="1.5" stroke-linecap="round" stroke-linejoin="round"/>
</svg>
