<svg width="16" height="16" viewBox="0 0 16 16" fill="none" xmlns="http://www.w3.org/2000/svg">
<path d="M3.35788 14.2167C2.96809 14.3882 2.77319 14.474 2.65359 14.4363C2.54991 14.4036 2.46867 14.3225 2.4359 14.2189C2.39809 14.0993 2.48362 13.9043 2.65466 13.5143L7.50891 2.44663C7.66332 2.09459 7.74052 1.91856 7.84845 1.86468C7.94219 1.81789 8.05247 1.81789 8.1462 1.86468C8.25414 1.91856 8.33134 2.09459 8.48575 2.44664L13.34 13.5143C13.511 13.9043 13.5966 14.0993 13.5588 14.2189C13.526 14.3225 13.4447 14.4036 13.3411 14.4363C13.2215 14.474 13.0266 14.3882 12.6368 14.2167L8.21212 12.2698C8.133 12.235 8.09344 12.2176 8.05234 12.2108C8.01592 12.2047 7.97874 12.2047 7.94231 12.2108C7.90122 12.2176 7.86166 12.235 7.78254 12.2698L3.35788 14.2167Z" stroke="#383E40" stroke-width="1.5" stroke-linecap="round" stroke-linejoin="round"/>
</svg>
