<svg width="16" height="16" viewBox="0 0 16 16" fill="none" xmlns="http://www.w3.org/2000/svg">
<path d="M2.27566 7.16299C1.87876 7.00864 1.68031 6.93146 1.62237 6.82026C1.57215 6.72386 1.57208 6.60903 1.62219 6.51257C1.68 6.4013 1.87836 6.32389 2.27507 6.16908L13.5336 1.77552C13.8917 1.63576 14.0707 1.56588 14.1852 1.60411C14.2845 1.6373 14.3625 1.71528 14.3957 1.81465C14.4339 1.92907 14.3641 2.10813 14.2243 2.46625L9.83074 13.7247C9.67592 14.1215 9.59852 14.3198 9.48725 14.3776C9.39079 14.4277 9.27595 14.4277 9.17956 14.3774C9.06835 14.3195 8.99118 14.1211 8.83683 13.7242L7.08476 9.21883C7.05342 9.13826 7.03776 9.09798 7.01356 9.06406C6.99212 9.03399 6.96583 9.0077 6.93576 8.98625C6.90184 8.96206 6.86156 8.94639 6.78099 8.91506L2.27566 7.16299Z" stroke="#383E40" stroke-width="1.5" stroke-linecap="round" stroke-linejoin="round"/>
</svg>
