<svg width="21" height="20" viewBox="0 0 21 20" fill="none" xmlns="http://www.w3.org/2000/svg">
<path d="M9.84577 0.0156234C9.8028 0.0195292 9.6661 0.0331998 9.54306 0.0429644C6.70545 0.298799 4.04751 1.8299 2.36408 4.18319C1.42667 5.49165 0.827118 6.97588 0.600577 8.54799C0.520507 9.09677 0.510742 9.25886 0.510742 10.0029C0.510742 10.747 0.520507 10.9091 0.600577 11.4579C1.14349 15.2095 3.81315 18.3615 7.43389 19.5293C8.08227 19.7383 8.7658 19.8809 9.54306 19.9668C9.84577 20 11.1542 20 11.4569 19.9668C12.7986 19.8184 13.9352 19.4864 15.0562 18.9142C15.2281 18.8263 15.2613 18.8029 15.2378 18.7833C15.2222 18.7716 14.4898 17.7893 13.611 16.6019L12.0135 14.4439L10.0118 11.4813C8.91031 9.85255 8.00415 8.52065 7.99634 8.52065C7.98853 8.5187 7.98072 9.83498 7.97681 11.4422C7.97095 14.2564 7.969 14.3697 7.93385 14.4361C7.88307 14.5318 7.84401 14.5708 7.76199 14.6138C7.69949 14.6451 7.64481 14.6509 7.34992 14.6509H7.01206L6.92222 14.5943C6.86364 14.5572 6.82067 14.5083 6.79138 14.4517L6.75037 14.3638L6.75427 10.4482L6.76013 6.53061L6.82067 6.45445C6.85192 6.41344 6.91832 6.36071 6.96519 6.33532C7.04526 6.29626 7.07651 6.29235 7.41436 6.29235C7.81276 6.29235 7.87916 6.30798 7.98267 6.42125C8.01196 6.45249 9.09584 8.08515 10.3926 10.0518C11.6893 12.0184 13.4626 14.7036 14.3336 16.0219L15.9155 18.4181L15.9956 18.3654C16.7045 17.9045 17.4544 17.2483 18.0481 16.5648C19.3116 15.1138 20.126 13.3444 20.3994 11.4579C20.4795 10.9091 20.4893 10.747 20.4893 10.0029C20.4893 9.25886 20.4795 9.09677 20.3994 8.54799C19.8565 4.79641 17.1868 1.64437 13.5661 0.476516C12.9275 0.269505 12.2479 0.126941 11.4862 0.0410115C11.2988 0.0214822 10.0079 -1.16415e-07 9.84577 0.0156234ZM13.9352 6.058C14.029 6.10487 14.1051 6.19471 14.1325 6.28845C14.1481 6.33922 14.152 7.42506 14.1481 9.87208L14.1422 13.3835L13.5231 12.4343L12.9021 11.4852V8.93272C12.9021 7.28249 12.9099 6.35485 12.9216 6.30993C12.9529 6.20057 13.0212 6.11464 13.115 6.06386C13.1951 6.02285 13.2243 6.01894 13.531 6.01894C13.82 6.01894 13.8708 6.02285 13.9352 6.058Z" fill="black"/>
</svg>
