<svg width="16" height="16" viewBox="0 0 16 16" fill="none" xmlns="http://www.w3.org/2000/svg">
<path d="M4.92774 1.64567C5.04304 1.53037 5.1007 1.47272 5.16797 1.43149C5.22762 1.39494 5.29265 1.368 5.36067 1.35167C5.4374 1.33325 5.51893 1.33325 5.68199 1.33325H10.3183C10.4814 1.33325 10.5629 1.33325 10.6397 1.35167C10.7077 1.368 10.7727 1.39494 10.8324 1.43149C10.8996 1.47272 10.9573 1.53037 11.0726 1.64567L14.3544 4.9275C14.4697 5.0428 14.5274 5.10045 14.5686 5.16773C14.6051 5.22738 14.6321 5.29241 14.6484 5.36043C14.6668 5.43716 14.6668 5.51869 14.6668 5.68175V10.3181C14.6668 10.4812 14.6668 10.5627 14.6484 10.6394C14.6321 10.7074 14.6051 10.7725 14.5686 10.8321C14.5274 10.8994 14.4697 10.957 14.3544 11.0723L11.0726 14.3542C10.9573 14.4695 10.8996 14.5271 10.8324 14.5683C10.7727 14.6049 10.7077 14.6318 10.6397 14.6482C10.5629 14.6666 10.4814 14.6666 10.3183 14.6666H5.68199C5.51893 14.6666 5.4374 14.6666 5.36067 14.6482C5.29265 14.6318 5.22762 14.6049 5.16797 14.5683C5.1007 14.5271 5.04304 14.4695 4.92774 14.3542L1.64592 11.0723C1.53061 10.957 1.47296 10.8994 1.43174 10.8321C1.39518 10.7725 1.36825 10.7074 1.35192 10.6394C1.3335 10.5627 1.3335 10.4812 1.3335 10.3181V5.68175C1.3335 5.51869 1.3335 5.43716 1.35192 5.36043C1.36825 5.29241 1.39518 5.22738 1.43174 5.16773C1.47296 5.10045 1.53061 5.0428 1.64592 4.9275L4.92774 1.64567Z" stroke="#383E40" stroke-width="1.5" stroke-linecap="round" stroke-linejoin="round"/>
</svg>
