<svg width="16" height="16" viewBox="0 0 16 16" fill="none" xmlns="http://www.w3.org/2000/svg">
<path d="M8.67117 15.3848C7.68981 15.3693 6.76254 14.9795 6.01259 14.1906C5.98208 14.1585 5.95658 14.1505 5.91177 14.1584C4.66097 14.3749 3.55225 14.0786 2.61437 13.2312C1.92883 12.6118 1.53646 11.8329 1.42312 10.9201C1.35944 10.4077 1.41457 9.90608 1.56565 9.41366C1.58157 9.36192 1.57774 9.32747 1.54044 9.28503C1.05079 8.72692 0.746275 8.0816 0.650467 7.35038C0.508377 6.26657 0.797126 5.29612 1.4974 4.45124C2.03628 3.80098 2.73303 3.39403 3.56198 3.20697C3.60487 3.19723 3.62212 3.17747 3.63583 3.13968C4.00815 2.11065 4.69546 1.3649 5.71043 0.923646C6.36604 0.63863 7.0532 0.556948 7.76306 0.65549C8.44005 0.749526 9.04497 1.00751 9.5753 1.43104C9.72166 1.54789 9.85299 1.6832 9.98904 1.81241C10.0179 1.83988 10.0408 1.8502 10.0838 1.84279C11.3371 1.62478 12.448 1.92127 13.3874 2.77109C14.0706 3.38923 14.4622 4.16608 14.5757 5.07607C14.6403 5.59334 14.5857 6.09972 14.4298 6.5962C14.4161 6.63966 14.4198 6.66989 14.4516 6.70637C14.9726 7.3001 15.2826 7.98742 15.3634 8.76849C15.4585 9.68836 15.2325 10.5318 14.7006 11.2919C14.2233 11.9739 13.5805 12.4424 12.7816 12.7009C12.6722 12.7362 12.5608 12.7664 12.4483 12.7902C12.3969 12.8011 12.3767 12.8247 12.3601 12.8705C12.0045 13.8488 11.3567 14.5717 10.4068 15.0249C9.89515 15.2691 9.35126 15.3823 8.67117 15.3848ZM9.00768 2.22228C8.97702 2.19728 8.95476 2.17838 8.93162 2.1608C8.02838 1.46795 6.7674 1.38205 5.78825 1.97243C4.89341 2.51194 4.42499 3.31191 4.41437 4.34994C4.40288 5.46864 4.41246 6.58763 4.41025 7.70647C4.41025 7.77566 4.42985 7.81606 4.49176 7.85022C4.7441 7.98974 4.99379 8.13421 5.24436 8.27665C5.38999 8.35935 5.53576 8.44176 5.69465 8.53172V8.4265C5.69465 7.08964 5.69524 5.75278 5.69407 4.41607C5.69392 4.21695 5.77292 4.06463 5.94803 3.96478C6.57417 3.60739 7.20089 3.25115 7.82733 2.89449C8.21807 2.67211 8.60868 2.44945 9.00768 2.22228ZM10.3046 7.46855C10.3046 7.51753 10.3046 7.54849 10.3046 7.57959C10.3046 8.91383 10.3039 10.2481 10.3054 11.5823C10.3055 11.7846 10.2244 11.9372 10.0468 12.0385C9.19767 12.5224 8.34823 13.0058 7.49893 13.4895C7.33208 13.5845 7.16508 13.6796 6.99646 13.7755C7.00515 13.7856 7.00913 13.7918 7.01459 13.7963C7.03331 13.8119 7.05203 13.8277 7.07178 13.8421C7.8117 14.3845 8.63152 14.549 9.5215 14.3179C10.7216 14.0063 11.5828 12.9074 11.5867 11.6968C11.5904 10.5563 11.587 9.41584 11.5887 8.27534C11.5887 8.21575 11.5666 8.18465 11.5162 8.15631C11.2624 8.01445 11.0106 7.86897 10.7579 7.72508C10.6119 7.64194 10.4654 7.55968 10.3046 7.46855ZM2.42482 10.0295C2.41981 10.0508 2.41657 10.0619 2.4148 10.0734C2.33712 10.5751 2.39667 11.0605 2.58622 11.5323C3.06423 12.7222 4.3678 13.4431 5.64616 13.2251C6.03101 13.1596 6.38078 13.0123 6.7167 12.8192C7.65915 12.277 8.60558 11.7415 9.55157 11.2051C9.60301 11.1759 9.62261 11.1438 9.62232 11.085C9.61981 10.6466 9.62099 10.2084 9.6207 9.77004C9.6207 9.75231 9.61745 9.73458 9.6151 9.71074C9.59048 9.7228 9.57294 9.73036 9.55643 9.73966C9.02345 10.0431 8.49046 10.3466 7.95748 10.6502C7.30348 11.0227 6.64934 11.3951 5.99534 11.7675C5.82333 11.8654 5.65162 11.8662 5.47887 11.7678C4.73791 11.3457 3.99651 10.9241 3.2554 10.5023C2.98154 10.3465 2.70797 10.1907 2.42482 10.0295ZM6.37843 6.29186C6.40864 6.27718 6.42824 6.26889 6.44652 6.25843C6.98157 5.95379 7.51647 5.64886 8.05152 5.34408C8.70345 4.97288 9.35524 4.60167 10.0075 4.23091C10.177 4.13454 10.3472 4.13411 10.5173 4.23091C11.5153 4.79919 12.5135 5.36748 13.5117 5.93562C13.5313 5.94682 13.5522 5.95583 13.5744 5.96687C13.666 5.53666 13.6122 4.97884 13.4388 4.53133C12.8246 2.94463 10.948 2.26574 9.44544 3.09128C8.93781 3.37019 8.43814 3.66291 7.93478 3.94938C7.43791 4.23236 6.94074 4.5149 6.4452 4.79992C6.41631 4.81663 6.38123 4.85486 6.38093 4.88335C6.37695 5.34815 6.37843 5.81325 6.37843 6.29186ZM7.31336 10.236C6.78568 9.93515 6.26994 9.64112 5.7542 9.34724C5.07058 8.95772 4.38755 8.5669 3.70274 8.17956C3.51275 8.07201 3.42933 7.91489 3.42962 7.70197C3.43139 6.58806 3.4305 5.47416 3.4305 4.36041C3.4305 4.32683 3.4305 4.29326 3.4305 4.25082C3.39056 4.26579 3.35651 4.27771 3.32305 4.29137C2.18059 4.7585 1.47795 5.91658 1.6168 7.13135C1.72233 8.05457 2.18722 8.76049 2.9976 9.23678C3.50523 9.53502 4.01979 9.82178 4.53141 10.1133C5.00484 10.3831 5.47901 10.6518 5.95157 10.9232C6.00596 10.9544 6.04767 10.9598 6.1053 10.9257C6.31313 10.8021 6.52479 10.6848 6.73498 10.5652C6.92364 10.4578 7.11216 10.3504 7.31336 10.236ZM8.68591 5.76427C9.12014 6.01178 9.54258 6.25247 9.96501 6.49316C10.7421 6.93601 11.5184 7.37989 12.2967 7.82071C12.4867 7.92826 12.5702 8.08538 12.5698 8.2983C12.568 9.41221 12.5689 10.5261 12.5689 11.6399V11.7496C12.6089 11.7345 12.6429 11.7227 12.6764 11.709C13.8191 11.2418 14.5215 10.0841 14.3826 8.86892C14.2771 7.94585 13.8121 7.23978 13.0018 6.76364C12.4942 6.4654 11.9796 6.17864 11.468 5.88708C10.9946 5.61732 10.5205 5.34859 10.048 5.07738C9.99361 5.04613 9.9519 5.04061 9.89426 5.07476C9.68644 5.19845 9.47477 5.31559 9.26459 5.43536C9.07592 5.54276 8.88711 5.64988 8.68591 5.76427ZM9.62099 8.00748C9.62099 7.72173 9.61952 7.43599 9.62232 7.15025C9.62276 7.09792 9.60817 7.06842 9.56115 7.04197C9.0544 6.75637 8.54942 6.46787 8.04267 6.18241C8.0213 6.17035 7.98121 6.16875 7.96028 6.18053C7.44926 6.46845 6.93986 6.75913 6.42928 7.04778C6.38977 7.07002 6.37725 7.09502 6.37739 7.13906C6.37901 7.71301 6.37901 8.28697 6.37739 8.86078C6.37739 8.90482 6.38963 8.92982 6.42913 8.9522C6.93971 9.2407 7.44911 9.53153 7.95998 9.81975C7.97988 9.83094 8.01703 9.83268 8.03634 9.82178C8.54927 9.5324 9.06059 9.24027 9.57324 8.95031C9.61053 8.92924 9.62217 8.90555 9.62202 8.8647C9.6204 8.57896 9.62099 8.29322 9.62099 8.00748Z" fill="#383E40"/>
</svg>
