<svg width="16" height="16" viewBox="0 0 16 16" fill="none" xmlns="http://www.w3.org/2000/svg">
<path d="M6.66669 10.6668H9.33335M5.86669 14.6668H10.1334C11.2535 14.6668 11.8135 14.6668 12.2413 14.4488C12.6177 14.2571 12.9236 13.9511 13.1154 13.5748C13.3334 13.147 13.3334 12.5869 13.3334 11.4668V4.5335C13.3334 3.41339 13.3334 2.85334 13.1154 2.42552C12.9236 2.04919 12.6177 1.74323 12.2413 1.55148C11.8135 1.3335 11.2535 1.3335 10.1334 1.3335H5.86669C4.74658 1.3335 4.18653 1.3335 3.75871 1.55148C3.38238 1.74323 3.07642 2.04919 2.88467 2.42552C2.66669 2.85334 2.66669 3.41339 2.66669 4.5335V11.4668C2.66669 12.5869 2.66669 13.147 2.88467 13.5748C3.07642 13.9511 3.38238 14.2571 3.75871 14.4488C4.18653 14.6668 4.74658 14.6668 5.86669 14.6668ZM10 6.00016C10 7.10473 9.10459 8.00016 8.00002 8.00016C6.89545 8.00016 6.00002 7.10473 6.00002 6.00016C6.00002 4.89559 6.89545 4.00016 8.00002 4.00016C9.10459 4.00016 10 4.89559 10 6.00016Z" stroke="#383E40" stroke-width="1.5" stroke-linecap="round" stroke-linejoin="round"/>
</svg>
