<svg width="16" height="16" viewBox="0 0 16 16" fill="none" xmlns="http://www.w3.org/2000/svg">
<path d="M14.6666 7.33325V5.46659C14.6666 4.71985 14.6666 4.34648 14.5213 4.06126C14.3934 3.81038 14.1895 3.60641 13.9386 3.47858C13.6534 3.33325 13.28 3.33325 12.5333 3.33325H3.46659C2.71985 3.33325 2.34648 3.33325 2.06126 3.47858C1.81038 3.60641 1.60641 3.81038 1.47858 4.06126C1.33325 4.34648 1.33325 4.71985 1.33325 5.46659V7.86659C1.33325 8.61332 1.33325 8.98669 1.47858 9.27191C1.60641 9.52279 1.81038 9.72676 2.06126 9.85459C2.34648 9.99992 2.71985 9.99992 3.46659 9.99992H7.33325M7.99992 6.66659H8.00325M11.3333 6.66659H11.3366M4.66659 6.66659H4.66992M12.8333 11.3333V10.1666C12.8333 9.52225 12.3109 8.99992 11.6666 8.99992C11.0223 8.99992 10.4999 9.52225 10.4999 10.1666V11.3333M8.16659 6.66659C8.16659 6.75863 8.09197 6.83325 7.99992 6.83325C7.90787 6.83325 7.83325 6.75863 7.83325 6.66659C7.83325 6.57454 7.90787 6.49992 7.99992 6.49992C8.09197 6.49992 8.16659 6.57454 8.16659 6.66659ZM11.4999 6.66659C11.4999 6.75863 11.4253 6.83325 11.3333 6.83325C11.2412 6.83325 11.1666 6.75863 11.1666 6.66659C11.1666 6.57454 11.2412 6.49992 11.3333 6.49992C11.4253 6.49992 11.4999 6.57454 11.4999 6.66659ZM4.83325 6.66659C4.83325 6.75863 4.75863 6.83325 4.66659 6.83325C4.57454 6.83325 4.49992 6.75863 4.49992 6.66659C4.49992 6.57454 4.57454 6.49992 4.66659 6.49992C4.75863 6.49992 4.83325 6.57454 4.83325 6.66659ZM10.3999 13.9999H12.9333C13.3066 13.9999 13.4933 13.9999 13.6359 13.9273C13.7614 13.8633 13.8633 13.7614 13.9273 13.6359C13.9999 13.4933 13.9999 13.3066 13.9999 12.9333V12.3999C13.9999 12.0266 13.9999 11.8399 13.9273 11.6973C13.8633 11.5718 13.7614 11.4698 13.6359 11.4059C13.4933 11.3333 13.3066 11.3333 12.9333 11.3333H10.3999C10.0266 11.3333 9.83987 11.3333 9.69726 11.4059C9.57182 11.4698 9.46983 11.5718 9.40591 11.6973C9.33325 11.8399 9.33325 12.0266 9.33325 12.3999V12.9333C9.33325 13.3066 9.33325 13.4933 9.40591 13.6359C9.46983 13.7614 9.57182 13.8633 9.69726 13.9273C9.83987 13.9999 10.0266 13.9999 10.3999 13.9999Z" stroke="#383E40" stroke-width="1.5" stroke-linecap="round" stroke-linejoin="round"/>
</svg>
