<svg width="16" height="16" viewBox="0 0 16 16" fill="none" xmlns="http://www.w3.org/2000/svg">
<path d="M8.00016 7.99984H8.0035M11.3335 7.99984H11.3368M4.66683 7.99984H4.67016M3.46683 4.6665H12.5335C13.2802 4.6665 13.6536 4.6665 13.9388 4.81183C14.1897 4.93966 14.3937 5.14363 14.5215 5.39452C14.6668 5.67973 14.6668 6.0531 14.6668 6.79984V9.19984C14.6668 9.94657 14.6668 10.3199 14.5215 10.6052C14.3937 10.856 14.1897 11.06 13.9388 11.1878C13.6536 11.3332 13.2802 11.3332 12.5335 11.3332H3.46683C2.72009 11.3332 2.34672 11.3332 2.06151 11.1878C1.81063 11.06 1.60665 10.856 1.47882 10.6052C1.3335 10.3199 1.3335 9.94657 1.3335 9.19984V6.79984C1.3335 6.0531 1.3335 5.67973 1.47882 5.39452C1.60665 5.14363 1.81063 4.93966 2.06151 4.81183C2.34672 4.6665 2.72009 4.6665 3.46683 4.6665ZM8.16683 7.99984C8.16683 8.09188 8.09221 8.1665 8.00016 8.1665C7.90812 8.1665 7.8335 8.09188 7.8335 7.99984C7.8335 7.90779 7.90812 7.83317 8.00016 7.83317C8.09221 7.83317 8.16683 7.90779 8.16683 7.99984ZM11.5002 7.99984C11.5002 8.09188 11.4255 8.1665 11.3335 8.1665C11.2414 8.1665 11.1668 8.09188 11.1668 7.99984C11.1668 7.90779 11.2414 7.83317 11.3335 7.83317C11.4255 7.83317 11.5002 7.90779 11.5002 7.99984ZM4.8335 7.99984C4.8335 8.09188 4.75888 8.1665 4.66683 8.1665C4.57478 8.1665 4.50016 8.09188 4.50016 7.99984C4.50016 7.90779 4.57478 7.83317 4.66683 7.83317C4.75888 7.83317 4.8335 7.90779 4.8335 7.99984Z" stroke="#383E40" stroke-width="1.5" stroke-linecap="round" stroke-linejoin="round"/>
</svg>
