<svg width="16" height="16" viewBox="0 0 16 16" fill="none" xmlns="http://www.w3.org/2000/svg">
<path d="M11.9999 1.3335L14.6666 4.00016M1.33325 14.6668L2.18419 11.5467C2.2397 11.3432 2.26746 11.2414 2.31007 11.1465C2.34791 11.0622 2.3944 10.9821 2.4488 10.9074C2.51006 10.8234 2.58466 10.7488 2.73385 10.5996L9.6228 3.71062C9.7548 3.57861 9.8208 3.51261 9.89691 3.48788C9.96386 3.46613 10.036 3.46613 10.1029 3.48788C10.179 3.51261 10.245 3.57861 10.377 3.71062L12.2895 5.62304C12.4215 5.75505 12.4875 5.82105 12.5122 5.89716C12.534 5.9641 12.534 6.03622 12.5122 6.10317C12.4875 6.17928 12.4215 6.24528 12.2895 6.37729L5.40052 13.2662C5.25133 13.4154 5.17673 13.49 5.09264 13.5513C5.01798 13.6057 4.93787 13.6522 4.8536 13.69C4.75868 13.7326 4.6569 13.7604 4.45334 13.8159L1.33325 14.6668Z" stroke="#383E40" stroke-width="1.5" stroke-linecap="round" stroke-linejoin="round"/>
</svg>
