<svg width="16" height="16" viewBox="0 0 16 16" fill="none" xmlns="http://www.w3.org/2000/svg">
<path d="M9.99992 4.66683L5.88956 5.84122C5.68629 5.89929 5.58466 5.92833 5.5007 5.98292C5.42638 6.03124 5.36244 6.0939 5.31263 6.16723C5.25636 6.25007 5.22527 6.35109 5.1631 6.55315L2.66659 14.6668M2.66659 14.6668L10.7803 12.1703C10.9823 12.1081 11.0834 12.0771 11.1662 12.0208C11.2395 11.971 11.3022 11.907 11.3505 11.8327C11.4051 11.7488 11.4341 11.6471 11.4922 11.4439L12.6666 7.3335M2.66659 14.6668L7.05725 10.2761M3.33325 5.3335V1.3335M1.33325 3.3335H5.33325M14.579 5.24592L12.0875 2.75441C11.8235 2.4904 11.6915 2.35839 11.5393 2.30893C11.4054 2.26543 11.2611 2.26543 11.1272 2.30893C10.975 2.35839 10.843 2.4904 10.579 2.75441L10.0875 3.24592C9.82349 3.50993 9.69148 3.64193 9.64202 3.79415C9.59852 3.92805 9.59852 4.07228 9.64202 4.20617C9.69148 4.35839 9.82349 4.4904 10.0875 4.75441L12.579 7.24592C12.843 7.50993 12.975 7.64193 13.1272 7.69139C13.2611 7.7349 13.4054 7.7349 13.5393 7.69139C13.6915 7.64193 13.8235 7.50993 14.0875 7.24591L14.579 6.75441C14.843 6.4904 14.975 6.35839 15.0245 6.20617C15.068 6.07228 15.068 5.92805 15.0245 5.79415C14.975 5.64193 14.843 5.50993 14.579 5.24592ZM7.99992 8.00016C8.7363 8.00016 9.33325 8.59712 9.33325 9.3335C9.33325 10.0699 8.7363 10.6668 7.99992 10.6668C7.26354 10.6668 6.66659 10.0699 6.66659 9.3335C6.66659 8.59712 7.26354 8.00016 7.99992 8.00016Z" stroke="#383E40" stroke-width="1.5" stroke-linecap="round" stroke-linejoin="round"/>
</svg>
