<svg width="16" height="16" viewBox="0 0 16 16" fill="none" xmlns="http://www.w3.org/2000/svg">
<path d="M8.66658 3.9999L4.33447 4.86632C4.09247 4.91472 3.97147 4.93892 3.87293 4.99777C3.78582 5.04979 3.71173 5.12101 3.65632 5.206C3.59363 5.30214 3.56468 5.42209 3.50677 5.66199L1.33325 14.6666M1.33325 14.6666L10.3378 12.493C10.5777 12.4351 10.6977 12.4062 10.7938 12.3435C10.8788 12.2881 10.95 12.214 11.002 12.1269C11.0609 12.0283 11.0851 11.9073 11.1335 11.6654L11.9999 7.33323M1.33325 14.6666L6.39058 9.60923M13.9123 5.24565L10.7542 2.08748C10.4902 1.82347 10.3581 1.69146 10.2059 1.642C10.072 1.5985 9.9278 1.5985 9.79391 1.642C9.64169 1.69146 9.50968 1.82347 9.24567 2.08748L8.75417 2.57899C8.49015 2.843 8.35815 2.975 8.30869 3.12722C8.26518 3.26112 8.26518 3.40535 8.30869 3.53924C8.35815 3.69146 8.49015 3.82347 8.75416 4.08748L11.9123 7.24565C12.1763 7.50966 12.3084 7.64167 12.4606 7.69113C12.5945 7.73463 12.7387 7.73463 12.8726 7.69113C13.0248 7.64167 13.1568 7.50966 13.4208 7.24565L13.9123 6.75415C14.1763 6.49014 14.3084 6.35813 14.3578 6.20591C14.4013 6.07201 14.4013 5.92778 14.3578 5.79389C14.3084 5.64167 14.1763 5.50966 13.9123 5.24565ZM7.33325 7.33323C8.06963 7.33323 8.66658 7.93019 8.66658 8.66657C8.66658 9.40295 8.06963 9.9999 7.33325 9.9999C6.59687 9.9999 5.99992 9.40295 5.99992 8.66657C5.99992 7.93019 6.59687 7.33323 7.33325 7.33323Z" stroke="#383E40" stroke-width="1.5" stroke-linecap="round" stroke-linejoin="round"/>
</svg>
