<svg width="16" height="16" viewBox="0 0 16 16" fill="none" xmlns="http://www.w3.org/2000/svg">
<path d="M8.00016 11.6666H8.00683M5.46683 14.6666H10.5335C11.2802 14.6666 11.6536 14.6666 11.9388 14.5213C12.1897 14.3934 12.3937 14.1895 12.5215 13.9386C12.6668 13.6534 12.6668 13.28 12.6668 12.5333V3.46659C12.6668 2.71985 12.6668 2.34648 12.5215 2.06126C12.3937 1.81038 12.1897 1.60641 11.9388 1.47858C11.6536 1.33325 11.2802 1.33325 10.5335 1.33325H5.46683C4.72009 1.33325 4.34672 1.33325 4.06151 1.47858C3.81063 1.60641 3.60665 1.81038 3.47882 2.06126C3.3335 2.34648 3.3335 2.71985 3.3335 3.46659V12.5333C3.3335 13.28 3.3335 13.6534 3.47882 13.9386C3.60665 14.1895 3.81063 14.3934 4.06151 14.5213C4.34672 14.6666 4.72009 14.6666 5.46683 14.6666ZM8.3335 11.6666C8.3335 11.8507 8.18426 11.9999 8.00016 11.9999C7.81607 11.9999 7.66683 11.8507 7.66683 11.6666C7.66683 11.4825 7.81607 11.3333 8.00016 11.3333C8.18426 11.3333 8.3335 11.4825 8.3335 11.6666Z" stroke="#383E40" stroke-width="1.5" stroke-linecap="round" stroke-linejoin="round"/>
</svg>
