<svg width="16" height="16" viewBox="0 0 16 16" fill="none" xmlns="http://www.w3.org/2000/svg">
<path d="M9.36612 4.00004C10.0173 4.12708 10.6157 4.44555 11.0848 4.91466C11.5539 5.38378 11.8724 5.98222 11.9994 6.63337M9.36612 1.33337C10.719 1.48366 11.9805 2.08949 12.9436 3.05138C13.9067 4.01327 14.5141 5.27405 14.6661 6.62671M6.81744 9.24209C6.01638 8.44103 5.38386 7.53527 4.91986 6.56886C4.87995 6.48573 4.85999 6.44417 4.84466 6.39158C4.79018 6.20467 4.82931 5.97517 4.94265 5.81688C4.97455 5.77234 5.01265 5.73424 5.08886 5.65803C5.32193 5.42496 5.43847 5.30842 5.51466 5.19124C5.80199 4.74931 5.80199 4.17959 5.51466 3.73766C5.43847 3.62048 5.32193 3.50394 5.08886 3.27087L4.95895 3.14096C4.60465 2.78666 4.4275 2.60951 4.23725 2.51329C3.85888 2.32191 3.41203 2.32191 3.03366 2.51329C2.8434 2.60952 2.66626 2.78666 2.31196 3.14096L2.20687 3.24605C1.85379 3.59913 1.67725 3.77567 1.54242 4.01569C1.3928 4.28203 1.28523 4.69569 1.28614 5.00117C1.28696 5.27647 1.34036 5.46462 1.44716 5.84092C2.02114 7.86318 3.10413 9.77142 4.69611 11.3634C6.2881 12.9554 8.19634 14.0384 10.2186 14.6124C10.5949 14.7192 10.7831 14.7726 11.0584 14.7734C11.3638 14.7743 11.7775 14.6667 12.0438 14.5171C12.2839 14.3823 12.4604 14.2057 12.8135 13.8526L12.9186 13.7476C13.2729 13.3933 13.45 13.2161 13.5462 13.0259C13.7376 12.6475 13.7376 12.2006 13.5462 11.8223C13.45 11.632 13.2729 11.4549 12.9186 11.1006L12.7887 10.9707C12.5556 10.7376 12.439 10.6211 12.3219 10.5449C11.8799 10.2575 11.3102 10.2575 10.8683 10.5449C10.7511 10.6211 10.6346 10.7376 10.4015 10.9707C10.3253 11.0469 10.2872 11.085 10.2426 11.1169C10.0844 11.2302 9.85485 11.2693 9.66795 11.2149C9.61535 11.1995 9.57379 11.1796 9.49066 11.1397C8.52425 10.6757 7.61849 10.0431 6.81744 9.24209Z" stroke="#383E40" stroke-width="1.5" stroke-linecap="round" stroke-linejoin="round"/>
</svg>
