<svg width="16" height="16" viewBox="0 0 16 16" fill="none" xmlns="http://www.w3.org/2000/svg">
<path d="M9.36636 4.00004C10.0175 4.12708 10.616 4.44555 11.0851 4.91466C11.5542 5.38378 11.8726 5.98222 11.9997 6.63337M9.36636 1.33337C10.7192 1.48366 11.9808 2.08949 12.9439 3.05138C13.907 4.01327 14.5144 5.27405 14.6664 6.62671M6.81768 9.24209C6.01663 8.44103 5.3841 7.53527 4.9201 6.56886C4.88019 6.48573 4.86024 6.44417 4.84491 6.39158C4.79042 6.20467 4.82956 5.97517 4.9429 5.81688C4.97479 5.77234 5.0129 5.73424 5.0891 5.65803C5.32217 5.42496 5.43871 5.30842 5.5149 5.19124C5.80223 4.74931 5.80223 4.17959 5.5149 3.73766C5.43871 3.62048 5.32218 3.50394 5.0891 3.27087L4.95919 3.14096C4.6049 2.78666 4.42775 2.60951 4.23749 2.51329C3.85912 2.32191 3.41228 2.32191 3.0339 2.51329C2.84365 2.60952 2.6665 2.78666 2.31221 3.14096L2.20712 3.24605C1.85403 3.59913 1.67749 3.77567 1.54266 4.01569C1.39305 4.28203 1.28547 4.69569 1.28638 5.00117C1.2872 5.27647 1.3406 5.46462 1.44741 5.84092C2.02139 7.86318 3.10437 9.77142 4.69636 11.3634C6.28835 12.9554 8.19659 14.0384 10.2189 14.6124C10.5951 14.7192 10.7833 14.7726 11.0586 14.7734C11.3641 14.7743 11.7777 14.6667 12.0441 14.5171C12.2841 14.3823 12.4606 14.2057 12.8137 13.8526L12.9188 13.7476C13.2731 13.3933 13.4503 13.2161 13.5465 13.0259C13.7379 12.6475 13.7379 12.2006 13.5465 11.8223C13.4503 11.632 13.2731 11.4549 12.9188 11.1006L12.7889 10.9707C12.5558 10.7376 12.4393 10.6211 12.3221 10.5449C11.8802 10.2575 11.3105 10.2575 10.8685 10.5449C10.7513 10.6211 10.6348 10.7376 10.4017 10.9707C10.3255 11.0469 10.2874 11.085 10.2429 11.1169C10.0846 11.2302 9.85509 11.2693 9.66819 11.2149C9.6156 11.1995 9.57403 11.1796 9.49091 11.1397C8.52449 10.6757 7.61873 10.0431 6.81768 9.24209Z" stroke="#383E40" stroke-width="1.5" stroke-linecap="round" stroke-linejoin="round"/>
</svg>
