<svg width="16" height="16" viewBox="0 0 16 16" fill="none" xmlns="http://www.w3.org/2000/svg">
<path d="M9.99942 2.66667V6M9.99942 6L13.3327 6M9.99942 6L13.9994 2M6.81744 9.24205C6.01638 8.44099 5.38386 7.53523 4.91986 6.56882C4.87995 6.48569 4.85999 6.44413 4.84466 6.39154C4.79018 6.20463 4.82931 5.97513 4.94265 5.81684C4.97455 5.7723 5.01265 5.7342 5.08886 5.65799C5.32193 5.42492 5.43847 5.30838 5.51466 5.1912C5.80199 4.74927 5.80199 4.17955 5.51466 3.73762C5.43847 3.62044 5.32193 3.5039 5.08886 3.27083L4.95895 3.14092C4.60465 2.78662 4.4275 2.60947 4.23725 2.51324C3.85888 2.32186 3.41203 2.32186 3.03366 2.51324C2.8434 2.60947 2.66626 2.78662 2.31196 3.14092L2.20687 3.24601C1.85379 3.59909 1.67725 3.77563 1.54242 4.01565C1.3928 4.28199 1.28523 4.69565 1.28614 5.00113C1.28696 5.27643 1.34036 5.46458 1.44716 5.84087C2.02114 7.86314 3.10413 9.77138 4.69611 11.3634C6.2881 12.9554 8.19634 14.0383 10.2186 14.6123C10.5949 14.7191 10.7831 14.7725 11.0584 14.7733C11.3638 14.7743 11.7775 14.6667 12.0438 14.5171C12.2839 14.3822 12.4604 14.2057 12.8135 13.8526L12.9186 13.7475C13.2729 13.3932 13.45 13.2161 13.5462 13.0258C13.7376 12.6474 13.7376 12.2006 13.5462 11.8222C13.45 11.632 13.2729 11.4548 12.9186 11.1005L12.7887 10.9706C12.5556 10.7376 12.439 10.621 12.3219 10.5448C11.8799 10.2575 11.3102 10.2575 10.8683 10.5448C10.7511 10.621 10.6346 10.7376 10.4015 10.9706C10.3253 11.0468 10.2872 11.0849 10.2426 11.1168C10.0844 11.2302 9.85485 11.2693 9.66795 11.2148C9.61535 11.1995 9.57379 11.1795 9.49066 11.1396C8.52425 10.6756 7.61849 10.0431 6.81744 9.24205Z" stroke="#383E40" stroke-width="1.5" stroke-linecap="round" stroke-linejoin="round"/>
</svg>
