<svg width="21" height="12" viewBox="0 0 21 12" fill="none" xmlns="http://www.w3.org/2000/svg">
<path d="M10.5 11.292C16.0228 11.292 20.5 8.92267 20.5 6C20.5 3.07734 16.0228 0.708046 10.5 0.708046C4.97715 0.708046 0.5 3.07734 0.5 6C0.5 8.92267 4.97715 11.292 10.5 11.292Z" fill="url(#paint0_radial_567_8283)"/>
<path d="M10.5 10.8988C15.8071 10.8988 20.1094 8.70553 20.1094 6C20.1094 3.29447 15.8071 1.1012 10.5 1.1012C5.19289 1.1012 0.890625 3.29447 0.890625 6C0.890625 8.70553 5.19289 10.8988 10.5 10.8988Z" fill="#6181B6"/>
<path d="M12.4462 7.58845L12.9227 5.1194C13.0321 4.56111 12.9384 4.14436 12.6571 3.88487C12.3837 3.63325 11.9149 3.50743 11.2274 3.50743H10.3993L10.6337 2.28077C10.6415 2.23359 10.6337 2.18641 10.6024 2.14709C10.5712 2.10778 10.5321 2.09205 10.4852 2.09205H9.34461C9.26649 2.09205 9.20399 2.1471 9.18836 2.21786L8.68055 4.83632C8.63368 4.53752 8.5243 4.28589 8.3368 4.08145C8.00087 3.69615 7.47743 3.49957 6.76649 3.49957H4.57118C4.49305 3.49957 4.43055 3.55461 4.41493 3.62538L3.39149 8.94093C3.38368 8.98811 3.39149 9.03529 3.42274 9.0746C3.45399 9.11392 3.49305 9.12965 3.53993 9.12965H4.68836C4.76649 9.12965 4.82899 9.0746 4.84461 9.00383L5.09461 7.72213H5.94618C6.39149 7.72213 6.7743 7.67495 7.06336 7.58059C7.36805 7.47837 7.64149 7.31324 7.88368 7.08521C8.07899 6.90435 8.24305 6.69991 8.36805 6.47974L8.16493 7.54127C8.15711 7.58845 8.16493 7.63563 8.19618 7.67495C8.22743 7.71426 8.26649 7.72999 8.31336 7.72999H9.45399C9.53211 7.72999 9.59461 7.67495 9.61024 7.60418L10.1727 4.69478H10.954C11.2899 4.69478 11.3837 4.75769 11.4149 4.78914C11.4384 4.81273 11.4852 4.90709 11.4306 5.19803L10.9774 7.54914C10.9696 7.59632 10.9774 7.64349 11.0087 7.68281C11.0399 7.72213 11.079 7.73785 11.1259 7.73785H12.2977C12.3681 7.71426 12.4306 7.65922 12.4462 7.58845ZM7.16493 5.54401C7.09462 5.91358 6.9618 6.18093 6.76649 6.33033C6.57118 6.47974 6.25086 6.55837 5.82899 6.55837H5.32118L5.68836 4.65547H6.34462C6.82899 4.65547 7.0243 4.75769 7.10243 4.84418C7.20399 4.97 7.22743 5.21376 7.16493 5.54401Z" fill="white"/>
<path d="M17.3202 4.08124C16.9843 3.69594 16.4608 3.49936 15.7499 3.49936H13.5389C13.4608 3.49936 13.3983 3.5544 13.3827 3.62517L12.3593 8.93285C12.3515 8.98003 12.3593 9.02721 12.3905 9.06653C12.4218 9.10584 12.4608 9.12157 12.5077 9.12157H13.6561C13.7343 9.12157 13.7968 9.06653 13.8124 8.99576L14.0624 7.71405H14.914C15.3593 7.71405 15.7421 7.66687 16.0311 7.57251C16.3358 7.47029 16.6093 7.30516 16.8515 7.07713C17.0546 6.88841 17.2264 6.67611 17.3514 6.44807C17.4764 6.22004 17.5702 5.96841 17.6249 5.6932C17.7577 5.0091 17.6561 4.4744 17.3202 4.08124ZM16.1249 5.5438C16.0546 5.91337 15.9218 6.18072 15.7264 6.33012C15.5311 6.47952 15.2108 6.55816 14.7889 6.55816H14.2811L14.6483 4.65525H15.3046C15.789 4.65525 15.9843 4.75748 16.0624 4.84397C16.1718 4.96978 16.1952 5.21354 16.1249 5.5438Z" fill="white"/>
<path d="M6.34375 4.49841C6.78125 4.49841 7.07031 4.57705 7.21875 4.74217C7.36719 4.9073 7.39844 5.18251 7.32031 5.57568C7.24219 5.98456 7.08594 6.28337 6.85938 6.45636C6.63281 6.62935 6.28906 6.71584 5.82813 6.71584H5.13281L5.5625 4.49841H6.34375ZM3.54688 8.96473H4.69531L4.96875 7.55721H5.95313C6.39063 7.55721 6.74219 7.51003 7.02344 7.41567C7.30469 7.32131 7.55469 7.17191 7.78906 6.95174C7.98438 6.77089 8.14063 6.57431 8.25781 6.362C8.375 6.14969 8.46094 5.9138 8.50781 5.65431C8.63281 5.02525 8.53906 4.53773 8.23438 4.18388C7.92969 3.83004 7.44531 3.65705 6.78125 3.65705H4.57031L3.54688 8.96473Z" fill="#000004"/>
<path d="M9.35254 2.24917H10.4932L10.2197 3.65669H11.2354C11.876 3.65669 12.3135 3.76677 12.5557 3.99481C12.7979 4.22284 12.8682 4.58455 12.7744 5.0878L12.2979 7.55685H11.1416L11.5947 5.20574C11.6494 4.93839 11.626 4.75754 11.54 4.66318C11.4541 4.56882 11.2588 4.51378 10.9697 4.51378H10.0557L9.46973 7.55685H8.3291L9.35254 2.24917Z" fill="#000004"/>
<path d="M15.3057 4.49841C15.7432 4.49841 16.0322 4.57705 16.1807 4.74217C16.3291 4.9073 16.3604 5.18251 16.2822 5.57568C16.2041 5.98456 16.0479 6.28337 15.8213 6.45636C15.5947 6.62935 15.251 6.71584 14.79 6.71584H14.0947L14.5244 4.49841H15.3057ZM12.5088 8.96473H13.6572L13.9307 7.55721H14.915C15.3525 7.55721 15.7041 7.51003 15.9854 7.41567C16.2666 7.32131 16.5166 7.17191 16.751 6.95174C16.9463 6.77089 17.1025 6.57431 17.2197 6.362C17.3369 6.14969 17.4229 5.9138 17.4697 5.65431C17.5947 5.02525 17.501 4.53773 17.1963 4.18388C16.8916 3.83004 16.4072 3.65705 15.7432 3.65705H13.5322L12.5088 8.96473Z" fill="#000004"/>
<defs>
<radialGradient id="paint0_radial_567_8283" cx="0" cy="0" r="1" gradientUnits="userSpaceOnUse" gradientTransform="translate(6.50404 2.56909) scale(13.1324 13.2177)">
<stop stop-color="white"/>
<stop offset="0.5" stop-color="#4C6B97"/>
<stop offset="1" stop-color="#231F20"/>
</radialGradient>
</defs>
</svg>
