<svg width="16" height="16" viewBox="0 0 16 16" fill="none" xmlns="http://www.w3.org/2000/svg">
<path d="M8.00031 10L8.00031 14.6667M5.33364 4.87213V6.29254C5.33364 6.43122 5.33364 6.50056 5.32003 6.56688C5.30795 6.62572 5.28798 6.68266 5.26065 6.73615C5.22985 6.79645 5.18653 6.85059 5.0999 6.95888L4.05338 8.26703C3.60956 8.82181 3.38764 9.0992 3.38739 9.33265C3.38717 9.53568 3.47948 9.72774 3.63816 9.8544C3.82061 10 4.17584 10 4.88631 10H11.1143C11.8248 10 12.18 10 12.3625 9.8544C12.5211 9.72774 12.6134 9.53568 12.6132 9.33265C12.613 9.0992 12.3911 8.82181 11.9472 8.26703L10.9007 6.95888C10.8141 6.85059 10.7708 6.79645 10.74 6.73615C10.7126 6.68266 10.6927 6.62572 10.6806 6.56688C10.667 6.50056 10.667 6.43122 10.667 6.29254V4.87213C10.667 4.79538 10.667 4.757 10.6713 4.71916C10.6752 4.68554 10.6816 4.65226 10.6905 4.61962C10.7005 4.58287 10.7148 4.54724 10.7433 4.47598L11.4152 2.79619C11.6112 2.30613 11.7092 2.0611 11.6683 1.8644C11.6326 1.69239 11.5304 1.54145 11.384 1.44438C11.2165 1.33337 10.9526 1.33337 10.4248 1.33337H5.57581C5.048 1.33337 4.7841 1.33337 4.61665 1.44438C4.47021 1.54145 4.36802 1.69239 4.33227 1.8644C4.2914 2.0611 4.38941 2.30613 4.58543 2.79619L5.25735 4.47598C5.28585 4.54724 5.30011 4.58287 5.31013 4.61962C5.31904 4.65226 5.32545 4.68554 5.3293 4.71916C5.33364 4.757 5.33364 4.79538 5.33364 4.87213Z" stroke="#383E40" stroke-width="1.5" stroke-linecap="round" stroke-linejoin="round"/>
</svg>
