<svg width="16" height="16" viewBox="0 0 16 16" fill="none" xmlns="http://www.w3.org/2000/svg">
<path d="M11.8298 1.875C12.473 1.21068 13.5357 1.20208 14.1895 1.85591C14.8254 2.49183 14.8373 3.51915 14.2162 4.16955L12.3637 6.10939C12.2185 6.26144 12.1459 6.33746 12.1012 6.4265C12.0616 6.50532 12.038 6.59122 12.0319 6.67922C12.0249 6.77862 12.0485 6.88105 12.0958 7.08591L13.2477 12.0776C13.2963 12.2879 13.3205 12.393 13.3127 12.4947C13.3058 12.5847 13.2806 12.6724 13.2388 12.7524C13.1915 12.8428 13.1152 12.9191 12.9626 13.0717L12.7154 13.3189C12.3113 13.723 12.1093 13.925 11.9025 13.9616C11.7219 13.9935 11.5362 13.9497 11.3889 13.8404C11.2203 13.7152 11.13 13.4441 10.9493 12.9019L9.60943 8.88243L7.37921 11.1126C7.24609 11.2458 7.17953 11.3123 7.135 11.3907C7.09556 11.4602 7.06891 11.5361 7.05633 11.615C7.04213 11.704 7.05253 11.7976 7.07332 11.9847L7.19579 13.0869C7.21658 13.2741 7.22698 13.3676 7.21278 13.4566C7.2002 13.5355 7.17355 13.6115 7.13411 13.6809C7.08958 13.7593 7.02302 13.8259 6.8899 13.959L6.75823 14.0907C6.44285 14.406 6.28517 14.5637 6.10993 14.6094C5.95624 14.6494 5.79329 14.6333 5.65043 14.5639C5.48756 14.4847 5.36386 14.2992 5.11646 13.9281L4.07091 12.3598C4.02671 12.2935 4.00461 12.2603 3.97895 12.2302C3.95616 12.2035 3.9313 12.1787 3.90459 12.1559C3.87452 12.1302 3.84137 12.1081 3.77507 12.0639L2.20675 11.0184C1.83565 10.771 1.6501 10.6473 1.57095 10.4844C1.50153 10.3415 1.4854 10.1786 1.52545 10.0249C1.57112 9.84967 1.72881 9.69198 2.04418 9.37661L2.17585 9.24494C2.30898 9.11181 2.37554 9.04525 2.45392 9.00073C2.52337 8.96128 2.59933 8.93463 2.6782 8.92206C2.76722 8.90786 2.86078 8.91825 3.04789 8.93904L4.15015 9.06152C4.33727 9.08231 4.43082 9.0927 4.51985 9.0785C4.59871 9.06592 4.67468 9.03928 4.74412 8.99983C4.82251 8.95531 4.88907 8.88875 5.02219 8.75562L7.25241 6.52541L3.23289 5.18557C2.69074 5.00485 2.41966 4.91449 2.29446 4.74589C2.18514 4.59866 2.14129 4.4129 2.17323 4.23233C2.20981 4.02553 2.41185 3.82349 2.81595 3.41939L3.06313 3.17221C3.21573 3.01961 3.29202 2.94332 3.38242 2.89606C3.46243 2.85423 3.5501 2.82908 3.64011 2.82215C3.74181 2.81432 3.84695 2.83858 4.05723 2.88711L9.02999 4.03467C9.23662 4.08235 9.33994 4.10619 9.43969 4.0991C9.536 4.09225 9.62967 4.06456 9.71423 4.01795C9.80181 3.96968 9.87556 3.8935 10.0231 3.74114L11.8298 1.875Z" stroke="#383E40" stroke-width="1.5" stroke-linecap="round" stroke-linejoin="round"/>
</svg>
