<svg width="16" height="16" viewBox="0 0 16 16" fill="none" xmlns="http://www.w3.org/2000/svg">
<path d="M11.8299 1.875C12.473 1.21068 13.5357 1.20208 14.1896 1.85591C14.8255 2.49183 14.8373 3.51915 14.2162 4.16955L12.3638 6.10939C12.2186 6.26144 12.146 6.33746 12.1012 6.4265C12.0616 6.50532 12.0381 6.59122 12.0319 6.67922C12.0249 6.77862 12.0486 6.88105 12.0959 7.08591L13.2478 12.0776C13.2963 12.2879 13.3206 12.393 13.3127 12.4947C13.3058 12.5847 13.2807 12.6724 13.2388 12.7524C13.1916 12.8428 13.1153 12.9191 12.9627 13.0717L12.7155 13.3189C12.3114 13.723 12.1094 13.925 11.9026 13.9616C11.722 13.9935 11.5362 13.9497 11.389 13.8404C11.2204 13.7152 11.13 13.4441 10.9493 12.9019L9.60949 8.88243L7.37928 11.1126C7.24615 11.2458 7.17959 11.3123 7.13506 11.3907C7.09562 11.4602 7.06897 11.5361 7.05639 11.615C7.04219 11.704 7.05259 11.7976 7.07338 11.9847L7.19585 13.0869C7.21664 13.2741 7.22704 13.3676 7.21284 13.4566C7.20026 13.5355 7.17361 13.6115 7.13417 13.6809C7.08964 13.7593 7.02308 13.8259 6.88996 13.959L6.75829 14.0907C6.44291 14.406 6.28523 14.5637 6.11 14.6094C5.9563 14.6494 5.79335 14.6333 5.65049 14.5639C5.48762 14.4847 5.36392 14.2992 5.11652 13.9281L4.07097 12.3598C4.02677 12.2935 4.00467 12.2603 3.97901 12.2302C3.95622 12.2035 3.93136 12.1787 3.90465 12.1559C3.87458 12.1302 3.84143 12.1081 3.77513 12.0639L2.20681 11.0184C1.83571 10.771 1.65016 10.6473 1.57102 10.4844C1.5016 10.3415 1.48546 10.1786 1.52552 10.0249C1.57118 9.84967 1.72887 9.69198 2.04424 9.37661L2.17591 9.24494C2.30904 9.11181 2.3756 9.04525 2.45398 9.00073C2.52343 8.96128 2.59939 8.93463 2.67826 8.92206C2.76728 8.90786 2.86084 8.91825 3.04795 8.93904L4.15021 9.06152C4.33733 9.08231 4.43088 9.0927 4.51991 9.0785C4.59877 9.06592 4.67474 9.03928 4.74418 8.99983C4.82257 8.95531 4.88913 8.88875 5.02225 8.75562L7.25247 6.52541L3.23295 5.18557C2.6908 5.00485 2.41972 4.91449 2.29452 4.74589C2.1852 4.59866 2.14135 4.4129 2.17329 4.23233C2.20987 4.02553 2.41191 3.82349 2.81601 3.41939L3.06319 3.17221C3.21579 3.01961 3.29208 2.94332 3.38248 2.89606C3.46249 2.85423 3.55016 2.82908 3.64017 2.82215C3.74187 2.81432 3.84701 2.83858 4.05729 2.88711L9.03005 4.03467C9.23668 4.08235 9.34 4.10619 9.43975 4.0991C9.53606 4.09225 9.62973 4.06456 9.71429 4.01795C9.80187 3.96968 9.87562 3.8935 10.0231 3.74114L11.8299 1.875Z" stroke="#383E40" stroke-width="1.5" stroke-linecap="round" stroke-linejoin="round"/>
</svg>
