<svg width="16" height="16" viewBox="0 0 16 16" fill="none" xmlns="http://www.w3.org/2000/svg">
<path d="M6.33333 5.97689C6.33333 5.6587 6.33333 5.4996 6.39983 5.41078C6.45778 5.33338 6.54648 5.28496 6.64292 5.27807C6.75359 5.27016 6.88742 5.3562 7.15507 5.52826L10.3021 7.55137C10.5344 7.70068 10.6505 7.77533 10.6906 7.87026C10.7257 7.9532 10.7257 8.0468 10.6906 8.12974C10.6505 8.22467 10.5344 8.29932 10.3021 8.44863L7.15507 10.4717C6.88742 10.6438 6.75359 10.7298 6.64292 10.7219C6.54648 10.715 6.45778 10.6666 6.39983 10.5892C6.33333 10.5004 6.33333 10.3413 6.33333 10.0231V5.97689Z" stroke="#383E40" stroke-width="1.5" stroke-linecap="round" stroke-linejoin="round"/>
<path d="M2 5.2C2 4.0799 2 3.51984 2.21799 3.09202C2.40973 2.71569 2.71569 2.40973 3.09202 2.21799C3.51984 2 4.0799 2 5.2 2H10.8C11.9201 2 12.4802 2 12.908 2.21799C13.2843 2.40973 13.5903 2.71569 13.782 3.09202C14 3.51984 14 4.0799 14 5.2V10.8C14 11.9201 14 12.4802 13.782 12.908C13.5903 13.2843 13.2843 13.5903 12.908 13.782C12.4802 14 11.9201 14 10.8 14H5.2C4.0799 14 3.51984 14 3.09202 13.782C2.71569 13.5903 2.40973 13.2843 2.21799 12.908C2 12.4802 2 11.9201 2 10.8V5.2Z" stroke="#383E40" stroke-width="1.5" stroke-linecap="round" stroke-linejoin="round"/>
</svg>
