<svg width="16" height="16" viewBox="0 0 16 16" fill="none" xmlns="http://www.w3.org/2000/svg">
<path d="M11.4126 11.9999C12.9749 10.9433 14 9.18519 14 7.18989C14 3.95545 11.3136 1.33325 8 1.33325C4.68638 1.33325 2 3.95545 2 7.18989C2 9.18519 3.02514 10.9433 4.58742 11.9999M5.57311 9.33325C5.0125 8.7666 4.66667 8.00568 4.66667 7.16695C4.66667 5.41799 6.1592 3.99992 8 3.99992C9.8408 3.99992 11.3333 5.41799 11.3333 7.16695C11.3333 8.00626 10.9875 8.7666 10.4269 9.33325M8 14.6666C7.26362 14.6666 6.66667 14.0696 6.66667 13.3333V11.9999C6.66667 11.2635 7.26362 10.6666 8 10.6666C8.73638 10.6666 9.33333 11.2635 9.33333 11.9999V13.3333C9.33333 14.0696 8.73638 14.6666 8 14.6666ZM8.66667 7.33325C8.66667 7.70144 8.36819 7.99992 8 7.99992C7.63181 7.99992 7.33333 7.70144 7.33333 7.33325C7.33333 6.96506 7.63181 6.66659 8 6.66659C8.36819 6.66659 8.66667 6.96506 8.66667 7.33325Z" stroke="#383E40" stroke-width="1.5" stroke-linecap="round" stroke-linejoin="round"/>
</svg>
