<svg width="16" height="16" viewBox="0 0 16 16" fill="none" xmlns="http://www.w3.org/2000/svg">
<path d="M7.99992 10.6667V14M7.99992 10.6667L11.9999 14M7.99992 10.6667L3.99992 14M13.9999 2V7.46667C13.9999 8.58677 13.9999 9.14682 13.7819 9.57465C13.5902 9.95097 13.2842 10.2569 12.9079 10.4487C12.4801 10.6667 11.92 10.6667 10.7999 10.6667H5.19992C4.07981 10.6667 3.51976 10.6667 3.09194 10.4487C2.71561 10.2569 2.40965 9.95097 2.21791 9.57465C1.99992 9.14682 1.99992 8.58677 1.99992 7.46667V2M5.33325 6V8M7.99992 4.66667V8M10.6666 7.33333V8M14.6666 2H1.33325" stroke="#383E40" stroke-width="1.5" stroke-linecap="round" stroke-linejoin="round"/>
</svg>
