<svg width="16" height="16" viewBox="0 0 16 16" fill="none" xmlns="http://www.w3.org/2000/svg">
<path d="M7.3335 1.33325L9.3335 3.33325M9.3335 3.33325L7.3335 5.33325M9.3335 3.33325H4.5335C3.41339 3.33325 2.85334 3.33325 2.42552 3.55124C2.04919 3.74299 1.74323 4.04895 1.55148 4.42527C1.3335 4.85309 1.3335 5.41315 1.3335 6.53325V10.3333C1.3335 10.6429 1.3335 10.7977 1.35061 10.9276C1.46876 11.8251 2.17498 12.5313 3.07244 12.6495C3.20241 12.6666 3.35722 12.6666 3.66683 12.6666M6.66683 12.6666H11.4668C12.5869 12.6666 13.147 12.6666 13.5748 12.4486C13.9511 12.2569 14.2571 11.9509 14.4488 11.5746C14.6668 11.1467 14.6668 10.5867 14.6668 9.46659V5.66659C14.6668 5.35697 14.6668 5.20217 14.6497 5.0722C14.5316 4.17473 13.8253 3.46852 12.9279 3.35036C12.7979 3.33325 12.6431 3.33325 12.3335 3.33325M6.66683 12.6666L8.66683 14.6666M6.66683 12.6666L8.66683 10.6666" stroke="#383E40" stroke-width="1.5" stroke-linecap="round" stroke-linejoin="round"/>
</svg>
