<svg width="16" height="16" viewBox="0 0 16 16" fill="none" xmlns="http://www.w3.org/2000/svg">
<path d="M2.08325 9.33333C2.08325 8.91912 1.74747 8.58333 1.33325 8.58333C0.919039 8.58333 0.583252 8.91912 0.583252 9.33333L2.08325 9.33333ZM0.583252 11.3333C0.583252 11.7475 0.919038 12.0833 1.33325 12.0833C1.74747 12.0833 2.08325 11.7475 2.08325 11.3333L0.583252 11.3333ZM15.4166 9.33333C15.4166 8.91912 15.0808 8.58333 14.6666 8.58333C14.2524 8.58333 13.9166 8.91912 13.9166 9.33333H15.4166ZM13.9166 11.3333C13.9166 11.7475 14.2524 12.0833 14.6666 12.0833C15.0808 12.0833 15.4166 11.7475 15.4166 11.3333H13.9166ZM7.24992 5.33333C7.24992 5.74755 7.58571 6.08333 7.99992 6.08333C8.41413 6.08333 8.74992 5.74755 8.74992 5.33333H7.24992ZM6.74507 5.24817C6.69804 4.83664 6.32629 4.54115 5.91476 4.58818C5.50322 4.63522 5.20774 5.00696 5.25477 5.41849L6.74507 5.24817ZM6.31145 8.0592L5.5663 8.14436L6.31145 8.0592ZM6.45322 8.39996L7.03888 7.93144L7.03887 7.93144L6.45322 8.39996ZM6.46642 8.41646L5.88077 8.88498L5.88077 8.88498L6.46642 8.41646ZM9.53342 8.41646L10.1191 8.88498L10.1191 8.88498L9.53342 8.41646ZM9.54662 8.39996L8.96096 7.93144L8.96096 7.93144L9.54662 8.39996ZM9.68839 8.0592L8.94324 7.97404L8.94324 7.97404L9.68839 8.0592ZM10.7451 5.41849C10.7921 5.00696 10.4966 4.63522 10.0851 4.58818C9.67354 4.54115 9.3018 4.83664 9.25477 5.24817L10.7451 5.41849ZM5.99992 10.25C5.58571 10.25 5.24992 10.5858 5.24992 11C5.24992 11.4142 5.58571 11.75 5.99992 11.75V10.25ZM6.00659 11.75C6.4208 11.75 6.75659 11.4142 6.75659 11C6.75659 10.5858 6.4208 10.25 6.00659 10.25V11.75ZM9.99325 10.25C9.57904 10.25 9.24325 10.5858 9.24325 11C9.24325 11.4142 9.57904 11.75 9.99325 11.75V10.25ZM9.99992 11.75C10.4141 11.75 10.7499 11.4142 10.7499 11C10.7499 10.5858 10.4141 10.25 9.99992 10.25V11.75ZM4.88881 6.08333H11.111V4.58333H4.88881V6.08333ZM11.9166 6.77778V12.5556H13.4166V6.77778H11.9166ZM11.111 13.25H4.88881V14.75H11.111V13.25ZM4.08325 12.5556V6.77778H2.58325V12.5556H4.08325ZM4.88881 13.25C4.3906 13.25 4.08325 12.8877 4.08325 12.5556H2.58325C2.58325 13.8189 3.6688 14.75 4.88881 14.75V13.25ZM11.9166 12.5556C11.9166 12.8877 11.6092 13.25 11.111 13.25V14.75C12.331 14.75 13.4166 13.8189 13.4166 12.5556H11.9166ZM11.111 6.08333C11.6092 6.08333 11.9166 6.44562 11.9166 6.77778H13.4166C13.4166 5.51445 12.331 4.58333 11.111 4.58333V6.08333ZM4.88881 4.58333C3.6688 4.58333 2.58325 5.51445 2.58325 6.77778H4.08325C4.08325 6.44562 4.3906 6.08333 4.88881 6.08333V4.58333ZM0.583252 9.33333L0.583252 11.3333L2.08325 11.3333L2.08325 9.33333L0.583252 9.33333ZM13.9166 9.33333V11.3333H15.4166V9.33333H13.9166ZM8.74992 5.33333V3.33333H7.24992V5.33333H8.74992ZM7.91659 2.66667C7.91659 2.62064 7.9539 2.58333 7.99992 2.58333V4.08333C8.78232 4.08333 9.41659 3.44907 9.41659 2.66667H7.91659ZM7.99992 2.58333C8.04594 2.58333 8.08325 2.62064 8.08325 2.66667H6.58325C6.58325 3.44907 7.21752 4.08333 7.99992 4.08333V2.58333ZM8.08325 2.66667C8.08325 2.71269 8.04594 2.75 7.99992 2.75V1.25C7.21752 1.25 6.58325 1.88426 6.58325 2.66667H8.08325ZM7.99992 2.75C7.9539 2.75 7.91659 2.71269 7.91659 2.66667H9.41659C9.41659 1.88426 8.78232 1.25 7.99992 1.25V2.75ZM5.25477 5.41849L5.5663 8.14436L7.0566 7.97404L6.74507 5.24817L5.25477 5.41849ZM5.86757 8.86848L5.88077 8.88498L7.05208 7.94794L7.03888 7.93144L5.86757 8.86848ZM6.987 9.41667H9.01284V7.91667H6.987V9.41667ZM10.1191 8.88498L10.1323 8.86848L8.96096 7.93144L8.94776 7.94794L10.1191 8.88498ZM10.4335 8.14436L10.7451 5.41849L9.25477 5.24817L8.94324 7.97404L10.4335 8.14436ZM10.1323 8.86848C10.2988 8.66027 10.4033 8.40928 10.4335 8.14436L8.94324 7.97404C8.94502 7.95845 8.95117 7.94369 8.96096 7.93144L10.1323 8.86848ZM9.01284 9.41667C9.4432 9.41667 9.85022 9.22104 10.1191 8.88498L8.94776 7.94794C8.96358 7.92817 8.98752 7.91667 9.01284 7.91667V9.41667ZM5.88077 8.88498C6.14962 9.22104 6.55664 9.41667 6.987 9.41667V7.91667C7.01232 7.91667 7.03626 7.92817 7.05207 7.94794L5.88077 8.88498ZM5.5663 8.14436C5.59657 8.40928 5.701 8.66027 5.86757 8.86848L7.03887 7.93144C7.04867 7.94369 7.05481 7.95845 7.0566 7.97404L5.5663 8.14436ZM5.99992 11.75H6.00659V10.25H5.99992V11.75ZM9.99325 11.75H9.99992V10.25H9.99325V11.75Z" fill="#383E40"/>
</svg>
