<svg width="16" height="16" viewBox="0 0 16 16" fill="none" xmlns="http://www.w3.org/2000/svg">
<path d="M2.08301 9.33333C2.08301 8.91912 1.74722 8.58333 1.33301 8.58333C0.918794 8.58333 0.583008 8.91912 0.583008 9.33333H2.08301ZM0.583008 11.3333C0.583008 11.7475 0.918794 12.0833 1.33301 12.0833C1.74722 12.0833 2.08301 11.7475 2.08301 11.3333H0.583008ZM15.4163 9.33333C15.4163 8.91912 15.0806 8.58333 14.6663 8.58333C14.2521 8.58333 13.9163 8.91912 13.9163 9.33333H15.4163ZM13.9163 11.3333C13.9163 11.7475 14.2521 12.0833 14.6663 12.0833C15.0806 12.0833 15.4163 11.7475 15.4163 11.3333H13.9163ZM7.24967 5.33333C7.24967 5.74755 7.58546 6.08333 7.99967 6.08333C8.41389 6.08333 8.74967 5.74755 8.74967 5.33333H7.24967ZM6.74482 5.24817C6.69779 4.83664 6.32605 4.54115 5.91451 4.58818C5.50298 4.63522 5.20749 5.00696 5.25453 5.41849L6.74482 5.24817ZM6.3112 8.0592L5.56605 8.14436L6.3112 8.0592ZM6.45298 8.39996L7.03863 7.93144L7.03863 7.93144L6.45298 8.39996ZM6.46618 8.41646L5.88053 8.88498L5.88053 8.88498L6.46618 8.41646ZM9.53317 8.41646L10.1188 8.88498L10.1188 8.88498L9.53317 8.41646ZM9.54637 8.39996L8.96072 7.93144L8.96072 7.93144L9.54637 8.39996ZM9.68815 8.0592L8.943 7.97404V7.97404L9.68815 8.0592ZM10.7448 5.41849C10.7919 5.00696 10.4964 4.63522 10.0848 4.58818C9.6733 4.54115 9.30156 4.83664 9.25453 5.24817L10.7448 5.41849ZM5.99967 10.25C5.58546 10.25 5.24967 10.5858 5.24967 11C5.24967 11.4142 5.58546 11.75 5.99967 11.75V10.25ZM6.00634 11.75C6.42056 11.75 6.75634 11.4142 6.75634 11C6.75634 10.5858 6.42056 10.25 6.00634 10.25V11.75ZM9.99301 10.25C9.57879 10.25 9.24301 10.5858 9.24301 11C9.24301 11.4142 9.57879 11.75 9.99301 11.75V10.25ZM9.99967 11.75C10.4139 11.75 10.7497 11.4142 10.7497 11C10.7497 10.5858 10.4139 10.25 9.99967 10.25V11.75ZM4.88856 6.08333H11.1108V4.58333H4.88856V6.08333ZM11.9163 6.77778V12.5556H13.4163V6.77778H11.9163ZM11.1108 13.25H4.88856V14.75H11.1108V13.25ZM4.08301 12.5556V6.77778H2.58301V12.5556H4.08301ZM4.88856 13.25C4.39036 13.25 4.08301 12.8877 4.08301 12.5556H2.58301C2.58301 13.8189 3.66855 14.75 4.88856 14.75V13.25ZM11.9163 12.5556C11.9163 12.8877 11.609 13.25 11.1108 13.25V14.75C12.3308 14.75 13.4163 13.8189 13.4163 12.5556H11.9163ZM11.1108 6.08333C11.609 6.08333 11.9163 6.44562 11.9163 6.77778H13.4163C13.4163 5.51445 12.3308 4.58333 11.1108 4.58333V6.08333ZM4.88856 4.58333C3.66855 4.58333 2.58301 5.51445 2.58301 6.77778H4.08301C4.08301 6.44562 4.39036 6.08333 4.88856 6.08333V4.58333ZM0.583008 9.33333L0.583008 11.3333H2.08301L2.08301 9.33333H0.583008ZM13.9163 9.33333V11.3333H15.4163V9.33333H13.9163ZM8.74967 5.33333V3.33333H7.24967V5.33333H8.74967ZM7.91634 2.66667C7.91634 2.62064 7.95365 2.58333 7.99967 2.58333V4.08333C8.78208 4.08333 9.41634 3.44907 9.41634 2.66667H7.91634ZM7.99967 2.58333C8.0457 2.58333 8.08301 2.62064 8.08301 2.66667H6.58301C6.58301 3.44907 7.21727 4.08333 7.99967 4.08333V2.58333ZM8.08301 2.66667C8.08301 2.71269 8.0457 2.75 7.99967 2.75V1.25C7.21727 1.25 6.58301 1.88426 6.58301 2.66667H8.08301ZM7.99967 2.75C7.95365 2.75 7.91634 2.71269 7.91634 2.66667H9.41634C9.41634 1.88426 8.78208 1.25 7.99967 1.25V2.75ZM5.25453 5.41849L5.56605 8.14436L7.05635 7.97404L6.74482 5.24817L5.25453 5.41849ZM5.86732 8.86848L5.88053 8.88498L7.05183 7.94794L7.03863 7.93144L5.86732 8.86848ZM6.98676 9.41667H9.01259V7.91667H6.98676V9.41667ZM10.1188 8.88498L10.132 8.86848L8.96072 7.93144L8.94752 7.94794L10.1188 8.88498ZM10.4333 8.14436L10.7448 5.41849L9.25453 5.24817L8.943 7.97404L10.4333 8.14436ZM10.132 8.86848C10.2986 8.66027 10.403 8.40928 10.4333 8.14436L8.943 7.97404C8.94478 7.95845 8.95092 7.94369 8.96072 7.93144L10.132 8.86848ZM9.01259 9.41667C9.44295 9.41667 9.84998 9.22104 10.1188 8.88498L8.94752 7.94794C8.96333 7.92817 8.98728 7.91667 9.01259 7.91667V9.41667ZM5.88053 8.88498C6.14937 9.22104 6.5564 9.41667 6.98676 9.41667V7.91667C7.01207 7.91667 7.03602 7.92817 7.05183 7.94794L5.88053 8.88498ZM5.56605 8.14436C5.59633 8.40928 5.70076 8.66027 5.86733 8.86848L7.03863 7.93144C7.04843 7.94369 7.05457 7.95845 7.05635 7.97404L5.56605 8.14436ZM5.99967 11.75H6.00634V10.25H5.99967V11.75ZM9.99301 11.75H9.99967V10.25H9.99301V11.75Z" fill="#383E40"/>
</svg>
