<svg width="16" height="16" viewBox="0 0 16 16" fill="none" xmlns="http://www.w3.org/2000/svg">
<path d="M7.99984 9.99984L5.99984 7.99984M7.99984 9.99984C8.93107 9.64567 9.82443 9.19899 10.6665 8.66651M7.99984 9.99984V13.3332C7.99984 13.3332 10.0198 12.9665 10.6665 11.9998C11.3865 10.9198 10.6665 8.66651 10.6665 8.66651M5.99984 7.99984C6.3546 7.07946 6.80131 6.19722 7.33317 5.36651C8.10996 4.1245 9.19159 3.10187 10.4752 2.3959C11.7588 1.68993 13.2016 1.32409 14.6665 1.33317C14.6665 3.14651 14.1465 6.33317 10.6665 8.66651M5.99984 7.99984H2.6665C2.6665 7.99984 3.03317 5.97984 3.99984 5.33317C5.07984 4.61317 7.33317 5.33317 7.33317 5.33317M2.99984 10.9998C1.99984 11.8398 1.6665 14.3332 1.6665 14.3332C1.6665 14.3332 4.15984 13.9998 4.99984 12.9998C5.47317 12.4398 5.4665 11.5798 4.93984 11.0598C4.68071 10.8125 4.33937 10.6696 3.98132 10.6585C3.62328 10.6475 3.27375 10.769 2.99984 10.9998Z" stroke="#383E40" stroke-width="1.5" stroke-linecap="round" stroke-linejoin="round"/>
</svg>
