<svg width="16" height="16" viewBox="0 0 16 16" fill="none" xmlns="http://www.w3.org/2000/svg">
<path d="M9.66672 3.66643L10.6667 4.66643M7.66672 5.66643L8.66672 6.66643M5.66672 7.66643L6.66672 8.66643M3.66672 9.66643L4.66672 10.6664M1.71049 11.7102L4.28957 14.2893C4.42158 14.4213 4.48758 14.4873 4.56369 14.5121C4.63064 14.5338 4.70276 14.5338 4.7697 14.5121C4.84581 14.4873 4.91182 14.4213 5.04382 14.2893L14.2896 5.04358C14.4216 4.91157 14.4876 4.84557 14.5123 4.76946C14.5341 4.70251 14.5341 4.6304 14.5123 4.56345C14.4876 4.48734 14.4216 4.42134 14.2896 4.28933L11.7105 1.71024C11.5785 1.57824 11.5125 1.51224 11.4364 1.48751C11.3694 1.46575 11.2973 1.46575 11.2304 1.48751C11.1542 1.51224 11.0882 1.57824 10.9562 1.71024L1.71049 10.956C1.57848 11.088 1.51248 11.154 1.48775 11.2301C1.466 11.2971 1.466 11.3692 1.48775 11.4361C1.51248 11.5122 1.57848 11.5782 1.71049 11.7102Z" stroke="#383E40" stroke-width="1.5" stroke-linecap="round" stroke-linejoin="round"/>
</svg>
