<svg width="16" height="16" viewBox="0 0 16 16" fill="none" xmlns="http://www.w3.org/2000/svg">
<path d="M6.00016 6.00016H6.00683M10.0002 10.0002H10.0068M10.6668 5.3335L5.3335 10.6668M6.13476 13.7341C6.35326 13.7052 6.57399 13.7644 6.74805 13.8985L7.5502 14.5141C7.81536 14.7178 8.18422 14.7178 8.44864 14.5141L9.28117 13.8748C9.43671 13.7556 9.63299 13.703 9.82705 13.7289L10.8684 13.8659C11.1995 13.9096 11.5188 13.7252 11.6469 13.4163L12.0476 12.4474C12.1224 12.266 12.2661 12.1223 12.4476 12.0475L13.4164 11.6467C13.7252 11.5193 13.9097 11.1993 13.866 10.8682L13.7341 9.86456C13.7052 9.64604 13.7645 9.42531 13.8986 9.25124L14.5141 8.44904C14.7178 8.18386 14.7178 7.81498 14.5141 7.55055L13.8749 6.71798C13.7556 6.56243 13.703 6.36613 13.7289 6.17207L13.866 5.13061C13.9097 4.79951 13.7252 4.48026 13.4164 4.35212L12.4476 3.95139C12.2661 3.87657 12.1224 3.73287 12.0476 3.5514L11.6469 2.58254C11.5195 2.27366 11.1995 2.08922 10.8684 2.13292L9.82705 2.26995C9.63299 2.29662 9.43671 2.24403 9.28191 2.12551L8.44938 1.48627C8.18422 1.28257 7.81536 1.28257 7.55094 1.48627L6.71842 2.12551C6.56288 2.24403 6.3666 2.29662 6.17254 2.27143L5.13114 2.1344C4.80006 2.0907 4.48083 2.27514 4.35269 2.58402L3.95272 3.55288C3.87717 3.73361 3.73348 3.87731 3.55276 3.95287L2.58395 4.35286C2.27508 4.481 2.09066 4.80025 2.13436 5.13135L2.27138 6.17281C2.29656 6.36687 2.24398 6.56317 2.12547 6.71798L1.48626 7.55055C1.28257 7.81572 1.28257 8.1846 1.48626 8.44904L2.12547 9.28161C2.24472 9.43716 2.2973 9.63345 2.27138 9.82752L2.13436 10.869C2.09066 11.2001 2.27508 11.5193 2.58395 11.6475L3.55276 12.0482C3.73422 12.123 3.87791 12.2667 3.95272 12.4482L4.35343 13.417C4.48083 13.7259 4.8008 13.9104 5.13188 13.8667L6.13476 13.7341ZM6.3335 6.00016C6.3335 6.18426 6.18426 6.3335 6.00016 6.3335C5.81607 6.3335 5.66683 6.18426 5.66683 6.00016C5.66683 5.81607 5.81607 5.66683 6.00016 5.66683C6.18426 5.66683 6.3335 5.81607 6.3335 6.00016ZM10.3335 10.0002C10.3335 10.1843 10.1843 10.3335 10.0002 10.3335C9.81607 10.3335 9.66683 10.1843 9.66683 10.0002C9.66683 9.81607 9.81607 9.66683 10.0002 9.66683C10.1843 9.66683 10.3335 9.81607 10.3335 10.0002Z" stroke="#383E40" stroke-width="1.5" stroke-linecap="round" stroke-linejoin="round"/>
</svg>
