<svg width="16" height="16" viewBox="0 0 16 16" fill="none" xmlns="http://www.w3.org/2000/svg">
<path d="M5.99998 6.00016H6.00665M9.99998 10.0002H10.0066M10.6666 5.3335L5.33331 10.6668M4.88916 2.54596C5.42505 2.5032 5.93379 2.29247 6.34296 1.94378C7.2978 1.13007 8.70216 1.13007 9.657 1.94378C10.0662 2.29247 10.5749 2.5032 11.1108 2.54596C12.3614 2.64575 13.3544 3.63879 13.4542 4.88934C13.4969 5.42523 13.7077 5.93397 14.0564 6.34314C14.8701 7.29798 14.8701 8.70235 14.0564 9.65718C13.7077 10.0664 13.4969 10.5751 13.4542 11.111C13.3544 12.3615 12.3614 13.3546 11.1108 13.4544C10.5749 13.4971 10.0662 13.7079 9.657 14.0566C8.70216 14.8703 7.2978 14.8703 6.34296 14.0566C5.93379 13.7079 5.42505 13.4971 4.88916 13.4544C3.63861 13.3546 2.64557 12.3615 2.54578 11.111C2.50301 10.5751 2.29228 10.0664 1.94359 9.65718C1.12989 8.70235 1.12989 7.29798 1.94359 6.34314C2.29228 5.93397 2.50301 5.42523 2.54578 4.88934C2.64557 3.63879 3.63861 2.64575 4.88916 2.54596ZM6.33331 6.00016C6.33331 6.18426 6.18407 6.3335 5.99998 6.3335C5.81588 6.3335 5.66665 6.18426 5.66665 6.00016C5.66665 5.81607 5.81588 5.66683 5.99998 5.66683C6.18407 5.66683 6.33331 5.81607 6.33331 6.00016ZM10.3333 10.0002C10.3333 10.1843 10.1841 10.3335 9.99998 10.3335C9.81588 10.3335 9.66665 10.1843 9.66665 10.0002C9.66665 9.81607 9.81588 9.66683 9.99998 9.66683C10.1841 9.66683 10.3333 9.81607 10.3333 10.0002Z" stroke="#383E40" stroke-width="1.5" stroke-linecap="round" stroke-linejoin="round"/>
</svg>
