<svg width="16" height="16" viewBox="0 0 16 16" fill="none" xmlns="http://www.w3.org/2000/svg">
<path d="M14 9.33333V10.8C14 11.9201 14 12.4802 13.782 12.908C13.5903 13.2843 13.2843 13.5903 12.908 13.782C12.4802 14 11.9201 14 10.8 14H9.33333M6.66667 2H5.2C4.0799 2 3.51984 2 3.09202 2.21799C2.71569 2.40973 2.40973 2.71569 2.21799 3.09202C2 3.51984 2 4.0799 2 5.2V6.66667M2.66667 13.3333L6.66667 9.33333M6.66667 9.33333H2.66667M6.66667 9.33333V13.3333M13.3333 2.66667L9.33333 6.66667M9.33333 6.66667H13.3333M9.33333 6.66667L9.33333 2.66667" stroke="#383E40" stroke-width="1.5" stroke-linecap="round" stroke-linejoin="round"/>
</svg>
