<svg width="16" height="16" viewBox="0 0 16 16" fill="none" xmlns="http://www.w3.org/2000/svg">
<path d="M9.33301 14.6668H4.53301M4.53301 14.6668C3.4129 14.6668 2.85285 14.6668 2.42503 14.4488C2.0487 14.2571 1.74274 13.9511 1.55099 13.5748C1.33301 13.147 1.33301 12.5869 1.33301 11.4668M4.53301 14.6668H4.79967C5.91978 14.6668 6.47983 14.6668 6.90766 14.4488C7.28398 14.2571 7.58994 13.9511 7.78169 13.5748C7.99967 13.147 7.99967 12.5869 7.99967 11.4668V11.2002C7.99967 10.0801 7.99967 9.52001 7.78169 9.09218C7.58994 8.71586 7.28398 8.4099 6.90766 8.21815C6.47983 8.00016 5.91978 8.00016 4.79967 8.00016H4.53301C3.4129 8.00016 2.85285 8.00016 2.42503 8.21815C2.0487 8.4099 1.74274 8.71586 1.55099 9.09218C1.33301 9.52001 1.33301 10.0801 1.33301 11.2002V11.4668M1.33301 11.4668V6.66683M6.66634 1.3335H9.33301M14.6663 6.66683V9.3335M11.9997 14.6668C12.6197 14.6668 12.9296 14.6668 13.184 14.5987C13.8742 14.4137 14.4133 13.8747 14.5982 13.1845C14.6663 12.9301 14.6663 12.6201 14.6663 12.0002M14.6663 4.00016C14.6663 3.38018 14.6663 3.07019 14.5982 2.81586C14.4133 2.12567 13.8742 1.58658 13.184 1.40164C12.9296 1.3335 12.6197 1.3335 11.9997 1.3335M3.99967 1.3335C3.37969 1.3335 3.0697 1.3335 2.81537 1.40164C2.12519 1.58658 1.58609 2.12567 1.40116 2.81586C1.33301 3.07019 1.33301 3.38018 1.33301 4.00016" stroke="#383E40" stroke-width="1.5" stroke-linecap="round" stroke-linejoin="round"/>
</svg>
