<svg width="16" height="16" viewBox="0 0 16 16" fill="none" xmlns="http://www.w3.org/2000/svg">
<path d="M6.99976 8.99999L13.9998 1.99999M7.08482 9.2187L8.83689 13.724C8.99124 14.1209 9.06841 14.3194 9.17962 14.3773C9.27602 14.4275 9.39085 14.4276 9.48731 14.3775C9.59858 14.3197 9.67599 14.1213 9.8308 13.7246L14.2244 2.46612C14.3641 2.108 14.434 1.92894 14.3958 1.81453C14.3626 1.71516 14.2846 1.63718 14.1852 1.60399C14.0708 1.56576 13.8918 1.63564 13.5336 1.77539L2.27513 6.16895C1.87842 6.32377 1.68006 6.40118 1.62225 6.51245C1.57214 6.60891 1.57221 6.72374 1.62243 6.82014C1.68037 6.93134 1.87882 7.00852 2.27572 7.16286L6.78105 8.91494C6.86162 8.94627 6.9019 8.96194 6.93582 8.98613C6.96589 9.00758 6.99218 9.03387 7.01362 9.06393C7.03782 9.09785 7.05349 9.13814 7.08482 9.2187Z" stroke="#383E40" stroke-width="1.5" stroke-linecap="round" stroke-linejoin="round"/>
</svg>
