<svg width="16" height="16" viewBox="0 0 16 16" fill="none" xmlns="http://www.w3.org/2000/svg">
<path d="M7.00001 8.99999L14 1.99999M7.08506 9.2187L8.83714 13.724C8.99148 14.1209 9.06866 14.3194 9.17986 14.3773C9.27626 14.4275 9.39109 14.4276 9.48755 14.3775C9.59882 14.3197 9.67623 14.1213 9.83105 13.7246L14.2246 2.46612C14.3644 2.108 14.4342 1.92894 14.396 1.81453C14.3628 1.71516 14.2848 1.63718 14.1855 1.60399C14.0711 1.56576 13.892 1.63564 13.5339 1.77539L2.27538 6.16895C1.87866 6.32377 1.6803 6.40118 1.6225 6.51245C1.57239 6.60891 1.57245 6.72374 1.62268 6.82014C1.68062 6.93134 1.87906 7.00852 2.27596 7.16286L6.7813 8.91494C6.86186 8.94627 6.90215 8.96194 6.93607 8.98613C6.96613 9.00758 6.99242 9.03387 7.01387 9.06393C7.03806 9.09785 7.05373 9.13814 7.08506 9.2187Z" stroke="#383E40" stroke-width="1.5" stroke-linecap="round" stroke-linejoin="round"/>
</svg>
