<svg width="16" height="16" viewBox="0 0 16 16" fill="none" xmlns="http://www.w3.org/2000/svg">
<path d="M12.6667 5.99992C12.6667 8.57725 10.5773 10.6666 8 10.6666M12.6667 5.99992C12.6667 3.42259 10.5773 1.33325 8 1.33325M12.6667 5.99992H3.33333M8 10.6666C5.42267 10.6666 3.33333 8.57725 3.33333 5.99992M8 10.6666C9.16726 9.38869 9.83123 7.7303 9.86727 5.99992C9.83123 4.26953 9.16726 2.61115 8 1.33325M8 10.6666C6.83274 9.38869 6.16999 7.7303 6.13394 5.99992C6.16999 4.26953 6.83274 2.61115 8 1.33325M8 10.6666V11.9999M3.33333 5.99992C3.33333 3.42259 5.42267 1.33325 8 1.33325M9.33333 13.3333C9.33333 14.0696 8.73638 14.6666 8 14.6666C7.26362 14.6666 6.66667 14.0696 6.66667 13.3333M9.33333 13.3333C9.33333 12.5969 8.73638 11.9999 8 11.9999M9.33333 13.3333H14M6.66667 13.3333C6.66667 12.5969 7.26362 11.9999 8 11.9999M6.66667 13.3333H2" stroke="#383E40" stroke-width="1.5" stroke-linecap="round" stroke-linejoin="round"/>
</svg>
