<svg width="16" height="16" viewBox="0 0 16 16" fill="none" xmlns="http://www.w3.org/2000/svg">
<path d="M13.3335 8.00016C13.3335 10.9457 10.9457 13.3335 8.00016 13.3335M13.3335 8.00016C13.3335 5.05464 10.9457 2.66683 8.00016 2.66683M13.3335 8.00016H2.66683M8.00016 13.3335C5.05464 13.3335 2.66683 10.9457 2.66683 8.00016M8.00016 13.3335C9.33418 11.873 10.0927 9.97774 10.1339 8.00016C10.0927 6.02258 9.33418 4.12728 8.00016 2.66683M8.00016 13.3335C6.66615 11.873 5.9084 9.97774 5.8672 8.00016C5.9084 6.02258 6.66615 4.12728 8.00016 2.66683M2.66683 8.00016C2.66683 5.05464 5.05464 2.66683 8.00016 2.66683M4.00016 13.3335C4.00016 14.0699 3.40321 14.6668 2.66683 14.6668C1.93045 14.6668 1.3335 14.0699 1.3335 13.3335C1.3335 12.5971 1.93045 12.0002 2.66683 12.0002C3.40321 12.0002 4.00016 12.5971 4.00016 13.3335ZM14.6668 13.3335C14.6668 14.0699 14.0699 14.6668 13.3335 14.6668C12.5971 14.6668 12.0002 14.0699 12.0002 13.3335C12.0002 12.5971 12.5971 12.0002 13.3335 12.0002C14.0699 12.0002 14.6668 12.5971 14.6668 13.3335ZM4.00016 2.66683C4.00016 3.40321 3.40321 4.00016 2.66683 4.00016C1.93045 4.00016 1.3335 3.40321 1.3335 2.66683C1.3335 1.93045 1.93045 1.3335 2.66683 1.3335C3.40321 1.3335 4.00016 1.93045 4.00016 2.66683ZM14.6668 2.66683C14.6668 3.40321 14.0699 4.00016 13.3335 4.00016C12.5971 4.00016 12.0002 3.40321 12.0002 2.66683C12.0002 1.93045 12.5971 1.3335 13.3335 1.3335C14.0699 1.3335 14.6668 1.93045 14.6668 2.66683Z" stroke="#383E40" stroke-width="1.5" stroke-linecap="round" stroke-linejoin="round"/>
</svg>
