<svg width="16" height="16" viewBox="0 0 16 16" fill="none" xmlns="http://www.w3.org/2000/svg">
<path d="M12.6667 6.00016C12.6667 8.57749 10.5773 10.6668 8 10.6668M12.6667 6.00016C12.6667 3.42283 10.5773 1.3335 8 1.3335M12.6667 6.00016H3.33333M8 10.6668C5.42267 10.6668 3.33333 8.57749 3.33333 6.00016M8 10.6668C9.16726 9.38893 9.83123 7.73055 9.86727 6.00016C9.83123 4.26978 9.16726 2.61139 8 1.3335M8 10.6668C6.83274 9.38893 6.16999 7.73055 6.13394 6.00016C6.16999 4.26978 6.83274 2.61139 8 1.3335M8 10.6668V12.0002M3.33333 6.00016C3.33333 3.42283 5.42267 1.3335 8 1.3335M9.33333 13.3335C9.33333 14.0699 8.73638 14.6668 8 14.6668C7.26362 14.6668 6.66667 14.0699 6.66667 13.3335M9.33333 13.3335C9.33333 12.5971 8.73638 12.0002 8 12.0002M9.33333 13.3335H14M6.66667 13.3335C6.66667 12.5971 7.26362 12.0002 8 12.0002M6.66667 13.3335H2" stroke="#383E40" stroke-width="1.5" stroke-linecap="round" stroke-linejoin="round"/>
</svg>
