<svg width="16" height="16" viewBox="0 0 16 16" fill="none" xmlns="http://www.w3.org/2000/svg">
<path d="M14.6666 11.6667L14.2055 4.97983C14.1331 3.93002 14.0969 3.40512 13.8694 3.00721C13.669 2.65689 13.3674 2.37536 13.0041 2.19961C12.5915 2 12.0654 2 11.0131 2H4.98689C3.93459 2 3.40844 2 2.99582 2.19961C2.63254 2.37536 2.33093 2.65689 2.1306 3.00721C1.90307 3.40512 1.86687 3.93002 1.79447 4.97983L1.33331 11.6667M14.6666 11.6667C14.6666 12.9553 13.622 14 12.3333 14H3.66665C2.37798 14 1.33331 12.9553 1.33331 11.6667M14.6666 11.6667C14.6666 10.378 13.622 9.33333 12.3333 9.33333H3.66665C2.37798 9.33333 1.33331 10.378 1.33331 11.6667M3.99998 11.6667H4.00665M7.99998 11.6667H12" stroke="#383E40" stroke-width="1.5" stroke-linecap="round" stroke-linejoin="round"/>
</svg>
