<svg width="16" height="16" viewBox="0 0 16 16" fill="none" xmlns="http://www.w3.org/2000/svg">
<path d="M3.99998 5.33341H4.00665M3.99998 10.6667H4.00665M3.99998 8.00008H12M3.99998 8.00008C2.52722 8.00008 1.33331 6.80617 1.33331 5.33341C1.33331 3.86066 2.52722 2.66675 3.99998 2.66675H12C13.4727 2.66675 14.6666 3.86066 14.6666 5.33341C14.6666 6.80617 13.4727 8.00008 12 8.00008M3.99998 8.00008C2.52722 8.00008 1.33331 9.19399 1.33331 10.6667C1.33331 12.1395 2.52722 13.3334 3.99998 13.3334H12C13.4727 13.3334 14.6666 12.1395 14.6666 10.6667C14.6666 9.19399 13.4727 8.00008 12 8.00008" stroke="#383E40" stroke-width="1.5" stroke-linecap="round" stroke-linejoin="round"/>
</svg>
