<svg width="16" height="16" viewBox="0 0 16 16" fill="none" xmlns="http://www.w3.org/2000/svg">
<path d="M14.6668 11.6667L14.2057 4.97983C14.1333 3.93002 14.0971 3.40512 13.8695 3.00721C13.6692 2.65689 13.3676 2.37536 13.0043 2.19961C12.5917 2 12.0656 2 11.0133 2H4.98707C3.93477 2 3.40862 2 2.996 2.19961C2.63272 2.37536 2.33111 2.65689 2.13079 3.00721C1.90326 3.40512 1.86706 3.93002 1.79466 4.97983L1.3335 11.6667M14.6668 11.6667C14.6668 12.9553 13.6222 14 12.3335 14H3.66683C2.37817 14 1.3335 12.9553 1.3335 11.6667M14.6668 11.6667C14.6668 10.378 13.6222 9.33333 12.3335 9.33333H3.66683C2.37817 9.33333 1.3335 10.378 1.3335 11.6667M4.00016 11.6667H4.00683M8.00016 11.6667H12.0002" stroke="#383E40" stroke-width="1.5" stroke-linecap="round" stroke-linejoin="round"/>
</svg>
