<svg width="16" height="16" viewBox="0 0 16 16" fill="none" xmlns="http://www.w3.org/2000/svg">
<path d="M6.26338 12.9141L6.65301 13.7904C6.76884 14.0513 6.95786 14.2729 7.19716 14.4284C7.43646 14.584 7.71575 14.6668 8.00116 14.6667C8.28657 14.6668 8.56586 14.584 8.80516 14.4284C9.04446 14.2729 9.23348 14.0513 9.34931 13.7904L9.73894 12.9141C9.87764 12.6032 10.1109 12.3439 10.4056 12.1734C10.7021 12.0023 11.0452 11.9295 11.3856 11.9652L12.3389 12.0667C12.6227 12.0967 12.9091 12.0438 13.1634 11.9143C13.4177 11.7848 13.6289 11.5843 13.7715 11.3371C13.9143 11.0901 13.9823 10.8069 13.9674 10.522C13.9524 10.237 13.855 9.96258 13.6871 9.73189L13.1226 8.95634C12.9217 8.67813 12.8143 8.34325 12.816 8.00004C12.8159 7.65777 12.9243 7.32427 13.1256 7.04745L13.69 6.27189C13.858 6.04121 13.9553 5.76675 13.9703 5.48182C13.9853 5.19689 13.9173 4.91373 13.7745 4.66671C13.6319 4.41953 13.4206 4.21903 13.1664 4.08953C12.9121 3.96002 12.6257 3.90706 12.3419 3.93708L11.3886 4.03856C11.0481 4.07431 10.7051 4.00145 10.4086 3.83041C10.1133 3.65888 9.87995 3.39828 9.7419 3.08597L9.34931 2.20967C9.23348 1.94882 9.04446 1.72718 8.80516 1.57164C8.56586 1.4161 8.28657 1.33333 8.00116 1.33337C7.71575 1.33333 7.43646 1.4161 7.19716 1.57164C6.95786 1.72718 6.76884 1.94882 6.65301 2.20967L6.26338 3.08597C6.12533 3.39828 5.89196 3.65888 5.59672 3.83041C5.30019 4.00145 4.95716 4.07431 4.61672 4.03856L3.66042 3.93708C3.37664 3.90706 3.09024 3.96002 2.83596 4.08953C2.58168 4.21903 2.37043 4.41953 2.22783 4.66671C2.08504 4.91373 2.01701 5.19689 2.032 5.48182C2.04699 5.76675 2.14435 6.04121 2.31227 6.27189L2.87671 7.04745C3.07801 7.32427 3.18641 7.65777 3.18634 8.00004C3.18641 8.34232 3.07801 8.67581 2.87671 8.95263L2.31227 9.72819C2.14435 9.95887 2.04699 10.2333 2.032 10.5183C2.01701 10.8032 2.08504 11.0863 2.22783 11.3334C2.37057 11.5804 2.58185 11.7808 2.83609 11.9103C3.09034 12.0398 3.37666 12.0928 3.66042 12.063L4.61375 11.9615C4.9542 11.9258 5.29723 11.9986 5.59375 12.1697C5.8901 12.3407 6.12456 12.6014 6.26338 12.9141Z" stroke="#383E40" stroke-width="1.5" stroke-linecap="round" stroke-linejoin="round"/>
<path d="M7.99997 10C9.10454 10 9.99997 9.10461 9.99997 8.00004C9.99997 6.89547 9.10454 6.00004 7.99997 6.00004C6.8954 6.00004 5.99997 6.89547 5.99997 8.00004C5.99997 9.10461 6.8954 10 7.99997 10Z" stroke="#383E40" stroke-width="1.5" stroke-linecap="round" stroke-linejoin="round"/>
</svg>
