<svg width="16" height="16" viewBox="0 0 16 16" fill="none" xmlns="http://www.w3.org/2000/svg">
<path d="M6.2632 12.914L6.65283 13.7903C6.76865 14.0511 6.95768 14.2728 7.19698 14.4283C7.43628 14.5839 7.71557 14.6666 8.00098 14.6666C8.28639 14.6666 8.56568 14.5839 8.80497 14.4283C9.04427 14.2728 9.2333 14.0511 9.34912 13.7903L9.73875 12.914C9.87745 12.6031 10.1108 12.3438 10.4054 12.1733C10.7019 12.0022 11.045 11.9294 11.3854 11.9651L12.3388 12.0666C12.6225 12.0966 12.9089 12.0436 13.1632 11.9141C13.4175 11.7846 13.6287 11.5841 13.7713 11.337C13.9141 11.0899 13.9822 10.8068 13.9672 10.5218C13.9522 10.2369 13.8548 9.96245 13.6869 9.73177L13.1225 8.95622C12.9215 8.67801 12.8141 8.34313 12.8158 7.99992C12.8157 7.65764 12.9241 7.32415 13.1254 7.04733L13.6899 6.27177C13.8578 6.04109 13.9551 5.76663 13.9701 5.4817C13.9851 5.19677 13.9171 4.91361 13.7743 4.66659C13.6317 4.41941 13.4205 4.21891 13.1662 4.0894C12.9119 3.9599 12.6255 3.90694 12.3417 3.93696L11.3884 4.03844C11.0479 4.07419 10.7049 4.00133 10.4084 3.83029C10.1131 3.65875 9.87977 3.39816 9.74172 3.08584L9.34912 2.20955C9.2333 1.9487 9.04427 1.72706 8.80497 1.57152C8.56568 1.41597 8.28639 1.33321 8.00098 1.33325C7.71557 1.33321 7.43628 1.41597 7.19698 1.57152C6.95768 1.72706 6.76865 1.9487 6.65283 2.20955L6.2632 3.08584C6.12515 3.39816 5.89178 3.65875 5.59653 3.83029C5.30001 4.00133 4.95698 4.07419 4.61653 4.03844L3.66024 3.93696C3.37646 3.90694 3.09006 3.9599 2.83578 4.0894C2.5815 4.21891 2.37025 4.41941 2.22764 4.66659C2.08486 4.91361 2.01683 5.19677 2.03182 5.4817C2.04681 5.76663 2.14417 6.04109 2.31209 6.27177L2.87653 7.04733C3.07783 7.32415 3.18622 7.65764 3.18616 7.99992C3.18622 8.34219 3.07783 8.67569 2.87653 8.95251L2.31209 9.72807C2.14417 9.95875 2.04681 10.2332 2.03182 10.5181C2.01683 10.8031 2.08486 11.0862 2.22764 11.3333C2.37039 11.5803 2.58166 11.7807 2.83591 11.9102C3.09015 12.0397 3.37648 12.0927 3.66024 12.0629L4.61357 11.9614C4.95402 11.9256 5.29705 11.9985 5.59357 12.1695C5.88992 12.3406 6.12438 12.6012 6.2632 12.914Z" stroke="#383E40" stroke-width="1.5" stroke-linecap="round" stroke-linejoin="round"/>
<path d="M7.99979 9.99992C9.10435 9.99992 9.99979 9.10449 9.99979 7.99992C9.99979 6.89535 9.10435 5.99992 7.99979 5.99992C6.89522 5.99992 5.99979 6.89535 5.99979 7.99992C5.99979 9.10449 6.89522 9.99992 7.99979 9.99992Z" stroke="#383E40" stroke-width="1.5" stroke-linecap="round" stroke-linejoin="round"/>
</svg>
