<svg width="16" height="16" viewBox="0 0 16 16" fill="none" xmlns="http://www.w3.org/2000/svg">
<path d="M13.8609 8.40495C14.0237 8.26545 14.105 8.1957 14.1348 8.1127C14.161 8.03985 14.161 7.96017 14.1348 7.88732C14.105 7.80432 14.0237 7.73457 13.8609 7.59507L8.21375 2.75466C7.9336 2.51453 7.79353 2.39446 7.67493 2.39152C7.57186 2.38896 7.47341 2.43425 7.40828 2.51416C7.33333 2.60612 7.33333 2.79061 7.33333 3.15959V6.0231C5.91021 6.27207 4.60773 6.99318 3.63981 8.07592C2.58455 9.25635 2.00082 10.784 2 12.3673V12.7753C2.69956 11.9326 3.573 11.251 4.56051 10.7773C5.43113 10.3596 6.37228 10.1122 7.33333 10.047V12.8404C7.33333 13.2094 7.33333 13.3939 7.40828 13.4859C7.47341 13.5658 7.57186 13.6111 7.67493 13.6085C7.79353 13.6056 7.9336 13.4855 8.21375 13.2454L13.8609 8.40495Z" stroke="#383E40" stroke-width="1.5" stroke-linecap="round" stroke-linejoin="round"/>
</svg>
