<svg width="16" height="16" viewBox="0 0 16 16" fill="none" xmlns="http://www.w3.org/2000/svg">
<path d="M7.99992 9.66665H4.99992C4.06954 9.66665 3.60435 9.66665 3.22582 9.78147C2.37356 10.04 1.70661 10.7069 1.44808 11.5592C1.33325 11.9377 1.33325 12.4029 1.33325 13.3333M9.66659 4.33331C9.66659 5.99017 8.32344 7.33331 6.66659 7.33331C5.00973 7.33331 3.66659 5.99017 3.66659 4.33331C3.66659 2.67646 5.00973 1.33331 6.66659 1.33331C8.32344 1.33331 9.66659 2.67646 9.66659 4.33331ZM14.6666 11.0106C14.6666 12.4985 13.105 13.5807 12.5368 13.9252C12.4723 13.9643 12.44 13.9839 12.3944 13.9941C12.359 14.002 12.3075 14.002 12.2721 13.9941C12.2265 13.9839 12.1942 13.9643 12.1297 13.9252C11.5615 13.5807 9.99992 12.4985 9.99992 11.0106V9.56097C9.99992 9.31861 9.99992 9.19744 10.0381 9.09327C10.0717 9.00125 10.1265 8.91915 10.1976 8.85405C10.278 8.78036 10.3872 8.73782 10.6055 8.65272L12.1694 7.99998C12.23 7.97635 12.2915 7.86665 12.2915 7.86665H12.375C12.375 7.86665 12.4365 7.97635 12.4971 7.99998L14.061 8.65272C14.2793 8.73782 14.3885 8.78036 14.4689 8.85405C14.54 8.91915 14.5948 9.00125 14.6284 9.09327C14.6666 9.19744 14.6666 9.31861 14.6666 9.56097V11.0106Z" stroke="#383E40" stroke-width="1.5" stroke-linecap="round" stroke-linejoin="round"/>
</svg>
