<svg width="16" height="16" viewBox="0 0 16 16" fill="none" xmlns="http://www.w3.org/2000/svg">
<path d="M7.535 14.4102C7.68259 14.4963 7.75639 14.5393 7.86054 14.5617C7.94136 14.579 8.05929 14.579 8.14011 14.5617C8.24426 14.5393 8.31806 14.4963 8.46565 14.4102C9.76435 13.6525 13.3337 11.2725 13.3337 8.00024V4.81197C13.3337 4.27897 13.3337 4.01246 13.2465 3.78338C13.1695 3.581 13.0443 3.40042 12.8819 3.25726C12.698 3.0952 12.4485 3.00162 11.9494 2.81447L8.37486 1.47402C8.23626 1.42205 8.16696 1.39606 8.09567 1.38576C8.03243 1.37662 7.96822 1.37662 7.90498 1.38576C7.83369 1.39606 7.76439 1.42205 7.62579 1.47402L4.05126 2.81447C3.55219 3.00162 3.30266 3.0952 3.11876 3.25726C2.95631 3.40042 2.83118 3.581 2.75417 3.78338C2.66699 4.01246 2.66699 4.27897 2.66699 4.81197V8.00024C2.66699 11.2725 6.2363 13.6525 7.535 14.4102Z" stroke="#383E40" stroke-width="1.5" stroke-linecap="round" stroke-linejoin="round"/>
</svg>
