<svg width="16" height="16" viewBox="0 0 16 16" fill="none" xmlns="http://www.w3.org/2000/svg">
<path d="M7.53475 14.4099C7.68235 14.496 7.75615 14.539 7.86029 14.5614C7.94112 14.5787 8.05904 14.5787 8.13987 14.5614C8.24402 14.539 8.31781 14.496 8.46541 14.4099C9.76411 13.6522 13.3334 11.2723 13.3334 7.99996V5.46663C13.3334 4.7507 13.3334 4.39274 13.2231 4.13863C13.1109 3.88036 12.9991 3.74297 12.7691 3.58057C12.5428 3.42078 12.0992 3.32851 11.2119 3.14398C10.2339 2.94059 9.48293 2.57332 8.79633 2.04218C8.46709 1.78748 8.30246 1.66012 8.17364 1.62539C8.03771 1.58874 7.96246 1.58874 7.82652 1.62539C7.6977 1.66012 7.53308 1.78748 7.20383 2.04218C6.51723 2.57332 5.76621 2.94059 4.78828 3.14398C3.901 3.32851 3.45736 3.42078 3.23105 3.58057C3.00103 3.74297 2.88927 3.88036 2.77711 4.13863C2.66675 4.39274 2.66675 4.7507 2.66675 5.46663V7.99996C2.66675 11.2723 6.23606 13.6522 7.53475 14.4099Z" stroke="#383E40" stroke-width="1.5" stroke-linecap="round" stroke-linejoin="round"/>
</svg>
