<svg width="16" height="16" viewBox="0 0 16 16" fill="none" xmlns="http://www.w3.org/2000/svg">
<path d="M5.87245 2.13116L7.62547 1.47378C7.76407 1.4218 7.83336 1.39582 7.90466 1.38552C7.96789 1.37638 8.03211 1.37638 8.09534 1.38552C8.16664 1.39582 8.23593 1.4218 8.37453 1.47378L11.9491 2.81423C12.4481 3.00138 12.6977 3.09495 12.8816 3.25702C13.044 3.40018 13.1692 3.58076 13.2462 3.78313C13.3333 4.01222 13.3333 4.27872 13.3333 4.81173V8C13.3333 8.4802 13.2565 8.94118 13.1212 9.38065M11.7479 11.7504C10.6241 13.0574 9.19193 13.9859 8.46642 14.4093C8.31814 14.4958 8.244 14.5391 8.13985 14.5614C8.05902 14.5787 7.94107 14.5787 7.86025 14.5614C7.75609 14.5391 7.68228 14.496 7.53467 14.4099C6.23597 13.6523 2.66667 11.2723 2.66667 8V3.85087C2.66667 3.53957 2.85977 3.26091 3.15126 3.15161M2 2L14 14" stroke="#383E40" stroke-width="1.5" stroke-linecap="round" stroke-linejoin="round"/>
</svg>
