<svg width="16" height="16" viewBox="0 0 16 16" fill="none" xmlns="http://www.w3.org/2000/svg">
<path d="M4.33359 11.3335H11.5531C12.1864 11.3335 12.503 11.3335 12.7611 11.2191C12.9886 11.1182 13.1834 10.9557 13.3233 10.7499C13.4821 10.5164 13.5387 10.2049 13.652 9.58179L14.5525 4.6289C14.5918 4.41295 14.6114 4.30497 14.5811 4.22066C14.5545 4.14669 14.5026 4.0845 14.4346 4.04509C14.357 4.00016 14.2473 4.00016 14.0278 4.00016H3.33359M1.3335 1.3335H2.2111C2.37289 1.3335 2.45379 1.3335 2.51921 1.36305C2.57688 1.3891 2.62594 1.43102 2.66066 1.48392C2.70006 1.54393 2.71267 1.62384 2.73791 1.78365L4.59575 13.55C4.62099 13.7098 4.6336 13.7897 4.673 13.8497C4.70772 13.9026 4.75678 13.9446 4.81445 13.9706C4.87987 14.0002 4.96077 14.0002 5.12256 14.0002H12.6668" stroke="#383E40" stroke-width="1.5" stroke-linecap="round" stroke-linejoin="round"/>
</svg>
