<svg width="16" height="16" viewBox="0 0 16 16" fill="none" xmlns="http://www.w3.org/2000/svg">
<path d="M3.33341 9.3335H12.0906C12.7658 9.3335 13.1034 9.3335 13.3721 9.20761C13.6089 9.09671 13.8078 8.91866 13.9442 8.6956C14.099 8.44238 14.1363 8.10683 14.2108 7.43575L14.6008 3.92573C14.6236 3.72075 14.635 3.61826 14.602 3.53894C14.5731 3.46927 14.5214 3.41148 14.4553 3.37501C14.3801 3.3335 14.277 3.3335 14.0708 3.3335H3.00007M1.33331 1.3335H2.16561C2.34202 1.3335 2.43023 1.3335 2.49924 1.36705C2.55999 1.39658 2.61034 1.44388 2.6436 1.50267C2.68139 1.56945 2.6869 1.65749 2.6979 1.83356L3.30206 11.5001C3.31306 11.6762 3.31857 11.7642 3.35635 11.831C3.38962 11.8898 3.43997 11.9371 3.50072 11.9666C3.56973 12.0002 3.65794 12.0002 3.83435 12.0002H12.6666M4.99998 14.3335H5.00665M11 14.3335H11.0066M5.33331 14.3335C5.33331 14.5176 5.18407 14.6668 4.99998 14.6668C4.81588 14.6668 4.66665 14.5176 4.66665 14.3335C4.66665 14.1494 4.81588 14.0002 4.99998 14.0002C5.18407 14.0002 5.33331 14.1494 5.33331 14.3335ZM11.3333 14.3335C11.3333 14.5176 11.1841 14.6668 11 14.6668C10.8159 14.6668 10.6666 14.5176 10.6666 14.3335C10.6666 14.1494 10.8159 14.0002 11 14.0002C11.1841 14.0002 11.3333 14.1494 11.3333 14.3335Z" stroke="#383E40" stroke-width="1.5" stroke-linecap="round" stroke-linejoin="round"/>
</svg>
