<svg width="16" height="16" viewBox="0 0 16 16" fill="none" xmlns="http://www.w3.org/2000/svg">
<path d="M7.05711 8.94273C6.53641 8.42203 6.53641 7.57781 7.05711 7.05711C7.57781 6.53641 8.42203 6.53641 8.94273 7.05711C9.46343 7.57781 9.46343 8.42203 8.94273 8.94273M5.17149 10.8283C3.60939 9.26625 3.60939 6.73359 5.17149 5.17149C6.73359 3.60939 9.26625 3.60939 10.8283 5.17149C12.3904 6.73359 12.3904 9.26625 10.8283 10.8283M3.28587 12.714C0.682378 10.1105 0.682378 5.88937 3.28587 3.28587C5.88937 0.682378 10.1105 0.682378 12.714 3.28587C15.3175 5.88937 15.3175 10.1105 12.714 12.714" stroke="#383E40" stroke-width="1.5" stroke-linecap="round" stroke-linejoin="round"/>
</svg>
