<svg width="16" height="16" viewBox="0 0 16 16" fill="none" xmlns="http://www.w3.org/2000/svg">
<path d="M10.8286 5.17151C12.3907 6.7336 12.3907 9.26626 10.8286 10.8284M5.17174 10.8283C3.60964 9.26624 3.60964 6.73358 5.17174 5.17148M3.28612 12.714C0.682622 10.1105 0.682622 5.88938 3.28612 3.28589M12.7142 3.28592C15.3177 5.88941 15.3177 10.1105 12.7142 12.714M9.3335 7.99993C9.3335 8.73631 8.73654 9.33327 8.00016 9.33327C7.26378 9.33327 6.66683 8.73631 6.66683 7.99993C6.66683 7.26355 7.26378 6.6666 8.00016 6.6666C8.73654 6.6666 9.3335 7.26355 9.3335 7.99993Z" stroke="#383E40" stroke-width="1.5" stroke-linecap="round" stroke-linejoin="round"/>
</svg>
