<svg width="16" height="16" viewBox="0 0 16 16" fill="none" xmlns="http://www.w3.org/2000/svg">
<path d="M10.8283 5.17151C12.3904 6.7336 12.3904 9.26626 10.8283 10.8284M5.17149 10.8283C3.60939 9.26624 3.60939 6.73358 5.17149 5.17148M3.28587 12.714C0.682378 10.1105 0.682378 5.88938 3.28587 3.28589M12.714 3.28592C15.3175 5.88941 15.3175 10.1105 12.714 12.714M9.33325 7.99993C9.33325 8.73631 8.7363 9.33327 7.99992 9.33327C7.26354 9.33327 6.66659 8.73631 6.66659 7.99993C6.66659 7.26355 7.26354 6.6666 7.99992 6.6666C8.7363 6.6666 9.33325 7.26355 9.33325 7.99993Z" stroke="#383E40" stroke-width="1.5" stroke-linecap="round" stroke-linejoin="round"/>
</svg>
