<svg width="16" height="16" viewBox="0 0 16 16" fill="none" xmlns="http://www.w3.org/2000/svg">
<path d="M10.8285 3.83822C12.3906 5.40031 12.3906 7.93297 10.8285 9.49507M5.17164 9.49507C3.60954 7.93297 3.60954 5.40031 5.17164 3.83822M3.28587 11.3807C0.682378 8.77723 0.682378 4.55613 3.28587 1.95264M12.7143 1.95264C15.3178 4.55613 15.3178 8.77723 12.7143 11.3807M8.00007 8C8.73645 8 9.3334 7.40305 9.3334 6.66667C9.3334 5.93029 8.73645 5.33333 8.00007 5.33333C7.26369 5.33333 6.66673 5.93029 6.66673 6.66667C6.66673 7.40305 7.26369 8 8.00007 8ZM8.00007 8V14" stroke="#383E40" stroke-width="1.5" stroke-linecap="round" stroke-linejoin="round"/>
</svg>
