<svg width="16" height="16" viewBox="0 0 16 16" fill="none" xmlns="http://www.w3.org/2000/svg">
<path d="M2.6665 4.53325C2.6665 3.41315 2.6665 2.85309 2.88449 2.42527C3.07624 2.04895 3.3822 1.74299 3.75852 1.55124C4.18635 1.33325 4.7464 1.33325 5.8665 1.33325H8.00769C8.49687 1.33325 8.74146 1.33325 8.97163 1.38851C9.17571 1.43751 9.3708 1.51831 9.54974 1.62797C9.75157 1.75166 9.92453 1.92461 10.2704 2.27051L12.3959 4.39599C12.7418 4.7419 12.9148 4.91485 13.0385 5.11668C13.1481 5.29563 13.2289 5.49072 13.2779 5.69479C13.3332 5.92496 13.3332 6.16955 13.3332 6.65874V11.4666C13.3332 12.5867 13.3332 13.1467 13.1152 13.5746C12.9234 13.9509 12.6175 14.2569 12.2412 14.4486C11.8133 14.6666 11.2533 14.6666 10.1332 14.6666H5.8665C4.7464 14.6666 4.18635 14.6666 3.75852 14.4486C3.3822 14.2569 3.07624 13.9509 2.88449 13.5746C2.6665 13.1467 2.6665 12.5867 2.6665 11.4666V4.53325Z" stroke="#383E40" stroke-width="1.5" stroke-linecap="round" stroke-linejoin="round"/>
<path d="M5.33317 9.19992C5.33317 9.01323 5.33317 8.91989 5.3695 8.84859C5.40146 8.78587 5.45245 8.73487 5.51517 8.70292C5.58648 8.66659 5.67982 8.66659 5.8665 8.66659H10.1332C10.3199 8.66659 10.4132 8.66659 10.4845 8.70292C10.5472 8.73487 10.5982 8.78587 10.6302 8.84859C10.6665 8.91989 10.6665 9.01323 10.6665 9.19992V11.4666C10.6665 11.6533 10.6665 11.7466 10.6302 11.8179C10.5982 11.8806 10.5472 11.9316 10.4845 11.9636C10.4132 11.9999 10.3199 11.9999 10.1332 11.9999H5.8665C5.67982 11.9999 5.58648 11.9999 5.51517 11.9636C5.45245 11.9316 5.40146 11.8806 5.3695 11.8179C5.33317 11.7466 5.33317 11.6533 5.33317 11.4666V9.19992Z" stroke="#383E40" stroke-width="1.5" stroke-linecap="round" stroke-linejoin="round"/>
</svg>
