<svg width="16" height="16" viewBox="0 0 16 16" fill="none" xmlns="http://www.w3.org/2000/svg">
<path d="M2.66675 4.53325C2.66675 3.41315 2.66675 2.85309 2.88473 2.42527C3.07648 2.04895 3.38244 1.74299 3.75877 1.55124C4.18659 1.33325 4.74664 1.33325 5.86675 1.33325H8.00793C8.49711 1.33325 8.7417 1.33325 8.97188 1.38851C9.17595 1.43751 9.37104 1.51831 9.54998 1.62797C9.75182 1.75166 9.92477 1.92461 10.2707 2.27051L12.3962 4.39599C12.7421 4.7419 12.915 4.91485 13.0387 5.11668C13.1484 5.29563 13.2292 5.49072 13.2782 5.69479C13.3334 5.92496 13.3334 6.16955 13.3334 6.65874V11.4666C13.3334 12.5867 13.3334 13.1467 13.1154 13.5746C12.9237 13.9509 12.6177 14.2569 12.2414 14.4486C11.8136 14.6666 11.2535 14.6666 10.1334 14.6666H5.86675C4.74664 14.6666 4.18659 14.6666 3.75877 14.4486C3.38244 14.2569 3.07648 13.9509 2.88473 13.5746C2.66675 13.1467 2.66675 12.5867 2.66675 11.4666V4.53325Z" stroke="#383E40" stroke-width="1.5" stroke-linecap="round" stroke-linejoin="round"/>
<path d="M5.33341 9.19992C5.33341 9.01323 5.33341 8.91989 5.36975 8.84859C5.4017 8.78587 5.4527 8.73487 5.51542 8.70292C5.58672 8.66659 5.68006 8.66659 5.86675 8.66659H10.1334C10.3201 8.66659 10.4134 8.66659 10.4847 8.70292C10.5475 8.73487 10.5985 8.78587 10.6304 8.84859C10.6667 8.91989 10.6667 9.01323 10.6667 9.19992V11.4666C10.6667 11.6533 10.6667 11.7466 10.6304 11.8179C10.5985 11.8806 10.5475 11.9316 10.4847 11.9636C10.4134 11.9999 10.3201 11.9999 10.1334 11.9999H5.86675C5.68006 11.9999 5.58672 11.9999 5.51542 11.9636C5.4527 11.9316 5.4017 11.8806 5.36975 11.8179C5.33341 11.7466 5.33341 11.6533 5.33341 11.4666V9.19992Z" stroke="#383E40" stroke-width="1.5" stroke-linecap="round" stroke-linejoin="round"/>
</svg>
