<svg width="16" height="16" viewBox="0 0 16 16" fill="none" xmlns="http://www.w3.org/2000/svg">
<path d="M13.1427 4.6666L12.1903 11.3333M4.09516 4.66667L2.90468 11.3333M11.9999 3.33333L5.33325 3.33333M10.6666 12.6667L3.99992 12.6667M3.73325 4.66667H4.26659C4.63995 4.66667 4.82664 4.66667 4.96925 4.594C5.09469 4.53009 5.19667 4.4281 5.26059 4.30266C5.33325 4.16005 5.33325 3.97337 5.33325 3.6V3.06667C5.33325 2.6933 5.33325 2.50661 5.26059 2.36401C5.19667 2.23856 5.09469 2.13658 4.96925 2.07266C4.82664 2 4.63995 2 4.26659 2H3.73325C3.35988 2 3.1732 2 3.03059 2.07266C2.90515 2.13658 2.80316 2.23856 2.73925 2.36401C2.66659 2.50661 2.66659 2.6933 2.66659 3.06667V3.6C2.66659 3.97337 2.66659 4.16005 2.73925 4.30266C2.80316 4.4281 2.90515 4.53009 3.03059 4.594C3.1732 4.66667 3.35988 4.66667 3.73325 4.66667ZM2.39992 14H2.93325C3.30662 14 3.4933 14 3.63591 13.9273C3.76135 13.8634 3.86334 13.7614 3.92726 13.636C3.99992 13.4934 3.99992 13.3067 3.99992 12.9333V12.4C3.99992 12.0266 3.99992 11.8399 3.92726 11.6973C3.86334 11.5719 3.76135 11.4699 3.63591 11.406C3.4933 11.3333 3.30662 11.3333 2.93325 11.3333H2.39992C2.02655 11.3333 1.83987 11.3333 1.69726 11.406C1.57182 11.4699 1.46983 11.5719 1.40591 11.6973C1.33325 11.8399 1.33325 12.0266 1.33325 12.4V12.9333C1.33325 13.3067 1.33325 13.4934 1.40591 13.636C1.46983 13.7614 1.57182 13.8634 1.69726 13.9273C1.83987 14 2.02655 14 2.39992 14ZM13.0666 4.66667H13.5999C13.9733 4.66667 14.16 4.66667 14.3026 4.594C14.428 4.53009 14.53 4.4281 14.5939 4.30266C14.6666 4.16005 14.6666 3.97337 14.6666 3.6V3.06667C14.6666 2.6933 14.6666 2.50661 14.5939 2.36401C14.53 2.23856 14.428 2.13658 14.3026 2.07266C14.16 2 13.9733 2 13.5999 2H13.0666C12.6932 2 12.5065 2 12.3639 2.07266C12.2385 2.13658 12.1365 2.23856 12.0726 2.36401C11.9999 2.50661 11.9999 2.6933 11.9999 3.06667V3.6C11.9999 3.97337 11.9999 4.16005 12.0726 4.30266C12.1365 4.4281 12.2385 4.53009 12.3639 4.594C12.5065 4.66667 12.6932 4.66667 13.0666 4.66667ZM11.7333 14H12.2666C12.64 14 12.8266 14 12.9692 13.9273C13.0947 13.8634 13.1967 13.7614 13.2606 13.636C13.3333 13.4934 13.3333 13.3067 13.3333 12.9333V12.4C13.3333 12.0266 13.3333 11.8399 13.2606 11.6973C13.1967 11.5719 13.0947 11.4699 12.9692 11.406C12.8266 11.3333 12.64 11.3333 12.2666 11.3333H11.7333C11.3599 11.3333 11.1732 11.3333 11.0306 11.406C10.9052 11.4699 10.8032 11.5719 10.7392 11.6973C10.6666 11.8399 10.6666 12.0266 10.6666 12.4V12.9333C10.6666 13.3067 10.6666 13.4934 10.7392 13.636C10.8032 13.7614 10.9052 13.8634 11.0306 13.9273C11.1732 14 11.3599 14 11.7333 14Z" stroke="#383E40" stroke-width="1.5" stroke-linecap="round" stroke-linejoin="round"/>
</svg>
