<svg width="16" height="16" viewBox="0 0 16 16" fill="none" xmlns="http://www.w3.org/2000/svg">
<path d="M13.1424 4.6666L12.1901 11.3333M4.09491 4.66667L2.90444 11.3333M11.9997 3.33333L5.33301 3.33333M10.6663 12.6667L3.99967 12.6667M3.73301 4.66667H4.26634C4.63971 4.66667 4.82639 4.66667 4.969 4.594C5.09444 4.53009 5.19643 4.4281 5.26035 4.30266C5.33301 4.16005 5.33301 3.97337 5.33301 3.6V3.06667C5.33301 2.6933 5.33301 2.50661 5.26035 2.36401C5.19643 2.23856 5.09444 2.13658 4.969 2.07266C4.82639 2 4.63971 2 4.26634 2H3.73301C3.35964 2 3.17296 2 3.03035 2.07266C2.90491 2.13658 2.80292 2.23856 2.739 2.36401C2.66634 2.50661 2.66634 2.6933 2.66634 3.06667V3.6C2.66634 3.97337 2.66634 4.16005 2.739 4.30266C2.80292 4.4281 2.90491 4.53009 3.03035 4.594C3.17296 4.66667 3.35964 4.66667 3.73301 4.66667ZM2.39967 14H2.93301C3.30638 14 3.49306 14 3.63567 13.9273C3.76111 13.8634 3.8631 13.7614 3.92701 13.636C3.99967 13.4934 3.99967 13.3067 3.99967 12.9333V12.4C3.99967 12.0266 3.99967 11.8399 3.92701 11.6973C3.8631 11.5719 3.76111 11.4699 3.63567 11.406C3.49306 11.3333 3.30638 11.3333 2.93301 11.3333H2.39967C2.02631 11.3333 1.83962 11.3333 1.69701 11.406C1.57157 11.4699 1.46959 11.5719 1.40567 11.6973C1.33301 11.8399 1.33301 12.0266 1.33301 12.4V12.9333C1.33301 13.3067 1.33301 13.4934 1.40567 13.636C1.46959 13.7614 1.57157 13.8634 1.69701 13.9273C1.83962 14 2.02631 14 2.39967 14ZM13.0663 4.66667H13.5997C13.973 4.66667 14.1597 4.66667 14.3023 4.594C14.4278 4.53009 14.5298 4.4281 14.5937 4.30266C14.6663 4.16005 14.6663 3.97337 14.6663 3.6V3.06667C14.6663 2.6933 14.6663 2.50661 14.5937 2.36401C14.5298 2.23856 14.4278 2.13658 14.3023 2.07266C14.1597 2 13.973 2 13.5997 2H13.0663C12.693 2 12.5063 2 12.3637 2.07266C12.2382 2.13658 12.1363 2.23856 12.0723 2.36401C11.9997 2.50661 11.9997 2.6933 11.9997 3.06667V3.6C11.9997 3.97337 11.9997 4.16005 12.0723 4.30266C12.1363 4.4281 12.2382 4.53009 12.3637 4.594C12.5063 4.66667 12.693 4.66667 13.0663 4.66667ZM11.733 14H12.2663C12.6397 14 12.8264 14 12.969 13.9273C13.0944 13.8634 13.1964 13.7614 13.2603 13.636C13.333 13.4934 13.333 13.3067 13.333 12.9333V12.4C13.333 12.0266 13.333 11.8399 13.2603 11.6973C13.1964 11.5719 13.0944 11.4699 12.969 11.406C12.8264 11.3333 12.6397 11.3333 12.2663 11.3333H11.733C11.3596 11.3333 11.173 11.3333 11.0303 11.406C10.9049 11.4699 10.8029 11.5719 10.739 11.6973C10.6663 11.8399 10.6663 12.0266 10.6663 12.4V12.9333C10.6663 13.3067 10.6663 13.4934 10.739 13.636C10.8029 13.7614 10.9049 13.8634 11.0303 13.9273C11.173 14 11.3596 14 11.733 14Z" stroke="#383E40" stroke-width="1.5" stroke-linecap="round" stroke-linejoin="round"/>
</svg>
