<svg width="16" height="16" viewBox="0 0 16 16" fill="none" xmlns="http://www.w3.org/2000/svg">
<path d="M3.33325 12.6666V3.33325M10.9336 4.05299L7.04108 7.16699C6.68518 7.45171 6.50723 7.59407 6.44281 7.76605C6.38632 7.91685 6.38632 8.08299 6.44281 8.23378C6.50723 8.40577 6.68518 8.54813 7.04108 8.83285L10.9336 11.9468C11.4884 12.3907 11.7657 12.6126 11.9992 12.6128C12.2022 12.6131 12.3943 12.5207 12.5209 12.3621C12.6666 12.1796 12.6666 11.8244 12.6666 11.1139V4.88592C12.6666 4.17545 12.6666 3.82022 12.5209 3.63777C12.3943 3.47909 12.2022 3.38678 11.9992 3.387C11.7657 3.38725 11.4884 3.60917 10.9336 4.05299Z" stroke="#383E40" stroke-width="1.5" stroke-linecap="round" stroke-linejoin="round"/>
</svg>
