<svg width="16" height="16" viewBox="0 0 16 16" fill="none" xmlns="http://www.w3.org/2000/svg">
<path d="M3.28665 3.28665L12.7133 12.7133M1.33331 5.68181V10.3182C1.33331 10.4812 1.33331 10.5627 1.35173 10.6395C1.36806 10.7075 1.395 10.7725 1.43155 10.8322C1.47278 10.8994 1.53043 10.9571 1.64573 11.0724L4.92756 14.3542C5.04286 14.4695 5.10051 14.5272 5.16779 14.5684C5.22744 14.605 5.29247 14.6319 5.36049 14.6482C5.43722 14.6666 5.51875 14.6666 5.68181 14.6666H10.3182C10.4812 14.6666 10.5627 14.6666 10.6395 14.6482C10.7075 14.6319 10.7725 14.605 10.8322 14.5684C10.8994 14.5272 10.9571 14.4695 11.0724 14.3542L14.3542 11.0724C14.4695 10.9571 14.5272 10.8994 14.5684 10.8322C14.605 10.7725 14.6319 10.7075 14.6482 10.6395C14.6666 10.5627 14.6666 10.4812 14.6666 10.3182V5.68181C14.6666 5.51875 14.6666 5.43722 14.6482 5.36049C14.6319 5.29247 14.605 5.22744 14.5684 5.16779C14.5272 5.10051 14.4695 5.04286 14.3542 4.92756L11.0724 1.64573C10.9571 1.53043 10.8994 1.47278 10.8322 1.43155C10.7725 1.395 10.7075 1.36806 10.6395 1.35173C10.5627 1.33331 10.4812 1.33331 10.3182 1.33331H5.68181C5.51875 1.33331 5.43722 1.33331 5.36049 1.35173C5.29247 1.36806 5.22744 1.395 5.16779 1.43155C5.10051 1.47278 5.04286 1.53043 4.92756 1.64573L1.64573 4.92756C1.53043 5.04286 1.47278 5.10051 1.43155 5.16779C1.395 5.22744 1.36806 5.29247 1.35173 5.36049C1.33331 5.43722 1.33331 5.51875 1.33331 5.68181Z" stroke="#383E40" stroke-width="1.5" stroke-linecap="round" stroke-linejoin="round"/>
</svg>
