<svg width="16" height="16" viewBox="0 0 16 16" fill="none" xmlns="http://www.w3.org/2000/svg">
<path d="M7.99967 7.99992H8.00634M11.9997 3.99992H12.0063M3.99967 3.99992H4.00634M11.9997 11.9999H12.0063M3.99967 11.9999H4.00634M4.53301 14.6666H11.4663C12.5864 14.6666 13.1465 14.6666 13.5743 14.4486C13.9506 14.2569 14.2566 13.9509 14.4484 13.5746C14.6663 13.1467 14.6663 12.5867 14.6663 11.4666V4.53325C14.6663 3.41315 14.6663 2.85309 14.4484 2.42527C14.2566 2.04895 13.9506 1.74299 13.5743 1.55124C13.1465 1.33325 12.5864 1.33325 11.4663 1.33325H4.53301C3.4129 1.33325 2.85285 1.33325 2.42503 1.55124C2.0487 1.74299 1.74274 2.04895 1.55099 2.42527C1.33301 2.85309 1.33301 3.41315 1.33301 4.53325V11.4666C1.33301 12.5867 1.33301 13.1467 1.55099 13.5746C1.74274 13.9509 2.0487 14.2569 2.42503 14.4486C2.85285 14.6666 3.4129 14.6666 4.53301 14.6666ZM8.33301 7.99992C8.33301 8.18401 8.18377 8.33325 7.99967 8.33325C7.81558 8.33325 7.66634 8.18401 7.66634 7.99992C7.66634 7.81582 7.81558 7.66659 7.99967 7.66659C8.18377 7.66659 8.33301 7.81582 8.33301 7.99992ZM11.333 7.99992C11.333 9.84087 9.84062 11.3333 7.99967 11.3333C6.15873 11.3333 4.66634 9.84087 4.66634 7.99992C4.66634 6.15897 6.15873 4.66659 7.99967 4.66659C9.84062 4.66659 11.333 6.15897 11.333 7.99992Z" stroke="#383E40" stroke-width="1.5" stroke-linecap="round" stroke-linejoin="round"/>
</svg>
