<svg width="16" height="16" viewBox="0 0 16 16" fill="none" xmlns="http://www.w3.org/2000/svg">
<path d="M12 11.9999V13.5999C12 13.9733 12 14.16 11.9273 14.3026C11.8634 14.428 11.7614 14.53 11.636 14.5939C11.4934 14.6666 11.3067 14.6666 10.9333 14.6666H5.06667C4.6933 14.6666 4.50661 14.6666 4.36401 14.5939C4.23857 14.53 4.13658 14.428 4.07266 14.3026C4 14.16 4 13.9733 4 13.5999V11.9999M8 6.66659H8.00667M5.2 11.9999H10.8C11.9201 11.9999 12.4802 11.9999 12.908 11.7819C13.2843 11.5902 13.5903 11.2842 13.782 10.9079C14 10.4801 14 9.92002 14 8.79992V4.53325C14 3.41315 14 2.85309 13.782 2.42527C13.5903 2.04895 13.2843 1.74299 12.908 1.55124C12.4802 1.33325 11.9201 1.33325 10.8 1.33325H5.2C4.0799 1.33325 3.51984 1.33325 3.09202 1.55124C2.71569 1.74299 2.40973 2.04895 2.21799 2.42527C2 2.85309 2 3.41315 2 4.53325V8.79992C2 9.92002 2 10.4801 2.21799 10.9079C2.40973 11.2842 2.71569 11.5902 3.09202 11.7819C3.51984 11.9999 4.0799 11.9999 5.2 11.9999ZM11.3333 6.66659C11.3333 8.50753 9.84095 9.99992 8 9.99992C6.15905 9.99992 4.66667 8.50753 4.66667 6.66659C4.66667 4.82564 6.15905 3.33325 8 3.33325C9.84095 3.33325 11.3333 4.82564 11.3333 6.66659ZM8.33333 6.66659C8.33333 6.85068 8.1841 6.99992 8 6.99992C7.81591 6.99992 7.66667 6.85068 7.66667 6.66659C7.66667 6.48249 7.81591 6.33325 8 6.33325C8.1841 6.33325 8.33333 6.48249 8.33333 6.66659Z" stroke="#383E40" stroke-width="1.5" stroke-linecap="round" stroke-linejoin="round"/>
</svg>
