<svg width="16" height="16" viewBox="0 0 16 16" fill="none" xmlns="http://www.w3.org/2000/svg">
<path d="M8.00033 3.99992H8.00699M5.86699 14.6666H10.1337C11.2538 14.6666 11.8138 14.6666 12.2416 14.4486C12.618 14.2569 12.9239 13.9509 13.1157 13.5746C13.3337 13.1467 13.3337 12.5867 13.3337 11.4666V4.53325C13.3337 3.41315 13.3337 2.85309 13.1157 2.42527C12.9239 2.04895 12.618 1.74299 12.2416 1.55124C11.8138 1.33325 11.2538 1.33325 10.1337 1.33325H5.86699C4.74689 1.33325 4.18683 1.33325 3.75901 1.55124C3.38269 1.74299 3.07673 2.04895 2.88498 2.42527C2.66699 2.85309 2.66699 3.41315 2.66699 4.53325V11.4666C2.66699 12.5867 2.66699 13.1467 2.88498 13.5746C3.07673 13.9509 3.38269 14.2569 3.75901 14.4486C4.18683 14.6666 4.74689 14.6666 5.86699 14.6666ZM8.33366 3.99992C8.33366 4.18401 8.18442 4.33325 8.00033 4.33325C7.81623 4.33325 7.66699 4.18401 7.66699 3.99992C7.66699 3.81582 7.81623 3.66659 8.00033 3.66659C8.18442 3.66659 8.33366 3.81582 8.33366 3.99992ZM10.667 9.33325C10.667 10.806 9.47308 11.9999 8.00033 11.9999C6.52757 11.9999 5.33366 10.806 5.33366 9.33325C5.33366 7.86049 6.52757 6.66659 8.00033 6.66659C9.47308 6.66659 10.667 7.86049 10.667 9.33325Z" stroke="#383E40" stroke-width="1.5" stroke-linecap="round" stroke-linejoin="round"/>
</svg>
