<svg width="16" height="16" viewBox="0 0 16 16" fill="none" xmlns="http://www.w3.org/2000/svg">
<path d="M7.99992 7.99992H8.00659M11.9999 3.99992H12.0066M3.99992 3.99992H4.00659M11.9999 11.9999H12.0066M3.99992 11.9999H4.00659M4.53325 14.6666H11.4666C12.5867 14.6666 13.1467 14.6666 13.5746 14.4486C13.9509 14.2569 14.2569 13.9509 14.4486 13.5746C14.6666 13.1467 14.6666 12.5867 14.6666 11.4666V4.53325C14.6666 3.41315 14.6666 2.85309 14.4486 2.42527C14.2569 2.04895 13.9509 1.74299 13.5746 1.55124C13.1467 1.33325 12.5867 1.33325 11.4666 1.33325H4.53325C3.41315 1.33325 2.85309 1.33325 2.42527 1.55124C2.04895 1.74299 1.74299 2.04895 1.55124 2.42527C1.33325 2.85309 1.33325 3.41315 1.33325 4.53325V11.4666C1.33325 12.5867 1.33325 13.1467 1.55124 13.5746C1.74299 13.9509 2.04895 14.2569 2.42527 14.4486C2.85309 14.6666 3.41315 14.6666 4.53325 14.6666ZM8.33325 7.99992C8.33325 8.18401 8.18401 8.33325 7.99992 8.33325C7.81582 8.33325 7.66659 8.18401 7.66659 7.99992C7.66659 7.81582 7.81582 7.66659 7.99992 7.66659C8.18401 7.66659 8.33325 7.81582 8.33325 7.99992ZM11.3333 7.99992C11.3333 9.84087 9.84087 11.3333 7.99992 11.3333C6.15897 11.3333 4.66659 9.84087 4.66659 7.99992C4.66659 6.15897 6.15897 4.66659 7.99992 4.66659C9.84087 4.66659 11.3333 6.15897 11.3333 7.99992Z" stroke="#383E40" stroke-width="1.5" stroke-linecap="round" stroke-linejoin="round"/>
</svg>
