<svg width="16" height="16" viewBox="0 0 16 16" fill="none" xmlns="http://www.w3.org/2000/svg">
<path d="M14.6666 7.99998C14.6666 11.6819 11.6819 14.6666 7.99998 14.6666C4.31808 14.6666 1.33331 11.6819 1.33331 7.99998M14.6666 7.99998C14.6666 4.31808 11.6819 1.33331 7.99998 1.33331M14.6666 7.99998H13M1.33331 7.99998C1.33331 4.31808 4.31808 1.33331 7.99998 1.33331M1.33331 7.99998H2.99998M7.99998 1.33331V2.99998M12.7189 3.33331L8.99992 6.99998M12.7189 12.7189L12.583 12.583C12.1218 12.1218 11.8912 11.8912 11.6221 11.7263C11.3835 11.5801 11.1234 11.4723 10.8513 11.407C10.5444 11.3333 10.2182 11.3333 9.56599 11.3333L6.43395 11.3333C5.78171 11.3333 5.45559 11.3333 5.14869 11.407C4.8766 11.4723 4.61648 11.5801 4.37789 11.7263C4.10878 11.8912 3.87818 12.1218 3.41698 12.583L3.28107 12.7189M3.28107 3.33331L4.4387 4.49095M9.33331 7.99998C9.33331 8.73636 8.73636 9.33331 7.99998 9.33331C7.2636 9.33331 6.66665 8.73636 6.66665 7.99998C6.66665 7.2636 7.2636 6.66665 7.99998 6.66665C8.73636 6.66665 9.33331 7.2636 9.33331 7.99998Z" stroke="#383E40" stroke-width="1.5" stroke-linecap="round" stroke-linejoin="round"/>
</svg>
