<svg width="16" height="16" viewBox="0 0 16 16" fill="none" xmlns="http://www.w3.org/2000/svg">
<path d="M4.3335 8.66683L4.85647 9.71277C5.03346 10.0668 5.12196 10.2438 5.24018 10.3971C5.34509 10.5332 5.4671 10.6552 5.6032 10.7601C5.75657 10.8784 5.93357 10.9669 6.28755 11.1439L7.3335 11.6668L6.28755 12.1898C5.93357 12.3668 5.75657 12.4553 5.6032 12.5735C5.4671 12.6784 5.34509 12.8004 5.24018 12.9365C5.12196 13.0899 5.03346 13.2669 4.85647 13.6209L4.3335 14.6668L3.81052 13.6209C3.63353 13.2669 3.54503 13.0899 3.42681 12.9365C3.3219 12.8004 3.19989 12.6784 3.06379 12.5735C2.91042 12.4553 2.73343 12.3668 2.37944 12.1898L1.3335 11.6668L2.37944 11.1439C2.73343 10.9669 2.91042 10.8784 3.06379 10.7601C3.19989 10.6552 3.3219 10.5332 3.42681 10.3971C3.54503 10.2438 3.63353 10.0668 3.81052 9.71277L4.3335 8.66683Z" stroke="#383E40" stroke-width="1.5" stroke-linecap="round" stroke-linejoin="round"/>
<path d="M10.0002 1.3335L10.7859 3.37644C10.9739 3.86526 11.0679 4.10967 11.2141 4.31526C11.3437 4.49747 11.5029 4.65666 11.6851 4.78622C11.8907 4.9324 12.1351 5.02641 12.6239 5.21441L14.6668 6.00016L12.6239 6.78591C12.1351 6.97392 11.8907 7.06792 11.6851 7.21411C11.5029 7.34367 11.3437 7.50286 11.2141 7.68507C11.0679 7.89065 10.9739 8.13506 10.7859 8.62388L10.0002 10.6668L9.21441 8.62388C9.02641 8.13506 8.9324 7.89065 8.78622 7.68507C8.65666 7.50286 8.49747 7.34367 8.31526 7.21411C8.10967 7.06792 7.86526 6.97392 7.37644 6.78591L5.3335 6.00016L7.37644 5.21441C7.86526 5.02641 8.10967 4.9324 8.31526 4.78622C8.49746 4.65666 8.65666 4.49747 8.78622 4.31526C8.9324 4.10967 9.02641 3.86526 9.21441 3.37644L10.0002 1.3335Z" stroke="#383E40" stroke-width="1.5" stroke-linecap="round" stroke-linejoin="round"/>
</svg>
