<svg width="16" height="16" viewBox="0 0 16 16" fill="none" xmlns="http://www.w3.org/2000/svg">
<path d="M2.99992 14.6666V11.3333M2.99992 4.66659V1.33325M1.33325 2.99992H4.66659M1.33325 12.9999H4.66659M8.66658 1.99992L7.51047 5.00583C7.32246 5.49465 7.22845 5.73906 7.08227 5.94464C6.95271 6.12685 6.79352 6.28605 6.61131 6.41561C6.40572 6.56179 6.16131 6.65579 5.67249 6.8438L2.66659 7.99992L5.67249 9.15604C6.16131 9.34405 6.40572 9.43805 6.61131 9.58423C6.79352 9.71379 6.95271 9.87299 7.08227 10.0552C7.22846 10.2608 7.32246 10.5052 7.51047 10.994L8.66659 13.9999L9.8227 10.994C10.0107 10.5052 10.1047 10.2608 10.2509 10.0552C10.3805 9.87299 10.5397 9.71379 10.7219 9.58423C10.9274 9.43805 11.1719 9.34405 11.6607 9.15604L14.6666 7.99992L11.6607 6.8438C11.1719 6.65579 10.9274 6.56179 10.7219 6.41561C10.5397 6.28605 10.3805 6.12685 10.2509 5.94464C10.1047 5.73906 10.0107 5.49465 9.8227 5.00583L8.66658 1.99992Z" stroke="#383E40" stroke-width="1.5" stroke-linecap="round" stroke-linejoin="round"/>
</svg>
