<svg width="16" height="16" viewBox="0 0 16 16" fill="none" xmlns="http://www.w3.org/2000/svg">
<path d="M7.52627 2.24417C7.67939 1.94944 7.75595 1.80207 7.85857 1.75418C7.94792 1.71247 8.05116 1.71247 8.14051 1.75418C8.24313 1.80207 8.31969 1.94944 8.47281 2.24417L9.4815 4.18569C9.54754 4.31281 9.58056 4.37637 9.6301 4.4186C9.67383 4.45588 9.72645 4.48122 9.78285 4.49217C9.84676 4.50457 9.91704 4.49075 10.0576 4.46313L12.2045 4.04123C12.5304 3.97718 12.6933 3.94516 12.7947 3.99553C12.883 4.03939 12.9474 4.1201 12.9705 4.21596C12.9971 4.32605 12.9296 4.47779 12.7946 4.78127L11.9056 6.78041C11.8474 6.91131 11.8183 6.97675 11.8161 7.04181C11.8142 7.09924 11.8272 7.15618 11.8539 7.20711C11.884 7.2648 11.9386 7.31114 12.0479 7.40381L13.7163 8.81923C13.9695 9.0341 14.0962 9.14154 14.12 9.25224C14.1408 9.34863 14.1178 9.44928 14.0573 9.52711C13.9878 9.6165 13.827 9.65835 13.5056 9.74205L11.3883 10.2934C11.2497 10.3295 11.1804 10.3476 11.1282 10.3865C11.0821 10.4208 11.0457 10.4665 11.0225 10.519C10.9962 10.5786 10.994 10.6502 10.9897 10.7933L10.9233 12.9802C10.9132 13.3122 10.9081 13.4782 10.8365 13.5659C10.774 13.6422 10.681 13.687 10.5824 13.6882C10.4692 13.6896 10.3363 13.59 10.0704 13.3909L8.31926 12.0793C8.2046 11.9935 8.14727 11.9505 8.08431 11.934C8.02874 11.9194 7.97034 11.9194 7.91477 11.934C7.85182 11.9505 7.79448 11.9935 7.67982 12.0793L5.92864 13.3909C5.6628 13.59 5.52988 13.6896 5.41664 13.6882C5.31804 13.687 5.22503 13.6422 5.16262 13.5659C5.09095 13.4782 5.08591 13.3122 5.07583 12.9802L5.00943 10.7933C5.00508 10.6502 5.00291 10.5786 4.9766 10.519C4.95338 10.4665 4.91696 10.4208 4.87089 10.3865C4.8187 10.3476 4.74938 10.3295 4.61075 10.2934L2.49345 9.74205C2.17204 9.65835 2.01133 9.6165 1.9418 9.52711C1.88126 9.44928 1.85829 9.34863 1.87907 9.25224C1.90292 9.14154 2.02956 9.0341 2.28283 8.81923L3.95121 7.40381C4.06046 7.31114 4.11508 7.2648 4.14522 7.20711C4.17184 7.15618 4.18483 7.09924 4.18295 7.04181C4.18082 6.97675 4.15171 6.9113 4.0935 6.78041L3.20447 4.78127C3.06951 4.47779 3.00203 4.32605 3.02856 4.21596C3.05167 4.1201 3.11603 4.03939 3.20435 3.99553C3.30577 3.94516 3.46873 3.97718 3.79463 4.04123L5.94147 4.46313C6.08204 4.49075 6.15233 4.50457 6.21623 4.49217C6.27263 4.48122 6.32525 4.45588 6.36898 4.4186C6.41852 4.37637 6.45154 4.31281 6.51759 4.18569L7.52627 2.24417Z" stroke="#383E40" stroke-width="1.5" stroke-linecap="round" stroke-linejoin="round"/>
</svg>
