<svg width="16" height="16" viewBox="0 0 16 16" fill="none" xmlns="http://www.w3.org/2000/svg">
<path d="M3.00016 14.6666V11.3333M3.00016 4.66659V1.33325M1.3335 2.99992H4.66683M1.3335 12.9999H4.66683M8.66683 1.99992L7.51071 5.00583C7.3227 5.49465 7.2287 5.73906 7.08252 5.94464C6.95296 6.12685 6.79376 6.28605 6.61155 6.41561C6.40597 6.56179 6.16156 6.65579 5.67274 6.8438L2.66683 7.99992L5.67274 9.15604C6.16156 9.34405 6.40597 9.43805 6.61155 9.58423C6.79376 9.71379 6.95296 9.87299 7.08252 10.0552C7.2287 10.2608 7.3227 10.5052 7.51071 10.994L8.66683 13.9999L9.82295 10.994C10.011 10.5052 10.105 10.2608 10.2511 10.0552C10.3807 9.87299 10.5399 9.71379 10.7221 9.58423C10.9277 9.43805 11.1721 9.34405 11.6609 9.15604L14.6668 7.99992L11.6609 6.8438C11.1721 6.65579 10.9277 6.56179 10.7221 6.41561C10.5399 6.28605 10.3807 6.12685 10.2511 5.94464C10.105 5.73906 10.011 5.49465 9.82295 5.00583L8.66683 1.99992Z" stroke="#383E40" stroke-width="1.5" stroke-linecap="round" stroke-linejoin="round"/>
</svg>
