<svg width="16" height="16" viewBox="0 0 16 16" fill="none" xmlns="http://www.w3.org/2000/svg">
<path d="M14.667 8.07801C14.667 4.35298 11.6473 1.33325 7.92224 1.33325C4.89889 1.33325 2.34016 3.32249 1.48346 6.06352C1.42858 6.23911 1.40114 6.3269 1.40373 6.43668C1.40584 6.52595 1.43297 6.63623 1.47252 6.71628C1.52117 6.81473 1.59628 6.88984 1.74649 7.04004L8.96049 14.2537C9.1107 14.4039 9.18581 14.479 9.28426 14.5277C9.36432 14.5672 9.4746 14.5943 9.56387 14.5964C9.67365 14.599 9.76144 14.5716 9.93702 14.5167C12.6779 13.6599 14.667 11.1012 14.667 8.07801Z" stroke="#383E40" stroke-width="1.5" stroke-linecap="round" stroke-linejoin="round"/>
<path d="M2.29778 6.48932C2.45812 6.47791 2.62 6.47211 2.78324 6.47211C6.50827 6.47211 9.528 9.49184 9.528 13.2169C9.528 13.3801 9.5222 13.542 9.5108 13.7023C9.49087 13.9825 9.48091 14.1225 9.39926 14.209C9.33294 14.2793 9.21977 14.3215 9.12363 14.3119C9.00527 14.3 8.89763 14.1924 8.68234 13.9771L2.02301 7.31778C1.80772 7.10249 1.70008 6.99484 1.68822 6.87648C1.67859 6.78035 1.72083 6.66718 1.79109 6.60086C1.87759 6.5192 2.01766 6.50924 2.29778 6.48932Z" stroke="#383E40" stroke-width="1.5" stroke-linecap="round" stroke-linejoin="round"/>
</svg>
