<svg width="16" height="16" viewBox="0 0 16 16" fill="none" xmlns="http://www.w3.org/2000/svg">
<path d="M7.99992 14.6666C11.6818 14.6666 14.6666 11.6818 14.6666 7.99992C14.6666 4.31802 11.6818 1.33325 7.99992 1.33325C4.31802 1.33325 1.33325 4.31802 1.33325 7.99992C1.33325 11.6818 4.31802 14.6666 7.99992 14.6666Z" stroke="#383E40" stroke-width="1.5" stroke-linecap="round" stroke-linejoin="round"/>
<path d="M5.33325 6.39992C5.33325 6.02655 5.33325 5.83987 5.40591 5.69726C5.46983 5.57182 5.57182 5.46983 5.69726 5.40591C5.83987 5.33325 6.02655 5.33325 6.39992 5.33325H9.59992C9.97329 5.33325 10.16 5.33325 10.3026 5.40591C10.428 5.46983 10.53 5.57182 10.5939 5.69726C10.6666 5.83987 10.6666 6.02655 10.6666 6.39992V9.59992C10.6666 9.97329 10.6666 10.16 10.5939 10.3026C10.53 10.428 10.428 10.53 10.3026 10.5939C10.16 10.6666 9.97329 10.6666 9.59992 10.6666H6.39992C6.02655 10.6666 5.83987 10.6666 5.69726 10.5939C5.57182 10.53 5.46983 10.428 5.40591 10.3026C5.33325 10.16 5.33325 9.97329 5.33325 9.59992V6.39992Z" stroke="#383E40" stroke-width="1.5" stroke-linecap="round" stroke-linejoin="round"/>
</svg>
