<svg width="16" height="16" viewBox="0 0 16 16" fill="none" xmlns="http://www.w3.org/2000/svg">
<path d="M2.66634 10.8421H7.33301M1.33301 14L4.82507 2L8.66634 14M9.33301 6.93609C9.64673 5.59887 10.2742 4.19483 12.1565 4.596C14.0389 4.99716 14.0389 7.27038 14.0389 8.27325V9.61044M14.0389 9.61044V12.6191M14.0389 9.61044C13.7252 9.16471 12.8467 8.27326 11.8428 8.27325C10.5879 8.27325 9.64673 9.61043 9.64673 10.9476C9.64673 12.2848 9.96046 13.622 11.5291 13.9563C12.7975 14.2266 13.6206 13.1763 14.0389 12.6191M14.0389 12.6191C14.0389 13.0649 14.1644 13.9563 14.6663 13.9563" stroke="#383E40" stroke-width="1.5" stroke-linecap="round" stroke-linejoin="round"/>
</svg>
