<svg width="16" height="16" viewBox="0 0 16 16" fill="none" xmlns="http://www.w3.org/2000/svg">
<path d="M4 10.6665C4 12.1393 5.19391 13.3332 6.66667 13.3332H9.33333C10.8061 13.3332 12 12.1393 12 10.6665C12 9.19374 10.8061 7.99984 9.33333 7.99984M7 13.3332C8.47276 13.3332 9.66667 12.1393 9.66667 10.6665C9.66667 9.19374 8.47276 7.99984 7 7.99984M12 5.33317C12 3.86041 10.8061 2.6665 9.33333 2.6665H6.66667C5.19391 2.6665 4 3.86041 4 5.33317M9 2.6665C7.52724 2.6665 6.33333 3.86041 6.33333 5.33317M2 7.99984H14" stroke="#383E40" stroke-width="1.5" stroke-linecap="round" stroke-linejoin="round"/>
</svg>
