<svg width="16" height="16" viewBox="0 0 16 16" fill="none" xmlns="http://www.w3.org/2000/svg">
<path d="M2.66659 9.85965H7.33325M1.33325 12.6667L4.82532 2L8.66659 12.6667M9.66646 6C9.66646 6 10.4508 3.97674 12.3331 4.33333C14.2155 4.68992 14.039 6.68478 14.039 7.57622V8.76483M14.039 8.76483V11.4392M14.039 8.76483C13.7253 8.36863 12.8469 7.57623 11.8429 7.57622C10.588 7.57622 9.66646 8.76483 9.66646 9.95345C9.66646 11.1421 9.96058 12.3307 11.5292 12.6278C12.7976 12.8681 13.6207 11.9345 14.039 11.4392M14.039 11.4392C14.039 11.8354 14.1645 12.6278 14.6665 12.6278" stroke="#383E40" stroke-width="1.5" stroke-linecap="round" stroke-linejoin="round"/>
</svg>
