<svg width="14" height="14" viewBox="0 0 14 14" fill="none" xmlns="http://www.w3.org/2000/svg">
<path d="M11.525 7C11.7873 7 12.0023 6.78685 11.9775 6.52569C11.8769 5.46967 11.4422 4.46835 10.7305 3.67078C9.9128 2.75459 8.78659 2.17133 7.56651 2.0322C6.34643 1.89306 5.11782 2.20778 4.11488 2.91636C3.2418 3.5332 2.5929 4.41096 2.25712 5.41722C2.17408 5.66606 2.33558 5.92215 2.59118 5.98122C2.84678 6.04028 3.09922 5.8796 3.18779 5.63266C3.46731 4.85331 3.98064 4.17439 4.66306 3.69225C5.47543 3.1183 6.47061 2.86338 7.45887 2.97608C8.44714 3.08878 9.35937 3.56122 10.0217 4.30333C10.578 4.92673 10.9253 5.7038 11.0222 6.52607C11.0529 6.7866 11.2627 7 11.525 7Z" fill="currentColor"/>
<path d="M2.66811 8.30782C2.41697 8.38364 2.27275 8.64984 2.37205 8.89265C2.71948 9.74221 3.29546 10.4828 4.04013 11.0298C4.7848 11.5767 5.6638 11.9048 6.57838 11.9822C6.83978 12.0043 7.05065 11.7871 7.04788 11.5247C7.0451 11.2624 6.8295 11.0549 6.56866 11.027C5.8602 10.9511 5.18126 10.6892 4.6025 10.2641C4.02375 9.83903 3.57078 9.26951 3.28645 8.61619C3.18176 8.37565 2.91925 8.232 2.66811 8.30782Z" fill="currentColor"/>
<path d="M11.3583 9.07299C11.3373 8.89352 11.2507 8.7545 11.0984 8.65592C10.9462 8.55608 10.7546 8.50616 10.5236 8.50616C10.3583 8.50616 10.2152 8.53144 10.0945 8.58199C9.97375 8.63128 9.87992 8.69953 9.81299 8.78673C9.74738 8.87267 9.71457 8.97062 9.71457 9.08057C9.71457 9.17283 9.73688 9.25245 9.7815 9.31943C9.82743 9.38641 9.88714 9.44265 9.96063 9.48815C10.0354 9.53239 10.1155 9.56967 10.2008 9.6C10.2861 9.62907 10.3681 9.65308 10.4469 9.67204L10.8406 9.77062C10.9692 9.80095 11.101 9.84202 11.2362 9.89384C11.3714 9.94566 11.4967 10.0139 11.6122 10.0986C11.7277 10.1833 11.8209 10.2882 11.8917 10.4133C11.9639 10.5384 12 10.6882 12 10.8626C12 11.0825 11.9409 11.2777 11.8228 11.4483C11.706 11.619 11.5361 11.7536 11.313 11.8521C11.0912 11.9507 10.8228 12 10.5079 12C10.206 12 9.94488 11.9539 9.72441 11.8616C9.50394 11.7694 9.33136 11.6385 9.20669 11.4692C9.08202 11.2986 9.01312 11.0964 9 10.8626H9.61024C9.62205 11.0028 9.66929 11.1197 9.75197 11.2133C9.83596 11.3055 9.94291 11.3744 10.0728 11.4199C10.2041 11.4641 10.3478 11.4863 10.5039 11.4863C10.6759 11.4863 10.8287 11.4603 10.9626 11.4085C11.0978 11.3555 11.2041 11.2821 11.2815 11.1886C11.3589 11.0938 11.3976 10.9833 11.3976 10.8569C11.3976 10.7419 11.3635 10.6477 11.2953 10.5744C11.2283 10.5011 11.1371 10.4404 11.0217 10.3924C10.9075 10.3444 10.7782 10.3021 10.6339 10.2654L10.1575 10.1403C9.83465 10.0556 9.57874 9.93112 9.38976 9.76682C9.2021 9.60253 9.10827 9.38515 9.10827 9.11469C9.10827 8.891 9.17126 8.69573 9.29724 8.52891C9.42323 8.36209 9.59383 8.23254 9.80906 8.14028C10.0243 8.04676 10.2671 8 10.5374 8C10.8104 8 11.0512 8.04613 11.2598 8.13839C11.4698 8.23065 11.6352 8.35766 11.7559 8.51943C11.8766 8.67994 11.9396 8.86445 11.9449 9.07299H11.3583Z" fill="currentColor"/>
<path d="M1 7H7" stroke="currentColor" stroke-linecap="round"/>
<circle cx="7" cy="7" r="1" fill="currentColor"/>
</svg>
