<svg width="16" height="16" viewBox="0 0 16 16" fill="none" xmlns="http://www.w3.org/2000/svg">
<path d="M10.0001 1.33325V2.26659C10.0001 2.63995 10.0001 2.82664 9.92742 2.96925C9.8635 3.09469 9.76152 3.19667 9.63607 3.26059C9.49347 3.33325 9.30678 3.33325 8.93341 3.33325H7.06675C6.69338 3.33325 6.5067 3.33325 6.36409 3.26059C6.23865 3.19667 6.13666 3.09469 6.07274 2.96925C6.00008 2.82664 6.00008 2.63995 6.00008 2.26659V1.33325M4.80008 14.6666H11.2001C11.9468 14.6666 12.3202 14.6666 12.6054 14.5213C12.8563 14.3934 13.0603 14.1895 13.1881 13.9386C13.3334 13.6534 13.3334 13.28 13.3334 12.5333V3.46659C13.3334 2.71985 13.3334 2.34648 13.1881 2.06126C13.0603 1.81038 12.8563 1.60641 12.6054 1.47858C12.3202 1.33325 11.9468 1.33325 11.2001 1.33325H4.80008C4.05334 1.33325 3.67998 1.33325 3.39476 1.47858C3.14388 1.60641 2.9399 1.81038 2.81207 2.06126C2.66675 2.34648 2.66675 2.71985 2.66675 3.46659V12.5333C2.66675 13.28 2.66675 13.6534 2.81207 13.9386C2.9399 14.1895 3.14388 14.3934 3.39476 14.5213C3.67998 14.6666 4.05334 14.6666 4.80008 14.6666Z" stroke="#383E40" stroke-width="1.5" stroke-linecap="round" stroke-linejoin="round"/>
</svg>
