<svg width="16" height="16" viewBox="0 0 16 16" fill="none" xmlns="http://www.w3.org/2000/svg">
<path d="M10.0003 1.33325V2.26659C10.0003 2.63995 10.0003 2.82664 9.92766 2.96925C9.86375 3.09469 9.76176 3.19667 9.63632 3.26059C9.49371 3.33325 9.30703 3.33325 8.93366 3.33325H7.06699C6.69362 3.33325 6.50694 3.33325 6.36433 3.26059C6.23889 3.19667 6.1369 3.09469 6.07299 2.96925C6.00033 2.82664 6.00033 2.63995 6.00033 2.26659V1.33325M4.80033 14.6666H11.2003C11.9471 14.6666 12.3204 14.6666 12.6056 14.5213C12.8565 14.3934 13.0605 14.1895 13.1883 13.9386C13.3337 13.6534 13.3337 13.28 13.3337 12.5333V3.46659C13.3337 2.71985 13.3337 2.34648 13.1883 2.06126C13.0605 1.81038 12.8565 1.60641 12.6056 1.47858C12.3204 1.33325 11.9471 1.33325 11.2003 1.33325H4.80033C4.05359 1.33325 3.68022 1.33325 3.395 1.47858C3.14412 1.60641 2.94015 1.81038 2.81232 2.06126C2.66699 2.34648 2.66699 2.71985 2.66699 3.46659V12.5333C2.66699 13.28 2.66699 13.6534 2.81232 13.9386C2.94015 14.1895 3.14412 14.3934 3.395 14.5213C3.68022 14.6666 4.05359 14.6666 4.80033 14.6666Z" stroke="#383E40" stroke-width="1.5" stroke-linecap="round" stroke-linejoin="round"/>
</svg>
