<svg width="16" height="16" viewBox="0 0 16 16" fill="none" xmlns="http://www.w3.org/2000/svg">
<path d="M14.6668 8.00004H12.0002M4.00016 8.00004H1.3335M8.00016 4.00004V1.33337M8.00016 14.6667V12M13.3335 8.00004C13.3335 10.9456 10.9457 13.3334 8.00016 13.3334C5.05464 13.3334 2.66683 10.9456 2.66683 8.00004C2.66683 5.05452 5.05464 2.66671 8.00016 2.66671C10.9457 2.66671 13.3335 5.05452 13.3335 8.00004ZM10.0002 8.00004C10.0002 9.10461 9.10473 10 8.00016 10C6.89559 10 6.00016 9.10461 6.00016 8.00004C6.00016 6.89547 6.89559 6.00004 8.00016 6.00004C9.10473 6.00004 10.0002 6.89547 10.0002 8.00004Z" stroke="#383E40" stroke-width="1.5" stroke-linecap="round" stroke-linejoin="round"/>
</svg>
