<svg width="16" height="16" viewBox="0 0 16 16" fill="none" xmlns="http://www.w3.org/2000/svg">
<path d="M8.66634 4.66667H3.46634C2.7196 4.66667 2.34624 4.66667 2.06102 4.81199C1.81014 4.93982 1.60616 5.1438 1.47833 5.39468C1.33301 5.67989 1.33301 6.05326 1.33301 6.8V9.2C1.33301 9.94674 1.33301 10.3201 1.47833 10.6053C1.60616 10.8562 1.81014 11.0602 2.06102 11.188C2.34624 11.3333 2.7196 11.3333 3.46634 11.3333H8.66634M11.333 4.66667H12.533C13.2797 4.66667 13.6531 4.66667 13.9383 4.81199C14.1892 4.93982 14.3932 5.1438 14.521 5.39468C14.6663 5.67989 14.6663 6.05326 14.6663 6.8V9.2C14.6663 9.94674 14.6663 10.3201 14.521 10.6053C14.3932 10.8562 14.1892 11.0602 13.9383 11.188C13.6531 11.3333 13.2797 11.3333 12.533 11.3333H11.333M11.333 14L11.333 2M12.9997 2.00001L9.66634 2M12.9997 14L9.66634 14" stroke="#383E40" stroke-width="1.5" stroke-linecap="round" stroke-linejoin="round"/>
</svg>
