<svg width="16" height="16" viewBox="0 0 16 16" fill="none" xmlns="http://www.w3.org/2000/svg">
<path d="M1.33325 8.00016H7.99992M5.99992 2.66683V13.3335M1.99992 6.00016L3.99992 8.00016L1.99992 10.0002M7.99992 4.00016L5.99992 6.00016L3.99992 4.00016M3.99992 12.0002L5.99992 10.0002L6.99992 11.0002M13.3333 9.69025V2.66683C13.3333 1.93045 12.7363 1.3335 11.9999 1.3335C11.2635 1.3335 10.6666 1.93045 10.6666 2.66683V9.69025C9.86952 10.1513 9.33325 11.0131 9.33325 12.0002C9.33325 13.4729 10.5272 14.6668 11.9999 14.6668C13.4727 14.6668 14.6666 13.4729 14.6666 12.0002C14.6666 11.0131 14.1303 10.1513 13.3333 9.69025Z" stroke="#383E40" stroke-width="1.5" stroke-linecap="round" stroke-linejoin="round"/>
</svg>
