<svg width="16" height="16" viewBox="0 0 16 16" fill="none" xmlns="http://www.w3.org/2000/svg">
<path d="M10.4207 5.08762C10.1567 4.82361 10.0247 4.6916 9.97526 4.53939C9.93176 4.40549 9.93176 4.26126 9.97526 4.12736C10.0247 3.97514 10.1567 3.84314 10.4207 3.57913L12.313 1.68688C11.8108 1.45979 11.2534 1.33337 10.6665 1.33337C8.45735 1.33337 6.66649 3.12424 6.66649 5.33337C6.66649 5.66073 6.70582 5.97891 6.78 6.28343C6.85944 6.60953 6.89916 6.77259 6.89211 6.87559C6.88473 6.98343 6.86865 7.04081 6.81891 7.13678C6.77141 7.22846 6.6804 7.31947 6.49837 7.5015L2.33316 11.6667C1.78087 12.219 1.78087 13.1144 2.33316 13.6667C2.88544 14.219 3.78087 14.219 4.33316 13.6667L8.49837 9.5015C8.6804 9.31947 8.77141 9.22846 8.86308 9.18095C8.95906 9.13122 9.01643 9.11514 9.12427 9.10776C9.22728 9.10071 9.39033 9.14043 9.71643 9.21987C10.021 9.29405 10.3391 9.33337 10.6665 9.33337C12.8756 9.33337 14.6665 7.54251 14.6665 5.33337C14.6665 4.74644 14.5401 4.18902 14.313 3.68688L12.4207 5.57913C12.1567 5.84314 12.0247 5.97514 11.8725 6.0246C11.7386 6.06811 11.5944 6.06811 11.4605 6.0246C11.3083 5.97514 11.1763 5.84314 10.9122 5.57913L10.4207 5.08762Z" stroke="#383E40" stroke-width="1.5" stroke-linecap="round" stroke-linejoin="round"/>
</svg>
