<svg width="16" height="16" viewBox="0 0 16 16" fill="none" xmlns="http://www.w3.org/2000/svg">
<path d="M6.33317 14.6668H9.6665M5.33317 1.3335H10.6665M7.99984 3.3335V1.3335M2.6665 8.00016H13.3332M11.3332 12.6668L12.3332 14.6668M4.6665 12.6668L3.6665 14.6668M5.6665 10.3335H5.67317M10.3332 10.3335H10.3398M5.8665 12.6668H10.1332C11.2533 12.6668 11.8133 12.6668 12.2412 12.4488C12.6175 12.2571 12.9234 11.9511 13.1152 11.5748C13.3332 11.147 13.3332 10.5869 13.3332 9.46683V6.5335C13.3332 5.41339 13.3332 4.85334 13.1152 4.42552C12.9234 4.04919 12.6175 3.74323 12.2412 3.55148C11.8133 3.3335 11.2533 3.3335 10.1332 3.3335H5.8665C4.7464 3.3335 4.18635 3.3335 3.75852 3.55148C3.3822 3.74323 3.07624 4.04919 2.88449 4.42552C2.6665 4.85334 2.6665 5.41339 2.6665 6.5335V9.46683C2.6665 10.5869 2.6665 11.147 2.88449 11.5748C3.07624 11.9511 3.3822 12.2571 3.75852 12.4488C4.18635 12.6668 4.7464 12.6668 5.8665 12.6668ZM5.99984 10.3335C5.99984 10.5176 5.8506 10.6668 5.6665 10.6668C5.48241 10.6668 5.33317 10.5176 5.33317 10.3335C5.33317 10.1494 5.48241 10.0002 5.6665 10.0002C5.8506 10.0002 5.99984 10.1494 5.99984 10.3335ZM10.6665 10.3335C10.6665 10.5176 10.5173 10.6668 10.3332 10.6668C10.1491 10.6668 9.99984 10.5176 9.99984 10.3335C9.99984 10.1494 10.1491 10.0002 10.3332 10.0002C10.5173 10.0002 10.6665 10.1494 10.6665 10.3335Z" stroke="#383E40" stroke-width="1.5" stroke-linecap="round" stroke-linejoin="round"/>
</svg>
