<svg width="16" height="16" viewBox="0 0 16 16" fill="none" xmlns="http://www.w3.org/2000/svg">
<path d="M6.33335 14.6668H9.66669M5.33335 1.3335H10.6667M8.00002 3.3335V1.3335M2.66669 8.00016H13.3334M11.3334 12.6668L12.3334 14.6668M4.66669 12.6668L3.66669 14.6668M5.66669 10.3335H5.67335M10.3334 10.3335H10.34M5.86669 12.6668H10.1334C11.2535 12.6668 11.8135 12.6668 12.2413 12.4488C12.6177 12.2571 12.9236 11.9511 13.1154 11.5748C13.3334 11.147 13.3334 10.5869 13.3334 9.46683V6.5335C13.3334 5.41339 13.3334 4.85334 13.1154 4.42552C12.9236 4.04919 12.6177 3.74323 12.2413 3.55148C11.8135 3.3335 11.2535 3.3335 10.1334 3.3335H5.86669C4.74658 3.3335 4.18653 3.3335 3.75871 3.55148C3.38238 3.74323 3.07642 4.04919 2.88467 4.42552C2.66669 4.85334 2.66669 5.41339 2.66669 6.5335V9.46683C2.66669 10.5869 2.66669 11.147 2.88467 11.5748C3.07642 11.9511 3.38238 12.2571 3.75871 12.4488C4.18653 12.6668 4.74658 12.6668 5.86669 12.6668ZM6.00002 10.3335C6.00002 10.5176 5.85078 10.6668 5.66669 10.6668C5.48259 10.6668 5.33335 10.5176 5.33335 10.3335C5.33335 10.1494 5.48259 10.0002 5.66669 10.0002C5.85078 10.0002 6.00002 10.1494 6.00002 10.3335ZM10.6667 10.3335C10.6667 10.5176 10.5174 10.6668 10.3334 10.6668C10.1493 10.6668 10 10.5176 10 10.3335C10 10.1494 10.1493 10.0002 10.3334 10.0002C10.5174 10.0002 10.6667 10.1494 10.6667 10.3335Z" stroke="#383E40" stroke-width="1.5" stroke-linecap="round" stroke-linejoin="round"/>
</svg>
