<svg width="16" height="16" viewBox="0 0 16 16" fill="none" xmlns="http://www.w3.org/2000/svg">
<path d="M1.59338 12.0655L7.07663 2.59439C7.37968 2.07095 7.5312 1.80923 7.72889 1.72132C7.90133 1.64465 8.09818 1.64465 8.27062 1.72132C8.46831 1.80923 8.61983 2.07095 8.92288 2.59439L14.4061 12.0655C14.7103 12.5908 14.8623 12.8535 14.8399 13.069C14.8203 13.2571 14.7217 13.4279 14.5688 13.5391C14.3935 13.6666 14.09 13.6666 13.483 13.6666H2.5165C1.90948 13.6666 1.60597 13.6666 1.43067 13.5391C1.27776 13.4279 1.17925 13.2571 1.15965 13.069C1.13717 12.8535 1.28924 12.5908 1.59338 12.0655Z" stroke="#383E40" stroke-width="1.5" stroke-linecap="round" stroke-linejoin="round"/>
</svg>
