<svg width="16" height="16" viewBox="0 0 16 16" fill="none" xmlns="http://www.w3.org/2000/svg">
<path d="M9.3335 4.6665H10.8917C11.0547 4.6665 11.1363 4.6665 11.213 4.68492C11.281 4.70126 11.346 4.72819 11.4057 4.76474C11.473 4.80597 11.5306 4.86362 11.6459 4.97892L14.3544 7.68742C14.4697 7.80272 14.5274 7.86037 14.5686 7.92765C14.6051 7.9873 14.6321 8.05232 14.6484 8.12035C14.6668 8.19707 14.6668 8.2786 14.6668 8.44166V10.3332C14.6668 10.6438 14.6668 10.7991 14.6161 10.9216C14.5484 11.085 14.4186 11.2148 14.2553 11.2824C14.1328 11.3332 13.9775 11.3332 13.6668 11.3332M10.3335 11.3332H9.3335M9.3335 11.3332V4.79984C9.3335 4.0531 9.3335 3.67973 9.18817 3.39452C9.06034 3.14363 8.85637 2.93966 8.60548 2.81183C8.32027 2.6665 7.9469 2.6665 7.20016 2.6665H3.46683C2.72009 2.6665 2.34672 2.6665 2.06151 2.81183C1.81063 2.93966 1.60665 3.14363 1.47882 3.39452C1.3335 3.67973 1.3335 4.0531 1.3335 4.79984V9.99984C1.3335 10.7362 1.93045 11.3332 2.66683 11.3332M9.3335 11.3332H6.66683M6.66683 11.3332C6.66683 12.4377 5.7714 13.3332 4.66683 13.3332C3.56226 13.3332 2.66683 12.4377 2.66683 11.3332M6.66683 11.3332C6.66683 10.2286 5.7714 9.33317 4.66683 9.33317C3.56226 9.33317 2.66683 10.2286 2.66683 11.3332M13.6668 11.6665C13.6668 12.587 12.9206 13.3332 12.0002 13.3332C11.0797 13.3332 10.3335 12.587 10.3335 11.6665C10.3335 10.746 11.0797 9.99984 12.0002 9.99984C12.9206 9.99984 13.6668 10.746 13.6668 11.6665Z" stroke="#383E40" stroke-width="1.5" stroke-linecap="round" stroke-linejoin="round"/>
</svg>
