<svg width="16" height="16" viewBox="0 0 16 16" fill="none" xmlns="http://www.w3.org/2000/svg">
<path d="M11.9999 11.3333V12.9333C11.9999 13.3067 11.9999 13.4934 11.9273 13.636C11.8633 13.7614 11.7614 13.8634 11.6359 13.9273C11.4933 14 11.3066 14 10.9333 14H5.06659C4.69322 14 4.50653 14 4.36393 13.9273C4.23848 13.8634 4.1365 13.7614 4.07258 13.636C3.99992 13.4934 3.99992 13.3067 3.99992 12.9333V11.3333M4.53325 11.3333H11.4666C12.5867 11.3333 13.1467 11.3333 13.5746 11.1153C13.9509 10.9236 14.2569 10.6176 14.4486 10.2413C14.6666 9.81349 14.6666 9.25344 14.6666 8.13333V5.2C14.6666 4.0799 14.6666 3.51984 14.4486 3.09202C14.2569 2.71569 13.9509 2.40973 13.5746 2.21799C13.1467 2 12.5867 2 11.4666 2H4.53325C3.41315 2 2.85309 2 2.42527 2.21799C2.04895 2.40973 1.74299 2.71569 1.55124 3.09202C1.33325 3.51984 1.33325 4.0799 1.33325 5.2V8.13333C1.33325 9.25344 1.33325 9.81349 1.55124 10.2413C1.74299 10.6176 2.04895 10.9236 2.42527 11.1153C2.85309 11.3333 3.41315 11.3333 4.53325 11.3333Z" stroke="#383E40" stroke-width="1.5" stroke-linecap="round" stroke-linejoin="round"/>
</svg>
