<svg width="16" height="16" viewBox="0 0 16 16" fill="none" xmlns="http://www.w3.org/2000/svg">
<path d="M10.6667 4.66663H14.6667M10.6667 14V13.2C10.6667 12.0799 10.6667 11.5198 10.4487 11.092C10.257 10.7157 9.95101 10.4097 9.57469 10.2179C9.14687 9.99996 8.58681 9.99996 7.46671 9.99996H4.53337C3.41327 9.99996 2.85322 9.99996 2.42539 10.2179C2.04907 10.4097 1.74311 10.7157 1.55136 11.092C1.33337 11.5198 1.33337 12.0799 1.33337 13.2V14M8.33337 4.99996C8.33337 6.28862 7.28871 7.33329 6.00004 7.33329C4.71138 7.33329 3.66671 6.28862 3.66671 4.99996C3.66671 3.71129 4.71138 2.66663 6.00004 2.66663C7.28871 2.66663 8.33337 3.71129 8.33337 4.99996Z" stroke="#383E40" stroke-width="1.5" stroke-linecap="round" stroke-linejoin="round"/>
</svg>
