<svg width="16" height="16" viewBox="0 0 16 16" fill="none" xmlns="http://www.w3.org/2000/svg">
<path d="M10.6667 4L12.6667 2M12.6667 2L14.6667 4M12.6667 2V6M10.6667 14V13.2C10.6667 12.0799 10.6667 11.5198 10.4487 11.092C10.257 10.7157 9.95101 10.4097 9.57469 10.218C9.14687 10 8.58681 10 7.46671 10H4.53337C3.41327 10 2.85322 10 2.42539 10.218C2.04907 10.4097 1.74311 10.7157 1.55136 11.092C1.33337 11.5198 1.33337 12.0799 1.33337 13.2V14M8.33337 5C8.33337 6.28866 7.28871 7.33333 6.00004 7.33333C4.71138 7.33333 3.66671 6.28866 3.66671 5C3.66671 3.71134 4.71138 2.66667 6.00004 2.66667C7.28871 2.66667 8.33337 3.71134 8.33337 5Z" stroke="#383E40" stroke-width="1.5" stroke-linecap="round" stroke-linejoin="round"/>
</svg>
