<svg width="16" height="16" viewBox="0 0 16 16" fill="none" xmlns="http://www.w3.org/2000/svg">
<path d="M6.00004 10.3333H5.00004C4.06967 10.3333 3.60448 10.3333 3.22595 10.4482C2.37368 10.7067 1.70673 11.3736 1.4482 12.2259C1.33337 12.6044 1.33337 13.0696 1.33337 14M9.66671 5C9.66671 6.65685 8.32356 8 6.66671 8C5.00985 8 3.66671 6.65685 3.66671 5C3.66671 3.34315 5.00985 2 6.66671 2C8.32356 2 9.66671 3.34315 9.66671 5ZM7.33337 14L9.40094 13.4093C9.49995 13.381 9.54946 13.3668 9.59563 13.3456C9.63663 13.3268 9.67561 13.3039 9.71198 13.2772C9.75293 13.2471 9.78934 13.2107 9.86215 13.1379L14.1667 8.83336C14.627 8.37311 14.627 7.62689 14.1667 7.16665C13.7065 6.70642 12.9603 6.70642 12.5001 7.16666L8.19549 11.4712C8.12267 11.544 8.08627 11.5804 8.0562 11.6214C8.0295 11.6578 8.00657 11.6967 7.98774 11.7377C7.96654 11.7839 7.9524 11.8334 7.92411 11.9324L7.33337 14Z" stroke="#383E40" stroke-width="1.5" stroke-linecap="round" stroke-linejoin="round"/>
</svg>
