<svg width="16" height="16" viewBox="0 0 16 16" fill="none" xmlns="http://www.w3.org/2000/svg">
<path d="M2.66672 14.545C3.06844 14.6667 3.61103 14.6667 4.53337 14.6667H11.4667C12.389 14.6667 12.9316 14.6667 13.3334 14.545M2.66672 14.545C2.58059 14.5189 2.50093 14.4872 2.42539 14.4487C2.04907 14.257 1.74311 13.951 1.55136 13.5747C1.33337 13.1469 1.33337 12.5868 1.33337 11.4667V4.53337C1.33337 3.41327 1.33337 2.85322 1.55136 2.42539C1.74311 2.04907 2.04907 1.74311 2.42539 1.55136C2.85322 1.33337 3.41327 1.33337 4.53337 1.33337H11.4667C12.5868 1.33337 13.1469 1.33337 13.5747 1.55136C13.951 1.74311 14.257 2.04907 14.4487 2.42539C14.6667 2.85322 14.6667 3.41327 14.6667 4.53337V11.4667C14.6667 12.5868 14.6667 13.1469 14.4487 13.5747C14.257 13.951 13.951 14.257 13.5747 14.4487C13.4992 14.4872 13.4195 14.5189 13.3334 14.545M2.66672 14.545C2.66694 14.0054 2.67018 13.7199 2.71795 13.4798C2.92836 12.422 3.75529 11.595 4.81313 11.3846C5.07073 11.3334 5.3805 11.3334 6.00004 11.3334H10C10.6196 11.3334 10.9294 11.3334 11.1869 11.3846C12.2448 11.595 13.0717 12.422 13.2821 13.4798C13.3299 13.7199 13.3331 14.0054 13.3334 14.545M10.6667 6.33337C10.6667 7.80613 9.4728 9.00004 8.00004 9.00004C6.52728 9.00004 5.33337 7.80613 5.33337 6.33337C5.33337 4.86061 6.52728 3.66671 8.00004 3.66671C9.4728 3.66671 10.6667 4.86061 10.6667 6.33337Z" stroke="#383E40" stroke-width="1.5" stroke-linecap="round" stroke-linejoin="round"/>
</svg>
