<svg width="16" height="16" viewBox="0 0 16 16" fill="none" xmlns="http://www.w3.org/2000/svg">
<path d="M10.6668 14V13.2C10.6668 12.0799 10.6668 11.5198 10.4488 11.092C10.2571 10.7157 9.95113 10.4097 9.57481 10.2179C9.14699 9.99996 8.58693 9.99996 7.46683 9.99996H4.5335C3.41339 9.99996 2.85334 9.99996 2.42552 10.2179C2.04919 10.4097 1.74323 10.7157 1.55148 11.092C1.3335 11.5198 1.3335 12.0799 1.3335 13.2V14M10.6668 3.99996L12.0002 5.33329L14.6668 2.66663M8.3335 4.99996C8.3335 6.28862 7.28883 7.33329 6.00016 7.33329C4.7115 7.33329 3.66683 6.28862 3.66683 4.99996C3.66683 3.71129 4.7115 2.66663 6.00016 2.66663C7.28883 2.66663 8.3335 3.71129 8.3335 4.99996Z" stroke="#383E40" stroke-width="1.5" stroke-linecap="round" stroke-linejoin="round"/>
</svg>
