<svg width="24" height="24" viewBox="0 0 24 24" fill="none" xmlns="http://www.w3.org/2000/svg">
<path d="M13.7569 4.92857C14.1302 4.51155 14.3571 3.96085 14.3571 3.35714C14.3571 2.05533 13.3018 1 12 1C10.6982 1 9.64286 2.05533 9.64286 3.35714C9.64286 3.96085 9.86981 4.51155 10.2431 4.92857M13.7569 4.92857C13.3253 5.4108 12.6981 5.71429 12 5.71429C11.3019 5.71429 10.6747 5.4108 10.2431 4.92857M13.7569 4.92857L18.8859 10.4286M18.8859 10.4286C18.5127 10.8456 18.2857 11.3963 18.2857 12C18.2857 12.6037 18.5127 13.1544 18.8859 13.5714M18.8859 10.4286C19.3175 9.94634 19.9447 9.64286 20.6429 9.64286C21.9447 9.64286 23 10.6982 23 12C23 13.3018 21.9447 14.3571 20.6429 14.3571C19.9447 14.3571 19.3175 14.0537 18.8859 13.5714M18.8859 13.5714L13.7569 19.0714M13.7569 19.0714C13.3253 18.5892 12.6981 18.2857 12 18.2857C11.3019 18.2857 10.6747 18.5892 10.2431 19.0714M13.7569 19.0714C14.1302 19.4885 14.3571 20.0391 14.3571 20.6429C14.3571 21.9447 13.3018 23 12 23C10.6982 23 9.64286 21.9447 9.64286 20.6429C9.64286 20.0391 9.86981 19.4885 10.2431 19.0714M10.2431 19.0714L4.92857 13.7569M4.92857 13.7569C5.4108 13.3253 5.71429 12.6981 5.71429 12C5.71429 11.3019 5.4108 10.6747 4.92857 10.2431M4.92857 13.7569C4.51155 14.1302 3.96085 14.3571 3.35714 14.3571C2.05533 14.3571 1 13.3018 1 12C1 10.6982 2.05533 9.64286 3.35714 9.64286C3.96085 9.64286 4.51155 9.86981 4.92857 10.2431M4.92857 10.2431L10.2431 4.92857" stroke="currentColor" stroke-linecap="round" stroke-linejoin="round"/>
</svg>
