<svg width="16" height="16" viewBox="0 0 16 16" fill="none" xmlns="http://www.w3.org/2000/svg">
<path d="M3.33325 3.33325C2.22868 3.33325 1.33325 4.22868 1.33325 5.33325V10.6666C1.33325 11.7712 2.22868 12.6666 3.33325 12.6666H9.33325C10.235 12.6666 10.9974 12.0698 11.2469 11.2496M11.3333 7.99992L13.7561 5.57704C14.0417 5.29146 14.1845 5.14867 14.3071 5.13902C14.4135 5.13065 14.5174 5.1737 14.5867 5.25484C14.6666 5.34835 14.6666 5.55029 14.6666 5.95417V10.0457C14.6666 10.4495 14.6666 10.6515 14.5867 10.745C14.5174 10.8261 14.4135 10.8692 14.3071 10.8608C14.1845 10.8512 14.0417 10.7084 13.7561 10.4228L11.3333 7.99992ZM11.3333 7.99992V6.53325C11.3333 5.41315 11.3333 4.85309 11.1153 4.42527C10.9235 4.04895 10.6176 3.74299 10.2412 3.55124C9.81341 3.33325 9.25336 3.33325 8.13325 3.33325H6.33325M1.33325 1.33325L14.6666 14.6666" stroke="#383E40" stroke-width="1.5" stroke-linecap="round" stroke-linejoin="round"/>
</svg>
