<svg width="16" height="16" viewBox="0 0 16 16" fill="none" xmlns="http://www.w3.org/2000/svg">
<path d="M14.6666 5.95417C14.6666 5.55029 14.6666 5.34835 14.5867 5.25484C14.5174 5.1737 14.4135 5.13065 14.3071 5.13902C14.1845 5.14867 14.0417 5.29146 13.7561 5.57704L11.3333 7.99992L13.7561 10.4228C14.0417 10.7084 14.1845 10.8512 14.3071 10.8608C14.4135 10.8692 14.5174 10.8261 14.5867 10.745C14.6666 10.6515 14.6666 10.4495 14.6666 10.0457V5.95417Z" stroke="#383E40" stroke-width="1.5" stroke-linecap="round" stroke-linejoin="round"/>
<path d="M1.33325 6.53325C1.33325 5.41315 1.33325 4.85309 1.55124 4.42527C1.74299 4.04895 2.04895 3.74299 2.42527 3.55124C2.85309 3.33325 3.41315 3.33325 4.53325 3.33325H8.13325C9.25336 3.33325 9.81341 3.33325 10.2412 3.55124C10.6176 3.74299 10.9235 4.04895 11.1153 4.42527C11.3333 4.85309 11.3333 5.41315 11.3333 6.53325V9.46659C11.3333 10.5867 11.3333 11.1467 11.1153 11.5746C10.9235 11.9509 10.6176 12.2569 10.2412 12.4486C9.81341 12.6666 9.25336 12.6666 8.13325 12.6666H4.53325C3.41315 12.6666 2.85309 12.6666 2.42527 12.4486C2.04895 12.2569 1.74299 11.9509 1.55124 11.5746C1.33325 11.1467 1.33325 10.5867 1.33325 9.46659V6.53325Z" stroke="#383E40" stroke-width="1.5" stroke-linecap="round" stroke-linejoin="round"/>
</svg>
