<svg width="16" height="16" viewBox="0 0 16 16" fill="none" xmlns="http://www.w3.org/2000/svg">
<path d="M8.00003 1.33337V4.66671M8.00003 1.33337C7.52452 1.33337 7.06064 1.38316 6.61331 1.4778M8.00003 1.33337C8.47553 1.33337 8.93941 1.38316 9.38674 1.4778M8.00003 4.66671C6.15908 4.66671 4.66671 6.15911 4.66671 8.00006M8.00003 4.66671C9.84098 4.66671 11.3334 6.15911 11.3334 8.00006M8.00003 11.3334V14.6667M8.00003 11.3334C9.84098 11.3334 11.3334 9.841 11.3334 8.00006M8.00003 11.3334C6.15908 11.3334 4.66671 9.84101 4.66671 8.00006M8.00003 14.6667C8.47482 14.6667 8.93803 14.6171 9.38473 14.5227M8.00003 14.6667C7.52346 14.6667 7.05858 14.6167 6.61034 14.5217M3.28598 3.286L5.643 5.64302M10.357 10.3571L12.7141 12.7141M1.33337 8.00006H4.66671M1.33337 8.00006C1.33337 8.4756 1.38315 8.9395 1.4778 9.38685M1.33337 8.00006C1.33337 7.52382 1.3833 7.05922 1.47822 6.61126M11.3334 8.00006H14.6667M14.6667 8.00006C14.6667 7.52451 14.6169 7.06058 14.5223 6.61323M14.6667 8.00006C14.6667 8.47541 14.6169 8.93913 14.5224 9.38633M3.28598 12.7141L5.643 10.3571M10.357 5.64302L12.7141 3.286M11.6311 2.40809C12.414 2.9175 13.0833 3.58686 13.5926 4.36984M13.5907 11.6331C13.0813 12.4153 12.4122 13.084 11.6297 13.5929M4.36918 13.5922C3.5874 13.0835 2.91892 12.4154 2.40987 11.6339M2.40785 4.36929C2.917 3.58667 3.586 2.91759 4.36854 2.40833" stroke="#383E40" stroke-width="1.5" stroke-linecap="round" stroke-linejoin="round"/>
</svg>
