<svg width="16" height="16" viewBox="0 0 16 16" fill="none" xmlns="http://www.w3.org/2000/svg">
<path d="M8.00015 1.33325V4.66659M8.00015 1.33325C7.52464 1.33325 7.06076 1.38303 6.61344 1.47767M8.00015 1.33325C8.47565 1.33325 8.93953 1.38303 9.38686 1.47767M8.00015 4.66659C6.1592 4.66659 4.66683 6.15898 4.66683 7.99993M8.00015 4.66659C9.8411 4.66659 11.3335 6.15898 11.3335 7.99993M8.00015 11.3333V14.6666M8.00015 11.3333C9.8411 11.3333 11.3335 9.84088 11.3335 7.99993M8.00015 11.3333C6.1592 11.3333 4.66683 9.84088 4.66683 7.99993M8.00015 14.6666C8.47494 14.6666 8.93815 14.617 9.38485 14.5226M8.00015 14.6666C7.52359 14.6666 7.0587 14.6166 6.61046 14.5215M3.2861 3.28587L5.64313 5.6429M10.3572 10.3569L12.7142 12.714M1.3335 7.99993H4.66683M1.3335 7.99993C1.3335 8.47548 1.38327 8.93938 1.47792 9.38673M1.3335 7.99993C1.3335 7.52369 1.38342 7.0591 1.47834 6.61114M11.3335 7.99993H14.6668M14.6668 7.99993C14.6668 7.52439 14.617 7.06046 14.5224 6.61311M14.6668 7.99993C14.6668 8.47529 14.6171 8.93901 14.5225 9.3862M3.2861 12.714L5.64313 10.3569M10.3572 5.6429L12.7142 3.28587M11.6313 2.40797C12.4141 2.91738 13.0834 3.58674 13.5927 4.36971M13.5908 11.633C13.0815 12.4152 12.4124 13.0839 11.6298 13.5928M4.3693 13.592C3.58752 13.0834 2.91904 12.4153 2.40999 11.6338M2.40797 4.36916C2.91713 3.58655 3.58612 2.91747 4.36867 2.40821" stroke="#383E40" stroke-width="1.5" stroke-linecap="round" stroke-linejoin="round"/>
</svg>
