<svg width="16" height="16" viewBox="0 0 16 16" fill="none" xmlns="http://www.w3.org/2000/svg">
<path d="M12.1634 5.33337C12.6907 6.08925 12.9999 7.00853 12.9999 8.00003C12.9999 8.99153 12.6907 9.91081 12.1634 10.6667M8.08954 2.91049L5.97909 5.02095C5.86379 5.13625 5.80613 5.1939 5.73886 5.23513C5.67921 5.27168 5.61418 5.29861 5.54615 5.31495C5.46943 5.33337 5.3879 5.33337 5.22484 5.33337H4.06667C3.6933 5.33337 3.50661 5.33337 3.36401 5.40603C3.23856 5.46994 3.13658 5.57193 3.07266 5.69737C3 5.83998 3 6.02666 3 6.40003V9.60003C3 9.9734 3 10.1601 3.07266 10.3027C3.13658 10.4281 3.23856 10.5301 3.36401 10.594C3.50661 10.6667 3.6933 10.6667 4.06667 10.6667H5.22484C5.3879 10.6667 5.46943 10.6667 5.54615 10.6851C5.61418 10.7015 5.67921 10.7284 5.73886 10.7649C5.80613 10.8062 5.86379 10.8638 5.97909 10.9791L8.08954 13.0896C8.37513 13.3752 8.51792 13.518 8.64051 13.5276C8.74689 13.536 8.85084 13.4929 8.92014 13.4118C9 13.3183 9 13.1163 9 12.7125V3.28761C9 2.88374 9 2.6818 8.92014 2.58829C8.85084 2.50715 8.74689 2.46409 8.64051 2.47246C8.51792 2.48211 8.37513 2.62491 8.08954 2.91049Z" stroke="#383E40" stroke-width="1.5" stroke-linecap="round" stroke-linejoin="round"/>
</svg>
