<svg width="16" height="16" viewBox="0 0 16 16" fill="none" xmlns="http://www.w3.org/2000/svg">
<path d="M12.333 10.3334V5.6667M9.99967 8.00003H14.6663M6.42255 2.91049L4.31209 5.02095C4.19679 5.13625 4.13914 5.1939 4.07186 5.23513C4.01222 5.27168 3.94719 5.29861 3.87916 5.31495C3.80244 5.33337 3.72091 5.33337 3.55785 5.33337H2.39967C2.02631 5.33337 1.83962 5.33337 1.69701 5.40603C1.57157 5.46994 1.46959 5.57193 1.40567 5.69737C1.33301 5.83998 1.33301 6.02666 1.33301 6.40003V9.60003C1.33301 9.9734 1.33301 10.1601 1.40567 10.3027C1.46959 10.4281 1.57157 10.5301 1.69701 10.594C1.83962 10.6667 2.02631 10.6667 2.39967 10.6667H3.55785C3.72091 10.6667 3.80244 10.6667 3.87916 10.6851C3.94719 10.7015 4.01222 10.7284 4.07186 10.7649C4.13914 10.8062 4.19679 10.8638 4.31209 10.9791L6.42255 13.0896C6.70814 13.3752 6.85093 13.518 6.97352 13.5276C7.07989 13.536 7.18385 13.4929 7.25314 13.4118C7.33301 13.3183 7.33301 13.1163 7.33301 12.7125V3.28761C7.33301 2.88374 7.33301 2.6818 7.25314 2.58829C7.18385 2.50715 7.07989 2.46409 6.97352 2.47246C6.85093 2.48211 6.70814 2.62491 6.42255 2.91049Z" stroke="#383E40" stroke-width="1.5" stroke-linecap="round" stroke-linejoin="round"/>
</svg>
