<svg width="16" height="16" viewBox="0 0 16 16" fill="none" xmlns="http://www.w3.org/2000/svg">
<path d="M11.3332 12.3335L11.1086 13.1196C10.9501 13.6742 10.8709 13.9515 10.7091 14.1573C10.5664 14.339 10.3788 14.4805 10.1649 14.5678C9.92256 14.6668 9.63415 14.6668 9.05733 14.6668H6.94235C6.36553 14.6668 6.07712 14.6668 5.83476 14.5678C5.62085 14.4805 5.43332 14.339 5.29055 14.1573C5.12879 13.9515 5.04956 13.6742 4.8911 13.1196L4.6665 12.3335M11.3332 3.66683L11.1086 2.88076C10.9501 2.32614 10.8709 2.04882 10.7091 1.84298C10.5664 1.6613 10.3788 1.51985 10.1649 1.43248C9.92256 1.3335 9.63415 1.3335 9.05733 1.3335H6.94235C6.36553 1.3335 6.07712 1.3335 5.83476 1.43248C5.62085 1.51985 5.43332 1.6613 5.29055 1.84298C5.12879 2.04882 5.04956 2.32613 4.8911 2.88076L4.6665 3.66683M7.99984 6.00016V8.00016L8.99984 9.00016M5.79984 12.3335H10.1998C10.9466 12.3335 11.3199 12.3335 11.6052 12.1882C11.856 12.0603 12.06 11.8564 12.1878 11.6055C12.3332 11.3203 12.3332 10.9469 12.3332 10.2002V5.80016C12.3332 5.05343 12.3332 4.68006 12.1878 4.39484C12.06 4.14396 11.856 3.93999 11.6052 3.81215C11.3199 3.66683 10.9466 3.66683 10.1998 3.66683H5.79984C5.0531 3.66683 4.67973 3.66683 4.39452 3.81215C4.14363 3.93999 3.93966 4.14396 3.81183 4.39484C3.6665 4.68006 3.6665 5.05343 3.6665 5.80016V10.2002C3.6665 10.9469 3.6665 11.3203 3.81183 11.6055C3.93966 11.8564 4.14363 12.0603 4.39452 12.1882C4.67973 12.3335 5.0531 12.3335 5.79984 12.3335Z" stroke="#383E40" stroke-width="1.5" stroke-linecap="round" stroke-linejoin="round"/>
</svg>
