<svg width="16" height="16" viewBox="0 0 16 16" fill="none" xmlns="http://www.w3.org/2000/svg">
<path d="M11.3334 12.3335L11.1088 13.1196C10.9504 13.6742 10.8711 13.9515 10.7094 14.1573C10.5666 14.339 10.3791 14.4805 10.1652 14.5678C9.9228 14.6668 9.63439 14.6668 9.05757 14.6668H6.94259C6.36577 14.6668 6.07736 14.6668 5.83501 14.5678C5.6211 14.4805 5.43356 14.339 5.29079 14.1573C5.12904 13.9515 5.0498 13.6742 4.89134 13.1196L4.66675 12.3335M11.3334 3.66683L11.1088 2.88076C10.9504 2.32614 10.8711 2.04882 10.7094 1.84298C10.5666 1.6613 10.3791 1.51985 10.1652 1.43248C9.9228 1.3335 9.63439 1.3335 9.05757 1.3335H6.94259C6.36577 1.3335 6.07736 1.3335 5.83501 1.43248C5.6211 1.51985 5.43356 1.6613 5.29079 1.84298C5.12904 2.04882 5.0498 2.32613 4.89134 2.88076L4.66675 3.66683M8.00008 6.00016V8.00016L9.00008 9.00016M5.80008 12.3335H10.2001C10.9468 12.3335 11.3202 12.3335 11.6054 12.1882C11.8563 12.0603 12.0603 11.8564 12.1881 11.6055C12.3334 11.3203 12.3334 10.9469 12.3334 10.2002V5.80016C12.3334 5.05343 12.3334 4.68006 12.1881 4.39484C12.0603 4.14396 11.8563 3.93999 11.6054 3.81215C11.3202 3.66683 10.9468 3.66683 10.2001 3.66683H5.80008C5.05334 3.66683 4.67998 3.66683 4.39476 3.81215C4.14388 3.93999 3.9399 4.14396 3.81207 4.39484C3.66675 4.68006 3.66675 5.05343 3.66675 5.80016V10.2002C3.66675 10.9469 3.66675 11.3203 3.81207 11.6055C3.9399 11.8564 4.14388 12.0603 4.39476 12.1882C4.67998 12.3335 5.05334 12.3335 5.80008 12.3335Z" stroke="#383E40" stroke-width="1.5" stroke-linecap="round" stroke-linejoin="round"/>
</svg>
