<svg width="16" height="16" viewBox="0 0 16 16" fill="none" xmlns="http://www.w3.org/2000/svg">
<path d="M8.00033 11.9999C10.9458 11.9999 13.3337 9.6121 13.3337 6.66659C13.3337 3.72107 10.9458 1.33325 8.00033 1.33325C5.05481 1.33325 2.66699 3.72107 2.66699 6.66659C2.66699 9.6121 5.05481 11.9999 8.00033 11.9999ZM8.00033 11.9999V14.6666M8.00033 14.6666H4.66699M8.00033 14.6666H11.3337M10.0003 6.66659C10.0003 7.77115 9.10489 8.66659 8.00033 8.66659C6.89576 8.66659 6.00033 7.77115 6.00033 6.66659C6.00033 5.56202 6.89576 4.66659 8.00033 4.66659C9.10489 4.66659 10.0003 5.56202 10.0003 6.66659Z" stroke="#383E40" stroke-width="1.5" stroke-linecap="round" stroke-linejoin="round"/>
</svg>
