<svg width="16" height="16" viewBox="0 0 16 16" fill="none" xmlns="http://www.w3.org/2000/svg">
<path d="M8.00008 11.9999C10.9456 11.9999 13.3334 9.6121 13.3334 6.66659C13.3334 3.72107 10.9456 1.33325 8.00008 1.33325C5.05456 1.33325 2.66675 3.72107 2.66675 6.66659C2.66675 9.6121 5.05456 11.9999 8.00008 11.9999ZM8.00008 11.9999V14.6666M8.00008 14.6666H4.66675M8.00008 14.6666H11.3334M10.0001 6.66659C10.0001 7.77115 9.10465 8.66659 8.00008 8.66659C6.89551 8.66659 6.00008 7.77115 6.00008 6.66659C6.00008 5.56202 6.89551 4.66659 8.00008 4.66659C9.10465 4.66659 10.0001 5.56202 10.0001 6.66659Z" stroke="#383E40" stroke-width="1.5" stroke-linecap="round" stroke-linejoin="round"/>
</svg>
