<svg width="16" height="16" viewBox="0 0 16 16" fill="none" xmlns="http://www.w3.org/2000/svg">
<path d="M10.2083 6.66668C11.1205 6.95089 11.9752 7.41274 12.7203 8.03334M15.0536 5.66665C13.1053 3.94929 10.5974 3.00175 8.00027 3.00175C7.59693 3.00175 7.19575 3.0246 6.79847 3.06964M5.68685 10.4067C6.36365 9.92585 7.1733 9.66752 8.00352 9.66752C8.83373 9.66752 9.64338 9.92585 10.3202 10.4067M8.00033 13H8.00699M0.795898 5.80051C1.68497 4.9858 2.71259 4.31983 3.83933 3.84204M3.15495 8.16198C4.08655 7.34132 5.22814 6.75344 6.48876 6.48929M10.4659 10.5167C9.78647 9.98418 8.93044 9.66667 8.00025 9.66667C7.05599 9.66667 6.18814 9.99386 5.50391 10.5411M2.00033 2L14.0003 14" stroke="#383E40" stroke-width="1.5" stroke-linecap="round" stroke-linejoin="round"/>
</svg>
