<svg width="16" height="16" viewBox="0 0 16 16" fill="none" xmlns="http://www.w3.org/2000/svg">
<path d="M14.3872 4.79984C14.3152 4.51223 14.1686 4.2487 13.9622 4.03589C13.7558 3.82307 13.4968 3.6685 13.2115 3.58778C12.1692 3.33325 7.99967 3.33325 7.99967 3.33325C7.99967 3.33325 3.83019 3.33325 2.78782 3.61203C2.50253 3.69274 2.2436 3.84731 2.03716 4.06013C1.83073 4.27294 1.68412 4.53647 1.61213 4.82408C1.42136 5.88194 1.32804 6.95507 1.33335 8.02998C1.32655 9.11298 1.41988 10.1943 1.61213 11.2601C1.69149 11.5388 1.84139 11.7923 2.04734 11.9961C2.2533 12.2 2.50834 12.3472 2.78782 12.4237C3.83019 12.7025 7.99967 12.7025 7.99967 12.7025C7.99967 12.7025 12.1692 12.7025 13.2115 12.4237C13.4968 12.343 13.7558 12.1884 13.9622 11.9756C14.1686 11.7628 14.3152 11.4992 14.3872 11.2116C14.5765 10.1617 14.6698 9.09679 14.666 8.02998C14.6728 6.94698 14.5795 5.86566 14.3872 4.79984Z" stroke="#383E40" stroke-width="1.5" stroke-linecap="round" stroke-linejoin="round"/>
<path d="M6.49967 6.31014C6.49967 5.99195 6.49967 5.83286 6.56617 5.74404C6.62412 5.66664 6.71282 5.61821 6.80926 5.61132C6.91993 5.60342 7.05376 5.68945 7.32141 5.86151L9.94996 7.55129C10.1822 7.7006 10.2983 7.77525 10.3385 7.87018C10.3735 7.95312 10.3735 8.04672 10.3385 8.12966C10.2983 8.22459 10.1822 8.29924 9.94996 8.44855L7.32141 10.1383C7.05376 10.3104 6.91993 10.3964 6.80926 10.3885C6.71282 10.3816 6.62412 10.3332 6.56617 10.2558C6.49967 10.167 6.49967 10.0079 6.49967 9.6897V6.31014Z" stroke="#383E40" stroke-width="1.5" stroke-linecap="round" stroke-linejoin="round"/>
</svg>
