<svg width="16" height="16" viewBox="0 0 16 16" fill="none" xmlns="http://www.w3.org/2000/svg">
<path d="M14.3875 4.79984C14.3155 4.51223 14.1689 4.2487 13.9624 4.03589C13.756 3.82307 13.4971 3.6685 13.2118 3.58778C12.1694 3.33325 7.99992 3.33325 7.99992 3.33325C7.99992 3.33325 3.83044 3.33325 2.78807 3.61203C2.50278 3.69274 2.24384 3.84731 2.03741 4.06013C1.83098 4.27294 1.68436 4.53647 1.61237 4.82408C1.4216 5.88194 1.32829 6.95507 1.3336 8.02998C1.3268 9.11298 1.42012 10.1943 1.61237 11.2601C1.69174 11.5388 1.84164 11.7923 2.04759 11.9961C2.25354 12.2 2.50858 12.3472 2.78807 12.4237C3.83044 12.7025 7.99992 12.7025 7.99992 12.7025C7.99992 12.7025 12.1694 12.7025 13.2118 12.4237C13.4971 12.343 13.756 12.1884 13.9624 11.9756C14.1689 11.7628 14.3155 11.4992 14.3875 11.2116C14.5768 10.1617 14.6701 9.09679 14.6662 8.02998C14.673 6.94698 14.5797 5.86566 14.3875 4.79984Z" stroke="#383E40" stroke-width="1.5" stroke-linecap="round" stroke-linejoin="round"/>
<path d="M6.49992 6.31014C6.49992 5.99195 6.49992 5.83286 6.56641 5.74404C6.62436 5.66664 6.71306 5.61821 6.8095 5.61132C6.92017 5.60342 7.054 5.68945 7.32166 5.86151L9.9502 7.55129C10.1825 7.7006 10.2986 7.77525 10.3387 7.87018C10.3737 7.95312 10.3737 8.04672 10.3387 8.12966C10.2986 8.22459 10.1825 8.29924 9.9502 8.44855L7.32166 10.1383C7.054 10.3104 6.92017 10.3964 6.8095 10.3885C6.71306 10.3816 6.62436 10.3332 6.56641 10.2558C6.49992 10.167 6.49992 10.0079 6.49992 9.6897V6.31014Z" stroke="#383E40" stroke-width="1.5" stroke-linecap="round" stroke-linejoin="round"/>
</svg>
